*
G04 Mass Parameters ***
*
G04 Image ***
*
%IND:\UTENTI\00.CAD\00.PROGETTI\METALTRONICA\22-303-0 (CONTROLLO COLLIMATORE)\22-303-0.SMB*%
%ICAS*%
%MOIN*%
%IPPOS*%
%ASAXBY*%
G74*%FSLAN2X34Y34*%
*
G04 Aperture Definitions ***
*
%AMTHERMAL72*
1,1,0.1251,0,0,*
1,0,0.1012,0,0,*
21,0,0.1252,0.0100,0,0,135.0*
21,0,0.1252,0.0100,0,0,225.0*%
%AMTHERMAL77*
1,1,0.1172,0,0,*
1,0,0.0933,0,0,*
21,0,0.1173,0.0100,0,0,225.0*
21,0,0.1173,0.0100,0,0,315.0*%
%AMTHERMAL81*
1,1,0.1093,0,0,*
1,0,0.0854,0,0,*
21,0,0.1094,0.0100,0,0,225.0*
21,0,0.1094,0.0100,0,0,315.0*%
%AMTHERMAL84*
1,1,0.1172,0,0,*
1,0,0.0933,0,0,*
21,0,0.1173,0.0100,0,0,45.0*
21,0,0.1173,0.0100,0,0,135.0*%
%AMTHERMAL88*
1,1,0.1172,0,0,*
1,0,0.0933,0,0,*
21,0,0.1173,0.0100,0,0,135.0*
21,0,0.1173,0.0100,0,0,225.0*%
%ADD10C,0.0394*%
%ADD11R,0.0501X0.0404*%
%ADD12R,0.1260X0.0630*%
%ADD13R,0.0380X0.0320*%
%ADD14R,0.0710X0.0400*%
%ADD15R,0.0404X0.0501*%
%ADD16R,0.0630X0.1260*%
%ADD17R,0.0320X0.0380*%
%ADD18R,0.0400X0.0710*%
%ADD19R,0.0886X0.0905*%
%ADD20R,0.1670X0.1500*%
%ADD21R,0.1500X0.1670*%
%ADD22C,0.0787*%
%ADD23C,0.0630*%
%ADD24R,0.0630X0.0610*%
%ADD25C,0.0669*%
%ADD26R,0.0669X0.0669*%
%ADD27C,0.0590*%
%ADD28R,0.0630X0.0630*%
%ADD29R,0.0118X0.0394*%
%ADD30R,0.0650X0.0512*%
%ADD31C,0.1000*%
%ADD32R,0.0787X0.0787*%
%ADD33C,0.0187*%
%ADD34C,0.2362*%
%ADD35R,0.0866X0.0630*%
%ADD36R,0.1080X0.0850*%
%ADD37R,0.1701X0.1181*%
%ADD38R,0.0177X0.0649*%
%ADD39R,0.1181X0.1701*%
%ADD40R,0.0649X0.0177*%
%ADD41R,0.0270X0.0500*%
%ADD42R,0.0400X0.0500*%
%ADD43C,0.0800*%
%ADD44O,0.0110X0.0700*%
%ADD45R,0.0110X0.0700*%
%ADD46O,0.0700X0.0110*%
%ADD47R,0.0700X0.0110*%
%ADD48R,0.0394X0.0197*%
%ADD49C,0.0236*%
%ADD50C,0.0050*%
%ADD51C,0.0100*%
%ADD52C,0.0080*%
%ADD53C,0.0236*%
%ADD54C,0.0150*%
%ADD55C,0.0250*%
%ADD56C,0.0500*%
%ADD57C,0.0120*%
%ADD58C,0.0236*%
%ADD59R,0.1024X0.0510*%
%ADD60R,0.0197X0.0315*%
%ADD61R,0.0413X0.0236*%
%ADD62R,0.0500X0.0400*%
%ADD63O,0.0650X0.0256*%
%ADD64R,0.0236X0.0157*%
%ADD65O,0.0590X0.0118*%
%ADD66O,0.0118X0.0590*%
%ADD67R,0.1580X0.0680*%
%ADD68R,0.0550X0.0680*%
%ADD69R,0.0354X0.0512*%
%ADD70R,0.0236X0.0512*%
%ADD71C,0.0866*%
%ADD72THERMAL72*%
%ADD73C,0.0866*%
%ADD74C,0.0710*%
%ADD75R,0.0710X0.0710*%
%ADD76C,0.0787*%
%ADD77THERMAL77*%
%ADD78R,0.0787X0.0787*%
%ADD79C,0.0708*%
%ADD80R,0.0708X0.0708*%
%ADD81THERMAL81*%
%ADD82C,0.1240*%
%ADD83C,0.1027*%
%ADD84THERMAL84*%
%ADD85R,0.0984X0.0984*%
%ADD86C,0.2559*%
%ADD87C,0.1100*%
%ADD88THERMAL88*%
%ADD89C,0.1100*%
%ADD90C,0.0050*%
%ADD91C,0.0394*%
%ADD92C,0.0394*%
%ADD93C,0.0050*%
%ADD94C,0.0710*%
%ADD95R,0.0710X0.0710*%
%ADD96C,0.0787*%
%ADD97R,0.0787X0.0787*%
%ADD98C,0.0708*%
%ADD99R,0.0708X0.0708*%
%ADD100C,0.1240*%
%ADD101C,0.1027*%
%ADD102C,0.0236*%
*
G04 Plot Data ***
*
G54D51*
G01X0020820Y0005700D02*
Y0004650D01*
X0020730Y0005700D02*
Y0004650D01*
X0020640Y0005700D02*
Y0004650D01*
X0020550Y0005700D02*
Y0003150D01*
X0017760Y0006800D02*
Y0003100D01*
X0017670Y0006800D02*
Y0003100D01*
X0017580Y0006800D02*
Y0003100D01*
X0020500Y0002390D02*
X0017500D01*
X0021000Y-0001210D02*
X0017500D01*
X0020500Y-0002150D02*
X0018300D01*
X0020500Y-0001300D02*
Y-0002150D01*
X0021000Y-0001300D02*
X0020500D01*
X0021000Y0001250D02*
Y-0001300D01*
Y0001250D02*
X0020500D01*
Y0003150D02*
Y0001250D01*
X0020600Y0003150D02*
X0020500D01*
X0020600Y0004650D02*
Y0003150D01*
X0020900Y0004650D02*
X0020600D01*
X0020900Y0005700D02*
Y0004650D01*
Y0005700D02*
X0020500D01*
Y0006800D02*
Y0005700D01*
Y0006800D02*
X0017000D01*
Y0005450D01*
X0017550D02*
X0017000D01*
X0017550D02*
Y0003100D01*
X0017800D02*
X0017550D01*
X0017800D02*
Y0002500D01*
X0017500D01*
Y-0001350D01*
X0018150D02*
X0017500D01*
X0018150D02*
Y-0002150D01*
X0018300D02*
X0018150D01*
X0020900Y0005540D02*
X0017000D01*
X0020910Y0001250D02*
Y-0001300D01*
X0020820Y0001250D02*
Y-0001300D01*
X0020730Y0001250D02*
Y-0001300D01*
X0020640Y0001250D02*
Y-0001300D01*
X0020550Y0001250D02*
Y-0001300D01*
X0020460Y0006800D02*
Y-0002150D01*
X0020370Y0006800D02*
Y-0002150D01*
X0020280Y0006800D02*
Y-0002150D01*
X0020190Y0006800D02*
Y-0002150D01*
X0020100Y0006800D02*
Y-0002150D01*
X0020010Y0006800D02*
Y-0002150D01*
X0019920Y0006800D02*
Y-0002150D01*
X0019830Y0006800D02*
Y-0002150D01*
X0019740Y0006800D02*
Y-0002150D01*
X0019650Y0006800D02*
Y-0002150D01*
X0019560Y0006800D02*
Y-0002150D01*
X0019470Y0006800D02*
Y-0002150D01*
X0019380Y0006800D02*
Y-0002150D01*
X0019290Y0006800D02*
Y-0002150D01*
X0019200Y0006800D02*
Y-0002150D01*
X0019110Y0006800D02*
Y-0002150D01*
X0019020Y0006800D02*
Y-0002150D01*
X0018930Y0006800D02*
Y-0002150D01*
X0018840Y0006800D02*
Y-0002150D01*
X0018750Y0006800D02*
Y-0002150D01*
X0018660Y0006800D02*
Y-0002150D01*
X0018570Y0006800D02*
Y-0002150D01*
X0018480Y0006800D02*
Y-0002150D01*
X0018390Y0006800D02*
Y-0002150D01*
X0018300Y0006800D02*
Y-0002150D01*
X0018210Y0006800D02*
Y-0002150D01*
X0018120Y0006800D02*
Y-0001350D01*
X0018030Y0006800D02*
Y-0001350D01*
X0017940Y0006800D02*
Y-0001350D01*
X0017850Y0006800D02*
Y-0001350D01*
X0017760Y0002500D02*
Y-0001350D01*
X0017670Y0002500D02*
Y-0001350D01*
X0017580Y0002500D02*
Y-0001350D01*
X0017490Y0006800D02*
Y0005450D01*
X0017400Y0006800D02*
Y0005450D01*
X0017310Y0006800D02*
Y0005450D01*
X0017220Y0006800D02*
Y0005450D01*
X0017130Y0006800D02*
Y0005450D01*
X0020500Y-0002110D02*
X0018150D01*
X0020500Y0006710D02*
X0017000D01*
X0020500Y0006620D02*
X0017000D01*
X0020500Y0006530D02*
X0017000D01*
X0020500Y0006440D02*
X0017000D01*
X0020500Y0006350D02*
X0017000D01*
X0020500Y0006260D02*
X0017000D01*
X0020500Y0006170D02*
X0017000D01*
X0020500Y0006080D02*
X0017000D01*
X0020500Y0005990D02*
X0017000D01*
X0020500Y0005900D02*
X0017000D01*
X0020500Y0005810D02*
X0017000D01*
X0020500Y0005720D02*
X0017000D01*
X0020900Y0005630D02*
X0017000D01*
X0020900Y0005450D02*
X0017550D01*
X0020900Y0005360D02*
X0017550D01*
X0020900Y0005270D02*
X0017550D01*
X0020900Y0005180D02*
X0017550D01*
X0020900Y0005090D02*
X0017550D01*
X0020900Y0005000D02*
X0017550D01*
X0020900Y0004910D02*
X0017550D01*
X0020900Y0004820D02*
X0017550D01*
X0020900Y0004730D02*
X0017550D01*
X0020600Y0004640D02*
X0017550D01*
X0020600Y0004550D02*
X0017550D01*
X0020600Y0004460D02*
X0017550D01*
X0020600Y0004370D02*
X0017550D01*
X0020600Y0004280D02*
X0017550D01*
X0020600Y0004190D02*
X0017550D01*
X0020600Y0004100D02*
X0017550D01*
X0020600Y0004010D02*
X0017550D01*
X0020600Y0003920D02*
X0017550D01*
X0020600Y0003830D02*
X0017550D01*
X0020600Y0003740D02*
X0017550D01*
X0020600Y0003650D02*
X0017550D01*
X0020600Y0003560D02*
X0017550D01*
X0020600Y0003470D02*
X0017550D01*
X0020600Y0003380D02*
X0017550D01*
X0020600Y0003290D02*
X0017550D01*
X0020600Y0003200D02*
X0017550D01*
X0020500Y0003110D02*
X0017550D01*
X0020500Y0003020D02*
X0017800D01*
X0020500Y0002930D02*
X0017800D01*
X0020500Y0002840D02*
X0017800D01*
X0020500Y0002750D02*
X0017800D01*
X0020500Y0002660D02*
X0017800D01*
X0020500Y0002570D02*
X0017800D01*
X0020500Y0002480D02*
X0017500D01*
X0017040Y0006800D02*
Y0005450D01*
X0020500Y0002300D02*
X0017500D01*
X0020500Y0002210D02*
X0017500D01*
X0020500Y0002120D02*
X0017500D01*
X0020500Y0002030D02*
X0017500D01*
X0020500Y0001940D02*
X0017500D01*
X0020500Y0001850D02*
X0017500D01*
X0020500Y0001760D02*
X0017500D01*
X0020500Y0001670D02*
X0017500D01*
X0020500Y0001580D02*
X0017500D01*
X0020500Y0001490D02*
X0017500D01*
X0020500Y0001400D02*
X0017500D01*
X0020500Y0001310D02*
X0017500D01*
X0021000Y0001220D02*
X0017500D01*
X0021000Y0001130D02*
X0017500D01*
X0021000Y0001040D02*
X0017500D01*
X0021000Y0000950D02*
X0017500D01*
X0021000Y0000860D02*
X0017500D01*
X0021000Y0000770D02*
X0017500D01*
X0021000Y0000680D02*
X0017500D01*
X0021000Y0000590D02*
X0017500D01*
X0021000Y0000500D02*
X0017500D01*
X0021000Y0000410D02*
X0017500D01*
X0021000Y0000320D02*
X0017500D01*
X0021000Y0000230D02*
X0017500D01*
X0021000Y0000140D02*
X0017500D01*
X0021000Y0000050D02*
X0017500D01*
X0021000Y-0000040D02*
X0017500D01*
X0021000Y-0000130D02*
X0017500D01*
X0021000Y-0000220D02*
X0017500D01*
X0021000Y-0000310D02*
X0017500D01*
X0021000Y-0000400D02*
X0017500D01*
X0021000Y-0000490D02*
X0017500D01*
X0021000Y-0000580D02*
X0017500D01*
X0021000Y-0000670D02*
X0017500D01*
X0021000Y-0000760D02*
X0017500D01*
X0021000Y-0000850D02*
X0017500D01*
X0021000Y-0000940D02*
X0017500D01*
X0021000Y-0001030D02*
X0017500D01*
X0021000Y-0001120D02*
X0017500D01*
X0020500Y-0001300D02*
X0017500D01*
X0020500Y-0001390D02*
X0018150D01*
X0020500Y-0001480D02*
X0018150D01*
X0020500Y-0001570D02*
X0018150D01*
X0020500Y-0001660D02*
X0018150D01*
X0020500Y-0001750D02*
X0018150D01*
X0020500Y-0001840D02*
X0018150D01*
X0020500Y-0001930D02*
X0018150D01*
X0020500Y-0002020D02*
X0018150D01*
X0008590Y0015610D02*
X0006600D01*
X0004800D02*
X0003700D01*
X0008680Y0015520D02*
X0006600D01*
X0004800D02*
X0003700D01*
X0002850D02*
X0001550D01*
X0008770Y0015430D02*
X0006600D01*
X0004800D02*
X0003700D01*
X0002850D02*
X0001550D01*
X0008860Y0015340D02*
X0006600D01*
X0005900D02*
X0003700D01*
X0002850D02*
X0001550D01*
X0000950D02*
X-0001450D01*
X-0002800D02*
X-0003700D01*
X0008950Y0015250D02*
X0006600D01*
X0005900D02*
X0003700D01*
X0002850D02*
X0001550D01*
X0000950D02*
X-0001450D01*
X-0002800D02*
X-0003700D01*
X0008950Y0015160D02*
X0006600D01*
X0005900D02*
X0003700D01*
X0002850D02*
X0001550D01*
X0000950D02*
X-0001450D01*
X-0002800D02*
X-0003700D01*
X0008950Y0015070D02*
X0006600D01*
X0005900D02*
X0003700D01*
X0002850D02*
X0001550D01*
X0000950D02*
X-0001450D01*
X0008950Y0014980D02*
X0006600D01*
X0005900D02*
X0003700D01*
X0007550Y0012910D02*
X-0004800D01*
X0007550Y0012820D02*
X0003030D01*
X0000600D02*
X-0004800D01*
X0007550Y0012730D02*
X0003120D01*
X0000600D02*
X-0002350D01*
X0005450Y0012640D02*
X0003210D01*
X0000600D02*
X-0002350D01*
X-0000300Y0012550D02*
X-0002350D01*
X0005450Y0012460D02*
X0003390D01*
X-0000300D02*
X-0002350D01*
X0005450Y0012370D02*
X0003480D01*
X-0000300D02*
X-0002350D01*
X0005450Y0012190D02*
X0003660D01*
X0008950Y0014080D02*
X-0009050D01*
X-0001360Y0015400D02*
Y0012300D01*
X0004490Y0015700D02*
Y0012150D01*
X-0005750Y0012640D02*
X-0009050D01*
Y0013000D02*
Y0012300D01*
X-0005750D02*
X-0009050D01*
X-0005750Y0012950D02*
Y0012300D01*
X-0004800Y0012950D02*
X-0005750D01*
X-0004800D02*
Y0012800D01*
X-0002350D02*
X-0004800D01*
X-0002350D02*
Y0012300D01*
X-0000300D02*
X-0002350D01*
X-0000300Y0012550D02*
Y0012300D01*
X0000600Y0012550D02*
X-0000300D01*
X0000600Y0012900D02*
Y0012550D01*
X0002950Y0012900D02*
X0000600D01*
X0002950D02*
X0003700Y0012150D01*
X0005450D02*
X0003700D01*
X0005450Y0012650D02*
Y0012150D01*
X0007550Y0012650D02*
X0005450D01*
X0007550Y0013000D02*
Y0012650D01*
X0008950Y0013000D02*
X0007550D01*
X0008950Y0015250D02*
Y0013000D01*
X0008400Y0015800D02*
X0008950Y0015250D01*
X0008400Y0015800D02*
X0006600D01*
Y0014900D01*
X0005900D01*
Y0015350D02*
Y0014900D01*
Y0015350D02*
X0004800D01*
Y0015700D02*
Y0015350D01*
Y0015700D02*
X0003700D01*
Y0014950D01*
X0002850D01*
Y0015700D02*
Y0014950D01*
Y0015700D02*
X0001550D01*
Y0014900D01*
X0000950D01*
Y0015400D02*
Y0014900D01*
Y0015400D02*
X-0001450D01*
Y0014950D01*
X-0002800D01*
Y0015550D02*
Y0014950D01*
Y0015550D02*
X-0003700D01*
Y0015150D01*
X-0004650D01*
Y0015400D02*
Y0015150D01*
Y0015400D02*
X-0007050D01*
Y0015050D01*
X-0009050D01*
Y0013000D01*
X0007550Y0015800D02*
Y0013000D01*
X0008900Y0015300D02*
Y0013000D01*
X0008810Y0015390D02*
Y0013000D01*
X0008720Y0015480D02*
Y0013000D01*
X0008630Y0015570D02*
Y0013000D01*
X0008540Y0015660D02*
Y0013000D01*
X0008450Y0015750D02*
Y0013000D01*
X0008360Y0015800D02*
Y0013000D01*
X0008270Y0015800D02*
Y0013000D01*
X0008180Y0015800D02*
Y0013000D01*
X0008090Y0015800D02*
Y0013000D01*
X0008000Y0015800D02*
Y0013000D01*
X0007910Y0015800D02*
Y0013000D01*
X0007820Y0015800D02*
Y0013000D01*
X0007730Y0015800D02*
Y0013000D01*
X0008410Y0015790D02*
X0006600D01*
X0000950Y0014980D02*
X-0001450D01*
X0007460Y0015800D02*
Y0012650D01*
X0007370Y0015800D02*
Y0012650D01*
X0007280Y0015800D02*
Y0012650D01*
X0007190Y0015800D02*
Y0012650D01*
X0007100Y0015800D02*
Y0012650D01*
X0007010Y0015800D02*
Y0012650D01*
X0006920Y0015800D02*
Y0012650D01*
X0006830Y0015800D02*
Y0012650D01*
X0006740Y0015800D02*
Y0012650D01*
X0006650Y0015800D02*
Y0012650D01*
X0006560Y0014900D02*
Y0012650D01*
X0006470Y0014900D02*
Y0012650D01*
X0006380Y0014900D02*
Y0012650D01*
X0006290Y0014900D02*
Y0012650D01*
X0006200Y0014900D02*
Y0012650D01*
X0006110Y0014900D02*
Y0012650D01*
X0006020Y0014900D02*
Y0012650D01*
X0005930Y0014900D02*
Y0012650D01*
X0005840Y0015350D02*
Y0012650D01*
X0005750Y0015350D02*
Y0012650D01*
X0005660Y0015350D02*
Y0012650D01*
X0005570Y0015350D02*
Y0012650D01*
X0005480Y0015350D02*
Y0012650D01*
X0005390Y0015350D02*
Y0012150D01*
X0005300Y0015350D02*
Y0012150D01*
X0005210Y0015350D02*
Y0012150D01*
X0005120Y0015350D02*
Y0012150D01*
X0005030Y0015350D02*
Y0012150D01*
X0004940Y0015350D02*
Y0012150D01*
X0004850Y0015350D02*
Y0012150D01*
X0004760Y0015700D02*
Y0012150D01*
X0004670Y0015700D02*
Y0012150D01*
X0004580Y0015700D02*
Y0012150D01*
X0005450Y0012550D02*
X0003300D01*
X0004400Y0015700D02*
Y0012150D01*
X0004310Y0015700D02*
Y0012150D01*
X0004220Y0015700D02*
Y0012150D01*
X0004130Y0015700D02*
Y0012150D01*
X0004040Y0015700D02*
Y0012150D01*
X0003950Y0015700D02*
Y0012150D01*
X0003860Y0015700D02*
Y0012150D01*
X0003770Y0015700D02*
Y0012150D01*
X0003680Y0014950D02*
Y0012170D01*
X0003590Y0014950D02*
Y0012260D01*
X0003500Y0014950D02*
Y0012350D01*
X0003410Y0014950D02*
Y0012440D01*
X0003320Y0014950D02*
Y0012530D01*
X0003230Y0014950D02*
Y0012620D01*
X0003140Y0014950D02*
Y0012710D01*
X0003050Y0014950D02*
Y0012800D01*
X0002960Y0014950D02*
Y0012890D01*
X0002870Y0014950D02*
Y0012900D01*
X0002780Y0015700D02*
Y0012900D01*
X0002690Y0015700D02*
Y0012900D01*
X0002600Y0015700D02*
Y0012900D01*
X0002510Y0015700D02*
Y0012900D01*
X0002420Y0015700D02*
Y0012900D01*
X0002330Y0015700D02*
Y0012900D01*
X0002240Y0015700D02*
Y0012900D01*
X0002150Y0015700D02*
Y0012900D01*
X0002060Y0015700D02*
Y0012900D01*
X0001970Y0015700D02*
Y0012900D01*
X0001880Y0015700D02*
Y0012900D01*
X0001790Y0015700D02*
Y0012900D01*
X0001700Y0015700D02*
Y0012900D01*
X0001610Y0015700D02*
Y0012900D01*
X0001520Y0014900D02*
Y0012900D01*
X0001430Y0014900D02*
Y0012900D01*
X0001340Y0014900D02*
Y0012900D01*
X0001250Y0014900D02*
Y0012900D01*
X0001160Y0014900D02*
Y0012900D01*
X0001070Y0014900D02*
Y0012900D01*
X0000980Y0014900D02*
Y0012900D01*
X0000890Y0015400D02*
Y0012900D01*
X0000800Y0015400D02*
Y0012900D01*
X0000710Y0015400D02*
Y0012900D01*
X0000620Y0015400D02*
Y0012900D01*
X0000530Y0015400D02*
Y0012550D01*
X0000440Y0015400D02*
Y0012550D01*
X0000350Y0015400D02*
Y0012550D01*
X0000260Y0015400D02*
Y0012550D01*
X0000170Y0015400D02*
Y0012550D01*
X0000080Y0015400D02*
Y0012550D01*
X-0001450Y0014950D02*
Y0012300D01*
X-0000100Y0015400D02*
Y0012550D01*
X-0000190Y0015400D02*
Y0012550D01*
X-0000280Y0015400D02*
Y0012550D01*
X-0000370Y0015400D02*
Y0012300D01*
X-0000460Y0015400D02*
Y0012300D01*
X-0000550Y0015400D02*
Y0012300D01*
X-0000640Y0015400D02*
Y0012300D01*
X-0000730Y0015400D02*
Y0012300D01*
X-0000820Y0015400D02*
Y0012300D01*
X-0000910Y0015400D02*
Y0012300D01*
X-0001000Y0015400D02*
Y0012300D01*
X-0001090Y0015400D02*
Y0012300D01*
X-0001180Y0015400D02*
Y0012300D01*
X-0001270Y0015400D02*
Y0012300D01*
X0007640Y0015800D02*
Y0013000D01*
X-0002350Y0014950D02*
Y0012800D01*
X-0001540Y0014950D02*
Y0012300D01*
X-0001630Y0014950D02*
Y0012300D01*
X-0001720Y0014950D02*
Y0012300D01*
X-0001810Y0014950D02*
Y0012300D01*
X-0001900Y0014950D02*
Y0012300D01*
X-0001990Y0014950D02*
Y0012300D01*
X-0002080Y0014950D02*
Y0012300D01*
X-0002170Y0014950D02*
Y0012300D01*
X0008950Y0013090D02*
X-0009050D01*
X0002850Y0014980D02*
X0001550D01*
X-0002440Y0014950D02*
Y0012800D01*
X-0002530Y0014950D02*
Y0012800D01*
X-0002620Y0014950D02*
Y0012800D01*
X-0002260Y0014950D02*
Y0012300D01*
X-0002800Y0014950D02*
Y0012800D01*
X-0002890Y0015550D02*
Y0012800D01*
X-0002980Y0015550D02*
Y0012800D01*
X-0003070Y0015550D02*
Y0012800D01*
X-0003160Y0015550D02*
Y0012800D01*
X-0003250Y0015550D02*
Y0012800D01*
X-0003340Y0015550D02*
Y0012800D01*
X-0003430Y0015550D02*
Y0012800D01*
X-0003520Y0015550D02*
Y0012800D01*
X-0002710Y0014950D02*
Y0012800D01*
X-0003700Y0015150D02*
Y0012800D01*
X-0003790Y0015150D02*
Y0012800D01*
X-0003880Y0015150D02*
Y0012800D01*
X-0003970Y0015150D02*
Y0012800D01*
X-0004060Y0015150D02*
Y0012800D01*
X-0004150Y0015150D02*
Y0012800D01*
X-0004240Y0015150D02*
Y0012800D01*
X-0004330Y0015150D02*
Y0012800D01*
X-0004420Y0015150D02*
Y0012800D01*
X-0004510Y0015150D02*
Y0012800D01*
X-0004600Y0015150D02*
Y0012800D01*
X-0004690Y0015400D02*
Y0012800D01*
X-0004780Y0015400D02*
Y0012800D01*
X-0004870Y0015400D02*
Y0012950D01*
X-0004960Y0015400D02*
Y0012950D01*
X-0005050Y0015400D02*
Y0012950D01*
X-0005140Y0015400D02*
Y0012950D01*
X-0005230Y0015400D02*
Y0012950D01*
X-0005320Y0015400D02*
Y0012950D01*
X-0005410Y0015400D02*
Y0012950D01*
X-0005500Y0015400D02*
Y0012950D01*
X-0005590Y0015400D02*
Y0012950D01*
X-0005680Y0015400D02*
Y0012950D01*
X-0005770Y0015400D02*
Y0012300D01*
X-0005860Y0015400D02*
Y0012300D01*
X-0005950Y0015400D02*
Y0012300D01*
X-0006040Y0015400D02*
Y0012300D01*
X-0006130Y0015400D02*
Y0012300D01*
X-0006220Y0015400D02*
Y0012300D01*
X-0006310Y0015400D02*
Y0012300D01*
X-0006400Y0015400D02*
Y0012300D01*
X-0006490Y0015400D02*
Y0012300D01*
X-0006580Y0015400D02*
Y0012300D01*
X-0006670Y0015400D02*
Y0012300D01*
X-0006760Y0015400D02*
Y0012300D01*
X-0006850Y0015400D02*
Y0012300D01*
X-0006940Y0015400D02*
Y0012300D01*
X-0007030Y0015400D02*
Y0012300D01*
X-0007120Y0015050D02*
Y0012300D01*
X-0007210Y0015050D02*
Y0012300D01*
X-0007300Y0015050D02*
Y0012300D01*
X-0007390Y0015050D02*
Y0012300D01*
X-0007480Y0015050D02*
Y0012300D01*
X-0007570Y0015050D02*
Y0012300D01*
X-0007660Y0015050D02*
Y0012300D01*
X-0007750Y0015050D02*
Y0012300D01*
X-0007840Y0015050D02*
Y0012300D01*
X-0007930Y0015050D02*
Y0012300D01*
X-0008020Y0015050D02*
Y0012300D01*
X-0008110Y0015050D02*
Y0012300D01*
X-0008200Y0015050D02*
Y0012300D01*
X-0008290Y0015050D02*
Y0012300D01*
X-0008380Y0015050D02*
Y0012300D01*
X-0008470Y0015050D02*
Y0012300D01*
X-0008560Y0015050D02*
Y0012300D01*
X-0008650Y0015050D02*
Y0012300D01*
X-0008740Y0015050D02*
Y0012300D01*
X-0008830Y0015050D02*
Y0012300D01*
X-0008920Y0015050D02*
Y0012300D01*
X0008500Y0015700D02*
X0006600D01*
X0002850Y0015610D02*
X0001550D01*
X-0002800Y0015520D02*
X-0003700D01*
X-0002800Y0015430D02*
X-0003700D01*
X-0004650Y0015340D02*
X-0007050D01*
X-0004650Y0015250D02*
X-0007050D01*
X-0004650Y0015160D02*
X-0007050D01*
X-0002800Y0015070D02*
X-0007050D01*
X-0002800Y0014980D02*
X-0009050D01*
X0008950Y0014890D02*
X-0009050D01*
X0008950Y0014800D02*
X-0009050D01*
X0008950Y0014710D02*
X-0009050D01*
X0008950Y0014620D02*
X-0009050D01*
X0008950Y0014530D02*
X-0009050D01*
X0008950Y0014440D02*
X-0009050D01*
X0008950Y0014350D02*
X-0009050D01*
X0008950Y0014260D02*
X-0009050D01*
X0008950Y0014170D02*
X-0009050D01*
X-0000010Y0015400D02*
Y0012550D01*
X0008950Y0013990D02*
X-0009050D01*
X0008950Y0013900D02*
X-0009050D01*
X0008950Y0013810D02*
X-0009050D01*
X0008950Y0013720D02*
X-0009050D01*
X0008950Y0013630D02*
X-0009050D01*
X0008950Y0013540D02*
X-0009050D01*
X0008950Y0013450D02*
X-0009050D01*
X0008950Y0013360D02*
X-0009050D01*
X0008950Y0013270D02*
X-0009050D01*
X0008950Y0013180D02*
X-0009050D01*
X-0003610Y0015550D02*
Y0012800D01*
X0007550Y0013000D02*
X-0009050D01*
X-0005750Y0012910D02*
X-0009050D01*
X-0005750Y0012820D02*
X-0009050D01*
X-0005750Y0012730D02*
X-0009050D01*
X-0009010Y0015050D02*
Y0012300D01*
X-0005750Y0012550D02*
X-0009050D01*
X-0005750Y0012460D02*
X-0009050D01*
X-0005750Y0012370D02*
X-0009050D01*
X0005450Y0012280D02*
X0003570D01*
G54D11*
X-0007000Y0003600D03*
Y0004400D03*
X0013250Y0007900D03*
Y0007100D03*
Y0003650D03*
Y0002850D03*
X0007500Y0007400D03*
Y0006600D03*
X0001500Y0007400D03*
Y0006600D03*
X-0005250Y0006850D03*
Y0007650D03*
G54D13*
X-0022500Y0002970D03*
Y0003530D03*
X-0021750D03*
Y0002970D03*
X-0021000D03*
Y0003530D03*
X-0006000Y0005780D03*
Y0005220D03*
X-0002250Y0002220D03*
Y0002780D03*
X-0004000D03*
Y0002220D03*
X-0002250Y0003470D03*
Y0004030D03*
X-0003000Y0002220D03*
Y0002780D03*
X-0005000Y0002220D03*
Y0002780D03*
X0012500Y0007220D03*
Y0007780D03*
X0015750Y0006220D03*
Y0006780D03*
Y0004970D03*
Y0005530D03*
X0012500Y0004720D03*
Y0005280D03*
X0013250Y0004720D03*
Y0005280D03*
X0015750Y0003470D03*
Y0004030D03*
X0012500Y0002970D03*
Y0003530D03*
X0015750Y0002220D03*
Y0002780D03*
Y0001530D03*
Y0000970D03*
X0013250Y0000220D03*
Y0000780D03*
X0012500Y0000220D03*
Y0000780D03*
Y-0000470D03*
Y-0001030D03*
X0009000Y0006970D03*
Y0007530D03*
X0005250Y0006970D03*
Y0007530D03*
X0005000Y0008720D03*
Y0009280D03*
X0006000Y0006970D03*
Y0007530D03*
X0004500Y0006970D03*
Y0007530D03*
X0003750Y0006970D03*
Y0007530D03*
X0002250Y0006970D03*
Y0007530D03*
X-0000750Y0006970D03*
Y0007530D03*
X-0003000Y0009280D03*
Y0008720D03*
X0000750Y0006970D03*
Y0007530D03*
X-0002250Y0006970D03*
Y0007530D03*
X-0003750Y0006970D03*
Y0007530D03*
X-0004500D03*
Y0006970D03*
X-0008250D03*
Y0007530D03*
X-0010500Y0006970D03*
Y0007530D03*
X-0006750Y0006970D03*
Y0007530D03*
X-0009000Y0006970D03*
Y0007530D03*
X-0009750Y0001030D03*
Y0000470D03*
X-0015000Y0003970D03*
Y0004530D03*
X-0016500Y0003970D03*
Y0004530D03*
X-0010500Y0000470D03*
Y0001030D03*
X-0012000D03*
Y0000470D03*
X-0011250D03*
Y0001030D03*
X-0015750Y0004530D03*
Y0003970D03*
X-0015250Y-0000030D03*
Y0000530D03*
X-0007000Y0005780D03*
Y0005220D03*
X0006250Y0004470D03*
Y0005030D03*
X-0019750Y0000280D03*
Y-0000280D03*
X-0020500Y0000280D03*
Y-0000280D03*
X-0019000Y0000280D03*
Y-0000280D03*
X0011750Y0007220D03*
Y0007780D03*
Y0002220D03*
Y0002780D03*
X0009250Y0009280D03*
Y0008720D03*
X0003000Y0007530D03*
Y0006970D03*
Y0009280D03*
Y0008720D03*
X-0003000Y0006970D03*
Y0007530D03*
X-0003750Y0009280D03*
Y0008720D03*
X-0006000Y0006970D03*
Y0007530D03*
X-0014000Y0003970D03*
Y0004530D03*
X-0014500Y0000530D03*
Y-0000030D03*
X-0013750Y0000530D03*
Y-0000030D03*
X-0012000Y0002280D03*
Y0001720D03*
G54D14*
X0003000Y0017410D03*
Y0016090D03*
X0005250Y0017410D03*
Y0016090D03*
X-0001500Y0017410D03*
Y0016090D03*
X0000500Y0017410D03*
Y0016090D03*
X-0005500Y0017410D03*
Y0016090D03*
X-0003500Y0017410D03*
Y0016090D03*
X-0010250Y0004340D03*
Y0005660D03*
G54D17*
X-0000720Y0002000D03*
X-0001280D03*
X0003030D03*
X0002470D03*
X-0009030Y0004000D03*
X-0008470D03*
X-0009220Y0003000D03*
X-0009780D03*
X-0008720Y0005500D03*
X-0009280D03*
X0000530Y0002000D03*
X-0000030D03*
X0001220D03*
X0001780D03*
X0017030Y0002750D03*
X0016470D03*
X0017030Y-0001500D03*
X0016470D03*
G54D18*
X-0006840Y-0000500D03*
X-0008160D03*
X-0006840Y0001250D03*
X-0008160D03*
X0022910Y0005250D03*
X0021590D03*
X0022910Y0004000D03*
X0021590D03*
X0023160Y0000500D03*
X0021840D03*
X0023160Y-0000750D03*
X0021840D03*
G54D22*
X-0021500Y0004500D03*
X-0020500D03*
Y0005500D03*
X-0021500D03*
X-0022500D03*
X0006516Y-0000734D03*
Y0001234D03*
X0008484Y-0000734D03*
X0007500Y0000250D03*
Y0002218D03*
X0008484Y0001234D03*
G54D23*
X-0012574Y-0000106D03*
X-0011787Y-0000893D03*
Y-0000106D03*
X-0011000Y-0000893D03*
Y-0000106D03*
X-0010213Y-0000893D03*
Y-0000106D03*
X-0009425Y-0000893D03*
Y-0000106D03*
G54D24*
X-0012574Y-0000893D03*
G54D25*
X-0015234Y0005750D03*
X-0016218D03*
X-0017203D03*
G54D26*
X-0014250D03*
G54D27*
X0004537D03*
X0005325D03*
X0025537Y0005250D03*
X0026325D03*
X0027112D03*
X0025537Y-0000250D03*
X0026325D03*
X0027112D03*
X0004287Y0018750D03*
X0005075D03*
X0005862D03*
X-0000213D03*
X0000575D03*
X0001362D03*
X-0004713D03*
X-0003925D03*
X-0003138D03*
X0009000Y0015750D03*
X-0027500Y0006250D03*
X0027250Y-0001750D03*
G54D28*
X0003750Y0005750D03*
X0024750Y0005250D03*
Y-0000250D03*
X0003500Y0018750D03*
X-0001000D03*
X-0005500D03*
G54D31*
X0002500Y0001000D03*
X0004000D03*
G54D32*
X-0022500Y0004500D03*
G54D34*
X0007874Y0017323D03*
X-0007874D03*
X0025984Y0002756D03*
X0000000Y0000000D03*
X-0025984Y0002756D03*
G54D42*
X0008000Y0008300D03*
X0007600Y0009200D03*
X0008400D03*
X0006250Y0008300D03*
X0005850Y0009200D03*
X0006650D03*
X0010500Y0008300D03*
X0010100Y0009200D03*
X0010900D03*
X0000000Y0008300D03*
X-0000400Y0009200D03*
X0000400D03*
X-0001750Y0008300D03*
X-0002150Y0009200D03*
X-0001350D03*
X0001750Y0008300D03*
X0001350Y0009200D03*
X0002150D03*
X-0008250Y0008300D03*
X-0008650Y0009200D03*
X-0007850D03*
X-0010000Y0008300D03*
X-0010400Y0009200D03*
X-0009600D03*
X-0006500Y0008300D03*
X-0006900Y0009200D03*
X-0006100D03*
G54D43*
X0008500Y0004000D03*
Y0005000D03*
Y0006000D03*
G54D59*
X0007250Y0005650D03*
Y0004350D03*
G54D60*
X-0005750Y-0000894D03*
Y-0000106D03*
Y0001144D03*
Y0000356D03*
X0012500Y0006644D03*
Y0005856D03*
X0013000Y0006644D03*
Y0005856D03*
X0013250Y0002144D03*
Y0001356D03*
X0012500Y0002144D03*
Y0001356D03*
X0008250Y0006856D03*
Y0007644D03*
X0006750Y0006856D03*
Y0007644D03*
X0000000Y0006856D03*
Y0007644D03*
X-0001500Y0006856D03*
Y0007644D03*
X-0007500Y0006856D03*
Y0007644D03*
X-0009750Y0006856D03*
Y0007644D03*
G54D61*
X-0016400Y0002053D03*
X-0017600D03*
Y0002447D03*
X-0016400D03*
G54D62*
X0014050Y0007500D03*
X0014950Y0007900D03*
Y0007100D03*
X0014050Y0005750D03*
X0014950Y0006150D03*
Y0005350D03*
Y0004000D03*
X0014050Y0003600D03*
Y0004400D03*
Y0002250D03*
X0014950Y0002650D03*
Y0001850D03*
X0014050Y0000500D03*
X0014950Y0000900D03*
Y0000100D03*
X0013550Y-0001250D03*
X0014450Y-0000850D03*
Y-0001650D03*
G54D63*
X-0013250Y0003000D03*
Y0002500D03*
Y0002000D03*
Y0001500D03*
X-0015650D03*
Y0002000D03*
Y0002500D03*
Y0003000D03*
G54D64*
X0016541Y0003238D03*
Y0003494D03*
Y0003750D03*
X0017250D03*
Y0003238D03*
X0016500Y-0001000D03*
Y-0000744D03*
Y-0000488D03*
X0017209D03*
Y-0001000D03*
X0010000Y0010000D03*
Y0010256D03*
Y0010512D03*
X0010709D03*
Y0010000D03*
X0004250Y0009500D03*
Y0009244D03*
Y0008988D03*
X0003541D03*
Y0009500D03*
X-0004500D03*
Y0009244D03*
Y0008988D03*
X-0005209D03*
Y0009500D03*
G54D65*
X0006000Y0010000D03*
Y0010256D03*
Y0010512D03*
Y0010768D03*
Y0011023D03*
Y0011279D03*
Y0011535D03*
Y0011791D03*
Y0012047D03*
Y0012303D03*
X0008598D03*
Y0012047D03*
Y0011791D03*
Y0011535D03*
Y0011279D03*
Y0011023D03*
Y0010768D03*
Y0010512D03*
Y0010256D03*
Y0010000D03*
X0000250D03*
Y0010256D03*
Y0010512D03*
Y0010768D03*
Y0011023D03*
Y0011279D03*
Y0011535D03*
Y0011791D03*
Y0012047D03*
Y0012303D03*
X0002848D03*
Y0012047D03*
Y0011791D03*
Y0011535D03*
Y0011279D03*
Y0011023D03*
Y0010768D03*
Y0010512D03*
Y0010256D03*
Y0010000D03*
X-0005500D03*
Y0010256D03*
Y0010512D03*
Y0010768D03*
Y0011023D03*
Y0011279D03*
Y0011535D03*
Y0011791D03*
Y0012047D03*
Y0012303D03*
X-0002902D03*
Y0012047D03*
Y0011791D03*
Y0011535D03*
Y0011279D03*
Y0011023D03*
Y0010768D03*
Y0010512D03*
Y0010256D03*
Y0010000D03*
G54D66*
X0011750Y0003500D03*
X0011494D03*
X0011238D03*
X0010982D03*
X0010726D03*
X0010470D03*
X0010215D03*
X0009959D03*
X0009703D03*
X0009447D03*
Y0006098D03*
X0009703D03*
X0009959D03*
X0010215D03*
X0010470D03*
X0010726D03*
X0010982D03*
X0011238D03*
X0011494D03*
X0011750D03*
Y-0001000D03*
X0011494D03*
X0011238D03*
X0010982D03*
X0010726D03*
X0010470D03*
X0010215D03*
X0009959D03*
X0009703D03*
X0009447D03*
Y0001598D03*
X0009703D03*
X0009959D03*
X0010215D03*
X0010470D03*
X0010726D03*
X0010982D03*
X0011238D03*
X0011494D03*
X0011750D03*
G54D67*
X-0000500Y0005550D03*
X0002250D03*
G54D68*
X0000400Y0002950D03*
X-0000500D03*
X-0001400D03*
X0003150D03*
X0002250D03*
X0001350D03*
G54D69*
X-0003500Y0003510D03*
X-0004000D03*
Y0005990D03*
X-0003500D03*
G54D70*
X-0002000Y-0000602D03*
X-0003000D03*
Y0001602D03*
X-0002000D03*
X-0004000Y-0000602D03*
X-0005000D03*
Y0001602D03*
X-0004000D03*
M02*
