*
G04 Mass Parameters ***
*
G04 Image ***
*
%IND:\UTENTI\00.CAD\00.PROGETTI\METALTRONICA\22-303-0 (CONTROLLO COLLIMATORE)\22-303-0.PWR*%
%ICAS*%
%MOIN*%
%IPPOS*%
%ASAXBY*%
G74*%FSLAN2X34Y34*%
*
G04 Aperture Definitions ***
*
%AMTHERMAL72*
1,1,0.1251,0,0,*
1,0,0.1012,0,0,*
21,0,0.1252,0.0100,0,0,135.0*
21,0,0.1252,0.0100,0,0,225.0*%
%AMTHERMAL77*
1,1,0.1172,0,0,*
1,0,0.0933,0,0,*
21,0,0.1173,0.0100,0,0,225.0*
21,0,0.1173,0.0100,0,0,315.0*%
%AMTHERMAL81*
1,1,0.1093,0,0,*
1,0,0.0854,0,0,*
21,0,0.1094,0.0100,0,0,225.0*
21,0,0.1094,0.0100,0,0,315.0*%
%AMTHERMAL84*
1,1,0.1172,0,0,*
1,0,0.0933,0,0,*
21,0,0.1173,0.0100,0,0,45.0*
21,0,0.1173,0.0100,0,0,135.0*%
%AMTHERMAL88*
1,1,0.1172,0,0,*
1,0,0.0933,0,0,*
21,0,0.1173,0.0100,0,0,135.0*
21,0,0.1173,0.0100,0,0,225.0*%
%ADD10C,0.0394*%
%ADD11R,0.0501X0.0404*%
%ADD12R,0.1260X0.0630*%
%ADD13R,0.0380X0.0320*%
%ADD14R,0.0710X0.0400*%
%ADD15R,0.0404X0.0501*%
%ADD16R,0.0630X0.1260*%
%ADD17R,0.0320X0.0380*%
%ADD18R,0.0400X0.0710*%
%ADD19R,0.0886X0.0905*%
%ADD20R,0.1670X0.1500*%
%ADD21R,0.1500X0.1670*%
%ADD22C,0.0787*%
%ADD23C,0.0630*%
%ADD24R,0.0630X0.0610*%
%ADD25C,0.0669*%
%ADD26R,0.0669X0.0669*%
%ADD27C,0.0590*%
%ADD28R,0.0630X0.0630*%
%ADD29R,0.0118X0.0394*%
%ADD30R,0.0650X0.0512*%
%ADD31C,0.1000*%
%ADD32R,0.0787X0.0787*%
%ADD33C,0.0187*%
%ADD34C,0.2362*%
%ADD35R,0.0866X0.0630*%
%ADD36R,0.1080X0.0850*%
%ADD37R,0.1701X0.1181*%
%ADD38R,0.0177X0.0649*%
%ADD39R,0.1181X0.1701*%
%ADD40R,0.0649X0.0177*%
%ADD41R,0.0270X0.0500*%
%ADD42R,0.0400X0.0500*%
%ADD43C,0.0800*%
%ADD44O,0.0110X0.0700*%
%ADD45R,0.0110X0.0700*%
%ADD46O,0.0700X0.0110*%
%ADD47R,0.0700X0.0110*%
%ADD48R,0.0394X0.0197*%
%ADD49C,0.0236*%
%ADD50C,0.0050*%
%ADD51C,0.0100*%
%ADD52C,0.0080*%
%ADD53C,0.0236*%
%ADD54C,0.0150*%
%ADD55C,0.0250*%
%ADD56C,0.0500*%
%ADD57C,0.0120*%
%ADD58C,0.0236*%
%ADD59R,0.1024X0.0510*%
%ADD60R,0.0197X0.0315*%
%ADD61R,0.0413X0.0236*%
%ADD62R,0.0500X0.0400*%
%ADD63O,0.0650X0.0256*%
%ADD64R,0.0236X0.0157*%
%ADD65O,0.0590X0.0118*%
%ADD66O,0.0118X0.0590*%
%ADD67R,0.1580X0.0680*%
%ADD68R,0.0550X0.0680*%
%ADD69R,0.0354X0.0512*%
%ADD70R,0.0236X0.0512*%
%ADD71C,0.0866*%
%ADD72THERMAL72*%
%ADD73C,0.0866*%
%ADD74C,0.0710*%
%ADD75R,0.0710X0.0710*%
%ADD76C,0.0787*%
%ADD77THERMAL77*%
%ADD78R,0.0787X0.0787*%
%ADD79C,0.0708*%
%ADD80R,0.0708X0.0708*%
%ADD81THERMAL81*%
%ADD82C,0.1240*%
%ADD83C,0.1027*%
%ADD84THERMAL84*%
%ADD85R,0.0984X0.0984*%
%ADD86C,0.2559*%
%ADD87C,0.1100*%
%ADD88THERMAL88*%
%ADD89C,0.1100*%
%ADD90C,0.0050*%
%ADD91C,0.0394*%
%ADD92C,0.0394*%
%ADD93C,0.0050*%
%ADD94C,0.0710*%
%ADD95R,0.0710X0.0710*%
%ADD96C,0.0787*%
%ADD97R,0.0787X0.0787*%
%ADD98C,0.0708*%
%ADD99R,0.0708X0.0708*%
%ADD100C,0.1240*%
%ADD101C,0.1027*%
*
G04 Plot Data ***
*
G54D84*
X-0022500Y0005500D03*
G54D51*
G01X-0009449Y0013291D02*
Y0018898D01*
X-0008661Y0019685D02*
X0008661D01*
X0009449Y0018898D02*
Y0013291D01*
X0009796Y0012638D02*
X0017827Y0007221D01*
X0018268Y0007087D02*
X0027559D01*
X0028346Y0006299D02*
Y-0001575D01*
X0027559Y-0002362D02*
X-0027559D01*
X-0028346Y-0001575D02*
Y0006299D01*
X-0027559Y0007087D02*
X-0018268D01*
X-0017827Y0007221D02*
X-0009796Y0012638D01*
G01X-0008661Y0019685D02*
G03X-0009448Y0018898I0000000J0000787D01*
G01X0009449D02*
G03X0008661Y0019686I0000788J0000000D01*
G01X0009449Y0013291D02*
G03X0009796Y0012638I0000787J0000000D01*
G01X0017827Y0007221D02*
G03X0018268Y0007086I0000441J0000653D01*
G01X0028346Y0006299D02*
G03X0027559Y0007086I0000787J0000000D01*
Y-0002362D02*
G03X0028346Y-0001575I0000000J0000787D01*
G01X-0028346D02*
G03X-0027559Y-0002362I0000787J0000000D01*
Y0007087D02*
G03X-0028347Y0006299I0000000J0000788D01*
G01X-0018268Y0007087D02*
G03X-0017827Y0007221I0000000J0000787D01*
G01X-0009796Y0012638D02*
G03X-0009449Y0013291I0000440J0000653D01*
G54D52*
G01X-0025670Y0005258D02*
X-0025757Y0005008D01*
X-0025524Y0005258D02*
X-0025699D01*
X-0025757Y0005342D01*
Y0005425D01*
X-0025699Y0005508D01*
X-0025524D01*
Y0005008D01*
X-0025335Y0005508D02*
Y0005092D01*
X-0025306Y0005008D01*
X-0025218Y0005258D01*
Y0005342D02*
Y0005258D01*
X-0025131Y0005008D01*
X-0025102Y0005092D01*
Y0005508D01*
X-0024679Y0005258D02*
X-0024854D01*
X-0024912Y0005342D01*
Y0005425D01*
X-0024854Y0005508D01*
X-0024679D01*
Y0005008D01*
G54D71*
X0006516Y-0000734D03*
Y0001234D03*
X0008484Y-0000734D03*
X0007500Y0000250D03*
Y0002218D03*
X0008484Y0001234D03*
G54D85*
X-0022500Y0004500D03*
G54D86*
X0007874Y0017323D03*
X-0007874D03*
X0025984Y0002756D03*
X0000000Y0000000D03*
X-0025984Y0002756D03*
G54D87*
X0008500Y0004000D03*
Y0005000D03*
Y0006000D03*
G54D90*
X0017800Y-0001800D03*
X-0002750Y0006300D03*
X0016400Y-0001900D03*
X-0001300Y0006450D03*
X0006750Y0011400D03*
X0004500Y0008720D03*
X0005250Y0006600D03*
X0008600Y0009750D03*
X0009250D03*
X0003550Y0009900D03*
X0016900Y0003900D03*
X0013550Y0004050D03*
X0011750Y0005600D03*
X-0002600Y0008950D03*
X-0004850Y0009500D03*
X-0005000Y0010900D03*
X-0006000Y0006500D03*
X0016150Y0006000D03*
X0015750Y0004500D03*
X-0000350Y0001680D03*
X-0007850Y0006970D03*
X-0011150Y0007200D03*
X0011150Y0010000D03*
X0011750Y0006750D03*
X-0000720Y0002390D03*
X-0001550Y0001600D03*
X-0003600D03*
X0003000Y0007900D03*
X0000550Y0005450D03*
X0003000Y0009650D03*
X0002300Y0009700D03*
X0000800Y0011200D03*
X0017500Y0002750D03*
X-0005170Y0008100D03*
X0011750Y0001100D03*
G54D91*
X-0010350Y0009650D03*
X-0006600Y0011650D03*
X0016900Y-0001900D03*
X0005400Y0009200D03*
X0017150Y0004100D03*
X-0000500Y0011750D03*
X-0005200Y0005200D03*
X-0021450Y0003850D03*
X-0005850Y0002950D03*
X-0008400Y0003050D03*
X-0009300Y0001400D03*
X0024000Y0001850D03*
X0003600Y0017400D03*
X0023800Y0005950D03*
X-0004600Y0017400D03*
X-0000400D03*
X0001500Y0018000D03*
X0003000Y0017900D03*
X0000550Y0009750D03*
X0002550Y0009200D03*
X-0000300Y0007600D03*
X0000900Y0009200D03*
X0000600Y0008530D03*
X0001500Y0007800D03*
X0001000Y0006050D03*
Y0006500D03*
X-0009100Y0009200D03*
X-0008250D03*
X-0006250Y0009750D03*
X-0007250Y0010000D03*
X0000050Y0009600D03*
X-0000950Y0009200D03*
X0016541Y0004050D03*
X0016700Y0002350D03*
X0003000Y0008250D03*
X0005000Y0010000D03*
X0004650Y0009000D03*
X-0015750Y0004950D03*
X-0020000Y0003250D03*
X-0015250Y-0000550D03*
X-0017750Y0001500D03*
X-0019250Y0003250D03*
X-0018500D03*
X-0011750Y0005950D03*
X-0012750Y0006750D03*
X0016000Y-0001500D03*
X0014450Y-0001250D03*
X0015000Y0003500D03*
X-0010250Y0005250D03*
X0013500Y0001750D03*
Y0003250D03*
X0011350Y0002780D03*
X0013250Y0004150D03*
X0014050Y0004900D03*
X0014950Y0006600D03*
X0011700Y0008150D03*
X-0003000Y0014701D03*
X0000000Y0013500D03*
X0000900Y0012050D03*
X-0002680Y0003100D03*
X-0009350Y0001000D03*
X0001250Y0004000D03*
X0001220Y0002400D03*
X-0004500Y0006500D03*
X0000530Y0002400D03*
X-0021500Y0001700D03*
X-0027000Y0000500D03*
X0011000Y-0002000D03*
X0009447Y-0000500D03*
X0008550Y0003300D03*
X0007250Y0004850D03*
X0002250Y0008000D03*
X0006250Y0004000D03*
X0005500Y0010220D03*
X0005650Y0013500D03*
X-0005000Y0010100D03*
X-0011600Y0002280D03*
X-0005550Y0009400D03*
X-0009650Y0005500D03*
X0015250Y0004500D03*
X-0008000Y0004000D03*
X-0000250Y0003800D03*
X-0010250Y0003000D03*
X0012550Y0004150D03*
X-0002650Y0007900D03*
X-0004150Y0008600D03*
X-0020750Y-0000700D03*
X-0006550Y0004400D03*
X-0006600Y0005220D03*
X0023400Y0004000D03*
Y0005250D03*
X0020201Y0003000D03*
X0009350Y0008000D03*
X0007150Y0009200D03*
X-0006000Y0004750D03*
X0020201Y0001750D03*
X0006250Y0014701D03*
X0005250Y0017900D03*
X0020201Y-0001750D03*
X0023150Y-0001350D03*
X0023650Y0000500D03*
X0016600Y-0000200D03*
X-0004500Y0003500D03*
X-0004335Y0005214D03*
X0005000Y0008000D03*
X0000450Y0006550D03*
X-0001800Y0007100D03*
X-0006760Y0006460D03*
X0014950Y-0000400D03*
X0015100Y-0001250D03*
X0015250Y-0000500D03*
X-0004600Y0002780D03*
X-0006500Y0000750D03*
X-0005720Y0001600D03*
X0002750Y0014701D03*
X-0010650Y0008350D03*
X0000500Y0014701D03*
X0012100Y0000100D03*
X-0000620Y0006450D03*
X0000900Y0003550D03*
X-0002750Y0003500D03*
X0006750Y0010500D03*
X0006500Y0012303D03*
X0008800Y0009200D03*
X0015250Y0000500D03*
X0014950Y0002250D03*
X-0006000Y0013500D03*
X-0005500Y0014701D03*
X0007500Y0003300D03*
X0004277Y0010600D03*
X-0007750Y0002220D03*
X-0004750Y0009900D03*
X0013450Y0009450D03*
X-0013900Y0001100D03*
X-0014600Y0003100D03*
X0007500Y0008250D03*
X0007050Y0002950D03*
X0013100Y0003250D03*
X0013800Y-0000200D03*
X0013550Y0002300D03*
X0013700Y0004800D03*
X0011100Y0004450D03*
X-0008800Y0004850D03*
X0009650Y0010350D03*
X0011300Y-0000500D03*
X0004200Y0008300D03*
X-0007800Y0006100D03*
Y0004350D03*
X-0004000Y0010400D03*
X-0005000Y0012303D03*
X-0001500Y0004000D03*
X-0001650Y0010000D03*
X-0003500Y0017850D03*
X-0005500D03*
X0007500Y0007900D03*
X0009000Y0008000D03*
X-0016350Y0001000D03*
X-0012600Y0001700D03*
X0008100Y0012750D03*
X0010500Y0009600D03*
X0008500Y0008200D03*
X0008050Y0011500D03*
X-0008700Y0015900D03*
X-0004200Y0015500D03*
X-0004350Y0011600D03*
X0009750Y0008700D03*
X0002150Y0010050D03*
X0006700Y0009650D03*
X-0004500Y0010350D03*
X0010100Y0006700D03*
X0009950Y0000950D03*
X-0008150Y0005950D03*
X-0005450Y0012600D03*
X-0004150Y0007800D03*
X0010000Y0010850D03*
X0011400Y0009200D03*
X0006900Y0003900D03*
X0009700Y0004250D03*
X0009550Y0011100D03*
X0010400Y0006850D03*
X-0003400Y0011800D03*
X0008800Y0006600D03*
X0007800Y0005100D03*
X0005400Y-0001750D03*
X-0014600Y0003450D03*
X0007900Y0007850D03*
X0006400Y0006800D03*
X0003000Y0006600D03*
X0001750Y0007000D03*
X0000900Y0012400D03*
X0007350Y0010000D03*
X0002100Y0010550D03*
X-0020500Y-0001000D03*
X0021400Y0002850D03*
X-0007150Y0007200D03*
X-0005100Y0007250D03*
X-0004650Y0012300D03*
X-0002950Y0012550D03*
X0013500Y0006300D03*
X0014100Y0002650D03*
X0013900Y-0001850D03*
X0007200Y0010900D03*
X-0003550Y0002000D03*
X-0008200Y0000700D03*
X-0019550Y0001400D03*
X-0004150Y0006500D03*
X-0014250Y0003100D03*
X-0011100Y0008850D03*
X-0001750Y0009100D03*
X-0021750Y0002400D03*
X-0010900Y0001400D03*
X0001750Y0012550D03*
X0009100Y0010350D03*
X0011200Y0008500D03*
X0005000Y0010350D03*
X0001750Y0010050D03*
X-0014500Y0001000D03*
X0014050Y0003200D03*
X0011750Y0005200D03*
X0001750Y0008900D03*
X0003900Y0009500D03*
X0013500Y-0001800D03*
X0014500Y-0000300D03*
X-0004500Y0010750D03*
X-0006500Y0009400D03*
X-0008500Y0010650D03*
X-0008150Y0005350D03*
X0011600Y0000050D03*
X0013600Y-0000850D03*
X-0010500Y0002600D03*
X-0002850Y0016200D03*
X-0002350Y0016400D03*
Y0016900D03*
X-0002450Y0017850D03*
X-0002900D03*
X0001150Y0016150D03*
X0001550D03*
X0002000D03*
X0002050Y0018000D03*
X0002100Y0016750D03*
X0005800Y0016000D03*
X0005900Y0017400D03*
X0005700Y0017900D03*
X0021200Y0003450D03*
X0021650D03*
X0023400D03*
X0022900D03*
X0021300Y-0001050D03*
X0023500Y-0001350D03*
X0022800D03*
X0021650D03*
X0013600Y0009150D03*
X0013300Y0009050D03*
X0013600Y0008800D03*
X0013950Y0008550D03*
Y0008900D03*
Y0009300D03*
X0014350Y0008900D03*
Y0008550D03*
X-0005650Y0016900D03*
X-0004850Y0017800D03*
X-0004500Y0016900D03*
X-0000850Y0017250D03*
X-0000950Y0016250D03*
X-0000600D03*
X-0000250D03*
X0004000Y0017400D03*
Y0017900D03*
X0003500D03*
X0024000Y0001400D03*
X0023650D03*
X0023300D03*
X0022950D03*
X0023650Y0001850D03*
X0023300D03*
X0022950D03*
X0024000Y0002200D03*
X0023650D03*
X0023300D03*
X0022950D03*
X0023350Y0005900D03*
X0022900D03*
X0023800Y0006300D03*
X0023350D03*
X0022900D03*
X0019000Y-0000450D03*
Y0000000D03*
Y0000450D03*
X0019400Y0000200D03*
Y-0000250D03*
Y-0000700D03*
X0018600D03*
Y-0000250D03*
Y0000200D03*
X0019400Y0000650D03*
X0018600D03*
X0019000Y0004250D03*
Y0004750D03*
Y0005200D03*
X0019400Y0005450D03*
Y0005000D03*
Y0004550D03*
Y0004050D03*
X0018550D03*
Y0004550D03*
Y0005000D03*
Y0005450D03*
X0004950Y0013500D03*
X0004500D03*
X0004000D03*
X0005200Y0013100D03*
X0004750D03*
X0004250D03*
X0003800D03*
X0005200Y0013900D03*
X0004750D03*
X0004250D03*
X0003800D03*
X-0000800Y0013500D03*
X-0001300D03*
X-0001750D03*
X-0000600Y0013100D03*
X-0001050D03*
X-0001500D03*
X-0001950D03*
X-0000600Y0013900D03*
X-0001050D03*
X-0001500D03*
X-0001950D03*
X-0006750Y0013500D03*
X-0007200D03*
X-0007700D03*
X-0006550Y0013100D03*
X-0007000D03*
X-0007450D03*
X-0007900D03*
X-0006550Y0013900D03*
X-0007000D03*
X-0007450D03*
X-0007950D03*
G54D92*
X-0008950Y0002600D03*
X-0020500Y0001800D03*
X0001350Y0011500D03*
X-0008550Y0005900D03*
X-0010900Y0002900D03*
X-0004800Y0005350D03*
X0013300Y0005900D03*
X0013000Y0008500D03*
X0009450Y0011400D03*
X-0024900Y-0001550D03*
X0010350Y0004700D03*
X0014500Y0005900D03*
X0003800Y0011100D03*
X0009200Y-0001800D03*
X0016700Y0001250D03*
X0019000Y0006000D03*
X0003500Y0011450D03*
X-0011250Y0006900D03*
X-0011150Y0004700D03*
X-0018500Y0001450D03*
X-0008100Y0002550D03*
X-0004150Y0008250D03*
X-0002600Y0009750D03*
X-0005100Y0012600D03*
X-0005000Y0011750D03*
X0011450Y0004450D03*
X0014500Y0007900D03*
X0001250Y0012050D03*
X0006800Y0011900D03*
X-0019100Y-0000650D03*
X0009700Y-0001550D03*
X0017000Y0000100D03*
X-0019500Y-0000700D03*
X0010500Y0010850D03*
X0017300Y-0001900D03*
X0016300Y-0000050D03*
X0010982Y0002832D03*
X0010500Y-0000500D03*
X0021000Y0004300D03*
X0011800Y0004100D03*
X0012500Y-0001900D03*
X-0010950Y0005300D03*
X0017200Y0001950D03*
X-0011200Y0003250D03*
X-0001200Y0009700D03*
Y0007600D03*
X0003750Y0007900D03*
X0012850Y-0001750D03*
X-0007400Y0015550D03*
X0017200Y-0000150D03*
X0015700Y0000150D03*
X0010750Y-0000200D03*
X-0003400Y0011450D03*
X0002150Y0012600D03*
X0007800Y0012050D03*
X0007450Y0010500D03*
X0004600Y0011450D03*
X-0008114Y0004864D03*
X-0008500Y0009900D03*
X-0011150Y0004300D03*
X-0009000Y0001000D03*
X-0009200Y0012050D03*
X0010400Y0010250D03*
X0016900Y0003550D03*
X-0007000Y0008750D03*
X-0006050Y0011650D03*
X-0009600Y0007300D03*
X-0004800Y0007900D03*
X0008100Y0000400D03*
X-0010500Y0005000D03*
X0011150Y0008150D03*
X0008100Y0009850D03*
X-0010900Y0005800D03*
X0016800Y0004300D03*
X-0003400Y0012300D03*
X-0010750Y0007900D03*
X0003400Y0008500D03*
X-0009900Y0005250D03*
X0003850Y0009000D03*
X-0009000Y0016000D03*
X0006250Y0015150D03*
X0008500Y0012600D03*
X-0013250Y0003735D03*
X0009850Y-0000500D03*
X0008150Y0003000D03*
X-0006400Y0005750D03*
X-0009700Y0002600D03*
X-0012750Y0003450D03*
X-0004050Y0012050D03*
Y0015800D03*
X0017200Y0004550D03*
X-0004000Y0011000D03*
X-0007120Y0011322D03*
X0007500Y0012350D03*
X-0006100Y0016650D03*
X0005250Y0015650D03*
X0011050Y0010450D03*
X0003250Y0015250D03*
X0011800Y0009000D03*
X0015400Y0007400D03*
X-0002450Y0015350D03*
X0001250Y0015300D03*
X0001800Y0011850D03*
X0021200Y0005200D03*
X-0007900Y0015700D03*
X0010350Y0004000D03*
X0017000Y0004850D03*
X0021300Y0000600D03*
X0020850Y0001550D03*
X0010350Y-0000100D03*
X-0000900Y0015600D03*
X0020800Y0002800D03*
X0012050Y0008500D03*
X0009700Y0008000D03*
X0003750Y0006600D03*
X0010500Y0009000D03*
X-0008600Y0015450D03*
X-0003850Y0011550D03*
X0010150Y-0000350D03*
X0010000Y0002700D03*
X-0001350Y0011750D03*
X0010350Y0005550D03*
X0011800Y0004450D03*
X0012800Y0002000D03*
X0020800Y0006150D03*
X-0009600Y0008200D03*
X-0003600Y0010450D03*
X-0007900Y0011200D03*
X-0006900Y0007900D03*
X-0005600Y0005350D03*
Y0004650D03*
X-0002500Y0001200D03*
X0003800Y0016090D03*
X0017200Y0000350D03*
X0010350Y-0001500D03*
X0010500Y0003000D03*
X0014400Y0003200D03*
X0017200Y0005150D03*
X0004400Y0011200D03*
X-0001800Y0015300D03*
X-0007500Y0011750D03*
X0004350Y0011700D03*
X-0000900Y0011350D03*
X0001850Y0011500D03*
X0002650Y0012600D03*
X0009700Y-0000050D03*
X0020900Y-0001700D03*
X-0007400Y0006150D03*
X0021300Y-0000550D03*
X-0001800Y0004550D03*
X0001750Y0009550D03*
X-0004860Y0016090D03*
X-0007700Y0015400D03*
X-0001350Y0011400D03*
X-0006100Y0016300D03*
G54D94*
X-0012574Y-0000106D03*
X-0011787Y-0000893D03*
Y-0000106D03*
X-0011000Y-0000893D03*
Y-0000106D03*
X-0010213Y-0000893D03*
Y-0000106D03*
X-0009425Y-0000893D03*
Y-0000106D03*
G54D95*
X-0012574Y-0000893D03*
G54D96*
X-0015234Y0005750D03*
X-0016218D03*
X-0017203D03*
G54D97*
X-0014250D03*
G54D98*
X0004537D03*
X0005325D03*
X0025537Y0005250D03*
X0026325D03*
X0027112D03*
X0025537Y-0000250D03*
X0026325D03*
X0027112D03*
X0004287Y0018750D03*
X0005075D03*
X0005862D03*
X-0000213D03*
X0000575D03*
X0001362D03*
X-0004713D03*
X-0003925D03*
X-0003138D03*
G54D99*
X0003750Y0005750D03*
X0024750Y0005250D03*
Y-0000250D03*
X0003500Y0018750D03*
X-0001000D03*
X-0005500D03*
G54D100*
X0002500Y0001000D03*
X0004000D03*
G54D101*
X-0021500Y0004500D03*
X-0020500D03*
Y0005500D03*
X-0021500D03*
M02*
