*
G04 Mass Parameters ***
*
G04 Image ***
*
%IND:\UTENTI\00.LAVORI IN CORSO\METALTRONICA\22-303-0\22-303-0.ASB*%
%ICAS*%
%MOIN*%
%IPPOS*%
%ASAXBY*%
G74*%FSLAN2X34Y34*%
*
G04 Aperture Definitions ***
*
%AMTHERMAL89*
1,1,0.1211,0,0,*
1,0,0.0972,0,0,*
21,0,0.1212,0.0100,0,0,225.0*
21,0,0.1212,0.0100,0,0,315.0*%
%AMTHERMAL99*
1,1,0.1172,0,0,*
1,0,0.0933,0,0,*
21,0,0.1173,0.0100,0,0,45.0*
21,0,0.1173,0.0100,0,0,135.0*%
%AMTHERMAL104*
1,1,0.1172,0,0,*
1,0,0.0933,0,0,*
21,0,0.1173,0.0100,0,0,225.0*
21,0,0.1173,0.0100,0,0,315.0*%
%ADD10C,0.2362*%
%ADD11C,0.0394*%
%ADD12R,0.0380X0.0320*%
%ADD13R,0.1180X0.1060*%
%ADD14R,0.0404X0.0501*%
%ADD15R,0.0501X0.0404*%
%ADD16R,0.0630X0.1260*%
%ADD17R,0.0710X0.0400*%
%ADD18R,0.0320X0.0380*%
%ADD19R,0.1260X0.0630*%
%ADD20R,0.0400X0.0710*%
%ADD21R,0.0886X0.0905*%
%ADD22R,0.0905X0.0886*%
%ADD23R,0.1024X0.0510*%
%ADD24R,0.0500X0.0400*%
%ADD25R,0.0197X0.0315*%
%ADD26R,0.0850X0.1080*%
%ADD27R,0.0472X0.0472*%
%ADD28R,0.1669X0.1500*%
%ADD29C,0.1000*%
%ADD30R,0.1220X0.0905*%
%ADD31C,0.0610*%
%ADD32R,0.0610X0.0610*%
%ADD33C,0.0433*%
%ADD34R,0.2165X0.0472*%
%ADD35C,0.0512*%
%ADD36C,0.0866*%
%ADD37R,0.0669X0.0669*%
%ADD38C,0.0669*%
%ADD39C,0.0787*%
%ADD40R,0.0787X0.0787*%
%ADD41R,0.0236X0.0413*%
%ADD42C,0.0276*%
%ADD43C,0.0187*%
%ADD44R,0.0709X0.0354*%
%ADD45C,0.0551*%
%ADD46R,0.0354X0.0709*%
%ADD47R,0.0680X0.1580*%
%ADD48R,0.0680X0.0550*%
%ADD49R,0.0570X0.0590*%
%ADD50R,0.0630X0.0866*%
%ADD51R,0.0590X0.0433*%
%ADD52R,0.1080X0.0850*%
%ADD53O,0.0256X0.0650*%
%ADD54R,0.0236X0.0512*%
%ADD55R,0.1220X0.0950*%
%ADD56R,0.0240X0.0750*%
%ADD57R,0.0354X0.0165*%
%ADD58R,0.0236X0.0157*%
%ADD59R,0.1701X0.1181*%
%ADD60R,0.0177X0.0649*%
%ADD61O,0.0118X0.0590*%
%ADD62R,0.1181X0.1701*%
%ADD63R,0.0649X0.0177*%
%ADD64R,0.0157X0.0236*%
%ADD65O,0.0590X0.0118*%
%ADD66R,0.0500X0.0270*%
%ADD67R,0.0270X0.0500*%
%ADD68C,0.0800*%
%ADD69R,0.0512X0.0354*%
%ADD70O,0.0110X0.0700*%
%ADD71R,0.0110X0.0700*%
%ADD72O,0.0700X0.0110*%
%ADD73R,0.0700X0.0110*%
%ADD74C,0.0236*%
%ADD75C,0.0100*%
%ADD76C,0.0050*%
%ADD77C,0.0236*%
%ADD78C,0.0080*%
%ADD79C,0.0236*%
%ADD80C,0.0150*%
%ADD81C,0.0400*%
%ADD82C,0.0250*%
%ADD83C,0.0500*%
%ADD84C,0.0236*%
%ADD85R,0.0472X0.2165*%
%ADD86R,0.0787X0.0236*%
%ADD87R,0.0669X0.0236*%
%ADD88C,0.0050*%
%ADD89THERMAL89*%
%ADD90C,0.1181*%
%ADD91C,0.0710*%
%ADD92R,0.0710X0.0710*%
%ADD93C,0.0630*%
%ADD94C,0.0700*%
%ADD95C,0.1024*%
%ADD96R,0.0827X0.0827*%
%ADD97C,0.0866*%
%ADD98C,0.1027*%
%ADD99THERMAL99*%
%ADD100R,0.0984X0.0984*%
%ADD101C,0.0750*%
%ADD102C,0.0600*%
%ADD103C,0.1100*%
%ADD104THERMAL104*%
%ADD105R,0.0984X0.0984*%
%ADD106C,0.0394*%
%ADD107C,0.0394*%
%ADD108C,0.0050*%
%ADD109C,0.0394*%
%ADD110C,0.0050*%
%ADD111C,0.1378*%
%ADD112C,0.0550*%
%ADD113C,0.0390*%
%ADD114C,0.0590*%
%ADD115R,0.0433X0.0433*%
%ADD116C,0.0060*%
%ADD117C,0.0079*%
%ADD118C,0.0059*%
%ADD119C,0.0078*%
*
G04 Plot Data ***
*
G54D75*
G01X0050658Y-0008692D02*
Y-0008192D01*
X0050575Y-0008275D01*
X0050408Y-0008608D01*
X0050325Y-0008692D01*
Y-0008192D01*
X0050083D02*
X0049917D01*
X0050000D02*
Y-0008692D01*
X0050083D02*
X0049917D01*
X0048829D02*
Y-0008525D01*
X0048662Y-0008192D01*
X0048496Y-0008525D01*
Y-0008692D01*
X0048254Y-0008358D02*
X0047921D01*
X0048087Y-0008692D01*
X0048171D01*
Y-0008192D01*
X0047679D02*
X0047346D01*
X0047679Y-0008525D01*
Y-0008608D01*
X0047637Y-0008692D01*
X0047387D01*
X0047346Y-0008608D01*
X0049375Y-0009142D02*
X0049708D01*
X0048542Y-0008975D02*
Y-0009308D01*
X0048375Y-0009142D02*
X0048708D01*
X0038058Y-0008475D02*
X0038017Y-0008558D01*
X0037767D01*
X0037725Y-0008475D01*
Y-0008392D01*
X0037767Y-0008308D01*
X0038017D01*
X0038058Y-0008225D01*
Y-0008142D01*
X0038017Y-0008058D01*
X0037767D01*
X0037725Y-0008142D01*
X0037483Y-0008558D02*
Y-0008142D01*
X0037442Y-0008058D01*
X0037192D01*
X0037150Y-0008142D01*
Y-0008558D01*
X0036617Y-0008058D02*
Y-0008558D01*
X0036575Y-0008058D02*
X0036825D01*
X0036908Y-0008142D01*
Y-0008225D01*
X0036867Y-0008308D01*
X0036617D02*
X0036867D01*
X0036908Y-0008392D01*
Y-0008475D01*
X0036825Y-0008558D01*
X0036575D01*
X0036333Y-0007892D02*
X0036000D01*
X0035758Y-0008558D02*
Y-0008058D01*
X0035675Y-0008142D01*
X0035508Y-0008475D01*
X0035425Y-0008558D01*
Y-0008058D01*
X0035183Y-0008225D02*
X0034850D01*
X0035183Y-0008058D02*
Y-0008308D01*
X0035058Y-0008558D01*
X0034975D01*
X0034850Y-0008308D01*
Y-0008058D01*
X0034608Y-0008142D02*
X0034567Y-0008058D01*
X0034317D01*
X0034275Y-0008142D01*
Y-0008475D01*
X0034317Y-0008558D01*
X0034567D01*
X0034608Y-0008475D01*
X0026208Y-0007808D02*
Y-0007308D01*
X0026125Y-0007392D01*
X0025958Y-0007725D01*
X0025875Y-0007808D01*
Y-0007308D01*
X0025633Y-0007475D02*
X0025300D01*
X0025633Y-0007308D02*
Y-0007558D01*
X0025508Y-0007808D01*
X0025425D01*
X0025300Y-0007558D01*
Y-0007308D01*
X0024975Y-0007558D02*
X0024725D01*
Y-0007308D02*
Y-0007808D01*
X0025058D01*
X0022267Y-0007308D02*
X0022225Y-0007392D01*
Y-0007725D01*
X0022267Y-0007808D01*
X0022517D01*
X0022558Y-0007725D01*
Y-0007392D01*
X0022517Y-0007308D01*
X0022267D01*
X0021983D02*
Y-0007808D01*
X0021900Y-0007725D01*
X0021817Y-0007558D01*
X0021733Y-0007725D01*
X0021650Y-0007808D01*
Y-0007308D01*
X0021283Y-0007558D02*
X0021408Y-0007308D01*
X0021075Y-0007558D02*
X0021325D01*
X0021408Y-0007642D01*
Y-0007725D01*
X0021325Y-0007808D01*
X0021075D01*
Y-0007308D01*
X0020750Y-0007558D02*
X0020500D01*
X0020833Y-0007308D02*
X0020500D01*
Y-0007808D01*
X0020833D01*
X0020092Y-0007308D02*
Y-0007808D01*
X0020258D02*
X0019925D01*
X0018492Y-0007308D02*
Y-0007808D01*
X0018658D02*
X0018325D01*
X0018083Y-0007392D02*
X0018042Y-0007308D01*
X0017792D01*
X0017750Y-0007392D01*
Y-0007725D01*
X0017792Y-0007808D01*
X0018042D01*
X0018083Y-0007725D01*
X0017425Y-0007558D02*
X0017175D01*
X0017508Y-0007308D02*
X0017175D01*
Y-0007808D01*
X0017508D01*
X0016642Y-0007308D02*
Y-0007808D01*
X0016600Y-0007308D02*
X0016850D01*
X0016933Y-0007475D01*
Y-0007642D01*
X0016850Y-0007808D01*
X0016600D01*
X0016358Y-0007142D02*
X0016025D01*
X0015450Y-0007558D02*
X0015700D01*
X0015783Y-0007642D01*
Y-0007725D01*
X0015700Y-0007808D01*
X0015450D01*
Y-0007308D01*
X0015208D02*
Y-0007808D01*
X0015125Y-0007725D01*
X0015042Y-0007558D01*
X0014958Y-0007725D01*
X0014875Y-0007808D01*
Y-0007308D01*
X0014342D02*
X0014300Y-0007392D01*
Y-0007725D01*
X0014342Y-0007808D01*
X0014592D01*
X0014633Y-0007725D01*
Y-0007392D01*
X0014592Y-0007308D01*
X0014342D01*
X0014058Y-0007392D02*
X0014017Y-0007308D01*
X0013767D01*
X0013725Y-0007392D01*
Y-0007725D01*
X0013767Y-0007808D01*
X0014017D01*
X0014058Y-0007725D01*
X0045025Y0002458D02*
Y0001958D01*
X0045192D02*
X0044858D01*
X0044617D02*
Y0002458D01*
X0044533Y0002375D01*
X0044367Y0002042D01*
X0044283Y0001958D01*
Y0002458D01*
X0043750D02*
X0043708Y0002375D01*
Y0002042D01*
X0043750Y0001958D01*
X0044000D01*
X0044042Y0002042D01*
Y0002375D01*
X0044000Y0002458D01*
X0043750D01*
X0043342Y0002208D02*
X0043467Y0002458D01*
X0043133Y0002208D02*
X0043383D01*
X0043467Y0002125D01*
Y0002042D01*
X0043383Y0001958D01*
X0043133D01*
Y0002458D01*
X0042808Y0002208D02*
X0042558D01*
Y0002458D02*
Y0001958D01*
X0042892D01*
X0042233Y0002458D02*
X0042317D01*
Y0002375D01*
X0042233D01*
Y0002458D01*
X0041908D02*
Y0001958D01*
X0041825Y0002042D01*
X0041742Y0002208D01*
X0041658Y0002042D01*
X0041575Y0001958D01*
Y0002458D01*
X0009850Y0016800D02*
X0010100Y0016550D01*
X0010350Y0016800D01*
Y0016467D02*
X0009850D01*
X0009933Y0016225D02*
X0009850Y0016183D01*
Y0015933D01*
X0009933Y0015892D01*
X0010267D01*
X0010350Y0015933D01*
Y0016183D01*
X0010267Y0016225D01*
X0010017Y0015650D02*
Y0015317D01*
X0009850Y0015650D02*
X0010100D01*
X0010350Y0015525D01*
Y0015442D01*
X0010100Y0015317D01*
X0009850D01*
Y0014783D02*
X0010350D01*
X0009850Y0014742D02*
Y0014992D01*
X0009933Y0015075D01*
X0010017D01*
X0010100Y0015033D01*
Y0014783D02*
Y0015033D01*
X0010183Y0015075D01*
X0010267D01*
X0010350Y0014992D01*
Y0014742D01*
X0009850Y0014417D02*
Y0014500D01*
X0009933D01*
Y0014417D01*
X0009850D01*
Y0014092D02*
X0010350D01*
X0010267Y0014008D01*
X0010100Y0013925D01*
X0010267Y0013842D01*
X0010350Y0013758D01*
X0009850D01*
X0005150Y0017142D02*
X0004900Y0017267D01*
X0005150Y0016933D02*
Y0017183D01*
X0005233Y0017267D01*
X0005317D01*
X0005400Y0017183D01*
Y0016933D01*
X0004900D01*
Y0016400D02*
X0004983Y0016358D01*
X0005317D01*
X0005400Y0016400D01*
Y0016650D01*
X0005317Y0016692D01*
X0004983D01*
X0004900Y0016650D01*
Y0016400D01*
X0005150Y0015992D02*
X0004900Y0016117D01*
X0005150Y0015783D02*
Y0016033D01*
X0005233Y0016117D01*
X0005317D01*
X0005400Y0016033D01*
Y0015783D01*
X0004900D01*
X0005150Y0015417D02*
X0004900Y0015542D01*
X0005150Y0015208D02*
Y0015458D01*
X0005233Y0015542D01*
X0005317D01*
X0005400Y0015458D01*
Y0015208D01*
X0004900D01*
Y0014967D02*
Y0014800D01*
Y0014883D02*
X0005400D01*
Y0014967D02*
Y0014800D01*
X0004900Y0014475D02*
X0005400D01*
X0005317Y0014392D01*
X0005150Y0014308D01*
X0005317Y0014225D01*
X0005400Y0014142D01*
X0004900D01*
Y0013817D02*
Y0013900D01*
X0004983D01*
Y0013817D01*
X0004900D01*
Y0013492D02*
X0005400D01*
X0005317Y0013408D01*
X0005150Y0013325D01*
X0005317Y0013242D01*
X0005400Y0013158D01*
X0004900D01*
X0008508Y0016942D02*
Y0016775D01*
Y0016858D02*
X0009008D01*
X0008925Y0016775D01*
X0041792Y0006042D02*
X0041625D01*
X0041708D02*
Y0005542D01*
X0041625Y0005625D01*
X0026142Y-0010808D02*
X0025975D01*
X0026058D02*
Y-0011308D01*
X0025975Y-0011225D01*
X0013508Y0016892D02*
Y0016725D01*
Y0016808D02*
X0014008D01*
X0013925Y0016725D01*
X0017592Y-0010808D02*
X0017425D01*
X0017508D02*
Y-0011308D01*
X0017425Y-0011225D01*
X0043358Y0017662D02*
Y0017495D01*
Y0017578D02*
X0043858D01*
X0043775Y0017495D01*
X0022692Y-0010808D02*
X0022525D01*
X0022608D02*
Y-0011308D01*
X0022525Y-0011225D01*
X0043701Y0082281D02*
Y0078344D01*
X0045670D01*
Y0082281D01*
X0051378D01*
Y-0012207D01*
X-0003740D01*
Y0082281D01*
X0043701D01*
G54D116*
G01X0050313Y-0011217D02*
X0050220D01*
X0050267D02*
Y-0011617D01*
X0050220Y-0011550D01*
X0006367Y0016893D02*
X0006433Y0016917D01*
X0006500D01*
X0006567Y0016893D01*
Y0016753D01*
X0006500Y0016730D01*
X0006433D01*
X0006367Y0016753D01*
Y0016893D01*
X0006300Y0016917D01*
X0006233D01*
X0006167Y0016893D01*
Y0016753D01*
X0006233Y0016730D01*
X0006300D01*
X0006367Y0016753D01*
X0006300Y0016423D02*
X0006233D01*
X0006167Y0016447D01*
Y0016540D01*
X0006233Y0016563D01*
X0006567D01*
Y0016587D02*
Y0016493D01*
X0045953Y0004633D02*
X0046093D01*
X0046117Y0004700D01*
Y0004767D01*
X0046093Y0004833D01*
X0045953D01*
X0045930Y0004767D01*
Y0004700D01*
X0046023Y0004433D01*
X0045623Y0004700D02*
Y0004767D01*
X0045647Y0004833D01*
X0045740D01*
X0045763Y0004767D01*
Y0004433D01*
X0045787D02*
X0045693D01*
X0026500Y-0008550D02*
X0026313D01*
X0026407Y-0008817D01*
X0026453D01*
Y-0008417D01*
X0026170D02*
X0026077D01*
X0026123D02*
Y-0008817D01*
X0026077Y-0008750D01*
X0025723Y-0008550D02*
Y-0008483D01*
X0025747Y-0008417D01*
X0025840D01*
X0025863Y-0008483D01*
Y-0008817D01*
X0025887D02*
X0025793D01*
X0046763Y-0010083D02*
X0046810Y-0010017D01*
X0046903D01*
X0046950Y-0010083D01*
Y-0010150D01*
X0046857Y-0010283D01*
X0046950Y-0010417D01*
X0046763D01*
X0046620Y-0010017D02*
X0046527D01*
X0046573D02*
Y-0010417D01*
X0046527Y-0010350D01*
X0046173Y-0010150D02*
Y-0010083D01*
X0046197Y-0010017D01*
X0046290D01*
X0046313Y-0010083D01*
Y-0010417D01*
X0046337D02*
X0046243D01*
X0042367Y0014123D02*
Y0014030D01*
Y0014077D02*
X0042767D01*
X0042700Y0014030D01*
X0042367Y0013840D02*
Y0013747D01*
Y0013793D02*
X0042767D01*
X0042700Y0013747D01*
X0042500Y0013393D02*
X0042433D01*
X0042367Y0013417D01*
Y0013510D01*
X0042433Y0013533D01*
X0042767D01*
Y0013557D02*
Y0013463D01*
X0039071Y-0009787D02*
X0038978D01*
X0039024D02*
Y-0010187D01*
X0038978Y-0010120D01*
X0038624Y-0009920D02*
Y-0009854D01*
X0038648Y-0009787D01*
X0038741D01*
X0038764Y-0009854D01*
Y-0010187D01*
X0038788D02*
X0038694D01*
X0011250Y0016917D02*
Y0016730D01*
X0011517Y0016823D01*
Y0016870D01*
X0011117D01*
X0011250Y0016423D02*
X0011183D01*
X0011117Y0016447D01*
Y0016540D01*
X0011183Y0016563D01*
X0011517D01*
Y0016587D02*
Y0016493D01*
X0017630Y-0008433D02*
X0017677Y-0008367D01*
X0017770D01*
X0017817Y-0008433D01*
Y-0008500D01*
X0017723Y-0008633D01*
X0017817Y-0008767D01*
X0017630D01*
X0017323Y-0008500D02*
Y-0008433D01*
X0017347Y-0008367D01*
X0017440D01*
X0017463Y-0008433D01*
Y-0008767D01*
X0017487D02*
X0017393D01*
X0023013Y-0008433D02*
X0023037Y-0008367D01*
X0023177D01*
X0023200Y-0008433D01*
Y-0008567D01*
X0023153Y-0008633D01*
X0023013D01*
Y-0008767D01*
X0023200D01*
X0022870Y-0008367D02*
X0022777D01*
X0022823D02*
Y-0008767D01*
X0022777Y-0008700D01*
X0022423Y-0008500D02*
Y-0008433D01*
X0022447Y-0008367D01*
X0022540D01*
X0022563Y-0008433D01*
Y-0008767D01*
X0022587D02*
X0022493D01*
X0043130Y0018745D02*
Y0017721D01*
X0043051Y0017642D01*
X0042599D01*
Y0015516D01*
X0043051D01*
X0043130Y0015438D01*
Y0014414D01*
X0042008D01*
Y0015947D01*
X0041595Y0016186D01*
Y0016973D01*
X0042008Y0017212D01*
Y0018745D01*
X0042087Y0018823D01*
X0043051D01*
X0043130Y0018745D01*
X0042008D01*
X0042914Y0015583D02*
X0042884D01*
Y0017575D01*
X0042914D01*
Y0015583D01*
X0043150D01*
Y0015201D01*
X0043130D01*
X0042914Y0017575D02*
X0043150D01*
Y0015583D01*
X0043130Y0015438D02*
X0042520D01*
Y0017721D01*
X0043130D01*
X0042638Y0015516D02*
Y0015583D01*
X0042756D01*
Y0017575D01*
X0042638D01*
Y0017642D01*
X0042008Y0018162D02*
X0041969D01*
Y0017957D01*
Y0017189D01*
X0042008Y0014690D02*
X0041969D01*
Y0014997D01*
Y0015201D01*
Y0015970D01*
Y0017219D02*
X0041693D01*
Y0017121D01*
X0041851D01*
X0043130Y0018469D02*
X0043150D01*
Y0018162D01*
Y0017957D01*
X0043130D01*
X0043150Y0017121D02*
X0043504D01*
Y0017219D01*
X0043150D01*
X0042756Y0017121D02*
X0042744D01*
Y0017219D01*
X0042756D01*
Y0016727D02*
X0042744D01*
Y0016825D01*
X0042756D01*
X0043150Y0016727D02*
X0043504D01*
Y0016825D01*
X0043150D01*
X0042756Y0015940D02*
X0042744D01*
Y0016038D01*
X0042756D01*
Y0016333D02*
X0042744D01*
Y0016432D01*
X0042756D01*
X0043150Y0016333D02*
X0043504D01*
Y0016432D01*
X0043150D01*
X0043130Y0014997D02*
X0043150D01*
Y0015201D01*
X0042008Y0014414D02*
X0042087Y0014335D01*
X0043051D01*
X0043130Y0014414D01*
X0042599Y0015516D02*
X0042520Y0015438D01*
X0041969Y0015940D02*
X0041693D01*
Y0016038D01*
X0041851D01*
X0043150Y0015940D02*
X0043504D01*
Y0016038D01*
X0043150D01*
X0042520Y0017721D02*
X0042599Y0017642D01*
X0043150Y0017575D02*
Y0017957D01*
X0043130Y0014690D02*
X0043150D01*
Y0014997D01*
X0043130Y0018162D02*
X0043150D01*
X0042008Y0018469D02*
X0041969D01*
Y0018162D01*
X0042008Y0017957D02*
X0041969D01*
Y0015201D02*
X0042008D01*
Y0014997D02*
X0041969D01*
X0007461Y0016890D02*
Y0016850D01*
X0007421Y0016811D02*
X0007224D01*
X0007106Y0016929D02*
Y0017008D01*
X0007224Y0016890D02*
X0007894D01*
X0007972D01*
Y0016496D01*
X0007894D01*
Y0016890D01*
X0008012Y0017008D01*
Y0016161D01*
X0008130D01*
Y0015413D01*
X0008012D01*
X0007894Y0015531D01*
Y0014468D01*
Y0014370D01*
Y0014055D01*
Y0013957D01*
Y0013740D01*
Y0013346D01*
X0008012Y0013228D01*
X0007224D01*
Y0013150D01*
X0007106D01*
Y0013228D01*
X0007224Y0013346D02*
X0007894D01*
X0007972D01*
Y0013740D01*
X0007894D01*
X0008130Y0013150D02*
X0008287D01*
Y0013740D01*
X0008130D01*
Y0013150D01*
X0007224D01*
X0008012Y0015413D02*
Y0014587D01*
X0008130D01*
Y0013838D01*
X0008012D01*
Y0013228D01*
X0008287Y0017087D02*
X0008130D01*
Y0016496D01*
X0008287D01*
Y0017087D01*
Y0016496D02*
Y0013740D01*
X0007106Y0017008D02*
Y0017087D01*
X0006713D01*
Y0013150D01*
X0007106D01*
X0006713Y0015512D02*
X0005925D01*
Y0015394D01*
Y0015276D01*
X0006713D01*
X0008287Y0016063D02*
X0009075D01*
Y0016181D01*
Y0016299D01*
X0008287D01*
Y0014724D02*
X0009075D01*
Y0014606D01*
Y0014488D01*
X0008287D01*
X0006713Y0013937D02*
X0005925D01*
Y0013819D01*
Y0013701D01*
X0006713D01*
X0007421Y0013425D02*
X0007224D01*
X0007106Y0013307D02*
Y0013228D01*
X0008130Y0015512D02*
X0008071D01*
X0007953Y0015630D01*
X0007894D01*
Y0015531D01*
X0008130Y0015630D02*
X0007953D01*
X0008130Y0016063D02*
X0008071D01*
X0007953Y0015945D01*
X0007894D01*
Y0015630D01*
X0007953Y0015945D02*
X0008130D01*
X0008012Y0016161D02*
X0007894Y0016043D01*
Y0015945D01*
X0007106Y0017087D02*
X0007224D01*
Y0017008D01*
X0008012D01*
X0007894Y0014055D02*
X0007953D01*
X0008130D01*
X0007894Y0014370D02*
X0007953D01*
X0008130D01*
X0007894Y0014468D02*
X0008012Y0014587D01*
X0007953Y0014370D02*
X0008071Y0014488D01*
X0008130D01*
X0008012Y0013838D02*
X0007894Y0013957D01*
X0008130Y0013937D02*
X0008071D01*
X0007953Y0014055D01*
X0007894Y0016043D02*
Y0016496D01*
X0007461Y0013346D02*
Y0013386D01*
X0008130Y0017087D02*
X0007224D01*
X0040878Y0004799D02*
Y0004937D01*
X0040622D01*
Y0004799D01*
X0041610Y0004461D02*
X0041650D01*
X0041689Y0004421D02*
Y0004224D01*
X0041571Y0004106D02*
X0041492D01*
X0041610Y0004224D02*
Y0004894D01*
Y0004972D01*
X0042004D01*
Y0004894D01*
X0041610D01*
X0041492Y0005012D01*
X0042338D01*
Y0005130D01*
X0043087D01*
Y0005012D01*
X0042968Y0004894D01*
X0044031D01*
X0044130D01*
X0044445D01*
X0044543D01*
X0044760D01*
X0045153D01*
X0045272Y0005012D01*
Y0004224D01*
X0045350D01*
Y0004106D01*
X0045272D01*
X0045153Y0004224D02*
Y0004894D01*
Y0004972D01*
X0044760D01*
Y0004894D01*
X0045350Y0005130D02*
Y0005287D01*
X0044760D01*
Y0005130D01*
X0045350D01*
Y0004224D01*
X0043087Y0005012D02*
X0043913D01*
Y0005130D01*
X0044661D01*
Y0005012D01*
X0045272D01*
X0041413Y0005287D02*
Y0005130D01*
X0042004D01*
Y0005287D01*
X0041413D01*
X0042004D02*
X0044760D01*
X0041492Y0004106D02*
X0041413D01*
Y0003713D01*
X0045350D01*
Y0004106D01*
X0042988Y0003713D02*
Y0002925D01*
X0043106D01*
X0043224D01*
Y0003713D01*
X0042437Y0005287D02*
Y0006075D01*
X0042319D01*
X0042201D01*
Y0005287D01*
X0043776D02*
Y0006075D01*
X0043894D01*
X0044012D01*
Y0005287D01*
X0044563Y0003713D02*
Y0002925D01*
X0044681D01*
X0044799D01*
Y0003713D01*
X0045075Y0004421D02*
Y0004224D01*
X0045193Y0004106D02*
X0045272D01*
X0042988Y0005130D02*
Y0005071D01*
X0042870Y0004953D01*
Y0004894D01*
X0042968D01*
X0042870Y0005130D02*
Y0004953D01*
X0042437Y0005130D02*
Y0005071D01*
X0042555Y0004953D01*
Y0004894D01*
X0042870D01*
X0042555Y0004953D02*
Y0005130D01*
X0042338Y0005012D02*
X0042457Y0004894D01*
X0042555D01*
X0041413Y0004106D02*
Y0004224D01*
X0041492D01*
Y0005012D01*
X0044445Y0004894D02*
Y0004953D01*
Y0005130D01*
X0044130Y0004894D02*
Y0004953D01*
Y0005130D01*
X0044031Y0004894D02*
X0043913Y0005012D01*
X0044130Y0004953D02*
X0044012Y0005071D01*
Y0005130D01*
X0044661Y0005012D02*
X0044543Y0004894D01*
X0044563Y0005130D02*
Y0005071D01*
X0044445Y0004953D01*
X0042457Y0004894D02*
X0042004D01*
X0045153Y0004461D02*
X0045114D01*
X0041413Y0005130D02*
Y0004224D01*
X0005878Y0011799D02*
Y0011937D01*
X0005622D01*
Y0011799D01*
X0026352Y-0009711D02*
X0026313D01*
X0026274Y-0009671D02*
Y-0009474D01*
X0026392Y-0009356D02*
X0026470D01*
X0026352Y-0009474D02*
Y-0010144D01*
Y-0010222D01*
X0025959D01*
Y-0010144D01*
X0026352D01*
X0026470Y-0010262D01*
X0025624D01*
X0025506Y-0010144D01*
X0025959D01*
X0025624Y-0010262D02*
Y-0010380D01*
X0024876D01*
Y-0010262D01*
X0024266D01*
Y-0009474D01*
X0024187D01*
Y-0010380D01*
X0024777D01*
Y-0010537D01*
X0024187D01*
Y-0010380D01*
X0026549Y-0010537D02*
Y-0010380D01*
X0025959D01*
Y-0010537D01*
X0026549D01*
X0025959D02*
X0024777D01*
X0024876Y-0010262D02*
X0024994Y-0010144D01*
X0024777D01*
Y-0010222D01*
X0024384D01*
Y-0010144D01*
Y-0009474D01*
X0024266Y-0009356D02*
X0024344D01*
X0024463Y-0009474D02*
Y-0009671D01*
X0026470Y-0009356D02*
X0026549D01*
Y-0008963D01*
X0024187D01*
Y-0009356D01*
Y-0009474D01*
X0025762Y-0010537D02*
Y-0011325D01*
X0025644D01*
X0025526D01*
Y-0010537D01*
X0024974Y-0008963D02*
Y-0008175D01*
X0024856D01*
X0024738D01*
Y-0008963D01*
X0026549Y-0009356D02*
Y-0009474D01*
X0026470D01*
Y-0010262D01*
X0025526Y-0010380D02*
Y-0010321D01*
X0025407Y-0010203D01*
Y-0010144D01*
X0025092D01*
Y-0010203D01*
Y-0010380D01*
X0025407Y-0010203D02*
Y-0010380D01*
Y-0010144D02*
X0025506D01*
X0024994D02*
X0025092D01*
X0024974Y-0010380D02*
Y-0010321D01*
X0025092Y-0010203D01*
X0024266Y-0010262D02*
X0024384Y-0010144D01*
X0024777D01*
X0024187Y-0009356D02*
X0024266D01*
X0024384Y-0009711D02*
X0024423D01*
X0026549Y-0010380D02*
Y-0009474D01*
X0006628Y0021299D02*
Y0021437D01*
X0006372D01*
Y0021299D01*
X0047831Y-0009724D02*
X0047295D01*
Y-0009565D01*
X0047831D01*
Y-0010935D01*
X0047976D01*
Y-0011258D01*
X0048134D01*
Y-0011726D01*
X0049866D01*
Y-0011258D01*
X0050024D01*
Y-0011833D01*
X0047976D01*
Y-0011258D01*
X0050169Y-0009724D02*
X0050705D01*
Y-0010776D01*
Y-0010935D01*
X0050169D01*
Y-0009565D01*
X0050705D01*
Y-0009724D01*
X0049866Y-0011258D02*
Y-0010681D01*
X0049929D01*
Y-0009819D01*
X0048071D01*
Y-0010681D01*
X0048134D01*
X0048476D01*
X0048945D01*
Y-0010335D01*
Y-0010098D01*
X0049055D01*
Y-0010335D01*
X0048945D01*
X0049866Y-0010681D02*
X0049524D01*
X0049055D01*
Y-0010335D01*
X0048476Y-0010681D02*
Y-0010791D01*
X0049524D01*
Y-0010681D01*
X0047976Y-0011833D02*
Y-0012061D01*
X0050024D01*
Y-0011833D01*
X0048134Y-0011258D02*
Y-0010681D01*
X0047831Y-0010776D02*
X0047295D01*
Y-0010935D01*
X0047831D01*
X0049617Y-0010375D02*
X0049367D01*
Y-0010125D01*
X0049426Y-0010184D01*
X0049558D01*
X0049617Y-0010125D01*
Y-0010375D01*
X0049558Y-0010316D01*
Y-0010184D01*
X0049367Y-0010125D02*
X0049617D01*
X0048442Y-0010316D02*
X0048383Y-0010375D01*
X0048633D01*
X0048574Y-0010316D01*
X0048442D01*
Y-0010184D01*
X0048383Y-0010125D01*
X0048633D01*
X0048574Y-0010184D01*
X0048442D01*
X0048633Y-0010125D02*
Y-0010375D01*
X0048574Y-0010316D02*
Y-0010184D01*
X0048383Y-0010125D02*
Y-0010375D01*
X0050169Y-0010776D02*
X0050705D01*
X0050024Y-0011258D02*
Y-0010935D01*
X0050169D01*
X0048945Y-0010098D02*
Y-0009819D01*
X0049055Y-0010098D02*
Y-0009819D01*
X0049367Y-0010375D02*
X0049426Y-0010316D01*
X0049558D01*
X0049426D02*
Y-0010184D01*
X0047295Y-0010776D02*
Y-0009724D01*
X0050169Y-0009565D02*
X0047831D01*
X0016128Y0011799D02*
Y0011937D01*
X0015872D01*
Y0011799D01*
X0044201Y0017128D02*
X0044063D01*
Y0016872D01*
X0044201D01*
X0012461Y0016890D02*
Y0016850D01*
X0012421Y0016811D02*
X0012224D01*
X0012106Y0016929D02*
Y0017008D01*
X0012224Y0016890D02*
X0012894D01*
X0012972D01*
Y0016496D01*
X0012894D01*
Y0016890D01*
X0013012Y0017008D01*
Y0016161D01*
X0013130D01*
Y0015413D01*
X0013012D01*
X0012894Y0015531D01*
Y0014468D01*
Y0014370D01*
Y0014055D01*
Y0013957D01*
Y0013740D01*
Y0013346D01*
X0013012Y0013228D01*
X0012224D01*
Y0013150D01*
X0012106D01*
Y0013228D01*
X0012224Y0013346D02*
X0012894D01*
X0012972D01*
Y0013740D01*
X0012894D01*
X0013130Y0013150D02*
X0013287D01*
Y0013740D01*
X0013130D01*
Y0013150D01*
X0012224D01*
X0013012Y0015413D02*
Y0014587D01*
X0013130D01*
Y0013838D01*
X0013012D01*
Y0013228D01*
X0013287Y0017087D02*
X0013130D01*
Y0016496D01*
X0013287D01*
Y0017087D01*
Y0016496D02*
Y0013740D01*
X0012106Y0017008D02*
Y0017087D01*
X0011713D01*
Y0013150D01*
X0012106D01*
X0011713Y0015512D02*
X0010925D01*
Y0015394D01*
Y0015276D01*
X0011713D01*
X0013287Y0016063D02*
X0014075D01*
Y0016181D01*
Y0016299D01*
X0013287D01*
Y0014724D02*
X0014075D01*
Y0014606D01*
Y0014488D01*
X0013287D01*
X0011713Y0013937D02*
X0010925D01*
Y0013819D01*
Y0013701D01*
X0011713D01*
X0012421Y0013425D02*
X0012224D01*
X0012106Y0013307D02*
Y0013228D01*
X0013130Y0015512D02*
X0013071D01*
X0012953Y0015630D01*
X0012894D01*
Y0015531D01*
X0013130Y0015630D02*
X0012953D01*
X0013130Y0016063D02*
X0013071D01*
X0012953Y0015945D01*
X0012894D01*
Y0015630D01*
X0012953Y0015945D02*
X0013130D01*
X0013012Y0016161D02*
X0012894Y0016043D01*
Y0015945D01*
X0012106Y0017087D02*
X0012224D01*
Y0017008D01*
X0013012D01*
X0012894Y0014055D02*
X0012953D01*
X0013130D01*
X0012894Y0014370D02*
X0012953D01*
X0013130D01*
X0012894Y0014468D02*
X0013012Y0014587D01*
X0012953Y0014370D02*
X0013071Y0014488D01*
X0013130D01*
X0013012Y0013838D02*
X0012894Y0013957D01*
X0013130Y0013937D02*
X0013071D01*
X0012953Y0014055D01*
X0012894Y0016043D02*
Y0016496D01*
X0012461Y0013346D02*
Y0013386D01*
X0013130Y0017087D02*
X0012224D01*
X0017746Y-0009711D02*
X0017707D01*
X0017667Y-0009671D02*
Y-0009474D01*
X0017785Y-0009356D02*
X0017864D01*
X0017746Y-0009474D02*
Y-0010144D01*
Y-0010222D01*
X0017352D01*
Y-0010144D01*
X0017746D01*
X0017864Y-0010262D01*
X0016624D01*
X0016506Y-0010144D01*
X0017352D01*
X0016624Y-0010262D02*
Y-0010380D01*
X0015876D01*
Y-0010262D01*
X0014872D01*
Y-0009474D01*
X0014793D01*
Y-0010380D01*
X0015384D01*
Y-0010537D01*
X0014793D01*
Y-0010380D01*
X0017943Y-0010537D02*
Y-0010380D01*
X0017352D01*
Y-0010537D01*
X0017943D01*
X0017352D02*
X0015384D01*
X0017155D02*
Y-0011325D01*
X0017037D01*
X0016919D01*
Y-0010537D01*
X0015463D01*
X0015876Y-0010262D02*
X0015994Y-0010144D01*
X0015384D01*
Y-0010222D01*
X0014990D01*
Y-0010144D01*
Y-0009474D01*
X0014872Y-0009356D02*
X0014951D01*
X0015069Y-0009474D02*
Y-0009671D01*
X0017864Y-0009356D02*
X0017943D01*
Y-0008963D01*
X0014793D01*
Y-0009356D01*
Y-0009474D01*
X0015581Y-0010537D02*
Y-0011325D01*
X0015463D01*
X0015344D01*
Y-0010537D01*
X0016368Y-0008963D02*
Y-0008175D01*
X0016250D01*
X0016132D01*
Y-0008963D01*
X0017943Y-0009356D02*
Y-0009474D01*
X0017864D01*
Y-0010262D01*
X0016526Y-0010380D02*
Y-0010321D01*
X0016407Y-0010203D01*
Y-0010144D01*
X0016092D01*
Y-0010203D01*
Y-0010380D01*
X0016407Y-0010203D02*
Y-0010380D01*
Y-0010144D02*
X0016506D01*
X0015994D02*
X0016092D01*
X0015974Y-0010380D02*
Y-0010321D01*
X0016092Y-0010203D01*
X0014872Y-0010262D02*
X0014990Y-0010144D01*
X0015384D01*
X0014793Y-0009356D02*
X0014872D01*
X0014990Y-0009711D02*
X0015029D01*
X0017943Y-0010380D02*
Y-0009474D01*
X0046122Y0039201D02*
Y0039063D01*
X0046378D01*
Y0039201D01*
X0022890Y-0009711D02*
X0022850D01*
X0022811Y-0009671D02*
Y-0009474D01*
X0022929Y-0009356D02*
X0023008D01*
X0022890Y-0009474D02*
Y-0010144D01*
Y-0010222D01*
X0022496D01*
Y-0010144D01*
X0022890D01*
X0023008Y-0010262D01*
X0022161D01*
Y-0010380D01*
X0021413D01*
Y-0010262D01*
X0021531Y-0010144D01*
X0020468D01*
X0020370D01*
X0020055D01*
X0019957D01*
X0019740D01*
X0019346D01*
X0019228Y-0010262D01*
Y-0009474D01*
X0019150D01*
Y-0009356D01*
X0019228D01*
X0019346Y-0009474D02*
Y-0010144D01*
Y-0010222D01*
X0019740D01*
Y-0010144D01*
X0019150Y-0010380D02*
Y-0010537D01*
X0019740D01*
Y-0010380D01*
X0019150D01*
Y-0009474D01*
X0021413Y-0010262D02*
X0020587D01*
Y-0010380D01*
X0019838D01*
Y-0010262D01*
X0019228D01*
X0023087Y-0010537D02*
Y-0010380D01*
X0022496D01*
Y-0010537D01*
X0023087D01*
X0022496D02*
X0019740D01*
X0023008Y-0009356D02*
X0023087D01*
Y-0008963D01*
X0019150D01*
Y-0009356D01*
X0021512Y-0008963D02*
Y-0008175D01*
X0021394D01*
X0021276D01*
Y-0008963D01*
X0022063Y-0010537D02*
Y-0011325D01*
X0022181D01*
X0022299D01*
Y-0010537D01*
X0020724D02*
Y-0011325D01*
X0020606D01*
X0020488D01*
Y-0010537D01*
X0019937Y-0008963D02*
Y-0008175D01*
X0019819D01*
X0019701D01*
Y-0008963D01*
X0019425Y-0009671D02*
Y-0009474D01*
X0019307Y-0009356D02*
X0019228D01*
X0021512Y-0010380D02*
Y-0010321D01*
X0021630Y-0010203D01*
Y-0010144D01*
X0021531D01*
X0021630Y-0010380D02*
Y-0010203D01*
X0022063Y-0010380D02*
Y-0010321D01*
X0021945Y-0010203D01*
Y-0010144D01*
X0021630D01*
X0021945Y-0010203D02*
Y-0010380D01*
X0022161Y-0010262D02*
X0022043Y-0010144D01*
X0021945D01*
X0023087Y-0009356D02*
Y-0009474D01*
X0023008D01*
Y-0010262D01*
X0020055Y-0010144D02*
Y-0010203D01*
Y-0010380D01*
X0020370Y-0010144D02*
Y-0010203D01*
Y-0010380D01*
X0020468Y-0010144D02*
X0020587Y-0010262D01*
X0020370Y-0010203D02*
X0020488Y-0010321D01*
Y-0010380D01*
X0019838Y-0010262D02*
X0019957Y-0010144D01*
X0019937Y-0010380D02*
Y-0010321D01*
X0020055Y-0010203D01*
X0022043Y-0010144D02*
X0022496D01*
X0019346Y-0009711D02*
X0019386D01*
X0023087Y-0010380D02*
Y-0009474D01*
X0044378Y0062299D02*
Y0062437D01*
X0044122D01*
Y0062299D01*
G01X0007421Y0016811D02*
G03X0007460Y0016850I0000000J0000039D01*
G01X0007106Y0016929D02*
G03X0007224Y0016811I0000118J0000000D01*
G01X0007106Y0017008D02*
G03X0007224Y0016890I0000118J0000000D01*
Y0013346D02*
G03X0007106Y0013228I0000000J0000118D01*
G01X0007382Y0016181D02*
G03X0007500Y0016063I0000118J0000000D01*
G03X0007618Y0016181I0000000J0000118D01*
G03X0007500Y0016299I0000118J0000000D01*
G03X0007382Y0016181I0000000J0000118D01*
Y0014606D02*
G03X0007500Y0014488I0000118J0000000D01*
G03X0007618Y0014606I0000000J0000118D01*
G03X0007500Y0014724I0000118J0000000D01*
G03X0007382Y0014606I0000000J0000118D01*
Y0015394D02*
G03X0007500Y0015276I0000118J0000000D01*
G03X0007618Y0015394I0000000J0000118D01*
G03X0007500Y0015512I0000118J0000000D01*
G03X0007382Y0015394I0000000J0000118D01*
Y0013819D02*
G03X0007500Y0013701I0000118J0000000D01*
G03X0007618Y0013819I0000000J0000118D01*
G03X0007500Y0013937I0000118J0000000D01*
G03X0007382Y0013819I0000000J0000118D01*
G01X0007224Y0013425D02*
G03X0007106Y0013307I0000000J0000118D01*
G01X0007451Y0013388D02*
G03X0007412Y0013427I0000039J0000000D01*
G01X0041689Y0004421D02*
G03X0041650Y0004460I0000039J0000000D01*
G01X0041571Y0004106D02*
G03X0041689Y0004224I0000000J0000118D01*
G01X0041492Y0004106D02*
G03X0041610Y0004224I0000000J0000118D01*
G01X0045153D02*
G03X0045272Y0004105I0000119J0000000D01*
G01X0042319Y0004382D02*
G03X0042437Y0004500I0000000J0000118D01*
G03X0042319Y0004618I0000118J0000000D01*
G03X0042201Y0004500I0000000J0000118D01*
G03X0042319Y0004382I0000118J0000000D01*
G01X0043894D02*
G03X0044012Y0004500I0000000J0000118D01*
G03X0043894Y0004618I0000118J0000000D01*
G03X0043776Y0004500I0000000J0000118D01*
G03X0043894Y0004382I0000118J0000000D01*
G01X0043106D02*
G03X0043224Y0004500I0000000J0000118D01*
G03X0043106Y0004618I0000118J0000000D01*
G03X0042988Y0004500I0000000J0000118D01*
G03X0043106Y0004382I0000118J0000000D01*
G01X0044681D02*
G03X0044799Y0004500I0000000J0000118D01*
G03X0044681Y0004618I0000118J0000000D01*
G03X0044563Y0004500I0000000J0000118D01*
G03X0044681Y0004382I0000118J0000000D01*
G01X0045075Y0004224D02*
G03X0045193Y0004106I0000118J0000000D01*
G01X0045112Y0004451D02*
G03X0045073Y0004412I0000000J0000039D01*
G01X0026274Y-0009671D02*
G03X0026313Y-0009710I0000039J0000000D01*
G01X0026392Y-0009356D02*
G03X0026274Y-0009474I0000000J0000118D01*
G01X0026470Y-0009356D02*
G03X0026352Y-0009474I0000000J0000118D01*
G01X0024384D02*
G03X0024375Y-0009431I0000118J0000000D01*
G03X0024266Y-0009357I0000109J0000043D01*
G01X0024463Y-0009474D02*
G03X0024344Y-0009355I0000119J0000000D01*
G01X0025644Y-0009632D02*
G03X0025526Y-0009750I0000000J0000118D01*
G03X0025644Y-0009868I0000118J0000000D01*
G03X0025762Y-0009750I0000000J0000118D01*
G03X0025644Y-0009632I0000118J0000000D01*
G01X0024856D02*
G03X0024738Y-0009750I0000000J0000118D01*
G03X0024856Y-0009868I0000118J0000000D01*
G03X0024974Y-0009750I0000000J0000118D01*
G03X0024856Y-0009632I0000118J0000000D01*
G01X0024421Y-0009711D02*
G03X0024461Y-0009671I0000000J0000040D01*
G01X0012421Y0016811D02*
G03X0012460Y0016850I0000000J0000039D01*
G01X0012106Y0016929D02*
G03X0012224Y0016811I0000118J0000000D01*
G01X0012106Y0017008D02*
G03X0012224Y0016890I0000118J0000000D01*
Y0013346D02*
G03X0012106Y0013228I0000000J0000118D01*
G01X0012382Y0016181D02*
G03X0012500Y0016063I0000118J0000000D01*
G03X0012618Y0016181I0000000J0000118D01*
G03X0012500Y0016299I0000118J0000000D01*
G03X0012382Y0016181I0000000J0000118D01*
Y0014606D02*
G03X0012500Y0014488I0000118J0000000D01*
G03X0012618Y0014606I0000000J0000118D01*
G03X0012500Y0014724I0000118J0000000D01*
G03X0012382Y0014606I0000000J0000118D01*
Y0015394D02*
G03X0012500Y0015276I0000118J0000000D01*
G03X0012618Y0015394I0000000J0000118D01*
G03X0012500Y0015512I0000118J0000000D01*
G03X0012382Y0015394I0000000J0000118D01*
Y0013819D02*
G03X0012500Y0013701I0000118J0000000D01*
G03X0012618Y0013819I0000000J0000118D01*
G03X0012500Y0013937I0000118J0000000D01*
G03X0012382Y0013819I0000000J0000118D01*
G01X0012224Y0013425D02*
G03X0012106Y0013307I0000000J0000118D01*
G01X0012451Y0013388D02*
G03X0012412Y0013427I0000039J0000000D01*
G01X0017667Y-0009671D02*
G03X0017707Y-0009711I0000040J0000000D01*
G01X0017785Y-0009356D02*
G03X0017667Y-0009474I0000000J0000118D01*
G01X0017864Y-0009356D02*
G03X0017746Y-0009474I0000000J0000118D01*
G01X0014990D02*
G03X0014872Y-0009356I0000118J0000000D01*
G01X0015069Y-0009474D02*
G03X0014951Y-0009356I0000118J0000000D01*
G01X0016250Y-0009632D02*
G03X0016132Y-0009750I0000000J0000118D01*
G03X0016250Y-0009868I0000118J0000000D01*
G03X0016368Y-0009750I0000000J0000118D01*
G03X0016250Y-0009632I0000118J0000000D01*
G01X0017037D02*
G03X0016919Y-0009750I0000000J0000118D01*
G03X0017037Y-0009868I0000118J0000000D01*
G03X0017155Y-0009750I0000000J0000118D01*
G03X0017037Y-0009632I0000118J0000000D01*
G01X0015463D02*
G03X0015345Y-0009750I0000000J0000118D01*
G01X0015344D02*
G03X0015463Y-0009869I0000119J0000000D01*
Y-0009868D02*
G03X0015581Y-0009750I0000000J0000118D01*
G03X0015463Y-0009632I0000118J0000000D01*
G01X0015034Y-0009711D02*
G03X0015073Y-0009672I0000000J0000039D01*
G01X0022811Y-0009671D02*
G03X0022850Y-0009710I0000039J0000000D01*
G01X0022929Y-0009356D02*
G03X0022811Y-0009474I0000000J0000118D01*
G01X0023008Y-0009356D02*
G03X0022890Y-0009474I0000000J0000118D01*
G01X0019346D02*
G03X0019228Y-0009356I0000118J0000000D01*
G01X0022181Y-0009632D02*
G03X0022063Y-0009750I0000000J0000118D01*
G03X0022181Y-0009868I0000118J0000000D01*
G03X0022299Y-0009750I0000000J0000118D01*
G03X0022181Y-0009632I0000118J0000000D01*
G01X0020606D02*
G03X0020488Y-0009750I0000000J0000118D01*
G03X0020606Y-0009868I0000118J0000000D01*
G03X0020724Y-0009750I0000000J0000118D01*
G03X0020606Y-0009632I0000118J0000000D01*
G01X0021394D02*
G03X0021276Y-0009750I0000000J0000118D01*
G03X0021394Y-0009868I0000118J0000000D01*
G03X0021512Y-0009750I0000000J0000118D01*
G03X0021394Y-0009632I0000118J0000000D01*
G01X0019819D02*
G03X0019701Y-0009750I0000000J0000118D01*
G03X0019819Y-0009868I0000118J0000000D01*
G03X0019937Y-0009750I0000000J0000118D01*
G03X0019819Y-0009632I0000118J0000000D01*
G01X0019425Y-0009474D02*
G03X0019307Y-0009356I0000118J0000000D01*
G01X0019388Y-0009701D02*
G03X0019427Y-0009662I0000000J0000039D01*
G54D118*
G01X0036591Y-0011091D02*
X0036985Y-0010697D01*
X0038069Y-0009389D02*
X0037872D01*
X0038069Y-0009318D02*
Y-0009417D01*
X0037872D01*
Y-0009318D02*
Y-0009417D01*
X0038069Y-0009318D02*
X0037872D01*
X0038058D02*
Y-0009417D01*
X0038005Y-0009318D02*
Y-0009417D01*
X0037952Y-0009318D02*
Y-0009417D01*
X0037899Y-0009318D02*
Y-0009417D01*
X0038069Y-0009336D02*
X0037872D01*
X0033638Y-0009614D02*
X0038362D01*
X0034129Y-0009389D02*
X0033932D01*
X0034129Y-0009318D02*
X0033932D01*
Y-0009417D01*
X0034129D02*
X0033932D01*
X0034129Y-0009318D02*
Y-0009417D01*
X0034118Y-0009318D02*
Y-0009417D01*
X0034065Y-0009318D02*
Y-0009417D01*
X0034013Y-0009318D02*
Y-0009417D01*
X0033960Y-0009318D02*
Y-0009417D01*
X0034129Y-0009336D02*
X0033932D01*
X0034227Y-0011091D02*
X0034621Y-0010697D01*
X0036985D02*
Y-0011091D01*
X0036591D01*
Y-0010697D01*
X0036985D01*
X0033712Y-0009614D02*
Y-0010106D01*
X0033659Y-0009614D02*
Y-0010106D01*
X0033730Y-0009656D02*
X0033631D01*
X0033730Y-0009708D02*
X0033631D01*
X0033730Y-0009761D02*
X0033631D01*
X0033730Y-0009814D02*
X0033631D01*
X0033730Y-0009867D02*
X0033631D01*
X0033730Y-0009920D02*
X0033631D01*
X0033730Y-0009972D02*
X0033631D01*
X0033730Y-0010025D02*
X0033631D01*
X0033730Y-0010078D02*
X0033631D01*
X0033730Y-0009614D02*
X0033631D01*
Y-0010106D01*
X0033730D02*
X0033631D01*
X0033730Y-0009614D02*
Y-0010106D01*
X0036197Y-0010697D02*
Y-0011091D01*
X0035803D01*
Y-0010697D01*
X0036197D01*
X0035803Y-0011091D02*
X0036197Y-0010697D01*
Y-0011091D02*
X0035803Y-0010697D01*
X0037773Y-0010303D02*
X0037379Y-0009909D01*
X0036985D02*
Y-0010303D01*
X0036591D01*
Y-0009909D01*
X0036985D01*
X0036591Y-0010303D02*
X0036985Y-0009909D01*
Y-0010303D02*
X0036591Y-0009909D01*
X0036197D02*
Y-0010303D01*
X0035803D01*
Y-0009909D01*
X0036197D01*
X0035803Y-0010303D02*
X0036197Y-0009909D01*
X0035409D02*
Y-0010303D01*
X0035015D01*
Y-0009909D01*
X0035409D01*
X0033712Y-0010795D02*
Y-0011288D01*
X0033659Y-0010795D02*
Y-0011288D01*
X0033730Y-0010838D02*
X0033631D01*
X0033730Y-0010890D02*
X0033631D01*
X0033730Y-0010943D02*
X0033631D01*
X0033730Y-0010996D02*
X0033631D01*
X0033730Y-0011049D02*
X0033631D01*
X0033730Y-0011102D02*
X0033631D01*
X0033730Y-0011154D02*
X0033631D01*
X0033730Y-0011207D02*
X0033631D01*
X0033730Y-0011260D02*
X0033631D01*
X0033730Y-0010795D02*
Y-0011288D01*
X0033631D01*
Y-0010795D02*
Y-0011288D01*
X0033730Y-0010795D02*
X0033631D01*
X0037833Y-0011583D02*
Y-0011682D01*
X0037781Y-0011583D02*
Y-0011682D01*
X0037728Y-0011583D02*
Y-0011682D01*
X0037675Y-0011583D02*
Y-0011682D01*
X0037622Y-0011583D02*
Y-0011682D01*
X0037569Y-0011583D02*
Y-0011682D01*
X0037517Y-0011583D02*
Y-0011682D01*
X0037464Y-0011583D02*
Y-0011682D01*
X0037411Y-0011583D02*
Y-0011682D01*
X0037876Y-0011601D02*
X0037383D01*
X0037876Y-0011654D02*
X0037383D01*
X0037876Y-0011583D02*
Y-0011682D01*
Y-0011583D02*
X0037383D01*
Y-0011682D01*
X0037876D02*
X0037383D01*
X0035015Y-0011091D02*
X0035409Y-0010697D01*
Y-0011091D02*
X0035015Y-0010697D01*
X0037773Y-0009909D02*
Y-0010303D01*
X0037379D01*
Y-0009909D01*
X0037773D01*
X0034621D02*
Y-0010303D01*
X0034227D01*
Y-0009909D01*
X0034621D01*
X0034227Y-0010303D02*
X0034621Y-0009909D01*
Y-0010303D02*
X0034227Y-0009909D01*
X0035409Y-0011386D02*
X0033638D01*
X0036591D02*
X0038362D01*
X0038351Y-0009614D02*
Y-0010106D01*
X0038298Y-0009614D02*
Y-0010106D01*
X0038369Y-0009656D02*
X0038270D01*
X0038369Y-0009708D02*
X0038270D01*
X0038369Y-0009761D02*
X0038270D01*
X0038369Y-0009814D02*
X0038270D01*
X0038369Y-0009867D02*
X0038270D01*
X0038369Y-0009920D02*
X0038270D01*
X0038369Y-0009972D02*
X0038270D01*
X0038369Y-0010025D02*
X0038270D01*
X0038369Y-0010078D02*
X0038270D01*
X0038369Y-0009614D02*
X0038270D01*
Y-0010106D01*
X0038369D02*
X0038270D01*
X0038369Y-0009614D02*
Y-0010106D01*
X0038351Y-0010795D02*
Y-0011288D01*
X0038298Y-0010795D02*
Y-0011288D01*
X0038369Y-0010838D02*
X0038270D01*
X0038369Y-0010890D02*
X0038270D01*
X0038369Y-0010943D02*
X0038270D01*
X0038369Y-0010996D02*
X0038270D01*
X0038369Y-0011049D02*
X0038270D01*
X0038369Y-0011102D02*
X0038270D01*
X0038369Y-0011154D02*
X0038270D01*
X0038369Y-0011207D02*
X0038270D01*
X0038369Y-0011260D02*
X0038270D01*
X0038369Y-0010795D02*
Y-0011288D01*
X0038270D01*
Y-0010795D02*
Y-0011288D01*
X0038369Y-0010795D02*
X0038270D01*
X0035409Y-0010697D02*
Y-0011091D01*
X0035015D01*
Y-0010697D01*
X0035409D01*
X0034621D02*
Y-0011091D01*
X0034227D01*
Y-0010697D01*
X0034621D01*
X0036985Y-0011091D02*
X0036591Y-0010697D01*
X0036197Y-0010303D02*
X0035803Y-0009909D01*
X0035015Y-0010303D02*
X0035409Y-0009909D01*
Y-0010303D02*
X0035015Y-0009909D01*
X0034621Y-0011091D02*
X0034227Y-0010697D01*
X0037773D02*
Y-0011091D01*
X0037379D01*
Y-0010697D01*
X0037773D01*
X0037379Y-0011091D02*
X0037773Y-0010697D01*
Y-0011091D02*
X0037379Y-0010697D01*
Y-0010303D02*
X0037773Y-0009909D01*
G54D119*
G01X0038165Y-0011681D02*
X0033638D01*
Y-0009417D01*
X0038362D01*
Y-0011681D01*
X0038165D01*
X0036590D02*
Y-0011287D01*
X0038362D01*
X0035410Y-0011681D02*
Y-0011287D01*
X0033638D01*
X0037576Y-0009417D02*
X0037182D01*
Y-0009318D01*
X0034818D01*
Y-0009417D01*
G54D11*
X0041338Y0079524D03*
X0005315D03*
X0002854Y0050209D03*
X0030315Y0041500D03*
X0044291Y0057968D03*
G54D45*
X0042323Y0079524D03*
X0006299D03*
X0002854Y0051193D03*
X0030315Y0040516D03*
X0044291Y0058953D03*
G54D68*
X0042250Y-0001000D03*
X0041250D03*
M02*
