*
G04 Mass Parameters ***
*
G04 Image ***
*
%IND:\UTENTI\00.LAVORI IN CORSO\METALTRONICA\22-303-0\22-303-0.SPT*%
%ICAS*%
%MOIN*%
%IPPOS*%
%ASAXBY*%
G74*%FSLAN2X34Y34*%
*
G04 Aperture Definitions ***
*
%AMTHERMAL89*
1,1,0.1211,0,0,*
1,0,0.0972,0,0,*
21,0,0.1212,0.0100,0,0,225.0*
21,0,0.1212,0.0100,0,0,315.0*%
%AMTHERMAL99*
1,1,0.1172,0,0,*
1,0,0.0933,0,0,*
21,0,0.1173,0.0100,0,0,45.0*
21,0,0.1173,0.0100,0,0,135.0*%
%AMTHERMAL104*
1,1,0.1172,0,0,*
1,0,0.0933,0,0,*
21,0,0.1173,0.0100,0,0,225.0*
21,0,0.1173,0.0100,0,0,315.0*%
%ADD10C,0.2362*%
%ADD11C,0.0394*%
%ADD12R,0.0380X0.0320*%
%ADD13R,0.1180X0.1060*%
%ADD14R,0.0404X0.0501*%
%ADD15R,0.0501X0.0404*%
%ADD16R,0.0630X0.1260*%
%ADD17R,0.0710X0.0400*%
%ADD18R,0.0320X0.0380*%
%ADD19R,0.1260X0.0630*%
%ADD20R,0.0400X0.0710*%
%ADD21R,0.0886X0.0905*%
%ADD22R,0.0905X0.0886*%
%ADD23R,0.1024X0.0510*%
%ADD24R,0.0500X0.0400*%
%ADD25R,0.0197X0.0315*%
%ADD26R,0.0850X0.1080*%
%ADD27R,0.0472X0.0472*%
%ADD28R,0.1669X0.1500*%
%ADD29C,0.1000*%
%ADD30R,0.1220X0.0905*%
%ADD31C,0.0610*%
%ADD32R,0.0610X0.0610*%
%ADD33C,0.0433*%
%ADD34R,0.2165X0.0472*%
%ADD35C,0.0512*%
%ADD36C,0.0866*%
%ADD37R,0.0669X0.0669*%
%ADD38C,0.0669*%
%ADD39C,0.0787*%
%ADD40R,0.0787X0.0787*%
%ADD41R,0.0236X0.0413*%
%ADD42C,0.0276*%
%ADD43C,0.0187*%
%ADD44R,0.0709X0.0354*%
%ADD45C,0.0551*%
%ADD46R,0.0354X0.0709*%
%ADD47R,0.0680X0.1580*%
%ADD48R,0.0680X0.0550*%
%ADD49R,0.0570X0.0590*%
%ADD50R,0.0630X0.0866*%
%ADD51R,0.0590X0.0433*%
%ADD52R,0.1080X0.0850*%
%ADD53O,0.0256X0.0650*%
%ADD54R,0.0236X0.0512*%
%ADD55R,0.1220X0.0950*%
%ADD56R,0.0240X0.0750*%
%ADD57R,0.0354X0.0165*%
%ADD58R,0.0236X0.0157*%
%ADD59R,0.1701X0.1181*%
%ADD60R,0.0177X0.0649*%
%ADD61O,0.0118X0.0590*%
%ADD62R,0.1181X0.1701*%
%ADD63R,0.0649X0.0177*%
%ADD64R,0.0157X0.0236*%
%ADD65O,0.0590X0.0118*%
%ADD66R,0.0500X0.0270*%
%ADD67R,0.0270X0.0500*%
%ADD68C,0.0800*%
%ADD69R,0.0512X0.0354*%
%ADD70O,0.0110X0.0700*%
%ADD71R,0.0110X0.0700*%
%ADD72O,0.0700X0.0110*%
%ADD73R,0.0700X0.0110*%
%ADD74C,0.0236*%
%ADD75C,0.0100*%
%ADD76C,0.0050*%
%ADD77C,0.0236*%
%ADD78C,0.0080*%
%ADD79C,0.0236*%
%ADD80C,0.0150*%
%ADD81C,0.0400*%
%ADD82C,0.0250*%
%ADD83C,0.0500*%
%ADD84C,0.0236*%
%ADD85R,0.0472X0.2165*%
%ADD86R,0.0787X0.0236*%
%ADD87R,0.0669X0.0236*%
%ADD88C,0.0050*%
%ADD89THERMAL89*%
%ADD90C,0.1181*%
%ADD91C,0.0710*%
%ADD92R,0.0710X0.0710*%
%ADD93C,0.0630*%
%ADD94C,0.0700*%
%ADD95C,0.1024*%
%ADD96R,0.0827X0.0827*%
%ADD97C,0.0866*%
%ADD98C,0.1027*%
%ADD99THERMAL99*%
%ADD100R,0.0984X0.0984*%
%ADD101C,0.0750*%
%ADD102C,0.0600*%
%ADD103C,0.1100*%
%ADD104THERMAL104*%
%ADD105R,0.0984X0.0984*%
%ADD106C,0.0394*%
%ADD107C,0.0394*%
%ADD108C,0.0050*%
%ADD109C,0.0394*%
%ADD110C,0.0050*%
%ADD111C,0.1378*%
%ADD112C,0.0550*%
%ADD113C,0.0390*%
%ADD114C,0.0590*%
%ADD115R,0.0433X0.0433*%
*
G04 Plot Data ***
*
G54D76*
G01X0042690Y-0007471D02*
Y-0007713D01*
X0042645Y-0007450D02*
Y-0007713D01*
X0042600Y-0007425D02*
Y-0007713D01*
X0042555Y-0007396D02*
Y-0007713D01*
X0042510Y-0007363D02*
Y-0007713D01*
X0042465Y-0007324D02*
Y-0007713D01*
X0042420Y-0007279D02*
Y-0007713D01*
X0042375Y-0007224D02*
Y-0007713D01*
X0042330Y-0007158D02*
Y-0007713D01*
X0042285Y-0007093D02*
Y-0007713D01*
X0042240Y-0007093D02*
Y-0007713D01*
X0042195Y-0007093D02*
Y-0007713D01*
X0042150Y-0007093D02*
Y-0007713D01*
X0042105Y-0007093D02*
Y-0007713D01*
X0042060Y-0007093D02*
Y-0007703D01*
X0042316Y-0007133D02*
X0042020D01*
X0042342Y-0007178D02*
X0042020D01*
X0042374Y-0007223D02*
X0042020D01*
X0042410Y-0007268D02*
X0042020D01*
X0042453Y-0007313D02*
X0042020D01*
X0042503Y-0007358D02*
X0042020D01*
X0042564Y-0007403D02*
X0042020D01*
X0042641Y-0007448D02*
X0042020D01*
X0042748Y-0007493D02*
X0042020D01*
X0043980Y-0007538D02*
X0042020D01*
X0043980Y-0007583D02*
X0042020D01*
X0043980Y-0007628D02*
X0042020D01*
X0043950Y-0007093D02*
Y-0007696D01*
X0043905Y-0007093D02*
Y-0007713D01*
X0043860Y-0007093D02*
Y-0007713D01*
X0043815Y-0007093D02*
Y-0007713D01*
X0043770Y-0007093D02*
Y-0007713D01*
X0043725Y-0007093D02*
Y-0007713D01*
X0043680Y-0007145D02*
Y-0007713D01*
X0043635Y-0007211D02*
Y-0007713D01*
X0043590Y-0007265D02*
Y-0007713D01*
X0043545Y-0007310D02*
Y-0007713D01*
X0043500Y-0007350D02*
Y-0007713D01*
X0043455Y-0007384D02*
Y-0007713D01*
X0043410Y-0007413D02*
Y-0007713D01*
X0043365Y-0007439D02*
Y-0007713D01*
X0043320Y-0007461D02*
Y-0007713D01*
X0043275Y-0007479D02*
Y-0007713D01*
X0043230Y-0007495D02*
Y-0007713D01*
X0043185Y-0007508D02*
Y-0007713D01*
X0043140Y-0007518D02*
Y-0007713D01*
X0043095Y-0007525D02*
Y-0007713D01*
X0043050Y-0007530D02*
Y-0007713D01*
X0043005Y-0007533D02*
Y-0007713D01*
X0042960Y-0007532D02*
Y-0007713D01*
X0042915Y-0007529D02*
Y-0007713D01*
X0042870Y-0007523D02*
Y-0007713D01*
X0042825Y-0007514D02*
Y-0007713D01*
X0042780Y-0007503D02*
Y-0007713D01*
X0042735Y-0007488D02*
Y-0007713D01*
X0043980Y-0007133D02*
X0043687D01*
X0043980Y-0007178D02*
X0043659D01*
X0043980Y-0007223D02*
X0043625D01*
X0043980Y-0007268D02*
X0043587D01*
X0043980Y-0007313D02*
X0043542D01*
X0043980Y-0007358D02*
X0043490D01*
X0043980Y-0007403D02*
X0043426D01*
X0043980Y-0007448D02*
X0043347D01*
X0043980Y-0007493D02*
X0043236D01*
X0043970Y-0007673D02*
X0042030D01*
X0042290Y-0007093D02*
X0042300Y-0007103D01*
X0042290Y-0007093D02*
X0042020D01*
Y-0007633D01*
Y-0007635D01*
X0043900Y-0007713D02*
X0042100D01*
X0043902D02*
X0043900D01*
X0043980Y-0007093D02*
Y-0007633D01*
Y-0007093D02*
X0043710D01*
X0043000Y-0007533D02*
X0042994D01*
X0042687Y-0005772D02*
Y-0006019D01*
X0042642Y-0005772D02*
Y-0006041D01*
X0042597Y-0005772D02*
Y-0006065D01*
X0042552Y-0005772D02*
Y-0006094D01*
X0042507Y-0005772D02*
Y-0006127D01*
X0042462Y-0005772D02*
Y-0006165D01*
X0042417Y-0005772D02*
Y-0006209D01*
X0042372Y-0005772D02*
Y-0006261D01*
X0042327Y-0005772D02*
Y-0006323D01*
X0042282Y-0005772D02*
Y-0006392D01*
X0042237Y-0005772D02*
Y-0006392D01*
X0042192Y-0005772D02*
Y-0006392D01*
X0042147Y-0005772D02*
Y-0006392D01*
X0042102Y-0005772D02*
Y-0006392D01*
X0042057Y-0005782D02*
Y-0006392D01*
X0043966Y-0005812D02*
X0042027D01*
X0043977Y-0005857D02*
X0042017D01*
X0043977Y-0005902D02*
X0042017D01*
X0043977Y-0005947D02*
X0042017D01*
X0042760Y-0005992D02*
X0042017D01*
X0042649Y-0006037D02*
X0042017D01*
X0042570Y-0006082D02*
X0042017D01*
X0042507Y-0006127D02*
X0042017D01*
X0042454Y-0006172D02*
X0042017D01*
X0042409Y-0006217D02*
X0042017D01*
X0042371Y-0006262D02*
X0042017D01*
X0042338Y-0006307D02*
X0042017D01*
X0043947Y-0005788D02*
Y-0006392D01*
X0043902Y-0005772D02*
Y-0006392D01*
X0043857Y-0005772D02*
Y-0006392D01*
X0043812Y-0005772D02*
Y-0006392D01*
X0043767Y-0005772D02*
Y-0006392D01*
X0043722Y-0005772D02*
Y-0006392D01*
X0043677Y-0005772D02*
Y-0006344D01*
X0043632Y-0005772D02*
Y-0006274D01*
X0043587Y-0005772D02*
Y-0006217D01*
X0043542Y-0005772D02*
Y-0006170D01*
X0043497Y-0005772D02*
Y-0006129D01*
X0043452Y-0005772D02*
Y-0006095D01*
X0043407Y-0005772D02*
Y-0006065D01*
X0043362Y-0005772D02*
Y-0006040D01*
X0043317Y-0005772D02*
Y-0006018D01*
X0043272Y-0005772D02*
Y-0006000D01*
X0043227Y-0005772D02*
Y-0005985D01*
X0043182Y-0005772D02*
Y-0005973D01*
X0043137Y-0005772D02*
Y-0005963D01*
X0043092Y-0005772D02*
Y-0005957D01*
X0043047Y-0005772D02*
Y-0005953D01*
X0043002Y-0005772D02*
Y-0005952D01*
X0042957Y-0005772D02*
Y-0005953D01*
X0042912Y-0005772D02*
Y-0005958D01*
X0042867Y-0005772D02*
Y-0005965D01*
X0042822Y-0005772D02*
Y-0005974D01*
X0042777Y-0005772D02*
Y-0005986D01*
X0042732Y-0005772D02*
Y-0006001D01*
X0043977Y-0005992D02*
X0043248D01*
X0043977Y-0006037D02*
X0043355D01*
X0043977Y-0006082D02*
X0043432D01*
X0043977Y-0006127D02*
X0043493D01*
X0043977Y-0006172D02*
X0043543D01*
X0043977Y-0006217D02*
X0043586D01*
X0043977Y-0006262D02*
X0043622D01*
X0043977Y-0006307D02*
X0043654D01*
X0043977Y-0006352D02*
X0043681D01*
X0042309D02*
X0042017D01*
X0043002Y-0005952D02*
X0042997D01*
X0042287Y-0006392D02*
X0042017D01*
Y-0005852D02*
Y-0006392D01*
Y-0005850D02*
Y-0005852D01*
X0043897Y-0005772D02*
X0042097D01*
X0043898D02*
X0043897D01*
X0043977Y-0005852D02*
Y-0006392D01*
X0043707D01*
X0043697Y-0006382D02*
X0043707Y-0006392D01*
X0049717Y0074250D02*
Y0073852D01*
X0049672Y0074229D02*
Y0073852D01*
X0049627Y0074211D02*
Y0073852D01*
X0049582Y0074195D02*
Y0073852D01*
X0049537Y0074181D02*
Y0073852D01*
X0049492Y0074169D02*
Y0073852D01*
X0049447Y0074159D02*
Y0073852D01*
X0049402Y0074151D02*
Y0073852D01*
X0049357Y0074145D02*
Y0073852D01*
X0049312Y0074141D02*
Y0073852D01*
X0049267Y0074138D02*
Y0073852D01*
X0049222Y0074138D02*
Y0073852D01*
X0049177Y0074139D02*
Y0073852D01*
X0049132Y0074142D02*
Y0073852D01*
X0049087Y0074147D02*
Y0073852D01*
X0049042Y0074153D02*
Y0073852D01*
X0048997Y0074162D02*
Y0073852D01*
X0048952Y0074173D02*
Y0073852D01*
X0048907Y0074185D02*
Y0073852D01*
X0048862Y0074200D02*
Y0073852D01*
X0048817Y0074217D02*
Y0073852D01*
X0048772Y0074236D02*
Y0073852D01*
X0048727Y0074258D02*
Y0073852D01*
X0048682Y0074282D02*
Y0073852D01*
X0048637Y0074309D02*
Y0073852D01*
X0048592Y0074338D02*
Y0073852D01*
X0048547Y0074372D02*
Y0073852D01*
X0048502Y0074409D02*
Y0073852D01*
X0048457Y0074450D02*
Y0073852D01*
X0048412Y0074496D02*
Y0073852D01*
X0048367Y0074548D02*
Y0073852D01*
X0048322Y0074607D02*
Y0073852D01*
X0048277Y0074676D02*
Y0073852D01*
X0048232Y0074758D02*
Y0073852D01*
X0048187Y0074837D02*
Y0073852D01*
X0048142Y0074837D02*
Y0073852D01*
X0048097Y0074837D02*
Y0073852D01*
X0048052Y0074837D02*
Y0073852D01*
X0048007Y0074837D02*
Y0073852D01*
X0047962Y0074837D02*
Y0073852D01*
X0047917Y0074837D02*
Y0073852D01*
X0047872Y0074837D02*
Y0073852D01*
X0048216Y0074792D02*
X0047832D01*
X0048238Y0074747D02*
X0047832D01*
X0048262Y0074702D02*
X0047832D01*
X0048289Y0074657D02*
X0047832D01*
X0048318Y0074612D02*
X0047832D01*
X0048352Y0074567D02*
X0047832D01*
X0048389Y0074522D02*
X0047832D01*
X0048430Y0074477D02*
X0047832D01*
X0048476Y0074432D02*
X0047832D01*
X0048528Y0074387D02*
X0047832D01*
X0048587Y0074342D02*
X0047832D01*
X0048656Y0074297D02*
X0047832D01*
X0048738Y0074252D02*
X0047832D01*
X0048842Y0074207D02*
X0047832D01*
X0048997Y0074162D02*
X0047832D01*
X0050628Y0074117D02*
X0047832D01*
X0050628Y0074072D02*
X0047832D01*
X0050628Y0074027D02*
X0047832D01*
X0050628Y0073982D02*
X0047832D01*
X0050628Y0073937D02*
X0047832D01*
X0050628Y0074792D02*
X0050244D01*
X0050628Y0074747D02*
X0050222D01*
X0050628Y0074702D02*
X0050198D01*
X0050628Y0074657D02*
X0050171D01*
X0050628Y0074612D02*
X0050141D01*
X0050628Y0074567D02*
X0050108D01*
X0050628Y0074522D02*
X0050071D01*
X0050628Y0074477D02*
X0050030D01*
X0050628Y0074432D02*
X0049984D01*
X0050628Y0074387D02*
X0049932D01*
X0050628Y0074342D02*
X0049873D01*
X0050628Y0074297D02*
X0049804D01*
X0050628Y0074252D02*
X0049722D01*
X0050628Y0074207D02*
X0049617D01*
X0050628Y0074162D02*
X0049463D01*
X0050628Y0073892D02*
X0047832D01*
X0048197Y0074837D02*
X0047832D01*
Y0073852D01*
X0050628D02*
X0047832D01*
X0050628Y0074837D02*
Y0073852D01*
Y0074837D02*
X0050262D01*
X0050617D02*
Y0073852D01*
X0050572Y0074837D02*
Y0073852D01*
X0050527Y0074837D02*
Y0073852D01*
X0050482Y0074837D02*
Y0073852D01*
X0050437Y0074837D02*
Y0073852D01*
X0050392Y0074837D02*
Y0073852D01*
X0050347Y0074837D02*
Y0073852D01*
X0050302Y0074837D02*
Y0073852D01*
X0050257Y0074823D02*
Y0073852D01*
X0050212Y0074728D02*
Y0073852D01*
X0050167Y0074651D02*
Y0073852D01*
X0050122Y0074586D02*
Y0073852D01*
X0050077Y0074529D02*
Y0073852D01*
X0050032Y0074479D02*
Y0073852D01*
X0049987Y0074435D02*
Y0073852D01*
X0049942Y0074396D02*
Y0073852D01*
X0049897Y0074360D02*
Y0073852D01*
X0049852Y0074328D02*
Y0073852D01*
X0049807Y0074299D02*
Y0073852D01*
X0049762Y0074273D02*
Y0073852D01*
X0049717Y0076648D02*
Y0076249D01*
X0049672Y0076648D02*
Y0076270D01*
X0049627Y0076648D02*
Y0076288D01*
X0049582Y0076648D02*
Y0076305D01*
X0049537Y0076648D02*
Y0076319D01*
X0049492Y0076648D02*
Y0076330D01*
X0049447Y0076648D02*
Y0076340D01*
X0049402Y0076648D02*
Y0076348D01*
X0049357Y0076648D02*
Y0076355D01*
X0049312Y0076648D02*
Y0076359D01*
X0049267Y0076648D02*
Y0076361D01*
X0049222Y0076648D02*
Y0076362D01*
X0049177Y0076648D02*
Y0076361D01*
X0049132Y0076648D02*
Y0076358D01*
X0049087Y0076648D02*
Y0076353D01*
X0049042Y0076648D02*
Y0076346D01*
X0048997Y0076648D02*
Y0076338D01*
X0048952Y0076648D02*
Y0076327D01*
X0048907Y0076648D02*
Y0076314D01*
X0048862Y0076648D02*
Y0076300D01*
X0048817Y0076648D02*
Y0076283D01*
X0048772Y0076648D02*
Y0076264D01*
X0048727Y0076648D02*
Y0076242D01*
X0048682Y0076648D02*
Y0076218D01*
X0048637Y0076648D02*
Y0076191D01*
X0048592Y0076648D02*
Y0076161D01*
X0048547Y0076648D02*
Y0076128D01*
X0048502Y0076648D02*
Y0076091D01*
X0048457Y0076648D02*
Y0076050D01*
X0048412Y0076648D02*
Y0076004D01*
X0048367Y0076648D02*
Y0075952D01*
X0048322Y0076648D02*
Y0075893D01*
X0048277Y0076648D02*
Y0075824D01*
X0048232Y0076648D02*
Y0075742D01*
X0048187Y0076648D02*
Y0075663D01*
X0048142Y0076648D02*
Y0075663D01*
X0048097Y0076648D02*
Y0075663D01*
X0048052Y0076648D02*
Y0075663D01*
X0048007Y0076648D02*
Y0075663D01*
X0047962Y0076648D02*
Y0075663D01*
X0047917Y0076648D02*
Y0075663D01*
X0047872Y0076648D02*
Y0075663D01*
X0050628Y0076603D02*
X0047832D01*
X0050628Y0076558D02*
X0047832D01*
X0050628Y0076513D02*
X0047832D01*
X0050628Y0076468D02*
X0047832D01*
X0050628Y0076423D02*
X0047832D01*
X0050628Y0076378D02*
X0047832D01*
X0048978Y0076333D02*
X0047832D01*
X0048831Y0076288D02*
X0047832D01*
X0048729Y0076243D02*
X0047832D01*
X0048649Y0076198D02*
X0047832D01*
X0048581Y0076153D02*
X0047832D01*
X0048522Y0076108D02*
X0047832D01*
X0048471Y0076063D02*
X0047832D01*
X0048426Y0076018D02*
X0047832D01*
X0048385Y0075973D02*
X0047832D01*
X0048348Y0075928D02*
X0047832D01*
X0048315Y0075883D02*
X0047832D01*
X0048286Y0075838D02*
X0047832D01*
X0048259Y0075793D02*
X0047832D01*
X0048235Y0075748D02*
X0047832D01*
X0050628Y0076333D02*
X0049481D01*
X0050628Y0076288D02*
X0049628D01*
X0050628Y0076243D02*
X0049730D01*
X0050628Y0076198D02*
X0049811D01*
X0050628Y0076153D02*
X0049878D01*
X0050628Y0076108D02*
X0049937D01*
X0050628Y0076063D02*
X0049988D01*
X0050628Y0076018D02*
X0050034D01*
X0050628Y0075973D02*
X0050074D01*
X0050628Y0075928D02*
X0050111D01*
X0050628Y0075883D02*
X0050144D01*
X0050628Y0075838D02*
X0050173D01*
X0050628Y0075793D02*
X0050200D01*
X0050628Y0075748D02*
X0050224D01*
X0050628Y0075703D02*
X0050245D01*
X0048214D02*
X0047832D01*
X0050628Y0075663D02*
X0050262D01*
X0050628Y0076648D02*
Y0075663D01*
Y0076648D02*
X0047832D01*
Y0075663D01*
X0048197D02*
X0047832D01*
X0050617Y0076648D02*
Y0075663D01*
X0050572Y0076648D02*
Y0075663D01*
X0050527Y0076648D02*
Y0075663D01*
X0050482Y0076648D02*
Y0075663D01*
X0050437Y0076648D02*
Y0075663D01*
X0050392Y0076648D02*
Y0075663D01*
X0050347Y0076648D02*
Y0075663D01*
X0050302Y0076648D02*
Y0075663D01*
X0050257Y0076648D02*
Y0075675D01*
X0050212Y0076648D02*
Y0075771D01*
X0050167Y0076648D02*
Y0075848D01*
X0050122Y0076648D02*
Y0075913D01*
X0050077Y0076648D02*
Y0075970D01*
X0050032Y0076648D02*
Y0076020D01*
X0049987Y0076648D02*
Y0076064D01*
X0049942Y0076648D02*
Y0076104D01*
X0049897Y0076648D02*
Y0076139D01*
X0049852Y0076648D02*
Y0076171D01*
X0049807Y0076648D02*
Y0076200D01*
X0049762Y0076648D02*
Y0076226D01*
G01X0042020Y-0007635D02*
G03X0042098Y-0007713I0000078J0000000D01*
G03X0042100Y-0007713I0000000J0000078D01*
G01X0043902D02*
G03X0043980Y-0007635I0000000J0000078D01*
G03X0043980Y-0007633I0000078J0000000D01*
G01X0043000Y-0007533D02*
G03X0043710Y-0007093I0000017J0000820D01*
G01X0042300Y-0007103D02*
G03X0042994Y-0007532I0000694J0000346D01*
G01X0043697Y-0006382D02*
G03X0043002Y-0005951I0000695J0000345D01*
G01X0042997Y-0005952D02*
G03X0042287Y-0006392I0000017J0000820D01*
G01X0042095Y-0005772D02*
G03X0042017Y-0005850I0000000J0000078D01*
G01X0042097Y-0005772D02*
G03X0042095Y-0005772I0000002J0000078D01*
G01X0043977Y-0005850D02*
G03X0043898Y-0005771I0000079J0000000D01*
G01X0043977Y-0005852D02*
G03X0043977Y-0005850I0000079J0000002D01*
G01X0049230Y0074138D02*
G03X0050262Y0074837I0000000J0001112D01*
G01X0048197D02*
G03X0049230Y0074137I0001033J0000413D01*
Y0076362D02*
G03X0048197Y0075663I0000000J0001112D01*
G01X0050262D02*
G03X0049230Y0076362I0001032J0000413D01*
G54D12*
X0002250Y-0003720D03*
Y-0004280D03*
X0012250Y-0007780D03*
Y-0007220D03*
X0011500Y-0007780D03*
Y-0007220D03*
X0010750Y-0007780D03*
Y-0007220D03*
X0024250Y0003280D03*
Y0002720D03*
X0019250Y0003280D03*
Y0002720D03*
Y0004530D03*
Y0003970D03*
X0023500Y0002720D03*
Y0003280D03*
X0020250Y-0008970D03*
Y-0009530D03*
X0018750Y-0008970D03*
Y-0009530D03*
X0020500Y-0010970D03*
Y-0011530D03*
X0019750D03*
Y-0010970D03*
X0018750Y-0007220D03*
Y-0007780D03*
X0021750Y-0008970D03*
Y-0009530D03*
X0021000Y-0008970D03*
Y-0009530D03*
X0021750Y-0007720D03*
Y-0008280D03*
X0010000Y-0007220D03*
Y-0007780D03*
X0009250Y-0007220D03*
Y-0007780D03*
X0014500D03*
Y-0007220D03*
X0008500Y-0008470D03*
Y-0009030D03*
X0007750Y-0008470D03*
Y-0009030D03*
X0007000Y-0008470D03*
Y-0009030D03*
X0006250Y-0008470D03*
Y-0009030D03*
X0005500Y-0008470D03*
Y-0009030D03*
X0004750Y-0008470D03*
Y-0009030D03*
X0004000Y-0008470D03*
Y-0009030D03*
X0003250Y-0008470D03*
Y-0009030D03*
X0002500Y-0008470D03*
Y-0009030D03*
X0001750Y-0008470D03*
Y-0009030D03*
X0001000Y-0008470D03*
Y-0009030D03*
X0000250Y-0008470D03*
Y-0009030D03*
X-0000500Y-0008470D03*
Y-0009030D03*
X-0001250Y-0008470D03*
Y-0009030D03*
X0002250Y-0002470D03*
Y-0003030D03*
Y-0001220D03*
Y-0001780D03*
X0008500Y-0007220D03*
Y-0007780D03*
X-0002000Y-0005970D03*
Y-0006530D03*
X0033750Y0079220D03*
Y0079780D03*
X0032750Y0077970D03*
Y0078530D03*
X0033750D03*
Y0077970D03*
X0035000Y0079220D03*
Y0079780D03*
X0037000D03*
Y0079220D03*
X0011750Y0078530D03*
Y0077970D03*
X0009750Y0079030D03*
Y0078470D03*
X0011000Y0078530D03*
Y0077970D03*
X0009000Y0078470D03*
Y0079030D03*
X0008000D03*
Y0078470D03*
X0002750Y0043530D03*
Y0042970D03*
X0000750D03*
Y0043530D03*
X-0000250Y0044720D03*
Y0045280D03*
X0000500Y0047720D03*
Y0048280D03*
X-0000250D03*
Y0047720D03*
X0041500Y0033030D03*
Y0032470D03*
X0042250Y0034780D03*
Y0034220D03*
X0041500D03*
Y0034780D03*
X0033500Y0033720D03*
Y0034280D03*
X0032750D03*
Y0033720D03*
X0045500Y0050470D03*
Y0051030D03*
Y0049220D03*
Y0049780D03*
X0047000Y0050470D03*
Y0051030D03*
X0043250Y0056470D03*
Y0057030D03*
X0044500D03*
Y0056470D03*
Y0019720D03*
Y0020280D03*
X0042250D03*
Y0019720D03*
X0043750D03*
Y0020280D03*
X0040250Y0014720D03*
Y0015280D03*
X0038750Y0013470D03*
Y0014030D03*
Y0014720D03*
Y0015280D03*
X0041250Y0016970D03*
Y0017530D03*
Y0018220D03*
Y0018780D03*
X0049250Y0028470D03*
Y0029030D03*
X0047250Y0032280D03*
Y0031720D03*
X0045250Y0032280D03*
Y0031720D03*
X0047750Y0028470D03*
Y0029030D03*
X0046250Y0028470D03*
Y0029030D03*
X0049500Y0034530D03*
Y0033970D03*
X0010000Y0020280D03*
Y0019720D03*
X0007000Y0016970D03*
Y0017530D03*
X0012500Y0018780D03*
Y0018220D03*
X0008500Y0019720D03*
Y0020280D03*
X0009250Y0019720D03*
Y0020280D03*
X0003500Y0017030D03*
Y0016470D03*
X0007750Y0003970D03*
Y0004530D03*
X0007000Y0007780D03*
Y0007220D03*
X0008000Y0006030D03*
Y0005470D03*
X0005500Y0003970D03*
Y0004530D03*
X0007000Y0003970D03*
Y0004530D03*
X0003250Y0008030D03*
Y0007470D03*
X0050750Y0022470D03*
Y0023030D03*
Y0015720D03*
Y0016280D03*
X0046250Y0021280D03*
Y0020720D03*
X0050000Y0019220D03*
Y0019780D03*
X0049000Y0019220D03*
Y0019780D03*
X0044500Y0004530D03*
Y0003970D03*
X0046250Y0002030D03*
Y0001470D03*
Y0003280D03*
Y0002720D03*
X0043250Y0002470D03*
Y0003030D03*
X0042500Y0002470D03*
Y0003030D03*
X0038000Y0001030D03*
Y0000470D03*
X0045750Y0057030D03*
Y0056470D03*
X0050750Y0055220D03*
Y0055780D03*
Y0053470D03*
Y0054030D03*
X0048250Y0055470D03*
Y0056030D03*
X0047500Y0055470D03*
Y0056030D03*
X0048750Y0060030D03*
Y0059470D03*
X0014000Y0003720D03*
Y0004280D03*
X0015000Y0004780D03*
Y0004220D03*
X0015750Y0005470D03*
Y0006030D03*
X0011000Y0003720D03*
Y0004280D03*
X0011750D03*
Y0003720D03*
X0013250Y0008030D03*
Y0007470D03*
X0013000Y-0007780D03*
Y-0007220D03*
X0012250Y-0006280D03*
Y-0005720D03*
X0013750D03*
Y-0006280D03*
Y-0007220D03*
Y-0007780D03*
X0038500Y0076220D03*
Y0076780D03*
X0037750D03*
Y0076220D03*
X0039000Y0077720D03*
Y0078280D03*
X0044750Y0072780D03*
Y0072220D03*
X0046250D03*
Y0072780D03*
X0030500Y-0000280D03*
Y0000280D03*
X0032750Y-0000280D03*
Y0000280D03*
X0038250Y-0003530D03*
Y-0002970D03*
X0035750Y-0006220D03*
Y-0006780D03*
X0037250Y-0006220D03*
Y-0006780D03*
X0038250Y-0002280D03*
Y-0001720D03*
X0035500Y-0002280D03*
Y-0001720D03*
X0034750Y-0002280D03*
Y-0001720D03*
X0038250Y-0004220D03*
Y-0004780D03*
X0024750Y0011530D03*
Y0010970D03*
X0038250Y-0005470D03*
Y-0006030D03*
X0020000Y0003280D03*
Y0002720D03*
X0020750Y0003280D03*
Y0002720D03*
X0022750Y0003280D03*
Y0002720D03*
X0023250Y0010970D03*
Y0011530D03*
X0024750Y0012220D03*
Y0012780D03*
X0019500Y-0008970D03*
Y-0009530D03*
X0018000Y-0008970D03*
Y-0009530D03*
Y-0007780D03*
Y-0007220D03*
X0024250Y-0007530D03*
Y-0006970D03*
X0037000Y-0001720D03*
Y-0002280D03*
X0039500Y-0009030D03*
Y-0008470D03*
X0032750Y0079220D03*
Y0079780D03*
X0035750Y0076280D03*
Y0075720D03*
X0033750Y0076470D03*
Y0077030D03*
X0037000Y0078280D03*
Y0077720D03*
X0012500Y0078530D03*
Y0077970D03*
X0007750Y0076280D03*
Y0075720D03*
X0010000Y0076970D03*
Y0077530D03*
X0008500Y0076280D03*
Y0075720D03*
X0001750Y0043530D03*
Y0042970D03*
X-0000250Y0046780D03*
Y0046220D03*
X0002750D03*
Y0046780D03*
Y0045280D03*
Y0044720D03*
X0042250Y0033030D03*
Y0032470D03*
X0037500D03*
Y0033030D03*
X0033500Y0032780D03*
Y0032220D03*
X0035500Y0033720D03*
Y0034280D03*
X0044500Y0051720D03*
Y0052280D03*
X0046250Y0050470D03*
Y0051030D03*
X0043250Y0054470D03*
Y0055030D03*
X0044500Y0052970D03*
Y0053530D03*
X0043000Y0019720D03*
Y0020280D03*
X0039500Y0014720D03*
Y0015280D03*
X0040250Y0016530D03*
Y0015970D03*
X0041250Y0015720D03*
Y0016280D03*
X0039250Y0019220D03*
Y0019780D03*
X0043250Y0038970D03*
Y0039530D03*
X0046500Y0034530D03*
Y0033970D03*
X0047250Y0034530D03*
Y0033970D03*
X0049500Y0032220D03*
Y0032780D03*
X-0002250Y0021720D03*
Y0022280D03*
X0000750Y0017030D03*
Y0016470D03*
X0001500Y0017030D03*
Y0016470D03*
X0006250Y0016970D03*
Y0017530D03*
X-0002750Y0012470D03*
Y0013030D03*
X0000500Y0008030D03*
Y0007470D03*
X0001250Y0008030D03*
Y0007470D03*
X0006250Y0007220D03*
Y0007780D03*
X0045250Y0006530D03*
Y0005970D03*
X0049250Y0015970D03*
Y0016530D03*
X0032250Y0005220D03*
Y0005780D03*
X0035000Y0000780D03*
Y0000220D03*
X0035750Y0000780D03*
Y0000220D03*
X0041000Y0000720D03*
Y0001280D03*
X0048250Y0052720D03*
Y0053280D03*
X0046250Y0060280D03*
Y0059720D03*
X0046500Y0058470D03*
Y0059030D03*
X0050500Y0060030D03*
Y0059470D03*
X0010500Y0008030D03*
Y0007470D03*
X0011250Y0008030D03*
Y0007470D03*
X0015000Y0006030D03*
Y0005470D03*
X0013000Y-0005720D03*
Y-0006280D03*
X0018000Y-0005720D03*
Y-0006280D03*
X0045500Y0072220D03*
Y0072780D03*
X0038250Y-0007280D03*
Y-0006720D03*
X0035500Y-0007470D03*
Y-0008030D03*
X0037500Y-0007470D03*
Y-0008030D03*
X0036250Y-0001720D03*
Y-0002280D03*
G54D13*
X0045500Y0070996D03*
Y0068004D03*
G54D14*
X0050150Y0014500D03*
X0049350D03*
X0045350Y0077500D03*
X0046150D03*
G54D15*
X0025500Y0003150D03*
Y0002350D03*
X0002500Y-0005850D03*
Y-0006650D03*
X0008500Y-0010600D03*
Y-0011400D03*
X0007750Y-0010600D03*
Y-0011400D03*
X0007000Y-0010600D03*
Y-0011400D03*
X0006250Y-0010600D03*
Y-0011400D03*
X0005500Y-0010600D03*
Y-0011400D03*
X0004750Y-0010600D03*
Y-0011400D03*
X0004000Y-0010600D03*
Y-0011400D03*
X0003250Y-0010600D03*
Y-0011400D03*
X0002500Y-0010600D03*
Y-0011400D03*
X0001750Y-0010600D03*
Y-0011400D03*
X0001000Y-0010600D03*
Y-0011400D03*
X0000250Y-0010600D03*
Y-0011400D03*
X-0000500Y-0010600D03*
Y-0011400D03*
X-0001250Y-0010600D03*
Y-0011400D03*
X0000250Y-0005850D03*
Y-0006650D03*
X-0000500Y-0005850D03*
Y-0006650D03*
X-0001250Y-0005850D03*
Y-0006650D03*
X0001750Y-0005850D03*
Y-0006650D03*
X0001000Y-0005850D03*
Y-0006650D03*
X0024000Y0010850D03*
Y0011650D03*
X0050000Y0029150D03*
Y0028350D03*
X0050250Y0033850D03*
Y0034650D03*
X0009250Y0021100D03*
Y0021900D03*
X0004250Y0016350D03*
Y0017150D03*
X0004000Y0004650D03*
Y0003850D03*
Y0007350D03*
Y0008150D03*
X0050000Y0022900D03*
Y0022100D03*
X0043750Y0003850D03*
Y0004650D03*
X0038750Y0000350D03*
Y0001150D03*
X0046500Y0056600D03*
Y0057400D03*
X0049750Y0059350D03*
Y0060150D03*
X0013250Y0004400D03*
Y0003600D03*
X0014000Y0007350D03*
Y0008150D03*
X0047250Y0073850D03*
Y0074650D03*
G54D16*
X0046250Y0039516D03*
Y0041484D03*
X0006500Y0020984D03*
Y0019016D03*
X0005750Y0011484D03*
Y0009516D03*
X0040750Y0004484D03*
Y0002516D03*
X0044250Y0061984D03*
Y0060016D03*
X0016000Y0011484D03*
Y0009516D03*
G54D17*
X0001000Y-0003410D03*
Y-0002090D03*
X0048500Y0041160D03*
Y0039840D03*
X0050000Y0041160D03*
Y0039840D03*
X0001250Y0024160D03*
Y0022840D03*
X0002900Y0024160D03*
Y0022840D03*
X0001750Y0014410D03*
Y0013090D03*
X0003500Y0014410D03*
Y0013090D03*
X0042500Y0014910D03*
Y0013590D03*
X0043750Y0014910D03*
Y0013590D03*
X0037750Y0007410D03*
Y0006090D03*
X0039000Y0007410D03*
Y0006090D03*
X0011750Y0014660D03*
Y0013340D03*
X0014250Y0014660D03*
Y0013340D03*
X0043500Y0077160D03*
Y0075840D03*
X0029500Y-0006340D03*
Y-0007660D03*
X0031750Y-0006340D03*
Y-0007660D03*
X0021750Y0003160D03*
Y0001840D03*
X0048250Y0033090D03*
Y0034410D03*
X0002500Y0015590D03*
Y0016910D03*
X0002250Y0006840D03*
Y0008160D03*
X0036750Y-0000410D03*
Y0000910D03*
X0047500Y0058340D03*
Y0059660D03*
X0012250Y0006840D03*
Y0008160D03*
G54D18*
X0045280Y0027000D03*
X0044720D03*
X0045280Y0027750D03*
X0044720D03*
X0049470Y0013500D03*
X0050030D03*
X0027030Y0007750D03*
X0026470D03*
Y0007000D03*
X0027030D03*
X0019030Y0008250D03*
X0018470D03*
X0019030Y0005500D03*
X0018470D03*
X0025780Y-0010250D03*
X0025220D03*
X0046220Y0024750D03*
X0046780D03*
X0045970Y0027000D03*
X0046530D03*
X0045530Y0024750D03*
X0044970D03*
X0049470Y0010250D03*
X0050030D03*
X0049470Y0011000D03*
X0050030D03*
X0007470Y0012500D03*
X0008030D03*
G54D19*
X0044516Y0017000D03*
X0046484D03*
G54D20*
X0046090Y0065000D03*
X0047410D03*
X0049910D03*
X0048590D03*
X0050410Y0012500D03*
X0049090D03*
G54D21*
X0023000Y-0007464D03*
Y-0005535D03*
X0045000Y-0006035D03*
Y-0007964D03*
G54D22*
X0025285Y-0009000D03*
X0027214D03*
X0025285Y-0007250D03*
X0027214D03*
Y-0001000D03*
X0025285D03*
X0027214Y-0002750D03*
X0025285D03*
X0041214Y-0006250D03*
X0039285D03*
G54D23*
X0039250Y-0002900D03*
Y-0001600D03*
G54D24*
X0003300Y-0004000D03*
X0004200Y-0004400D03*
Y-0003600D03*
X0020450Y-0007750D03*
X0019550Y-0007350D03*
Y-0008150D03*
X0003300Y-0002250D03*
X0004200Y-0002650D03*
Y-0001850D03*
X0003300Y-0000500D03*
X0004200Y-0000900D03*
Y-0000100D03*
X0032700Y0076500D03*
X0031800Y0076900D03*
Y0076100D03*
X0011950Y0076500D03*
X0011050Y0076900D03*
Y0076100D03*
X0001700Y0044750D03*
X0000800Y0045150D03*
Y0044350D03*
X0040700Y0034250D03*
X0039800Y0034650D03*
Y0033850D03*
X0045550Y0053000D03*
X0046450Y0052600D03*
Y0053400D03*
X0042800Y0021500D03*
X0043700Y0021100D03*
Y0021900D03*
X0039200Y0016500D03*
X0038300Y0016900D03*
Y0016100D03*
X0048200Y0030500D03*
X0047300Y0030900D03*
Y0030100D03*
X0046200Y0030500D03*
X0045300Y0030900D03*
Y0030100D03*
X0049300Y0030500D03*
X0050200Y0030100D03*
Y0030900D03*
X0009450Y0018500D03*
X0008550Y0018900D03*
Y0018100D03*
X0010550Y0018500D03*
X0011450Y0018100D03*
Y0018900D03*
X0006200Y0015750D03*
X0005300Y0016150D03*
Y0015350D03*
X0006950Y0006000D03*
X0006050Y0006400D03*
Y0005600D03*
X0008550Y0004000D03*
X0009450Y0003600D03*
Y0004400D03*
X0004950Y0006000D03*
X0004050Y0006400D03*
Y0005600D03*
X0049800Y0017750D03*
X0050700Y0017350D03*
Y0018150D03*
X0047950Y0019750D03*
X0047050Y0020150D03*
Y0019350D03*
X0047800Y0017750D03*
X0048700Y0017350D03*
Y0018150D03*
X0044300Y0001000D03*
X0045200Y0000600D03*
Y0001400D03*
X0044300Y0002750D03*
X0045200Y0002350D03*
Y0003150D03*
X0042300Y0001000D03*
X0043200Y0000600D03*
Y0001400D03*
X0049050Y0056250D03*
X0049950Y0055850D03*
Y0056650D03*
X0049050Y0054500D03*
X0049950Y0054100D03*
Y0054900D03*
X0049050Y0058000D03*
X0049950Y0057600D03*
Y0058400D03*
X0011050Y0005500D03*
X0011950Y0005100D03*
Y0005900D03*
X0013950Y0005500D03*
X0013050Y0005900D03*
Y0005100D03*
X0009050Y0005750D03*
X0009950Y0005350D03*
Y0006150D03*
X0040200Y0076250D03*
X0039300Y0076650D03*
Y0075850D03*
X0042200Y0076250D03*
X0041300Y0076650D03*
Y0075850D03*
X0039450Y-0010500D03*
X0038550Y-0010100D03*
Y-0010900D03*
G54D25*
X0048500Y0028356D03*
Y0029144D03*
X0047000Y0028356D03*
Y0029144D03*
X0008500Y0021894D03*
Y0021106D03*
X0010000Y0021894D03*
Y0021106D03*
X0004750Y0003856D03*
Y0004644D03*
X0006250Y0003856D03*
Y0004644D03*
X0050000Y0021144D03*
Y0020356D03*
X0049000Y0021144D03*
Y0020356D03*
X0042500Y0004644D03*
Y0003856D03*
X0043000Y0004644D03*
Y0003856D03*
X0048250Y0057394D03*
Y0056606D03*
X0047500Y0057394D03*
Y0056606D03*
X0010250Y0003606D03*
Y0004394D03*
X0012500Y0003606D03*
Y0004394D03*
X0030500Y-0007144D03*
Y-0006356D03*
X0032750Y-0007144D03*
Y-0006356D03*
G54D26*
X0049370Y0077750D03*
X0047630D03*
G54D28*
X0046004Y-0010750D03*
X0043496D03*
G54D30*
X0041250Y-0011457D03*
Y-0008543D03*
G54D34*
X0049689Y0025213D03*
Y0026787D03*
X0048311Y0026000D03*
X0049189Y0044069D03*
Y0045644D03*
X0047811Y0046431D03*
Y0044856D03*
X0001189Y0025819D03*
Y0027394D03*
X-0000189Y0028181D03*
Y0026606D03*
X0043189Y0007819D03*
Y0009394D03*
X0041811Y0010181D03*
Y0008606D03*
X0049689Y0066819D03*
Y0068394D03*
X0048311Y0069181D03*
Y0067606D03*
X0049689Y0071606D03*
X0048311Y0072394D03*
G54D41*
X0036303Y-0007400D03*
Y-0008600D03*
X0036697D03*
Y-0007400D03*
G54D44*
X0001653Y0050209D03*
X0004055D03*
Y0051193D03*
X0001653D03*
X0031516Y0041500D03*
X0029114D03*
Y0040516D03*
X0031516D03*
X0043090Y0057968D03*
X0045492D03*
Y0058953D03*
X0043090D03*
G54D46*
X0041338Y0080724D03*
Y0078323D03*
X0042323D03*
Y0080724D03*
X0005315D03*
Y0078323D03*
X0006299D03*
Y0080724D03*
G54D47*
X0024950Y-0005000D03*
X0018950Y-0005500D03*
G54D48*
X0027550Y-0005900D03*
Y-0005000D03*
Y-0004100D03*
X0021550Y-0006400D03*
Y-0005500D03*
Y-0004600D03*
G54D49*
X0036750Y0075755D03*
Y0076745D03*
X0034750Y0075755D03*
Y0076745D03*
X0040000Y0078005D03*
Y0078995D03*
X0038000D03*
Y0078005D03*
X0006750Y0075755D03*
Y0076745D03*
X0005500D03*
Y0075755D03*
X0004250Y0078995D03*
Y0078005D03*
Y0076745D03*
Y0075755D03*
X-0000250Y0040005D03*
Y0040995D03*
Y0043245D03*
Y0042255D03*
X0002750Y0048745D03*
Y0047755D03*
X0001500Y0048745D03*
Y0047755D03*
X0038500Y0033495D03*
Y0032505D03*
X0036500D03*
Y0033495D03*
X0030500Y0034245D03*
Y0033255D03*
X0031750D03*
Y0034245D03*
X0044500Y0049505D03*
Y0050495D03*
X0043500Y0049505D03*
Y0050495D03*
X0045500Y0055495D03*
Y0054505D03*
X0044500D03*
Y0055495D03*
X0045250Y0022255D03*
Y0023245D03*
X0046250D03*
Y0022255D03*
X0047250D03*
Y0023245D03*
X0048250Y0022255D03*
Y0023245D03*
X0041250Y0013755D03*
Y0014745D03*
X0040250Y0017505D03*
Y0018495D03*
Y0020005D03*
Y0020995D03*
X0041250D03*
Y0020005D03*
G54D50*
X0012250Y-0011313D03*
Y-0009187D03*
G54D51*
X0017002Y-0011000D03*
Y-0010000D03*
Y-0009000D03*
X0013498D03*
Y-0010000D03*
Y-0011000D03*
G54D52*
X0010500Y-0011120D03*
Y-0009380D03*
G54D53*
X0037250Y-0003000D03*
X0036750D03*
X0036250D03*
X0035750D03*
Y-0005400D03*
X0036250D03*
X0036750D03*
X0037250D03*
G54D54*
X0029500Y-0003352D03*
X0030500D03*
Y-0001148D03*
X0029500D03*
X0031750Y-0003352D03*
X0032750D03*
Y-0001148D03*
X0031750D03*
G54D55*
X0045500Y0075250D03*
G54D56*
X0046250Y0076345D03*
X0045750D03*
X0045250D03*
X0044750D03*
Y0074155D03*
X0045250D03*
X0045750D03*
X0046250D03*
G54D57*
X0015250Y-0007000D03*
Y-0007256D03*
Y-0007512D03*
Y-0007768D03*
X0017179Y-0007000D03*
Y-0007256D03*
Y-0007512D03*
Y-0007768D03*
X0015250Y-0005500D03*
Y-0005756D03*
Y-0006012D03*
Y-0006268D03*
X0017179Y-0005500D03*
Y-0005756D03*
Y-0006012D03*
Y-0006268D03*
G54D58*
X0051000Y0032250D03*
Y0032506D03*
Y0032762D03*
X0050291D03*
Y0032250D03*
X0005610Y0017098D03*
Y0017354D03*
Y0017610D03*
X0004901D03*
Y0017098D03*
X0005500Y0007750D03*
Y0008006D03*
Y0008262D03*
X0004791D03*
Y0007750D03*
X0040250Y0001000D03*
Y0001256D03*
Y0001512D03*
X0039541D03*
Y0001000D03*
X0050750Y0060750D03*
Y0061006D03*
Y0061262D03*
X0050041D03*
Y0060750D03*
X0015500Y0007250D03*
Y0007506D03*
Y0007762D03*
X0014791D03*
Y0007250D03*
G54D59*
X0049000Y0037000D03*
X0003000Y0019750D03*
X0002500Y0010500D03*
X0037500Y0003250D03*
X0048000Y0062500D03*
X0012750Y0010500D03*
G54D60*
X0047593Y0035799D03*
X0047848D03*
X0048104D03*
X0048360D03*
X0048616D03*
X0048872D03*
X0049128D03*
X0049384D03*
X0049640D03*
X0049896D03*
X0050151D03*
X0050407D03*
Y0038201D03*
X0050151D03*
X0049896D03*
X0049640D03*
X0049384D03*
X0049128D03*
X0048872D03*
X0048616D03*
X0048360D03*
X0048104D03*
X0047848D03*
X0047593D03*
X0001593Y0018549D03*
X0001848D03*
X0002104D03*
X0002360D03*
X0002616D03*
X0002872D03*
X0003128D03*
X0003384D03*
X0003640D03*
X0003896D03*
X0004151D03*
X0004407D03*
Y0020951D03*
X0004151D03*
X0003896D03*
X0003640D03*
X0003384D03*
X0003128D03*
X0002872D03*
X0002616D03*
X0002360D03*
X0002104D03*
X0001848D03*
X0001593D03*
X0001093Y0009299D03*
X0001348D03*
X0001604D03*
X0001860D03*
X0002116D03*
X0002372D03*
X0002628D03*
X0002884D03*
X0003140D03*
X0003396D03*
X0003651D03*
X0003907D03*
Y0011701D03*
X0003651D03*
X0003396D03*
X0003140D03*
X0002884D03*
X0002628D03*
X0002372D03*
X0002116D03*
X0001860D03*
X0001604D03*
X0001348D03*
X0001093D03*
X0036093Y0002049D03*
X0036348D03*
X0036604D03*
X0036860D03*
X0037116D03*
X0037372D03*
X0037628D03*
X0037884D03*
X0038140D03*
X0038396D03*
X0038651D03*
X0038907D03*
Y0004451D03*
X0038651D03*
X0038396D03*
X0038140D03*
X0037884D03*
X0037628D03*
X0037372D03*
X0037116D03*
X0036860D03*
X0036604D03*
X0036348D03*
X0036093D03*
X0046593Y0061299D03*
X0046848D03*
X0047104D03*
X0047360D03*
X0047616D03*
X0047872D03*
X0048128D03*
X0048384D03*
X0048640D03*
X0048896D03*
X0049151D03*
X0049407D03*
Y0063701D03*
X0049151D03*
X0048896D03*
X0048640D03*
X0048384D03*
X0048128D03*
X0047872D03*
X0047616D03*
X0047360D03*
X0047104D03*
X0046848D03*
X0046593D03*
X0011343Y0009299D03*
X0011598D03*
X0011854D03*
X0012110D03*
X0012366D03*
X0012622D03*
X0012878D03*
X0013134D03*
X0013390D03*
X0013646D03*
X0013901D03*
X0014157D03*
Y0011701D03*
X0013901D03*
X0013646D03*
X0013390D03*
X0013134D03*
X0012878D03*
X0012622D03*
X0012366D03*
X0012110D03*
X0011854D03*
X0011598D03*
X0011343D03*
G54D61*
X0043250Y0035500D03*
X0043506D03*
X0043762D03*
X0044018D03*
X0044273D03*
X0044529D03*
X0044785D03*
X0045041D03*
X0045297D03*
X0045553D03*
Y0038098D03*
X0045297D03*
X0045041D03*
X0044785D03*
X0044529D03*
X0044273D03*
X0044018D03*
X0043762D03*
X0043506D03*
X0043250D03*
X-0002750Y0018250D03*
X-0002494D03*
X-0002238D03*
X-0001982D03*
X-0001726D03*
X-0001470D03*
X-0001215D03*
X-0000959D03*
X-0000703D03*
X-0000447D03*
Y0020848D03*
X-0000703D03*
X-0000959D03*
X-0001215D03*
X-0001470D03*
X-0001726D03*
X-0001982D03*
X-0002238D03*
X-0002494D03*
X-0002750D03*
Y0009000D03*
X-0002494D03*
X-0002238D03*
X-0001982D03*
X-0001726D03*
X-0001470D03*
X-0001215D03*
X-0000959D03*
X-0000703D03*
X-0000447D03*
Y0011598D03*
X-0000703D03*
X-0000959D03*
X-0001215D03*
X-0001470D03*
X-0001726D03*
X-0001982D03*
X-0002238D03*
X-0002494D03*
X-0002750D03*
X0032250Y0001750D03*
X0032506D03*
X0032762D03*
X0033018D03*
X0033273D03*
X0033529D03*
X0033785D03*
X0034041D03*
X0034297D03*
X0034553D03*
Y0004348D03*
X0034297D03*
X0034041D03*
X0033785D03*
X0033529D03*
X0033273D03*
X0033018D03*
X0032762D03*
X0032506D03*
X0032250D03*
X0048250Y0049250D03*
X0048506D03*
X0048762D03*
X0049018D03*
X0049273D03*
X0049529D03*
X0049785D03*
X0050041D03*
X0050297D03*
X0050553D03*
Y0051848D03*
X0050297D03*
X0050041D03*
X0049785D03*
X0049529D03*
X0049273D03*
X0049018D03*
X0048762D03*
X0048506D03*
X0048250D03*
X0007648Y0009049D03*
X0007903D03*
X0008159D03*
X0008415D03*
X0008671D03*
X0008927D03*
X0009183D03*
X0009439D03*
X0009695D03*
X0009951D03*
Y0011648D03*
X0009695D03*
X0009439D03*
X0009183D03*
X0008927D03*
X0008671D03*
X0008415D03*
X0008159D03*
X0007903D03*
X0007648D03*
G54D62*
X0046750Y0013250D03*
G54D63*
X0047951Y0011843D03*
Y0012098D03*
Y0012354D03*
Y0012610D03*
Y0012866D03*
Y0013122D03*
Y0013378D03*
Y0013634D03*
Y0013890D03*
Y0014146D03*
Y0014401D03*
Y0014657D03*
X0045549D03*
Y0014401D03*
Y0014146D03*
Y0013890D03*
Y0013634D03*
Y0013378D03*
Y0013122D03*
Y0012866D03*
Y0012610D03*
Y0012354D03*
Y0012098D03*
Y0011843D03*
G54D64*
X0048500Y0016500D03*
X0048244D03*
X0047988D03*
Y0015791D03*
X0048500D03*
G54D65*
X0048000Y0007250D03*
Y0007506D03*
Y0007762D03*
Y0008018D03*
Y0008273D03*
Y0008529D03*
Y0008785D03*
Y0009041D03*
Y0009297D03*
Y0009553D03*
X0045402D03*
Y0009297D03*
Y0009041D03*
Y0008785D03*
Y0008529D03*
Y0008273D03*
Y0008018D03*
Y0007762D03*
Y0007506D03*
Y0007250D03*
G54D66*
X0035000Y0078500D03*
Y0078120D03*
Y0077750D03*
X0036020D03*
Y0078500D03*
X0009000Y0077000D03*
Y0077380D03*
Y0077750D03*
X0007980D03*
Y0077000D03*
X0001750Y0046000D03*
Y0046380D03*
Y0046750D03*
X0000730D03*
Y0046000D03*
X0034500Y0033000D03*
Y0032620D03*
Y0032250D03*
X0035520D03*
Y0033000D03*
X0046500Y0025500D03*
Y0025880D03*
Y0026250D03*
X0045480D03*
Y0025500D03*
X0038250Y0018500D03*
Y0018120D03*
Y0017750D03*
X0039270D03*
Y0018500D03*
G54D67*
X0043500Y0053500D03*
X0043120D03*
X0042750D03*
Y0052480D03*
X0043500D03*
G54D69*
X0008760Y-0005750D03*
Y-0006250D03*
X0011240D03*
Y-0005750D03*
G54D70*
X0024205Y0009265D03*
X0024008D03*
X0023811D03*
X0023417D03*
X0023220D03*
X0023023D03*
X0022826D03*
X0022629D03*
X0022432D03*
X0022235D03*
X0022038D03*
X0021841D03*
X0021447D03*
X0021250D03*
Y0004750D03*
X0021644D03*
X0021841D03*
X0022038D03*
X0022235D03*
X0022432D03*
X0022629D03*
X0022826D03*
X0023023D03*
X0023220D03*
X0023614D03*
X0023811D03*
X0024008D03*
X0024205D03*
G54D71*
X0023614Y0009265D03*
X0021644D03*
X0021447Y0004750D03*
X0023417D03*
G54D72*
X0024985Y0005727D03*
Y0005924D03*
Y0006121D03*
Y0006318D03*
Y0006515D03*
Y0006712D03*
Y0006909D03*
Y0007106D03*
Y0007500D03*
Y0007697D03*
Y0007894D03*
Y0008091D03*
Y0008288D03*
Y0008485D03*
X0020470D03*
Y0008288D03*
Y0008091D03*
Y0007894D03*
Y0007697D03*
Y0007500D03*
Y0007303D03*
Y0006909D03*
Y0006712D03*
Y0006515D03*
Y0006318D03*
Y0006121D03*
Y0005924D03*
Y0005727D03*
Y0005530D03*
G54D73*
X0024985D03*
Y0007303D03*
X0020470Y0007106D03*
G54D115*
X0023000Y-0008449D03*
Y-0009551D03*
M02*
