*
G04 Mass Parameters ***
*
G04 Image ***
*
%IND:\UTENTI\00.LAVORI IN CORSO\METALTRONICA\22-303-0\22-303-0.TOP*%
%ICAS*%
%MOIN*%
%IPPOS*%
%ASAXBY*%
G74*%FSLAN2X34Y34*%
*
G04 Aperture Definitions ***
*
%ADD10C,0.2362*%
%ADD11C,0.0394*%
%ADD12R,0.0380X0.0320*%
%ADD13R,0.1180X0.1060*%
%ADD14R,0.0404X0.0501*%
%ADD15R,0.0501X0.0404*%
%ADD16R,0.0630X0.1260*%
%ADD17R,0.0710X0.0400*%
%ADD18R,0.0320X0.0380*%
%ADD19R,0.1260X0.0630*%
%ADD20R,0.0400X0.0710*%
%ADD21R,0.0886X0.0905*%
%ADD22R,0.0905X0.0886*%
%ADD23R,0.1024X0.0510*%
%ADD24R,0.0500X0.0400*%
%ADD25R,0.0197X0.0315*%
%ADD26R,0.0850X0.1080*%
%ADD27R,0.0472X0.0472*%
%ADD28R,0.1669X0.1500*%
%ADD29C,0.1000*%
%ADD30R,0.1220X0.0905*%
%ADD31C,0.0610*%
%ADD32R,0.0610X0.0610*%
%ADD33C,0.0433*%
%ADD34R,0.2165X0.0472*%
%ADD35C,0.0512*%
%ADD36C,0.0866*%
%ADD37R,0.0669X0.0669*%
%ADD38C,0.0669*%
%ADD39C,0.0787*%
%ADD40R,0.0787X0.0787*%
%ADD41R,0.0236X0.0413*%
%ADD42C,0.0276*%
%ADD43C,0.0187*%
%ADD44R,0.0709X0.0354*%
%ADD45C,0.0551*%
%ADD46R,0.0354X0.0709*%
%ADD47R,0.0680X0.1580*%
%ADD48R,0.0680X0.0550*%
%ADD49R,0.0570X0.0590*%
%ADD50R,0.0630X0.0866*%
%ADD51R,0.0590X0.0433*%
%ADD52R,0.1080X0.0850*%
%ADD53O,0.0256X0.0650*%
%ADD54R,0.0236X0.0512*%
%ADD55R,0.1220X0.0950*%
%ADD56R,0.0240X0.0750*%
%ADD57R,0.0354X0.0165*%
%ADD58R,0.0236X0.0157*%
%ADD59R,0.1701X0.1181*%
%ADD60R,0.0177X0.0649*%
%ADD61O,0.0118X0.0590*%
%ADD62R,0.1181X0.1701*%
%ADD63R,0.0649X0.0177*%
%ADD64R,0.0157X0.0236*%
%ADD65O,0.0590X0.0118*%
%ADD66R,0.0500X0.0270*%
%ADD67R,0.0270X0.0500*%
%ADD68C,0.0800*%
%ADD69R,0.0512X0.0354*%
%ADD70O,0.0110X0.0700*%
%ADD71R,0.0110X0.0700*%
%ADD72O,0.0700X0.0110*%
%ADD73R,0.0700X0.0110*%
%ADD74C,0.0236*%
%ADD75C,0.0100*%
%ADD76C,0.0050*%
%ADD77C,0.0236*%
%ADD78C,0.0080*%
%ADD79C,0.0236*%
%ADD80C,0.0150*%
%ADD81C,0.0400*%
%ADD82C,0.0250*%
%ADD83C,0.0500*%
%ADD84C,0.0236*%
*
G04 Plot Data ***
*
G54D75*
G01X-0001358Y-0003842D02*
X-0001275D01*
Y-0003758D01*
X-0001358D01*
Y-0003842D01*
X-0001683Y-0003758D02*
X-0001725Y-0003842D01*
X-0001975D01*
X-0002017Y-0003758D01*
Y-0003425D01*
X-0001975Y-0003342D01*
X-0001725D01*
X-0001683Y-0003425D01*
X-0002342Y-0003842D02*
X-0002258D01*
Y-0003758D01*
X-0002342D01*
Y-0003842D01*
X-0002667D02*
X-0002958D01*
Y-0003342D01*
X0045880Y0018700D02*
Y0017850D01*
X0046850Y0017890D02*
X0045750D01*
X0046850Y0018610D02*
X0045750D01*
X0046850Y0018520D02*
X0045750D01*
X0046850Y0018430D02*
X0045750D01*
X0046850Y0018340D02*
X0045750D01*
X0046850Y0018250D02*
X0045750D01*
X0046850Y0018160D02*
X0045750D01*
X0046850Y0018070D02*
X0045750D01*
X0046850Y0017980D02*
X0045750D01*
X0046780Y0018700D02*
Y0017850D01*
X0046690Y0018700D02*
Y0017850D01*
X0046600Y0018700D02*
Y0017850D01*
X0046510Y0018700D02*
Y0017850D01*
X0046420Y0018700D02*
Y0017850D01*
X0046330Y0018700D02*
Y0017850D01*
X0046240Y0018700D02*
Y0017850D01*
X0046150Y0018700D02*
Y0017850D01*
X0046060Y0018700D02*
Y0017850D01*
X0045970Y0018700D02*
Y0017850D01*
X0045790Y0018700D02*
Y0017850D01*
X0046850D02*
X0045750D01*
X0046850Y0018700D02*
Y0017850D01*
Y0018700D02*
X0045750D01*
Y0017850D01*
X0045350Y0017170D02*
X0044050D01*
X0045350Y0017080D02*
X0044050D01*
X0045350Y0016990D02*
X0044050D01*
X0045350Y0016900D02*
X0044050D01*
X0045350Y0016810D02*
X0044050D01*
X0045350Y0016720D02*
X0044050D01*
X0045350Y0016630D02*
X0044050D01*
X0045350Y0016540D02*
X0044050D01*
X0045350Y0016450D02*
X0044050D01*
X0045350Y0016360D02*
X0044050D01*
X0045350Y0016270D02*
X0044050D01*
X0045350Y0016180D02*
X0044050D01*
X0044630Y0017600D02*
Y0016050D01*
X0044540Y0017600D02*
Y0016050D01*
X0044450Y0017600D02*
Y0016050D01*
X0044360Y0017600D02*
Y0016050D01*
X0044270Y0017600D02*
Y0016050D01*
X0044180Y0017600D02*
Y0016050D01*
X0044090Y0017600D02*
Y0016050D01*
X0045170Y0017530D02*
X0044050D01*
X0045260Y0017440D02*
X0044050D01*
X0045350Y0017350D02*
X0044050D01*
X0045350Y0017260D02*
X0044050D01*
X0045100Y0017600D02*
X0045350Y0017350D01*
Y0016050D01*
X0044050D01*
X0045350Y0016090D02*
X0044050D01*
X0045260Y0017440D02*
Y0016050D01*
X0045170Y0017530D02*
Y0016050D01*
X0045080Y0017600D02*
Y0016050D01*
X0044990Y0017600D02*
Y0016050D01*
X0044900Y0017600D02*
Y0016050D01*
X0044810Y0017600D02*
Y0016050D01*
X0044720Y0017600D02*
Y0016050D01*
X0044050Y0017600D02*
Y0016050D01*
X0045100Y0017600D02*
X0044050D01*
X0040600Y0005950D02*
Y0005350D01*
X0040510Y0005950D02*
Y0005350D01*
X0040420Y0005950D02*
Y0005350D01*
X0040330Y0005950D02*
Y0005350D01*
X0040240Y0005950D02*
Y0005350D01*
X0041800Y0005930D02*
X0040200D01*
X0041800Y0005840D02*
X0040200D01*
X0041800Y0005750D02*
X0040200D01*
X0041800Y0005660D02*
X0040200D01*
X0041800Y0005570D02*
X0040200D01*
X0041800Y0005480D02*
X0040200D01*
X0041590Y0005950D02*
Y0005350D01*
X0041500Y0005950D02*
Y0005350D01*
X0041410Y0005950D02*
Y0005350D01*
X0041320Y0005950D02*
Y0005350D01*
X0041230Y0005950D02*
Y0005350D01*
X0041140Y0005950D02*
Y0005350D01*
X0041050Y0005950D02*
Y0005350D01*
X0040960Y0005950D02*
Y0005350D01*
X0040870Y0005950D02*
Y0005350D01*
X0040780Y0005950D02*
Y0005350D01*
X0040690Y0005950D02*
Y0005350D01*
X0041800Y0005390D02*
X0040200D01*
Y0005950D02*
Y0005350D01*
X0041800Y0005950D02*
X0040200D01*
X0041800D02*
Y0005350D01*
X0040200D01*
X0041770Y0005950D02*
Y0005350D01*
X0041680Y0005950D02*
Y0005350D01*
X0044080Y0006100D02*
Y0005250D01*
X0044690Y0005290D02*
X0043950D01*
X0043990Y0006100D02*
Y0005250D01*
X0044850Y0006010D02*
X0043950D01*
X0044850Y0005920D02*
X0043950D01*
X0044850Y0005830D02*
X0043950D01*
X0044850Y0005740D02*
X0043950D01*
X0044850Y0005650D02*
X0043950D01*
X0044850Y0005560D02*
X0043950D01*
X0044850Y0005470D02*
X0043950D01*
X0044780Y0005380D02*
X0043950D01*
X0044850Y0006100D02*
X0043950D01*
Y0005250D01*
X0044800Y0006100D02*
Y0005400D01*
X0044710Y0006100D02*
Y0005310D01*
X0044620Y0006100D02*
Y0005250D01*
X0044530Y0006100D02*
Y0005250D01*
X0044440Y0006100D02*
Y0005250D01*
X0044350Y0006100D02*
Y0005250D01*
X0044260Y0006100D02*
Y0005250D01*
X0044170Y0006100D02*
Y0005250D01*
X0044650D02*
X0043950D01*
X0044850Y0005450D02*
X0044650Y0005250D01*
X0044850Y0006100D02*
Y0005450D01*
X0045600Y-0003820D02*
X0044150D01*
X0045600Y-0003910D02*
X0044150D01*
X0045600Y-0004000D02*
X0044150D01*
X0045600Y-0004090D02*
X0044150D01*
X0045600Y-0004180D02*
X0044150D01*
X0045600Y-0004270D02*
X0044150D01*
X0045600Y-0004360D02*
X0044150D01*
X0045600Y-0004450D02*
X0044150D01*
X0045600Y-0004540D02*
X0044150D01*
X0045600Y-0004630D02*
X0044150D01*
X0045600Y-0004720D02*
X0044150D01*
X0045000Y-0003700D02*
Y-0004850D01*
X0044910Y-0003700D02*
Y-0004850D01*
X0044820Y-0003700D02*
Y-0004850D01*
X0044730Y-0003700D02*
Y-0004850D01*
X0044640Y-0003700D02*
Y-0004850D01*
X0044550Y-0003700D02*
Y-0004850D01*
X0044460Y-0003700D02*
Y-0004850D01*
X0044370Y-0003700D02*
Y-0004850D01*
X0044280Y-0003700D02*
Y-0004850D01*
X0044190Y-0003700D02*
Y-0004850D01*
X0045600Y-0003730D02*
X0044150D01*
X0045600Y-0003700D02*
Y-0004850D01*
Y-0003700D02*
X0044150D01*
Y-0004850D01*
X0045540Y-0003700D02*
Y-0004850D01*
X0045450Y-0003700D02*
Y-0004850D01*
X0045360Y-0003700D02*
Y-0004850D01*
X0045270Y-0003700D02*
Y-0004850D01*
X0045180Y-0003700D02*
Y-0004850D01*
X0045090Y-0003700D02*
Y-0004850D01*
X0045600Y-0004810D02*
X0044150D01*
X0045600Y-0004850D02*
X0044150D01*
X0029050Y-0004090D02*
X0028020D01*
X0029010Y-0003100D02*
Y-0006250D01*
X0028920Y-0003100D02*
Y-0006250D01*
X0028830Y-0003100D02*
Y-0006250D01*
X0028740Y-0003100D02*
Y-0006250D01*
X0028650Y-0003100D02*
Y-0006250D01*
X0028560Y-0003100D02*
Y-0006250D01*
X0028470Y-0003100D02*
Y-0006250D01*
X0028380Y-0003100D02*
Y-0006250D01*
X0028290Y-0003100D02*
Y-0006250D01*
X0028200Y-0003100D02*
Y-0006250D01*
X0027570Y-0004505D02*
Y-0005495D01*
X0027750Y-0004505D02*
Y-0005495D01*
X0027930Y-0004505D02*
Y-0005495D01*
Y-0003100D02*
Y-0003695D01*
X0027390Y-0004505D02*
Y-0005495D01*
X0027900Y-0003100D02*
Y-0003695D01*
X0027080Y-0005800D02*
X0023700D01*
X0027030Y-0003700D02*
Y-0006250D01*
X0026940Y-0003700D02*
Y-0006250D01*
X0026850Y-0003700D02*
Y-0006250D01*
X0029050Y-0003190D02*
X0027900D01*
X0026580Y-0003700D02*
Y-0006250D01*
X0026310Y-0003700D02*
Y-0006250D01*
X0026220Y-0003700D02*
Y-0006250D01*
X0026130Y-0003700D02*
Y-0006250D01*
X0024060Y-0003700D02*
Y-0005880D01*
X0024452Y-0003730D02*
X0023700D01*
X0025500Y-0003905D02*
Y-0006250D01*
X0025140Y-0003755D02*
Y-0006250D01*
X0029050Y-0003370D02*
X0027900D01*
X0025280Y-0003820D02*
X0023700D01*
X0024240Y-0003700D02*
Y-0005880D01*
X0025860Y-0003780D02*
Y-0006250D01*
X0024520Y-0005930D02*
X0024840Y-0006250D01*
X0024510Y-0003751D02*
Y-0005920D01*
X0027120Y-0004505D02*
Y-0005495D01*
X0025215Y-0003755D02*
X0025303Y-0003842D01*
X0025215Y-0003755D02*
X0024550D01*
X0029050Y-0004000D02*
X0028020D01*
X0029050Y-0004180D02*
X0028020D01*
X0029050Y-0004270D02*
X0028020D01*
X0029050Y-0004360D02*
X0028020D01*
X0027080Y-0004450D02*
X0023700D01*
X0029050Y-0004540D02*
X0023700D01*
X0029050Y-0004630D02*
X0023700D01*
X0029050Y-0004720D02*
X0023700D01*
X0029050Y-0004810D02*
X0023700D01*
X0029050Y-0004900D02*
X0023700D01*
X0029050Y-0004990D02*
X0023700D01*
X0029050Y-0005080D02*
X0023700D01*
X0029050Y-0005170D02*
X0023700D01*
X0029050Y-0005260D02*
X0023700D01*
X0029050Y-0005350D02*
X0023700D01*
X0027210Y-0004505D02*
Y-0005495D01*
X0029050Y-0005530D02*
X0028020D01*
X0029050Y-0005620D02*
X0028020D01*
X0029050Y-0005710D02*
X0028020D01*
X0029050Y-0005800D02*
X0028020D01*
X0025590Y-0003905D02*
Y-0006250D01*
X0029050Y-0005980D02*
X0028020D01*
X0027080Y-0005890D02*
X0024457D01*
X0026760Y-0003700D02*
Y-0006250D01*
X0026040Y-0003700D02*
Y-0006250D01*
X0027080Y-0003700D02*
X0025940D01*
X0025410Y-0003901D02*
Y-0006250D01*
X0027480Y-0004505D02*
Y-0005495D01*
X0029050Y-0003280D02*
X0027900D01*
X0027840Y-0004505D02*
Y-0005495D01*
X0024410Y-0003700D02*
X0023700D01*
X0025940D02*
X0025797Y-0003842D01*
X0029050Y-0006010D02*
X0029015D01*
X0023970Y-0003700D02*
Y-0005880D01*
X0029050Y-0003910D02*
X0028020D01*
X0024600Y-0003755D02*
Y-0006009D01*
X0024870Y-0003755D02*
Y-0006250D01*
X0024330Y-0003700D02*
Y-0005880D01*
X0029015Y-0006070D02*
X0028020D01*
X0027080Y-0003820D02*
X0025820D01*
X0027080Y-0006250D02*
X0024840D01*
X0029050Y-0003550D02*
X0027900D01*
X0023742Y-0005890D02*
X0023700D01*
X0027080Y-0003700D02*
Y-0004505D01*
X0024960Y-0003755D02*
Y-0006250D01*
X0024400Y-0005880D02*
X0023800D01*
X0025050Y-0003755D02*
Y-0006250D01*
X0024690Y-0003755D02*
Y-0006099D01*
X0028020Y-0004505D02*
X0027080D01*
X0028020Y-0003695D02*
Y-0004505D01*
X0029050Y-0003460D02*
X0027900D01*
X0027080Y-0005495D02*
Y-0006250D01*
X0028020Y-0005495D02*
X0027080D01*
X0028020D02*
Y-0006250D01*
X0029015Y-0006010D02*
Y-0006250D01*
X0025680Y-0003903D02*
Y-0006250D01*
X0028020Y-0003695D02*
X0027900D01*
X0026490Y-0003700D02*
Y-0006250D01*
X0025770Y-0003866D02*
Y-0006250D01*
X0027300Y-0004505D02*
Y-0005495D01*
X0029050Y-0003100D02*
X0027900D01*
X0029050D02*
Y-0006010D01*
X0027660Y-0004505D02*
Y-0005495D01*
X0024780Y-0003755D02*
Y-0006189D01*
X0023700Y-0003700D02*
Y-0005912D01*
X0027080Y-0005980D02*
X0024570D01*
X0027080Y-0006070D02*
X0024660D01*
X0027080Y-0006160D02*
X0024750D01*
X0029050Y-0003640D02*
X0027900D01*
X0028020Y-0003100D02*
Y-0005495D01*
X0029015Y-0006250D02*
X0028020D01*
X0028110Y-0003100D02*
Y-0006250D01*
X0027080Y-0005530D02*
X0023700D01*
X0027080Y-0005620D02*
X0023700D01*
X0027080Y-0005710D02*
X0023700D01*
X0029050Y-0005440D02*
X0023700D01*
X0029050Y-0005890D02*
X0028020D01*
X0026670Y-0003700D02*
Y-0006250D01*
X0026400Y-0003700D02*
Y-0006250D01*
X0023790Y-0003700D02*
Y-0005880D01*
X0023880Y-0003700D02*
Y-0005880D01*
X0029050Y-0004450D02*
X0028020D01*
X0027080Y-0004360D02*
X0023700D01*
X0027080Y-0004270D02*
X0023700D01*
X0027080Y-0004180D02*
X0023700D01*
X0027080Y-0004090D02*
X0023700D01*
X0027080Y-0004000D02*
X0023700D01*
X0027080Y-0003910D02*
X0023700D01*
X0029050Y-0003820D02*
X0028020D01*
X0029050Y-0003730D02*
X0028020D01*
X0025950Y-0003700D02*
Y-0006250D01*
X0025230Y-0003770D02*
Y-0006250D01*
X0029015Y-0006160D02*
X0028020D01*
X0024420Y-0003708D02*
Y-0005881D01*
X0025320Y-0003858D02*
Y-0006250D01*
X0025650Y-0003905D02*
X0025450D01*
X0027080Y-0003730D02*
X0025910D01*
X0024150Y-0003700D02*
Y-0005880D01*
X0021080Y-0006660D02*
X0018750D01*
X0021990Y-0005005D02*
Y-0005995D01*
X0021900Y-0005005D02*
Y-0005995D01*
X0021810Y-0005005D02*
Y-0005995D01*
X0021630Y-0005005D02*
Y-0005995D01*
X0021540Y-0005005D02*
Y-0005995D01*
X0021450Y-0005005D02*
Y-0005995D01*
X0021360Y-0005005D02*
Y-0005995D01*
X0021270Y-0005005D02*
Y-0005995D01*
X0022050Y-0002600D02*
Y-0006559D01*
X0020623Y-0006300D02*
X0018520D01*
X0021270Y-0002600D02*
Y-0004195D01*
X0020910Y-0006640D02*
Y-0006730D01*
X0020820Y-0006646D02*
Y-0006730D01*
X0020730Y-0006617D02*
Y-0006730D01*
X0020640Y-0002600D02*
Y-0006268D01*
X0020550Y-0002600D02*
Y-0006730D01*
X0020460Y-0002600D02*
Y-0006730D01*
X0020370Y-0002600D02*
Y-0006730D01*
X0020280Y-0002600D02*
Y-0006730D01*
X0020190Y-0002600D02*
Y-0006730D01*
X0020100Y-0002600D02*
Y-0006730D01*
X0020010Y-0002600D02*
Y-0006730D01*
X0019920Y-0002600D02*
Y-0006730D01*
X0019830Y-0002600D02*
Y-0006730D01*
X0019740Y-0002600D02*
Y-0006730D01*
X0019650Y-0002600D02*
Y-0006730D01*
X0019560Y-0002600D02*
Y-0006730D01*
X0019470Y-0002600D02*
Y-0006730D01*
X0019380Y-0002600D02*
Y-0006730D01*
X0019290Y-0002600D02*
Y-0006730D01*
X0019110Y-0002600D02*
Y-0006730D01*
X0019020Y-0002600D02*
Y-0006730D01*
X0018750Y-0002600D02*
Y-0006659D01*
X0020690Y-0006210D02*
X0018520D01*
X0018300Y-0002600D02*
Y-0005430D01*
X0018840Y-0002600D02*
Y-0006730D01*
X0022050Y-0002610D02*
X0018300D01*
X0022050Y-0002700D02*
X0018300D01*
X0022050Y-0002790D02*
X0018300D01*
X0022050Y-0002880D02*
X0018300D01*
X0022050Y-0002970D02*
X0018300D01*
X0022050Y-0003060D02*
X0018300D01*
X0022050Y-0003150D02*
X0018300D01*
X0022050Y-0003240D02*
X0018300D01*
X0022050Y-0003330D02*
X0018300D01*
X0022050Y-0003420D02*
X0018300D01*
X0022050Y-0003510D02*
X0018300D01*
X0022050Y-0003600D02*
X0018300D01*
X0022050Y-0003690D02*
X0018300D01*
X0022020Y-0004195D02*
X0021779D01*
X0021360Y-0002600D02*
Y-0003940D01*
X0021457Y-0003870D02*
X0018300D01*
X0021345Y-0003960D02*
X0018300D01*
X0021090Y-0005005D02*
Y-0005995D01*
X0022050Y-0004230D02*
X0022020D01*
X0022050Y-0004320D02*
X0022020D01*
X0022050Y-0005940D02*
X0018430D01*
X0022050Y-0004500D02*
X0022020D01*
X0021305Y-0004140D02*
X0018300D01*
X0022050Y-0004680D02*
X0022020D01*
X0022050Y-0004770D02*
X0022020D01*
X0022050Y-0004860D02*
X0022020D01*
X0021080Y-0004950D02*
X0018300D01*
X0022050Y-0005040D02*
X0018300D01*
X0022050Y-0005130D02*
X0018300D01*
X0022050Y-0005220D02*
X0018300D01*
X0022050Y-0005310D02*
X0018300D01*
X0022050Y-0005400D02*
X0018300D01*
X0022050Y-0005490D02*
X0018320D01*
X0022050Y-0005580D02*
X0018320D01*
X0022050Y-0005670D02*
X0018320D01*
X0018390Y-0002600D02*
Y-0005899D01*
X0021180Y-0005005D02*
Y-0005995D01*
X0022050Y-0003780D02*
X0018300D01*
X0021080Y-0006120D02*
X0018520D01*
X0021080Y-0005995D02*
Y-0006195D01*
Y-0006030D02*
X0018505D01*
X0020602Y-0006390D02*
X0018520D01*
X0018570Y-0002600D02*
Y-0006479D01*
X0021000Y-0002600D02*
Y-0006195D01*
X0021090Y-0002600D02*
Y-0004195D01*
X0018480Y-0002600D02*
Y-0005990D01*
X0021080Y-0004410D02*
X0018300D01*
X0021080Y-0004500D02*
X0018300D01*
X0021080Y-0004590D02*
X0018300D01*
X0021080Y-0004680D02*
X0018300D01*
X0022050Y-0004590D02*
X0022020D01*
X0022050Y-0006030D02*
X0022020D01*
X0020820Y-0002600D02*
Y-0006154D01*
X0022050Y-0006210D02*
X0022020D01*
X0022050Y-0005760D02*
X0018320D01*
X0022050Y-0006390D02*
X0022020D01*
X0022050Y-0006480D02*
X0022020D01*
X0021080Y-0004320D02*
X0018300D01*
X0018660Y-0002600D02*
Y-0006569D01*
X0021720Y-0002600D02*
Y-0003919D01*
X0021080Y-0004230D02*
X0018300D01*
X0020669Y-0006570D02*
X0018660D01*
X0021000Y-0006605D02*
Y-0006730D01*
X0022050Y-0004950D02*
X0022020D01*
X0021080Y-0004860D02*
X0018300D01*
X0021080Y-0004770D02*
X0018300D01*
X0021080Y-0006605D02*
X0020989D01*
X0021080Y-0006195D02*
X0020989D01*
X0022050Y-0004140D02*
X0021795D01*
X0021540Y-0002600D02*
Y-0003852D01*
X0021080Y-0006605D02*
Y-0006730D01*
X0021720Y-0005005D02*
Y-0005995D01*
X0021900Y-0002600D02*
Y-0004195D01*
X0021990Y-0002600D02*
Y-0004195D01*
X0022050Y-0005850D02*
X0018330D01*
X0020615Y-0006480D02*
X0018570D01*
X0018320Y-0005430D02*
X0018300D01*
X0022050Y-0003960D02*
X0021755D01*
X0022050Y-0003870D02*
X0021643D01*
X0021321Y-0004195D02*
X0021080D01*
X0018320Y-0005430D02*
Y-0005845D01*
X0021080Y-0006730D02*
X0018820D01*
X0018370Y-0005880D02*
X0018468Y-0005977D01*
X0022050Y-0004050D02*
X0021793D01*
X0018520Y-0006100D02*
Y-0006429D01*
X0020640Y-0006532D02*
Y-0006730D01*
X0019200Y-0002600D02*
Y-0006730D01*
X0022050Y-0004410D02*
X0022020D01*
X0021180Y-0002600D02*
Y-0004195D01*
X0021080D02*
Y-0005005D01*
X0022020D02*
X0021080D01*
X0022020Y-0004195D02*
Y-0005005D01*
X0021307Y-0004050D02*
X0018300D01*
X0022020Y-0005995D02*
X0021080D01*
X0022050Y-0006300D02*
X0022020D01*
X0018520Y-0006429D02*
X0018820Y-0006730D01*
X0018930Y-0002600D02*
Y-0006730D01*
X0021450Y-0002600D02*
Y-0003873D01*
X0022039Y-0006570D02*
X0022020D01*
X0022050Y-0002600D02*
X0018300D01*
X0022020Y-0005995D02*
Y-0006589D01*
X0021810Y-0002600D02*
Y-0004195D01*
X0020730Y-0002600D02*
Y-0006183D01*
X0022050Y-0006120D02*
X0022020D01*
X0020910Y-0002600D02*
Y-0006159D01*
X0021630Y-0002600D02*
Y-0003865D01*
X0022050Y-0006559D02*
X0022020Y-0006589D01*
X0048212Y0074822D02*
Y0073838D01*
X0048122Y0074822D02*
Y0073838D01*
X0048032Y0074822D02*
Y0073838D01*
X0050648Y0074738D02*
X0047852D01*
X0050648Y0074648D02*
X0047852D01*
X0050648Y0074558D02*
X0047852D01*
X0050648Y0074468D02*
X0047852D01*
X0050648Y0074378D02*
X0047852D01*
X0050648Y0074288D02*
X0047852D01*
X0050648Y0074198D02*
X0047852D01*
X0050648Y0074108D02*
X0047852D01*
X0050648Y0074018D02*
X0047852D01*
X0047942Y0074822D02*
Y0073838D01*
X0049652Y0074822D02*
Y0073838D01*
X0049562Y0074822D02*
Y0073838D01*
X0049472Y0074822D02*
Y0073838D01*
X0049382Y0074822D02*
Y0073838D01*
X0049292Y0074822D02*
Y0073838D01*
X0049202Y0074822D02*
Y0073838D01*
X0049112Y0074822D02*
Y0073838D01*
X0049022Y0074822D02*
Y0073838D01*
X0048932Y0074822D02*
Y0073838D01*
X0048842Y0074822D02*
Y0073838D01*
X0048752Y0074822D02*
Y0073838D01*
X0048662Y0074822D02*
Y0073838D01*
X0048572Y0074822D02*
Y0073838D01*
X0048482Y0074822D02*
Y0073838D01*
X0048392Y0074822D02*
Y0073838D01*
X0048302Y0074822D02*
Y0073838D01*
X0050648D02*
X0047852D01*
X0050648Y0074822D02*
Y0073838D01*
Y0074822D02*
X0049217D01*
X0050552D02*
Y0073838D01*
X0050462Y0074822D02*
Y0073838D01*
X0050372Y0074822D02*
Y0073838D01*
X0050282Y0074822D02*
Y0073838D01*
X0050192Y0074822D02*
Y0073838D01*
X0050102Y0074822D02*
Y0073838D01*
X0050012Y0074822D02*
Y0073838D01*
X0049922Y0074822D02*
Y0073838D01*
X0049832Y0074822D02*
Y0073838D01*
X0049742Y0074822D02*
Y0073838D01*
X0050648Y0073928D02*
X0047852D01*
X0049217Y0074822D02*
X0047852D01*
Y0073838D01*
X0048212Y0076648D02*
Y0075663D01*
X0048122Y0076648D02*
Y0075663D01*
X0048032Y0076648D02*
Y0075663D01*
X0050648Y0076563D02*
X0047852D01*
X0050648Y0076473D02*
X0047852D01*
X0050648Y0076383D02*
X0047852D01*
X0050648Y0076293D02*
X0047852D01*
X0050648Y0076203D02*
X0047852D01*
X0050648Y0076113D02*
X0047852D01*
X0050648Y0076023D02*
X0047852D01*
X0050648Y0075933D02*
X0047852D01*
X0050648Y0075843D02*
X0047852D01*
X0050648Y0075753D02*
X0047852D01*
X0049652Y0076648D02*
Y0075663D01*
X0049562Y0076648D02*
Y0075663D01*
X0049472Y0076648D02*
Y0075663D01*
X0049382Y0076648D02*
Y0075663D01*
X0049292Y0076648D02*
Y0075663D01*
X0049202Y0076648D02*
Y0075663D01*
X0049112Y0076648D02*
Y0075663D01*
X0049022Y0076648D02*
Y0075663D01*
X0048932Y0076648D02*
Y0075663D01*
X0048842Y0076648D02*
Y0075663D01*
X0048752Y0076648D02*
Y0075663D01*
X0048662Y0076648D02*
Y0075663D01*
X0048572Y0076648D02*
Y0075663D01*
X0048482Y0076648D02*
Y0075663D01*
X0048392Y0076648D02*
Y0075663D01*
X0048302Y0076648D02*
Y0075663D01*
X0050648Y0076648D02*
X0047852D01*
Y0075663D01*
X0049220D02*
X0047852D01*
X0050552Y0076648D02*
Y0075663D01*
X0050462Y0076648D02*
Y0075663D01*
X0050372Y0076648D02*
Y0075663D01*
X0050282Y0076648D02*
Y0075663D01*
X0050192Y0076648D02*
Y0075663D01*
X0050102Y0076648D02*
Y0075663D01*
X0050012Y0076648D02*
Y0075663D01*
X0049922Y0076648D02*
Y0075663D01*
X0049832Y0076648D02*
Y0075663D01*
X0049742Y0076648D02*
Y0075663D01*
X0047942Y0076648D02*
Y0075663D01*
X0050648D02*
X0049220D01*
X0050648Y0076648D02*
Y0075663D01*
G01X0024410Y-0003700D02*
G03X0024550Y-0003755I0000140J0000150D01*
G01X0025305Y-0003845D02*
G03X0025450Y-0003905I0000145J0000145D01*
G01X0025650D02*
G03X0025795Y-0003845I0000000J0000205D01*
G01X0023800Y-0005880D02*
G03X0023700Y-0005912I0000000J0000170D01*
G01X0024520Y-0005930D02*
G03X0024400Y-0005880I0000120J0000120D01*
G01X0023800D02*
G03X0023700Y-0005912I0000000J0000170D01*
G01X0025650Y-0003905D02*
G03X0025795Y-0003845I0000000J0000205D01*
G01X0021779Y-0004195D02*
G03X0021798Y-0004100I0000229J0000095D01*
G01X0021779Y-0004195D02*
G03X0021798Y-0004100I0000229J0000095D01*
G01X0021302D02*
G03X0021321Y-0004195I0000248J0000000D01*
G01X0021798Y-0004100D02*
G03X0021550Y-0003852I0000248J0000000D01*
G03X0021302Y-0004100I0000000J0000248D01*
G01X0020602Y-0006400D02*
G03X0020850Y-0006648I0000248J0000000D01*
Y-0006152D02*
G03X0020602Y-0006400I0000000J0000248D01*
G01X0021302Y-0004100D02*
G03X0021321Y-0004195I0000248J0000000D01*
G01X0021798Y-0004100D02*
G03X0021550Y-0003852I0000248J0000000D01*
G03X0021302Y-0004100I0000000J0000248D01*
G01X0018520Y-0006100D02*
G03X0018470Y-0005980I0000170J0000000D01*
G01X0018520Y-0006100D02*
G03X0018470Y-0005980I0000170J0000000D01*
G01X0018370Y-0005880D02*
G03X0018320Y-0005845I0000120J0000120D01*
G01X0018370Y-0005880D02*
G03X0018320Y-0005845I0000120J0000120D01*
G01X0020850Y-0006648D02*
G03X0020989Y-0006605I0000000J0000248D01*
Y-0006195D02*
G03X0020850Y-0006152I0000139J0000205D01*
G54D76*
G01X0042720Y-0005750D02*
Y-0006450D01*
X0042675Y-0005750D02*
Y-0006450D01*
X0042630Y-0005750D02*
Y-0006450D01*
X0042585Y-0005750D02*
Y-0006450D01*
X0042540Y-0005750D02*
Y-0006450D01*
X0042495Y-0005750D02*
Y-0006450D01*
X0042450Y-0005750D02*
Y-0006450D01*
X0042405Y-0005750D02*
Y-0006450D01*
X0042360Y-0005750D02*
Y-0006450D01*
X0042315Y-0005750D02*
Y-0006450D01*
X0042270Y-0005750D02*
Y-0006450D01*
X0042225Y-0005750D02*
Y-0006450D01*
X0042180Y-0005750D02*
Y-0006450D01*
X0042135Y-0005750D02*
Y-0006450D01*
X0042090Y-0005750D02*
Y-0006450D01*
X0044000Y-0005775D02*
X0042000D01*
X0044000Y-0005820D02*
X0042000D01*
X0044000Y-0005865D02*
X0042000D01*
X0044000Y-0005910D02*
X0042000D01*
X0044000Y-0005955D02*
X0042000D01*
X0044000Y-0006000D02*
X0042000D01*
X0044000Y-0006045D02*
X0042000D01*
X0044000Y-0006090D02*
X0042000D01*
X0044000Y-0006135D02*
X0042000D01*
X0044000Y-0006180D02*
X0042000D01*
X0044000Y-0006225D02*
X0042000D01*
X0044000Y-0006270D02*
X0042000D01*
X0044000Y-0006315D02*
X0042000D01*
X0044000Y-0006360D02*
X0042000D01*
X0042045Y-0005750D02*
Y-0006450D01*
X0042000Y-0005750D02*
Y-0006450D01*
X0044000Y-0005750D02*
X0042000D01*
X0044000D02*
Y-0006450D01*
X0043980Y-0005750D02*
Y-0006450D01*
X0043935Y-0005750D02*
Y-0006450D01*
X0043890Y-0005750D02*
Y-0006450D01*
X0043845Y-0005750D02*
Y-0006450D01*
X0043800Y-0005750D02*
Y-0006450D01*
X0043755Y-0005750D02*
Y-0006450D01*
X0043710Y-0005750D02*
Y-0006450D01*
X0043665Y-0005750D02*
Y-0006450D01*
X0043620Y-0005750D02*
Y-0006450D01*
X0043575Y-0005750D02*
Y-0006450D01*
X0043530Y-0005750D02*
Y-0006450D01*
X0043485Y-0005750D02*
Y-0006450D01*
X0043440Y-0005750D02*
Y-0006450D01*
X0043395Y-0005750D02*
Y-0006450D01*
X0043350Y-0005750D02*
Y-0006450D01*
X0043305Y-0005750D02*
Y-0006450D01*
X0043260Y-0005750D02*
Y-0006450D01*
X0043215Y-0005750D02*
Y-0006450D01*
X0043170Y-0005750D02*
Y-0006450D01*
X0043125Y-0005750D02*
Y-0006450D01*
X0043080Y-0005750D02*
Y-0006450D01*
X0043035Y-0005750D02*
Y-0006450D01*
X0042990Y-0005750D02*
Y-0006450D01*
X0042945Y-0005750D02*
Y-0006450D01*
X0042900Y-0005750D02*
Y-0006450D01*
X0042855Y-0005750D02*
Y-0006450D01*
X0042810Y-0005750D02*
Y-0006450D01*
X0042765Y-0005750D02*
Y-0006450D01*
X0044000Y-0006405D02*
X0042000D01*
X0044000Y-0006450D02*
X0042000D01*
X0042720Y-0007050D02*
Y-0007750D01*
X0042675Y-0007050D02*
Y-0007750D01*
X0042630Y-0007050D02*
Y-0007750D01*
X0042585Y-0007050D02*
Y-0007750D01*
X0042540Y-0007050D02*
Y-0007750D01*
X0042495Y-0007050D02*
Y-0007750D01*
X0042450Y-0007050D02*
Y-0007750D01*
X0042405Y-0007050D02*
Y-0007750D01*
X0042360Y-0007050D02*
Y-0007750D01*
X0042315Y-0007050D02*
Y-0007750D01*
X0042270Y-0007050D02*
Y-0007750D01*
X0042225Y-0007050D02*
Y-0007750D01*
X0042180Y-0007050D02*
Y-0007750D01*
X0042135Y-0007050D02*
Y-0007750D01*
X0042090Y-0007050D02*
Y-0007750D01*
X0044000Y-0007075D02*
X0042000D01*
X0044000Y-0007120D02*
X0042000D01*
X0044000Y-0007165D02*
X0042000D01*
X0044000Y-0007210D02*
X0042000D01*
X0044000Y-0007255D02*
X0042000D01*
X0044000Y-0007300D02*
X0042000D01*
X0044000Y-0007345D02*
X0042000D01*
X0044000Y-0007390D02*
X0042000D01*
X0044000Y-0007435D02*
X0042000D01*
X0044000Y-0007480D02*
X0042000D01*
X0044000Y-0007525D02*
X0042000D01*
X0044000Y-0007570D02*
X0042000D01*
X0044000Y-0007615D02*
X0042000D01*
X0044000Y-0007660D02*
X0042000D01*
X0042045Y-0007050D02*
Y-0007750D01*
X0044000Y-0007050D02*
X0042000D01*
Y-0007750D01*
X0044000D02*
X0042000D01*
X0043980Y-0007050D02*
Y-0007750D01*
X0043935Y-0007050D02*
Y-0007750D01*
X0043890Y-0007050D02*
Y-0007750D01*
X0043845Y-0007050D02*
Y-0007750D01*
X0043800Y-0007050D02*
Y-0007750D01*
X0043755Y-0007050D02*
Y-0007750D01*
X0043710Y-0007050D02*
Y-0007750D01*
X0043665Y-0007050D02*
Y-0007750D01*
X0043620Y-0007050D02*
Y-0007750D01*
X0043575Y-0007050D02*
Y-0007750D01*
X0043530Y-0007050D02*
Y-0007750D01*
X0043485Y-0007050D02*
Y-0007750D01*
X0043440Y-0007050D02*
Y-0007750D01*
X0043395Y-0007050D02*
Y-0007750D01*
X0043350Y-0007050D02*
Y-0007750D01*
X0043305Y-0007050D02*
Y-0007750D01*
X0043260Y-0007050D02*
Y-0007750D01*
X0043215Y-0007050D02*
Y-0007750D01*
X0043170Y-0007050D02*
Y-0007750D01*
X0043125Y-0007050D02*
Y-0007750D01*
X0043080Y-0007050D02*
Y-0007750D01*
X0043035Y-0007050D02*
Y-0007750D01*
X0042990Y-0007050D02*
Y-0007750D01*
X0042945Y-0007050D02*
Y-0007750D01*
X0042900Y-0007050D02*
Y-0007750D01*
X0042855Y-0007050D02*
Y-0007750D01*
X0042810Y-0007050D02*
Y-0007750D01*
X0042765Y-0007050D02*
Y-0007750D01*
X0044000Y-0007705D02*
X0042000D01*
X0044000Y-0007050D02*
Y-0007750D01*
G54D78*
G01X0048000Y0008018D02*
X0049218D01*
X0049300Y0008100D01*
X0050200D01*
X0050700Y0007600D01*
Y0007050D01*
X0050500Y0006850D01*
X0044650D01*
X0044350Y0007150D01*
X0043550D01*
X0043200Y0006800D01*
X0042750D01*
X0042500Y0007050D01*
X0037650D01*
X0037600Y0007000D01*
X0037650D01*
X0031800Y0003000D02*
X0032100D01*
X0033018Y0002082D01*
Y0001750D01*
X0048000Y0008018D02*
X0049218D01*
X0049300Y0008100D01*
X0049550Y0021750D02*
X0048050D01*
X0047350Y0036850D02*
X0046250D01*
X0046150Y0036950D01*
X0044500D01*
X0044018Y0036470D01*
Y0035500D01*
X0021644Y0009265D02*
Y0008850D01*
X0021544Y0008750D01*
X0020900D01*
X0020600Y0009050D01*
X0018750D01*
X0018250Y0008550D01*
X0014900D01*
X0012850Y0007750D02*
X0013500D01*
X0013600Y0007850D01*
Y0008350D01*
X0013390Y0008560D01*
Y0009299D01*
X0049640Y0035799D02*
Y0035360D01*
X0049750Y0035250D01*
X0050850Y0013850D02*
X0050750Y0013750D01*
X0050400D01*
X0050300Y0013850D01*
X0049300D01*
X0049200Y0013750D01*
X0049000D01*
X0048860Y0013890D01*
X0047951D01*
X0003640Y0018549D02*
Y0018110D01*
X0003700Y0018050D01*
Y0017500D01*
X0004950Y0013300D02*
X0005400Y0013750D01*
X0009600D01*
X0009900Y0014050D01*
Y0014100D01*
X0014900Y0008550D02*
X0018250D01*
X0018750Y0009050D01*
X0020600D01*
X0020900Y0008750D01*
X0021544D01*
X0021644Y0008850D01*
Y0009265D01*
X0047951Y0013890D02*
X0048860D01*
X0049000Y0013750D01*
X0049200D01*
X0049300Y0013850D01*
X0050300D01*
X0050400Y0013750D01*
X0050750D01*
X0050850Y0013850D01*
X0050200Y-0002400D02*
X0041750D01*
X0041450Y-0002700D01*
X0038350Y0000000D02*
Y0001200D01*
X0038140Y0001410D01*
Y0002049D01*
X0021644Y0009265D02*
Y0008850D01*
X0021544Y0008750D01*
X0020900D01*
X0020600Y0009050D01*
X0018750D01*
X0018250Y0008550D01*
X0014900D01*
X0014950Y0001800D02*
X0020950D01*
X0021350Y0002200D01*
X0022150D01*
X0022800Y0001550D01*
X0028800D01*
X0029150Y0001900D01*
X0030800D01*
X0030850Y0001850D01*
X0038700Y0002600D02*
X0038650D01*
X0038550Y0002500D01*
X0038240D01*
X0038140Y0002400D01*
Y0002049D01*
X0022629Y0004750D02*
Y0003401D01*
X0022750Y0003280D01*
X0023500Y0002720D02*
X0023480D01*
X0022920Y0003280D01*
X0022750D01*
X0019030Y0005500D02*
X0019250Y0005280D01*
Y0004530D01*
X0020470Y0005530D02*
X0019060D01*
X0019030Y0005500D01*
X0020470Y0008288D02*
X0019068D01*
X0019030Y0008250D01*
X0023417Y0010970D02*
Y0009265D01*
Y0010970D01*
X0040750Y0005600D02*
X0040800Y0005650D01*
X0044516Y0017000D02*
X0044500Y0016984D01*
X0048640Y0063701D02*
X0048650Y0063711D01*
X0047300Y0064350D02*
X0047350Y0064300D01*
Y0063711D02*
X0047360Y0063701D01*
X0047200Y0033450D02*
Y0033920D01*
X0047250Y0033970D01*
X0044500Y0016984D02*
X0044516Y0017000D01*
X0035750Y0000220D02*
X0035870D01*
X0040750Y0005600D02*
X0040800Y0005650D01*
X0047300Y0064350D02*
X0047350Y0064300D01*
Y0063711D02*
X0047360Y0063701D01*
X0047200Y0033450D02*
Y0033920D01*
X0047250Y0033970D01*
X0001500Y0016470D02*
Y0016000D01*
X0050000Y0011030D02*
X0050030Y0011000D01*
X0011100Y0007050D02*
X0011250Y0007200D01*
Y0007470D01*
X0040800Y0005650D02*
X0040750Y0005600D01*
X0044266Y0062000D02*
X0044250Y0061984D01*
X0043500Y0050495D02*
X0043495D01*
X0042600Y0049600D01*
Y0040550D01*
X0042450Y0035350D02*
Y0035300D01*
X0036500Y0034050D02*
Y0033495D01*
X0023220Y0009265D02*
Y0008640D01*
X0023200D01*
X0023220Y0008620D01*
X0023200Y0008600D01*
X0026100Y-0010570D02*
X0025780Y-0010250D01*
X0019150Y-0007780D02*
X0018750D01*
X0010000Y0019350D02*
Y0019720D01*
Y0019350D01*
X0009250Y0021500D02*
Y0021100D01*
X0002900Y0023750D02*
Y0024160D01*
X0018750Y-0007780D02*
X0019150D01*
X0019550Y-0007750D02*
Y-0008150D01*
X0024985Y0006712D02*
X0024362D01*
X0024350Y0006700D01*
X0024400D01*
X0024950Y0003650D02*
X0025450Y0003150D01*
X0025500D01*
X0001250Y0024160D02*
Y0024650D01*
X0011450Y0018900D02*
Y0019400D01*
X0010000Y0019350D02*
Y0019720D01*
X0020470Y0008485D02*
Y0008800D01*
X0023200Y0008600D02*
X0023220Y0008620D01*
X0023200Y0008640D01*
X0023220D01*
Y0009265D01*
X0020470Y0005727D02*
X0021077D01*
X0021100Y0005750D01*
X0022250Y0005400D02*
X0022235Y0005385D01*
Y0004750D01*
X0020470Y0008800D02*
Y0008485D01*
X0022235Y0004750D02*
Y0005385D01*
X0022250Y0005400D01*
X0024400Y0006700D02*
X0024350D01*
X0024362Y0006712D01*
X0024985D01*
X0023220Y0009265D02*
Y0008640D01*
X0023200D01*
X0023220Y0008620D01*
X0023200Y0008600D01*
X0024400Y0006700D02*
X0024350D01*
X0024362Y0006712D01*
X0024985D01*
X0024950Y0003650D02*
X0025450Y0003150D01*
X0025500D01*
X0024985Y0006712D02*
X0024362D01*
X0024350Y0006700D01*
X0024400D01*
X0027500Y0007000D02*
X0027030D01*
X0048500Y0009553D02*
X0048000D01*
X0002900Y0024160D02*
Y0023750D01*
X0001250Y0024650D02*
Y0024160D01*
X0043250Y0035500D02*
Y0033800D01*
X0043850Y0033200D01*
X0047550D01*
X0048000Y0033650D01*
X0048050D01*
X0047800Y0001400D02*
X0047050D01*
X0045200Y-0000450D01*
X0040850D01*
X0040650Y-0000650D01*
X0039000D01*
X0038650Y-0001000D01*
X0035800D01*
X0035700Y-0001100D01*
X0034650D01*
X0034200Y-0001550D01*
X0032100D01*
X0031950Y0001950D02*
X0032150Y0001750D01*
X0032250D01*
X0044785Y0035500D02*
Y0035935D01*
X0045350Y0036500D01*
X0045450D01*
X0045800D01*
X0046000Y0036300D01*
X0047300D01*
X0046600Y0009000D02*
X0047300D01*
X0047515Y0008785D01*
X0048000D01*
X0049640Y0035799D02*
Y0035360D01*
X0049750Y0035250D01*
X0048950Y0060500D02*
X0048640Y0060810D01*
Y0061299D01*
X0046250Y0003280D02*
X0045750D01*
Y0003250D01*
X0041400Y0000700D02*
X0041380Y0000720D01*
X0041400Y0000700D02*
X0041380Y0000720D01*
X0043762Y0038098D02*
Y0037838D01*
X0044000Y0037600D01*
X0043300Y0007350D02*
X0044538D01*
X0044950Y0007762D01*
X0045402D01*
X0024985Y0008091D02*
X0024600D01*
X0024500Y0007991D01*
X0023859D01*
X0023750Y0008100D01*
X0021400D01*
X0021200Y0008300D01*
X0020850Y0009400D02*
Y0009350D01*
X0018800D01*
X0018200Y0008750D01*
X0015350D01*
X0015250Y0008850D01*
X0014400D01*
X0009950Y0007550D02*
X0008950D01*
X0008415Y0008080D01*
Y0009049D01*
X0049000Y0019220D02*
X0049020Y0019200D01*
X0049500D01*
X0049450Y0021450D02*
X0049400Y0021500D01*
X0033785Y0004348D02*
Y0003935D01*
X0033700Y0003850D01*
X0030700Y0002850D02*
X0030200D01*
X0030050Y0002700D01*
X0024950D01*
X0024850Y0002800D01*
X0024700Y0000450D02*
X0023500D01*
X0023450Y0000500D01*
X0012150D01*
X0011800Y0000850D01*
X0009050Y0010900D02*
X0009183Y0011030D01*
Y0011648D01*
X0047320Y0021280D02*
X0047300Y0021300D01*
X0049000Y0019220D02*
X0049020Y0019200D01*
X0049500D01*
X0003000Y0019750D03*
X0002500Y0010500D03*
X0012750D03*
X0037500Y0003250D03*
X0046750Y0013250D03*
X0049000Y0037000D03*
X0048000Y0062500D03*
X0012250Y-0006800D02*
Y-0007220D01*
X0045750Y0003250D02*
Y0003280D01*
X0046250D01*
X0045750D01*
Y0003250D01*
X0046050Y0007400D02*
X0045900Y0007250D01*
X0045402D01*
X0012250Y-0006800D02*
Y-0007220D01*
X0018000Y-0007780D02*
X0017600Y-0007380D01*
Y-0007200D01*
X0017400Y-0007000D01*
X0017179D01*
X0009951Y0008550D02*
Y0009049D01*
X0003640Y0018549D02*
Y0018110D01*
X0003700Y0018050D01*
Y0017500D01*
X0003300Y0008400D02*
X0003200Y0008500D01*
Y0008700D01*
X0003140Y0008760D01*
Y0009299D01*
X0050250Y0034650D02*
Y0035100D01*
X0049896Y0035454D01*
Y0035799D01*
X0008159Y0011648D02*
Y0012009D01*
Y0012100D01*
X0007900D01*
X0007750Y0012250D01*
Y0013050D01*
X0007250Y0013550D01*
X0005550D01*
X0005050Y0013050D01*
X0004450D01*
X0004400Y0013000D01*
X0003250Y0015150D02*
X0002750Y0014650D01*
X0002350D01*
X0001750Y0015250D01*
X-0001900D01*
X-0002150Y0015000D01*
Y0014988D01*
X-0002238Y0014900D01*
Y0011598D01*
X0009183Y0009049D02*
Y0009650D01*
X0008650D01*
X0007650Y0009750D02*
X0007600Y0009700D01*
X0006950D01*
X0006650Y0009400D01*
X0004150Y0015250D02*
X0003650Y0015750D01*
X0003100D01*
X0002900Y0015950D01*
X0002100D01*
X0001900Y0015750D01*
X0000850D01*
X-0000950Y0017550D01*
X-0001215Y0017815D01*
Y0018250D01*
X0033785Y0001750D02*
Y0002100D01*
X0033585Y0002300D01*
X0033300D01*
X0033050Y0002550D01*
X0037200Y-0003800D02*
X0037250Y-0003850D01*
X0040450D01*
X0040650Y-0003650D01*
X0043600D01*
X0043800Y-0003450D01*
X0045900D01*
X0046600Y0009000D02*
X0047300D01*
X0047515Y0008785D01*
X0048000D01*
X0024985Y0008288D02*
X0025388D01*
X0025550Y0008450D01*
Y0017050D02*
X0025400Y0017200D01*
X0012750D01*
X0012500Y0016950D01*
X0010550D01*
X0010350Y0017150D01*
X0009650D01*
X0009600Y0009750D02*
X0009283D01*
X0009183Y0009650D01*
Y0009049D01*
X0023811Y0009265D02*
Y0009711D01*
X0024050Y0009950D01*
X0024350D01*
X0024550Y0009750D01*
X0028850D01*
X0029400Y0009200D01*
X0032400Y0003650D02*
X0032650Y0003900D01*
X0032918D01*
X0033018Y0004000D01*
Y0004348D01*
X0040750Y0005600D02*
X0040800Y0005650D01*
X0045402Y0008785D02*
X0044315D01*
X0044150Y0008950D01*
X0045050Y0037600D02*
X0044835D01*
X0044785Y0037650D01*
Y0038098D01*
X0023450Y-0009550D02*
Y-0009400D01*
X0023500Y-0009450D01*
Y-0009550D01*
X0007903Y0011648D02*
Y0011350D01*
X0007900D01*
X0007750Y0011200D01*
X0007550D01*
X0007350Y0011400D01*
X0008550Y0005500D02*
X0008700Y0005350D01*
X0009950D01*
X0032762Y0001750D02*
Y0001300D01*
X0032950Y0001112D01*
Y0001000D01*
X0033150Y0000800D01*
X0033450D01*
X0034350Y-0000100D01*
X0035950D01*
X0036200Y0000150D01*
X0037200D01*
X0037500Y-0000150D01*
X0038100D01*
X0038250Y-0000300D01*
X0038400D01*
X0038700Y0000000D01*
X0040150D01*
X0040250Y0000100D01*
X0041450Y0002100D02*
X0041550Y0002000D01*
X0042250D01*
X0042450Y0001800D01*
X0043450D01*
X0043650Y0001600D01*
Y0000800D01*
X0043950Y0000500D01*
X0044650D01*
X0044750Y0000600D01*
Y0002550D01*
X0044950Y0002750D01*
X0045450D01*
X0045700Y0003000D01*
X0047350D01*
Y0007750D02*
X0047388D01*
X0047400Y0007762D01*
X0048000D01*
X0001000Y-0011400D02*
X0000250D01*
X-0002500Y0008350D02*
Y0008994D01*
X-0002494Y0009000D01*
X0049407Y0061299D02*
Y0061043D01*
X0049700Y0060750D01*
X0049500Y0057300D02*
X0049350Y0057150D01*
X0048500D01*
X0048256Y0057394D01*
X0048250D01*
X0049600Y0028470D02*
Y0029600D01*
X0049800Y0029800D01*
Y0030450D01*
X0049850Y0030500D01*
X0050600D01*
X0051000Y0033600D02*
X0050950Y0033650D01*
Y0034900D01*
X0050407Y0035443D01*
Y0035799D01*
X0020300Y-0008500D02*
X0019200D01*
X0018900Y-0008200D01*
X0018550D01*
X0018300Y-0008450D01*
X0017900D01*
X0017500Y-0008050D01*
X0015850Y-0007500D02*
X0015888D01*
X0015900Y-0007512D01*
X0015250D01*
X0045402Y0007762D02*
X0044950D01*
X0044538Y0007350D01*
X0043300D01*
X0043750Y0006900D02*
X0043450Y0006600D01*
X0042700D01*
X0042450Y0006850D01*
X0038200D01*
X0038100Y0006750D01*
X0030300D01*
X0030100Y0006550D01*
Y0006150D01*
X0030200Y0006050D01*
X0030450D01*
X0030700Y0006300D01*
X0031200D01*
X0032000Y0005500D01*
X0032500D01*
X0032762Y0005240D01*
Y0004348D01*
X-0002238Y0009000D02*
Y0009562D01*
X-0002050Y0009750D01*
X-0001500Y0010300D01*
X-0000600D01*
X-0000250Y0009950D01*
X-0000100D01*
X0000400Y0010450D01*
X0006850Y0008800D02*
Y0009100D01*
X0007250Y0009500D01*
X0008059D01*
X0008159Y0009400D01*
Y0009049D01*
X0024985Y0007500D02*
X0024250D01*
Y0007550D01*
X0024450Y-0000700D02*
X0024252D01*
X0024202Y-0000750D01*
X0016850D01*
X0016750Y-0007300D02*
X0017135D01*
X0017179Y-0007256D01*
X0045041Y0038098D02*
Y0038391D01*
X0045200Y0038550D01*
X0045800D01*
X0045900Y0038450D01*
Y0009000D02*
Y0009041D01*
X0045402D01*
X0008415Y0009049D02*
Y0009485D01*
X0007900Y0010000D01*
X0007400D01*
X0007350Y0009950D01*
X0003500Y0006650D02*
X0003100Y0006250D01*
X-0001750D01*
X-0001800Y0006300D01*
X-0001850D01*
X-0001800Y0009550D02*
Y0009532D01*
X-0001982Y0009350D01*
Y0009000D01*
X0048762Y0051848D02*
Y0051462D01*
X0048700Y0051400D01*
X0048200D01*
X0047750Y0051850D01*
X0047000D01*
X0046950Y0051900D01*
X0044000Y0037600D02*
X0043762Y0037838D01*
Y0038098D01*
X0004200Y-0002650D02*
X0004950Y-0003400D01*
X0010950D01*
X0011100Y-0003550D01*
X0011300Y-0002250D02*
X0011550D01*
X0012550Y-0001250D01*
X0023900D01*
X0024000Y-0001150D01*
Y-0001100D01*
X0024050Y0006000D02*
X0024170Y0006121D01*
X0024985D01*
Y0007894D02*
X0025544D01*
X0026050Y0008400D01*
X0026100D01*
Y0016800D02*
X0013450D01*
X0013150Y0016500D01*
X0012650D01*
X0012400Y0016750D01*
X0010400D01*
X0010350Y0016800D01*
X0009150D01*
X0008650Y0016300D01*
X0006350D01*
X0006850Y0008800D02*
Y0009100D01*
X0007250Y0009500D01*
X0008059D01*
X0008159Y0009400D01*
Y0009049D01*
X-0001215Y0011598D02*
Y0012035D01*
X-0001200Y0012050D01*
Y0012100D01*
X0004700Y0009650D02*
X0005000Y0009950D01*
X0005150D01*
X0009050Y0010900D02*
X0009183Y0011030D01*
Y0011648D01*
X0049018Y0049250D02*
Y0048918D01*
X0048700Y0048600D01*
X0047350D01*
X0046850Y0049100D01*
X0046150Y0036950D02*
X0044500D01*
X0044018Y0036470D01*
Y0035500D01*
X0012250Y-0006280D02*
X0012180D01*
X0011900Y-0006000D01*
Y-0002600D01*
X0012850Y-0001650D01*
X0023300D01*
X0023500Y-0001850D01*
X0023750Y0007250D02*
X0023800Y0007300D01*
X0024450D01*
X0024453Y0007303D01*
X0024985D01*
X0034041Y0001750D02*
Y0002541D01*
X0034349Y0002850D01*
X0035700D01*
X0037400Y-0003550D02*
X0037650D01*
X0037950Y-0003250D01*
X0038600D01*
X0038650Y-0003300D01*
X0038800D01*
X0039150Y-0003650D01*
X0040400D01*
X0040600Y-0003450D01*
X0043550D01*
X0043800Y-0003200D01*
X0046650D01*
X0047450Y0009200D02*
X0047609Y0009041D01*
X0048000D01*
X0020470Y0008091D02*
X0021000D01*
X0021191Y0007900D01*
X0023352D01*
X0023402Y0007850D01*
X0023600D01*
X0024250Y0010250D02*
X0024300D01*
X0024600Y0009950D01*
X0029550D01*
X0050650Y0051350D02*
X0050553Y0051447D01*
Y0051848D01*
X0048000Y0007250D02*
X0048500D01*
X0048600Y0007350D01*
X0049400D01*
X0049500Y0007250D01*
X0050450D01*
X0048050Y0033650D02*
X0048000D01*
X0047550Y0033200D01*
X0043850D01*
X0043250Y0033800D01*
Y0035500D01*
X-0002750Y0009000D02*
Y0009550D01*
X-0002800Y0009600D01*
X-0002050Y0004250D02*
X0004250D01*
X0004450Y0004450D01*
Y0004950D01*
X0004600Y0005100D01*
X0005300D01*
X0007350Y0009150D02*
Y0009149D01*
X0007450Y0009049D01*
X0007648D01*
X0045402Y0009041D02*
X0045900D01*
Y0009000D01*
X0045600Y0006250D02*
X0045000D01*
X0044450Y0006800D01*
X0044000D01*
X0043600Y0006400D01*
X0042650D01*
X0042400Y0006650D01*
X0038250D01*
X0038150Y0006550D01*
X0033200D01*
X0033050Y0006400D01*
X0033400Y0003450D02*
X0033800D01*
X0033950Y0003600D01*
Y0003959D01*
X0034041Y0004050D01*
Y0004348D01*
X0048000Y0009041D02*
X0047609D01*
X0047450Y0009200D01*
X0047050Y0036050D02*
X0045900D01*
X0045700Y0036250D01*
X0045350D01*
X0045041Y0035941D01*
Y0035500D01*
X0024985Y0008485D02*
X0024585D01*
X0024350Y0008250D01*
X0024700Y0004850D02*
X0025200D01*
X0025800Y0004250D01*
X0027600D01*
X0028050Y0003800D01*
X0030400D01*
X0031050Y0004450D01*
X0033400Y0002550D02*
X0034041D01*
Y0001750D01*
X0014157Y0009299D02*
X0014599D01*
X0014650Y0009350D01*
X0014600Y0003650D02*
Y0003670D01*
X0014550Y0003720D01*
X0014000D01*
X0033785Y0001750D02*
Y0002100D01*
X0033585Y0002300D01*
X0033300D01*
X0033050Y0002550D01*
X0031350Y0004350D02*
Y0005000D01*
X0030700Y0005650D01*
X0029950D01*
X0029650Y0005950D01*
Y0008400D01*
X0029250Y0008800D01*
X0025900D01*
X0025550Y0008450D01*
X0025388Y0008288D01*
X0024985D01*
X0009439Y0011648D02*
Y0010900D01*
Y0010889D01*
X0009150Y0010600D01*
X0007200D01*
X0006850Y0010950D01*
X0006650Y0010400D02*
X0006550Y0010300D01*
X0004950D01*
X0005000Y0010250D01*
Y0011250D02*
X0001600D01*
X0001450Y0011100D01*
Y0011050D01*
X0000950Y0010550D01*
X0000650D01*
X0000200Y0011000D01*
X-0000100D01*
Y0011750D02*
X-0000400Y0012050D01*
X-0000859D01*
X-0000959Y0011950D01*
Y0011598D01*
X0034041Y0004348D02*
Y0004050D01*
X0033950Y0003959D01*
Y0003600D01*
X0033800Y0003450D01*
X0033400D01*
X0032650D01*
X0031800Y0004200D02*
X0031000Y0003400D01*
X0027950D01*
X0027600Y0003750D01*
X0025800D01*
X0025250Y0004300D01*
X0024800D01*
X0023000Y0008350D02*
X0023300D01*
X0023700Y0008750D01*
X0024105D01*
X0024205Y0008850D01*
Y0009265D01*
X0013498Y-0011000D02*
X0014850D01*
X0015750Y0006650D02*
X0019500D01*
X0019759Y0006909D01*
X0020470D01*
X-0000959Y0009000D02*
Y0009491D01*
X-0000950Y0009500D01*
X-0000750Y0002850D02*
X-0000700Y0002800D01*
X0004400D01*
X0004850Y0003250D01*
X0008300D01*
X0008450Y0003400D01*
X0008950D01*
X0009100Y0008550D02*
X0009239D01*
X0009439Y0008750D01*
Y0009049D01*
X-0001982Y0018250D02*
Y0017882D01*
X-0001850Y0017750D01*
X-0001800Y0009550D02*
Y0009532D01*
X-0001982Y0009350D01*
Y0009000D01*
X0009439Y0011648D02*
Y0010900D01*
X0010550D01*
X0010900Y0011250D01*
X0013700D01*
X0014250Y0010700D01*
X0019750D01*
X0020400Y0011350D01*
X0022200D01*
X0023000Y0008350D02*
X0023300D01*
X0023700Y0008750D01*
X0024105D01*
X0024205Y0008850D01*
Y0009265D01*
X0020470Y0007500D02*
X0020100D01*
X0019500Y0006900D01*
X0015650D01*
X0015350Y0006600D01*
X0013450D01*
X0013250Y0006400D01*
X0012400D01*
X0007350Y0009150D02*
Y0009149D01*
X0007450Y0009049D01*
X0007648D01*
X0020470Y0007303D02*
X0022050D01*
X0022053Y0007300D01*
X0022350Y0007000D01*
X0023850D01*
X0023900Y0006950D01*
X0024000Y0008250D02*
X0024500Y0008750D01*
X0024950D01*
X0025250Y0009050D01*
X0028450D01*
X0042750Y0034850D02*
X0042320D01*
X0042250Y0034780D01*
X0045500Y0049220D02*
Y0049200D01*
X0045350Y0049050D01*
X0042850D01*
X0042750Y0034850D02*
X0042320D01*
X0042250Y0034780D01*
X0013498Y-0009000D02*
X0013500D01*
Y-0008950D02*
X0013550Y-0009000D01*
X0015400D01*
X0015500Y-0008900D01*
X0016500Y0005800D02*
Y0005900D01*
X0016720Y0006121D01*
X0020470D01*
X0045041Y0038098D02*
Y0038391D01*
X0045200Y0038550D01*
X0045800D01*
X0045900Y0038450D01*
X0047050Y0051400D02*
X0047150D01*
X0047850Y0050700D01*
X0049800D01*
X0050041Y0050941D01*
Y0051848D01*
X0013498Y-0010000D02*
X0014150D01*
X0014800Y-0009350D01*
X0015750D01*
X0016900Y-0008200D01*
X0017150Y0005850D02*
X0019876D01*
X0019950Y0005924D01*
X0020470D01*
X0032750Y-0001148D02*
X0032748Y-0001150D01*
X0032250D01*
X0027050Y-0001950D02*
X0025150D01*
X0024300Y-0001100D01*
X0024000D01*
X0024050Y0006000D02*
X0024170Y0006121D01*
X0024985D01*
X0021447Y0004750D02*
Y0004297D01*
X0021350Y0004200D01*
Y-0001000D02*
X0012300D01*
X0011500Y-0001800D01*
Y-0001850D01*
X0011450Y-0006700D02*
X0011240Y-0006490D01*
Y-0006250D01*
X0032250Y0001750D02*
X0032150D01*
X0031950Y0001950D01*
X0026550Y0002350D02*
X0026200Y0002000D01*
X0023400D01*
X0023350Y0002050D01*
Y0007350D02*
X0022400D01*
X0022250Y0007500D01*
X0020470D01*
X0050041Y0049250D02*
Y0048591D01*
X0049650Y0048200D01*
X0048248D01*
X0048198Y0048150D01*
X0048000D01*
X0047050Y0036050D02*
X0045900D01*
X0045700Y0036250D01*
X0045350D01*
X0045041Y0035941D01*
Y0035500D01*
X-0002750Y0018250D02*
Y0017600D01*
X-0002850Y0017500D01*
X-0002800Y0009600D02*
X-0002750Y0009550D01*
Y0009000D01*
X0024008Y0009265D02*
Y0009650D01*
X0024108Y0009750D01*
X0024300D01*
X0024650Y0009400D01*
Y0009050D01*
X0033700Y0003850D02*
X0033785Y0003935D01*
Y0004348D01*
X0045553Y0038098D02*
X0045950D01*
Y0038050D01*
X0029400Y0007400D02*
X0029350Y0007350D01*
X0027850D01*
X0027800Y0007300D01*
Y0007350D01*
Y0013500D02*
X0027550Y0013750D01*
X0021450D01*
Y0009900D02*
Y0009268D01*
X0021447Y0009265D01*
X0021841Y0004750D02*
Y0003941D01*
X0021650Y0003750D01*
X0020150D01*
X0020000Y0003600D01*
Y0003280D01*
X0044785Y0038098D02*
Y0037650D01*
X0044835Y0037600D01*
X0045050D01*
X0045450Y0048750D02*
X0045650D01*
X0045850Y0048950D01*
Y0049800D01*
X0046150Y0050100D01*
X0047150D01*
X0047550Y0050500D01*
X0050350D01*
X0050900Y0051050D01*
Y0052100D01*
X0050700Y0052300D01*
X0049885D01*
X0049785Y0052200D01*
Y0051848D01*
X0032000Y-0010750D02*
X0031400Y-0011350D01*
X0026950D01*
X0026700Y-0011100D01*
X0025050D01*
X0024950Y0002450D02*
X0024800D01*
X0024600Y0002650D01*
Y0002900D01*
X0024500Y0003000D01*
X0023800D01*
X0023520Y0003280D01*
X0023500D01*
X0010000Y-0007220D02*
Y-0006900D01*
X0010450Y-0006450D01*
X0011450Y-0006700D02*
X0011240Y-0006490D01*
Y-0006250D01*
X0048000Y0007762D02*
X0047400D01*
X0047388Y0007750D01*
X0047350D01*
X0045400Y0034800D02*
X0045200Y0035000D01*
X0043850D01*
X0043762Y0035090D01*
Y0035500D01*
X0001550Y0020000D02*
X0001250Y0019700D01*
X-0001347D01*
X-0002494Y0018557D01*
Y0018250D01*
X0045330Y0006530D02*
X0045300Y0006500D01*
X0045280D01*
X0045250Y0006530D01*
X-0001215Y0020848D02*
Y0020465D01*
X-0001100Y0020350D01*
X-0001200Y0012100D02*
Y0012050D01*
X-0001215Y0012035D01*
Y0011598D01*
X0008415Y0011648D02*
X0008410Y0011150D01*
X0008020D01*
X0007800Y0010950D01*
X0007400D01*
X0007150Y0011200D01*
X0006650D01*
X0006150Y0010700D01*
X0004950D01*
X0004650Y0011000D01*
X0000700Y0012550D02*
X-0001600D01*
X-0001982Y0012168D01*
Y0011598D01*
X-0001726Y0009000D02*
Y0007630D01*
X-0000550Y0006450D01*
X0002850D01*
X0002950Y0006550D01*
X0004350Y0003450D02*
X0008250D01*
X0008450Y0003650D01*
X0009350D01*
X0024985Y0007894D02*
X0025544D01*
X0026050Y0008400D01*
X0026100D01*
X0026350Y0003000D02*
X0029750D01*
X0029850Y0003100D01*
X0031200D01*
X0031850Y0002500D02*
X0032300D01*
X0032762Y0002038D01*
Y0001750D01*
X0016750Y-0007300D02*
X0017135D01*
X0017179Y-0007256D01*
X0048700Y0017350D02*
X0049700D01*
X0049750Y0017300D01*
X0049150Y0007100D02*
X0049100Y0007050D01*
X0045100D01*
X0044950Y0007200D01*
Y0007406D01*
X0045050Y0007506D01*
X0045402D01*
X0024985Y0008485D02*
X0024585D01*
X0024350Y0008250D01*
X0010450Y0009500D02*
X0009539D01*
X0009439Y0009400D01*
Y0009049D01*
X0015600Y-0007000D02*
X0015650D01*
X0016000Y-0006650D01*
Y-0003600D01*
X0017750Y-0001850D01*
X0023150D01*
X0024650Y-0003350D01*
X0025500D01*
X0025550Y-0003400D01*
X0025650Y0007600D02*
X0025600D01*
X0025503Y0007697D01*
X0024985D01*
X0033018Y0004348D02*
Y0004000D01*
X0032918Y0003900D01*
X0032650D01*
X0032400Y0003650D01*
Y0003350D01*
X0032550Y0003200D01*
X0034200D01*
X0035050Y0004050D01*
X0035750D01*
X0039850Y0003050D02*
Y0003100D01*
X0040450Y0003700D01*
X0041100D01*
X0042350Y0004950D01*
X0043400D01*
X0043450Y0005000D01*
X0044700D01*
X0044950Y0005250D01*
X0045800D01*
X0045900Y0008000D02*
Y0008018D01*
X0045402D01*
X0008415Y0011648D02*
Y0011150D01*
X0008850D01*
Y0016850D02*
X0008900D01*
X0009550Y0017500D01*
X0010250D01*
X0010600Y0017150D01*
X0012450D01*
X0012700Y0017400D01*
X0029100D01*
X0029300Y0017200D01*
X0029400Y0009200D02*
X0028850Y0009750D01*
X0024550D01*
X0024350Y0009950D01*
X0024050D01*
X0023811Y0009711D01*
Y0009265D01*
X-0002494Y0011598D02*
Y0011244D01*
X-0002350Y0011100D01*
X-0002200Y0005400D02*
X0003350D01*
X0003500Y0006300D02*
X0003950D01*
X0004050Y0006400D01*
X0044018Y0038098D02*
Y0038568D01*
X0044450Y0039000D01*
X0045350D01*
X0045900Y0008000D02*
Y0008018D01*
X0045402D01*
X0041250Y-0008543D02*
Y-0008550D01*
X0041150Y-0008650D01*
X0040970Y-0008470D01*
X0040250Y0001256D02*
X0040000D01*
X0039850Y0001406D01*
Y0001850D01*
X0027500Y0003500D02*
X0027450Y0003550D01*
X0025750D01*
X0025250Y0004050D01*
X0023900D01*
X0023614Y0004336D01*
Y0004750D01*
X0019550Y-0007750D02*
Y-0008150D01*
X0048762Y0049250D02*
Y0049538D01*
X0048600Y0049700D01*
X0046750D01*
X0046600Y0049550D01*
X0045400Y0034800D02*
X0045200Y0035000D01*
X0043850D01*
X0043762Y0035090D01*
Y0035500D01*
X0022629Y0009265D02*
Y0009771D01*
X0021850Y0010550D01*
X0047100Y0032700D02*
X0047400D01*
X0048150Y0031950D01*
X0048700D01*
X0049250Y0032500D01*
X0050950D01*
X0050956Y0032506D01*
X0051000D01*
X0021644Y0004750D02*
Y0004250D01*
X0021650D01*
Y0004150D01*
X0021450Y0003950D01*
X0020550D01*
X0020350Y0004150D01*
X0020150Y-0007250D02*
X0019600D01*
X0032000Y-0009750D02*
X0030300Y-0008050D01*
X0026700D01*
X0026200Y-0007550D01*
Y-0007050D01*
X0025800Y-0006650D01*
X0024750D01*
X0024350Y-0006250D01*
X0023950D01*
X0023750Y-0006450D01*
X0022750D01*
X0022650Y0005400D02*
X0022773D01*
X0023023Y0005150D01*
Y0004750D01*
X0024985Y0005924D02*
X0024474D01*
X0024350Y0005800D01*
X0024250Y-0001450D02*
X0012800D01*
X0011350Y-0002900D01*
X0011150Y-0005250D02*
X0011050Y-0005150D01*
X0004950D01*
X0004200Y-0004400D01*
X0032506Y0004348D02*
Y0004250D01*
X0032456Y0004200D01*
X0032450D01*
Y0004050D01*
X0032150Y0003750D01*
Y0003200D01*
X0032350Y0003000D01*
X0034250D01*
X0034350Y0003100D01*
X0035050D01*
X0035150Y0003200D01*
X0009951Y0011648D02*
X0010101D01*
X0010498Y0011250D01*
X0010550D01*
X0010500Y0011200D01*
X0022200Y0011000D02*
Y0010800D01*
X0023023Y0009977D01*
Y0009265D01*
X0049785Y0049250D02*
Y0048800D01*
X0049385Y0048400D01*
X0047700D01*
X0047050Y0047750D01*
X0045650D01*
X0045450Y0036500D02*
X0045350D01*
X0044785Y0035935D01*
Y0035500D01*
X-0000959Y0009000D02*
Y0009491D01*
X-0000950Y0009500D01*
X-0000700Y0017750D02*
X-0000750Y0017800D01*
X-0000859D01*
X-0000959Y0017900D01*
Y0018250D01*
X0020470Y0007894D02*
X0019956D01*
X0019950Y0007900D01*
X0016000D01*
X0015950Y0007950D01*
X0015750Y0016500D02*
X0013400D01*
X0013200Y0016300D01*
X0012600D01*
X0012350Y0016550D01*
X0010250D01*
X0010200Y0016600D01*
X0009200D01*
X0008650Y0016050D01*
X0006900D01*
X0001100Y0020650D02*
X0001000Y0020750D01*
X-0000349D01*
X-0000447Y0020848D01*
X0044018Y0038098D02*
Y0038568D01*
X0044450Y0039000D01*
X0045350D01*
X0047300Y0051600D02*
X0047700Y0051200D01*
X0048900D01*
X0049018Y0051318D01*
Y0051848D01*
X0030500Y-0000280D02*
X0029170D01*
X0028900Y-0000550D01*
X0028450D01*
X0027850Y0000050D01*
X0025700D01*
X0025450Y-0000200D01*
X0022000D01*
X0012100D01*
X0012050Y-0000250D01*
X0010900Y-0001500D02*
X0010750Y-0001650D01*
X0004950D01*
X0004200Y-0000900D01*
X0005548Y0017098D02*
X0005250Y0016800D01*
X0001200Y0021300D02*
X0000800Y0021700D01*
X-0001650D01*
X-0001950Y0021400D01*
X-0002294D01*
X-0002494Y0021200D01*
Y0020848D01*
X0030500Y-0000280D02*
X0029170D01*
X0028900Y-0000550D01*
X0028450D01*
X0027850Y0000050D01*
X0025700D01*
X0025450Y-0000200D01*
X0022000D01*
X0021900Y0007000D02*
X0021150D01*
X0020862Y0006712D01*
X0020470D01*
X0011450Y0018150D02*
X0009150D01*
X0008850Y0018450D01*
X0008250D01*
X0008050Y0018250D01*
X0007450D02*
Y0018200D01*
X0007250Y0018000D01*
X0004900D01*
X0004850Y0018050D01*
X0001550Y0019650D02*
X0001400Y0019500D01*
X-0001249D01*
X-0001726Y0019024D01*
Y0018250D01*
X0013950Y0005500D02*
Y0005150D01*
X0013550Y0004750D01*
X0012700D01*
X0012500Y0004550D01*
Y0004394D01*
X0009750Y0079030D02*
Y0079150D01*
X0007700Y0081200D01*
X0003750D01*
X-0002550Y0074900D01*
Y0035100D01*
X-0002500Y0035050D01*
X-0002650Y0020350D02*
X-0002200Y0019900D01*
X0001000D01*
X0001350Y0020250D01*
X0001800D01*
X0002050Y0020500D01*
X0005150D01*
X0005650Y0020000D01*
X0007200D01*
X0007350Y0020150D01*
Y0021350D01*
X0008250Y0022250D01*
X0012800D01*
X0017400Y0017650D01*
X0020100D01*
X0022100Y0005900D02*
X0022150Y0005850D01*
X0023100D01*
X0023811Y0005139D01*
Y0004750D01*
X0049050Y0058000D02*
X0048800Y0057750D01*
Y0057500D01*
X0050550Y0014000D02*
X0050500Y0014050D01*
X0049100D01*
X0048900Y-0002750D02*
X0048700Y-0002950D01*
X0042150D01*
X0040900Y-0001850D02*
X0040550D01*
X0040400Y-0002000D01*
X0036000D01*
X0035900Y-0002100D01*
Y-0002450D01*
X0036000Y-0002550D01*
Y-0003300D01*
X0035850Y-0003450D01*
X0034950D01*
X0033950Y-0002450D01*
X0032850D01*
X0031400Y-0001450D02*
X0031300D01*
X0031200Y-0001550D01*
X0030200D01*
X0030000Y-0001350D01*
Y-0001000D01*
X0029700Y-0000700D01*
X0029250D01*
X0029000Y-0000950D01*
X0028350D01*
X0027800Y-0000400D01*
X0026300D01*
X0026250Y-0000450D01*
X0025900D01*
X0025850Y-0000400D01*
X0024300D01*
X0024200Y-0000500D01*
X0011600D01*
X0011400Y-0000700D01*
X0008050Y-0007850D02*
X0007950D01*
X0007850Y-0007750D01*
X0005800D01*
X0005400Y-0008150D01*
X0005200D01*
X0004950Y-0007900D01*
X0003800D01*
X0003250Y-0008450D01*
Y-0008470D01*
X0049950Y0057600D02*
X0050850D01*
X0049600Y0052450D02*
X0049450Y0052300D01*
X0048606D01*
X0048506Y0052200D01*
Y0051848D01*
X0024985Y0008091D02*
X0024600D01*
X0024500Y0007991D01*
X0023859D01*
Y0007709D01*
X0023750Y0007600D01*
X0022850D01*
X0023100Y0001800D02*
X0028650D01*
X0028950Y0002100D01*
X0030350D01*
X0031000Y0002750D01*
X0031800Y0003000D02*
X0032100D01*
X0033018Y0002082D01*
Y0001750D01*
X0011950Y0005100D02*
X0011900D01*
X0011500Y0005500D01*
Y0005850D01*
X0011200Y0006150D01*
X0011050D01*
X0010900Y0006800D02*
X0010700Y0007000D01*
X0009000D01*
X0008050Y0007950D01*
Y0008600D01*
X0007903Y0008746D01*
Y0009049D01*
X0051000Y0031650D02*
X0050000D01*
X0049850Y0031500D01*
X0048000D01*
X0047500Y0032000D01*
X0045900D01*
X0045850Y0031950D01*
X0045950Y0037200D02*
X0045900Y0037150D01*
X0044000D01*
X0043506Y0037644D01*
Y0038098D01*
X0049950Y0055850D02*
X0049250D01*
X0048500Y0055100D01*
X0047950Y0049050D02*
X0048200Y0048800D01*
X0048406D01*
X0048506Y0048900D01*
Y0049250D01*
X0050750Y0016280D02*
X0050268D01*
X0050148Y0016400D01*
X0050100D01*
X0049950Y0007550D02*
X0048544D01*
X0048500Y0007506D01*
X0048000D01*
X0008159Y0011648D02*
Y0012009D01*
X0010150Y0014000D01*
Y0014300D01*
X0010100Y0014350D01*
X0010150Y0015950D02*
Y0015900D01*
X0029550D01*
Y0010650D02*
X0029400Y0010500D01*
X0024151D01*
X0023614Y0009965D01*
Y0009265D01*
X0046250Y0020720D02*
X0048170D01*
X0048200Y0020750D01*
X0050450Y0008350D02*
X0048826D01*
X0048750Y0008273D01*
X0048000D01*
X0031000Y-0009750D02*
X0029500Y-0008250D01*
X0026350D01*
X0026100Y-0008000D01*
X0023100Y0004050D02*
X0023220Y0004170D01*
Y0004750D01*
X0042250Y0020280D02*
X0042220D01*
X0042000Y0020500D01*
X0037450D01*
X0037350Y0020400D01*
X0035650Y0006300D02*
X0033450D01*
X0033300Y0006150D01*
X0032950D01*
X0032550Y0006550D01*
X0030600D01*
X0030350Y0006300D01*
X0029400Y0007050D02*
X0029300Y0007150D01*
X0028100D01*
X0027450Y0006500D01*
X0025515D01*
X0025500Y0006515D01*
X0024985D01*
X0047250Y0031720D02*
X0046100D01*
X0046080Y0031700D01*
X0046050D01*
X0046100Y0034550D02*
X0046050Y0034500D01*
X0043700D01*
X0043506Y0034694D01*
Y0035500D01*
X0019550Y-0007300D02*
X0019600Y-0007250D01*
X0007800Y0018900D02*
X0007750Y0018850D01*
X0045250Y0031720D02*
X0044820D01*
X0044750Y0031650D01*
Y0036700D02*
X0044273Y0036223D01*
Y0035500D01*
X0019250Y0003970D02*
Y0003280D01*
X0008500Y0020280D02*
Y0020250D01*
X0008100D01*
X0007850Y0020000D01*
Y0019600D01*
X0008100Y0019350D01*
X0008850D01*
X0009000Y0019200D01*
Y0018900D01*
X0009400Y0018500D01*
X0009450D01*
X0019050Y0008700D02*
X0019030Y0008680D01*
Y0008250D01*
X-0000447Y0011598D02*
X-0000349Y0011500D01*
X0000350D01*
X0000800Y0011050D01*
X0001000D01*
X0001050Y0011000D01*
X0002050Y0016400D02*
X0002300Y0016150D01*
X0002850D01*
X0003050Y0016350D01*
X0010000D02*
X0012250D01*
X0012500Y0016100D01*
X0014750D01*
X0014800Y0016150D01*
X0015000Y0010250D02*
X0015050Y0010300D01*
X0016350D01*
X0016750Y0009900D01*
X0021000D01*
X0021250Y0009650D01*
Y0009265D01*
X0049950Y0054100D02*
X0049350D01*
Y0048750D02*
X0049273Y0048826D01*
Y0049250D01*
X0013500Y-0009000D02*
X0013498D01*
X0013050Y0005900D02*
X0012850Y0006100D01*
X0012550D01*
X0009950Y0007950D02*
X0008900D01*
X0008671Y0008179D01*
Y0009049D01*
X0026470Y0007000D02*
X0026379Y0006909D01*
X0024985D01*
X-0001470Y0020848D02*
Y0020370D01*
X-0001200Y0020100D01*
X0000900D01*
X0001250Y0020450D01*
X0001700D01*
X0001848Y0020598D01*
Y0020951D01*
X0023614Y0009265D02*
Y0009965D01*
X0024151Y0010500D01*
X0029400D01*
X0029550Y0010650D01*
X0030700Y0006300D02*
X0031200D01*
X0032000Y0005500D01*
X0032500D01*
X0032762Y0005240D01*
Y0004348D01*
X0046220Y0024750D02*
X0046250Y0024720D01*
Y0023245D01*
X0027030Y0007000D02*
X0027500D01*
X-0002238Y0018250D02*
Y0015938D01*
X-0002050Y0015750D01*
Y0009750D02*
X-0002238Y0009562D01*
Y0009000D01*
X0020750Y0003280D02*
X0021630D01*
X0021750Y0003160D01*
X0048616Y0035799D02*
Y0036150D01*
X0048516Y0036250D01*
X0047750D01*
X0047450Y0036550D01*
X0046000D01*
X0045800Y0036750D01*
X0045350D01*
X0044529Y0035929D01*
Y0035500D01*
X-0000703Y0018250D02*
Y0018700D01*
X-0000700Y0018703D01*
Y0018850D01*
X-0000550Y0019000D01*
X-0000200D01*
X0000300Y0018500D01*
X0001050D01*
X0002850Y0017450D02*
Y0017478D01*
X0002872Y0017500D01*
Y0018549D01*
X0004151Y0020951D02*
Y0021300D01*
X0004251Y0021400D01*
X0004800D01*
X0000850Y0020400D02*
X-0000603D01*
X-0000703Y0020500D01*
Y0020848D01*
X0009695Y0011648D02*
Y0011300D01*
X0009795Y0011200D01*
X0010100D01*
X0014200Y0011100D02*
X0014151D01*
X0013901Y0011350D01*
Y0011701D01*
X0042800Y0021500D02*
X0042050D01*
X0042250Y0000450D02*
Y0000400D01*
X0040700D01*
X0040550Y0000550D01*
X0039450D01*
X0039350Y0000450D01*
X0029800Y0001250D02*
X0029500Y0000950D01*
X0023600D01*
X0023350Y0000700D01*
X0012300D01*
X0012150Y0000850D01*
X0009000Y-0008700D02*
Y-0008750D01*
X0007350D01*
X0007070Y-0008470D01*
X0007000D01*
X0027550Y0007750D02*
X0027030D01*
X0045402Y0008529D02*
X0045879D01*
X0045900Y0008550D01*
X0046250Y0011600D02*
Y0011750D01*
X0045901Y0012098D01*
X0045549D01*
X0001750Y-0008470D02*
Y-0008450D01*
X0002050Y-0008150D01*
X0002350D01*
X0003000Y-0007500D01*
X0005450D01*
X0005500Y-0007450D01*
X0005550D01*
Y0000250D02*
X0011350D01*
X0012550Y0000050D02*
X0023250D01*
X0023300Y0000000D01*
X0025400D01*
X0025650Y0000250D01*
X0029700D01*
X0029950Y0000000D01*
X0031000D01*
X0032750Y-0004150D02*
X0036250D01*
X0037800Y-0008600D02*
X0037950Y-0008750D01*
X0040200D01*
X0040600Y-0009150D01*
X0045650D01*
X0047200Y-0007600D01*
X0047950D01*
X0048250Y-0007900D01*
X0048800D01*
X0049650Y-0007050D01*
X0050050D01*
X0049450Y0029850D02*
Y0030400D01*
X0049350Y0030500D01*
X0049300D01*
X0043750Y0021100D02*
X0045800D01*
X0045850Y0021050D01*
X0046050Y0026100D02*
X0046100Y0026050D01*
Y0025700D01*
X0046300Y0025500D01*
X0046500D01*
X0037750Y0076220D02*
Y0075800D01*
X0037100Y0075150D01*
X0034550D01*
X0033950Y0075750D01*
X0031500D01*
X0026900Y0080350D01*
X0008800D01*
X0007750Y0081400D01*
X0003700D01*
X-0002750Y0074950D01*
Y0032350D01*
X-0002850Y0032250D01*
X-0002550Y0015450D02*
X0001800D01*
X0002400Y0014850D01*
X0002600D01*
X0003150Y0015400D01*
X0003550D01*
X0003950Y0015000D01*
X0005600D01*
X0005850Y0015250D01*
X0009750D01*
X0010200Y0015700D01*
X0020600D01*
X0020900Y0015400D01*
Y0010850D02*
X0021900D01*
X0022826Y0009924D01*
Y0009265D01*
X0047800Y0017750D02*
X0047750D01*
X0047350Y0017350D01*
Y0016500D01*
X0046850Y0016000D01*
X0045600D01*
X0044800Y0015200D01*
X0044300D01*
X0043800Y-0003800D02*
X0043750Y-0003850D01*
X0040700D01*
X0040050Y-0004500D01*
X0037200D01*
X0037150Y-0004450D01*
X0036450Y-0003850D02*
X0032900D01*
X0031050Y0000550D02*
X0030100Y0001500D01*
X0029600D01*
X0029250Y0001150D01*
X0023250D01*
X0023000Y0000900D01*
X0012950D01*
X0012850Y0001000D01*
X0011200D02*
X0007100D01*
X0006750Y0001350D01*
X-0001650D01*
Y-0008470D02*
X-0001250D01*
X0008760Y-0005750D02*
X0010650D01*
X0010750Y-0005650D01*
X0014200Y-0006550D02*
X0014500Y-0006850D01*
Y-0007220D01*
X0020470Y0007697D02*
X0022453D01*
X0022500Y0007650D01*
X0031850Y0000600D02*
Y0000300D01*
X0032150Y0000000D01*
X0033600D01*
X0033900Y-0000300D01*
X0035700D01*
X0036150Y-0000750D01*
X0037500D01*
X0037650Y-0000600D01*
X0039400Y0008300D02*
X0039450Y0008250D01*
X0043650D01*
X0043750Y0008350D01*
Y0008400D01*
X0043950Y0010000D02*
X0045252D01*
X0045402Y0009850D01*
Y0009553D01*
X0050750Y0060750D02*
Y0060550D01*
X0050850Y0060450D01*
Y0057600D02*
X0049950D01*
X0048244Y0016500D02*
Y0016896D01*
X0048250Y0016902D01*
Y0017100D01*
X0046350Y0015700D02*
X0045600D01*
X0044450Y0014550D01*
X0042200D01*
X0041700Y0014050D01*
Y0013300D01*
X0041500Y0013100D01*
X0037600D01*
X0036450Y0003300D02*
X0036250Y0003100D01*
X0035900D01*
X0022050Y0008650D02*
X0021841Y0008859D01*
Y0009265D01*
X0047951Y0013378D02*
X0047600D01*
X0047500Y0013478D01*
Y0014300D01*
X0047400Y0014400D01*
X0046400Y0008250D02*
Y0008273D01*
X0045402D01*
X0049273Y0051848D02*
Y0051123D01*
X0049100Y0050950D01*
X0048250D01*
X0048100Y0060500D02*
Y0060522D01*
X0048128Y0060550D01*
Y0061299D01*
X0022432Y0009265D02*
Y0009618D01*
X0021550Y0010500D01*
X0014900D01*
X0014650Y0010250D01*
Y0009700D01*
X0010950Y0009950D02*
X0010900Y0010000D01*
X0008500D01*
X0008450Y0009950D01*
X0007800Y0008500D02*
X0006150D01*
X0005656Y0008006D01*
X0005500D01*
X0033785Y0004348D02*
Y0003935D01*
X0033700Y0003850D01*
X0037050Y0008900D02*
Y0008950D01*
X0037100Y0009000D01*
X0044100D01*
X0044150Y0008950D01*
X0044315Y0008785D01*
X0045402D01*
X0024008Y0004750D02*
Y0004350D01*
X0024108Y0004250D01*
X0024350D01*
X0024700Y0004600D01*
X0025200D01*
X0025800Y0004000D01*
X0027500D01*
X0039650Y0013350D02*
X0039530Y0013470D01*
X0038750D01*
X0022250Y0002700D02*
Y0002850D01*
X0022700Y0003300D01*
X0022750Y0003280D01*
X0049151Y0063701D02*
Y0064050D01*
X0049251Y0064150D01*
X0050200D01*
X0050300Y0051350D02*
Y0051548D01*
X0050297Y0051551D01*
Y0051848D01*
X0020000Y0003280D02*
X0019250D01*
X-0001470Y0011598D02*
Y0012233D01*
X-0001346Y0012350D01*
X-0000250D01*
X0000850Y0011250D01*
X0001248D01*
X0001348Y0011350D01*
Y0011701D01*
X-0001982Y0020848D02*
Y0020550D01*
X-0001900Y0020468D01*
Y0020450D01*
X-0001700Y0020250D01*
X-0001600Y0013050D02*
Y0012550D01*
X-0001982Y0012168D01*
Y0011598D01*
X0032700Y0076500D02*
X0031050D01*
X0027000Y0080550D01*
X0008850D01*
X0007800Y0081600D01*
X0003650D01*
X-0002950Y0075000D01*
Y0035550D01*
X-0003000Y0035500D01*
X-0002900Y0005350D02*
X-0002500Y0005750D01*
X0002600D01*
X0002650Y0005700D01*
Y-0009450D02*
X0002900Y-0009200D01*
Y-0008850D01*
X0003000Y-0008750D01*
X0003500D01*
X0003650Y-0008600D01*
Y-0008300D01*
X0003850Y-0008100D01*
X0004350D01*
X0004720Y-0008470D01*
X0004750D01*
X0047872Y0061299D02*
Y0061650D01*
X0047772Y0061750D01*
X0046350D01*
X0046100Y0049700D02*
X0046300Y0049900D01*
X0047200D01*
X0047600Y0050300D01*
X0050000D01*
X0050297Y0050003D01*
Y0049250D01*
X0045297Y0038098D02*
Y0037750D01*
X0045397Y0037650D01*
X0047250D01*
X0047350Y0037750D01*
X0050051D01*
X0050151Y0037850D01*
Y0038201D01*
X0048872Y0035799D02*
Y0035372D01*
X0048750Y0035250D01*
X0047250Y0035800D02*
X0046350D01*
X0045600Y0035050D01*
X0045500D01*
X0045300Y0035250D01*
Y0035400D01*
X0045297Y0035403D01*
Y0035500D01*
X-0000703Y0009000D02*
Y0007240D01*
X-0000088Y0006650D01*
X0001450D01*
X0001650Y0006850D01*
Y0007300D01*
X0001850Y0007500D01*
X0002550D01*
X0002750Y0007700D01*
Y0008422D01*
X0002372Y0008800D01*
Y0009299D01*
X0049500Y0019220D02*
Y0019200D01*
X0045402Y0009297D02*
X0045647D01*
X0045900Y0009550D01*
X0046250Y0014450D02*
X0046248D01*
X0046200Y0014401D01*
X0045549D01*
X0047951Y0013122D02*
X0048150D01*
X0048178Y0013150D01*
X0049000D01*
X0048850Y0009550D02*
X0048597Y0009297D01*
X0048000D01*
X-0002238Y0011598D02*
Y0014900D01*
X-0002150Y0014988D01*
Y0015000D01*
Y0020350D02*
X-0002238Y0020438D01*
Y0020848D01*
X0043250Y0035500D02*
Y0033800D01*
X0043850Y0033200D01*
X0047550D01*
X0048000Y0033650D01*
X0048050D01*
X0047400Y0049300D02*
X0048200D01*
X0048250Y0049250D01*
X0018850Y0005050D02*
X0019030Y0005230D01*
Y0005500D01*
X0047616Y0061299D02*
Y0060900D01*
X0047766Y0060750D01*
X0047850D01*
Y0060700D01*
Y0050050D02*
X0049050D01*
X0049529Y0049570D01*
Y0049250D01*
X0020470Y0007303D02*
X0022050D01*
X0022053Y0007300D01*
X0020950D01*
Y0007150D01*
X0020906Y0007106D01*
X0020470D01*
X0033273Y0004348D02*
Y0004773D01*
X0033500Y0005000D01*
X0033550D01*
X0035100Y0002600D02*
X0035200Y0002500D01*
X0037528D01*
X0037628Y0002400D01*
Y0002049D01*
X0011950Y0076500D02*
Y0075700D01*
X0011400Y0075150D01*
X0002700D01*
X-0002350Y0070100D01*
Y0035400D01*
X-0002200Y0035250D01*
X-0001650Y0002250D02*
X-0001300Y0001900D01*
X0004900D01*
X0004950Y0001950D01*
X0005150Y-0008750D02*
X0004350D01*
X0004070Y-0008470D01*
X0004000D01*
X0048500Y0009553D02*
X0048000D01*
X0036348Y0004451D02*
Y0004950D01*
X0036098Y0005200D01*
X0034100D01*
X0033529Y0004629D01*
Y0004348D01*
X0012366Y0009299D02*
Y0009634D01*
X0012250Y0009750D01*
X0011200D01*
X0010700Y0009250D01*
X0010400D01*
X0010200Y0009050D01*
Y0008450D01*
X0009950Y0008200D01*
X0009050D01*
X0008850Y0008400D01*
Y0008673D01*
X0008927Y0008750D01*
Y0009049D01*
X0017179Y-0006012D02*
X0016800D01*
Y-0005756D01*
X0017179D01*
X0002616Y0018549D02*
Y0017750D01*
X0002600Y0017734D01*
Y0017700D01*
X0001550Y0019300D02*
X-0001150D01*
X-0001470Y0018979D01*
Y0018250D01*
X0034553Y0004348D02*
Y0003900D01*
X0034503Y0003850D01*
X0034498D01*
X0034398Y0003750D01*
X0034200D01*
X0029400Y0008100D02*
X0026300D01*
X0025900Y0007700D01*
Y0007506D01*
X0025500Y0007106D01*
X0024985D01*
X0023500Y0003280D02*
Y0003300D01*
X0023250D01*
X0022826Y0003724D01*
Y0004750D01*
X0000250Y-0008470D02*
Y-0008450D01*
X0000950Y-0007750D01*
X0002250D01*
X0003000Y-0007000D01*
X0006850D01*
X0007150Y-0007300D01*
Y0001400D02*
X0011200D01*
X0012500Y0001300D02*
X0013200D01*
X0013400Y0001100D01*
X0022600D01*
X0022850Y0001350D01*
X0029050D01*
X0029400Y0001700D01*
X0030600D01*
X0030950Y0001350D01*
X0031250D01*
X0039600Y0000250D02*
X0039700Y0000350D01*
X0040500D01*
X0040650Y0000200D01*
X0042350D01*
X0042500Y0000350D01*
Y0000800D01*
X0042300Y0001000D01*
X0002250Y-0004280D02*
Y-0005600D01*
X0002500Y-0005850D01*
X-0001215Y0018250D02*
Y0017815D01*
X-0000950Y0017550D01*
Y0009850D02*
X-0001215Y0009590D01*
Y0009000D01*
X0001000Y-0008470D02*
Y-0008450D01*
X0001500Y-0007950D01*
X0002300D01*
X0003050Y-0007200D01*
X0005650D01*
X0006000Y-0007550D01*
X0007400D01*
X0007450Y-0007500D01*
Y0005750D02*
X0009050D01*
X0048000Y0008529D02*
X0048650D01*
Y0008600D01*
Y0012900D02*
X0048634D01*
X0048600Y0012866D01*
X0047951D01*
X0037628Y0004451D02*
Y0004100D01*
X0037728Y0004000D01*
X0038950D01*
X0039150Y0003800D01*
X0040200D01*
X0007750Y-0008470D02*
X0007430Y-0008150D01*
X0006800D01*
X0006650Y-0008300D01*
Y-0008600D01*
X0006500Y-0008750D01*
X0006000D01*
X0005900Y-0008650D01*
Y-0008300D01*
X0006100Y-0008100D01*
X0005750Y0002750D02*
X0005600Y0002600D01*
X-0001200D01*
X-0001250Y0002650D01*
X-0001550Y0035300D02*
Y0037150D01*
X0003100Y0041800D01*
Y0043950D01*
X0003000Y0044050D01*
X0002400D01*
X0001700Y0044750D01*
X0026470Y0007750D02*
Y0007000D01*
X-0001726Y0011598D02*
Y0011176D01*
X-0001250Y0010700D01*
X-0000150D01*
X0000050Y0010500D01*
X0000650Y0009850D02*
X0000750D01*
X0000850Y0009750D01*
X0002528D01*
X0002628Y0009650D01*
Y0009299D01*
X0025500Y0002350D02*
X0025350Y0002200D01*
X0024550D01*
X0024250Y0002500D01*
Y0002720D01*
X0020470Y0006318D02*
X0021019D01*
X0021249Y0006550D01*
X0023250D01*
X0023350Y0006450D01*
X0023800D01*
X0024400Y0007050D01*
X0026050Y-0000200D02*
X0027850D01*
X0028400Y-0000750D01*
X0028950D01*
X0029200Y-0000500D01*
X0029950D01*
X0030000Y-0000550D01*
X0030050Y-0002250D02*
X0030200Y-0002400D01*
X0032100D01*
X0032780Y-0001720D01*
X0034750D01*
X0004950Y0006000D02*
X0005550D01*
X0005300Y-0007900D02*
X0005100Y-0007700D01*
X0003250D01*
X0002500Y-0008450D01*
Y-0008470D01*
X0024985Y0006318D02*
X0023918D01*
X0023850Y0006250D01*
X0023250D01*
X0023150Y0006350D01*
X0021850D01*
X0021400Y0005900D01*
Y0005600D01*
X0020400Y0004600D01*
X0019850D01*
X0019500Y0004250D01*
X0019000D01*
X0017050Y0002300D01*
X0011900D01*
X0010650Y0010450D02*
X0010600Y0010400D01*
X0007050D01*
X0006800Y0010650D01*
X0006400D01*
X0006250Y0010500D01*
X0004900D01*
X0004650Y0010250D01*
X0003700Y0005050D02*
X-0002150D01*
X-0002500Y0004700D01*
X-0003250Y0035250D02*
Y0035600D01*
X-0003150Y0035700D01*
Y0075050D01*
X0003600Y0081800D01*
X0007850D01*
X0008900Y0080750D01*
X0027050D01*
X0029830Y0077970D01*
X0032750D01*
X0022038Y0009265D02*
Y0009762D01*
X0021550Y0010250D01*
X0016750D01*
X0011850Y0017650D02*
X0010700D01*
X0010450Y0017900D01*
X0009300D01*
X0008750Y0017350D01*
X0008350D01*
X0008250Y0017450D01*
X0007550D01*
X0007350Y0017250D01*
X0005850D01*
X0005746Y0017354D01*
X0005610D01*
X0024205Y0004750D02*
Y0005245D01*
X0023400Y0006050D01*
X0022300D01*
X0022200Y0006150D01*
X0022000D01*
X0021600Y0005750D01*
Y0005450D01*
X0021550Y0005400D01*
X0019800Y0007600D02*
X0019794D01*
X0019700Y0007506D01*
X0015500D01*
X0021250Y0004750D02*
X0020950D01*
X0020600Y0004400D01*
X0020150D01*
X0019800Y0004050D01*
X0019650D01*
X0018450D02*
X0016900Y0002500D01*
X0012200D01*
X0011850Y0002850D01*
X0004350Y0003100D02*
X0004250Y0003000D01*
X-0000550D01*
X-0000800Y0003250D01*
X-0001500D01*
X-0001900Y0035350D02*
Y0037050D01*
X0000750Y0039700D01*
Y0042970D01*
X0034297Y0001750D02*
Y0002197D01*
X0034300Y0002200D01*
Y0002350D01*
X0034450Y0002500D01*
X0034850D01*
X0035000Y0002350D01*
X0035100D01*
X0035400Y0002050D01*
Y0001650D01*
X0037400Y0001250D02*
Y0001822D01*
X0037372Y0001850D01*
Y0002049D01*
X-0000703Y0011598D02*
Y0011303D01*
X-0000550Y0011150D01*
X-0000350D01*
X-0000250Y0011250D01*
X0000300D01*
X0000750Y0010800D01*
X0004200Y0012100D02*
X0004150Y0012150D01*
X0003751D01*
X0003651Y0012050D01*
Y0011701D01*
X0005300Y0016150D02*
X0005250Y0016200D01*
Y0016800D01*
X0005548Y0017098D01*
X0008500Y-0008470D02*
X0008550D01*
X0008570Y-0008450D01*
X0009250D01*
X0011950Y0000300D02*
X0023300D01*
X0023400Y0000200D01*
X0024850D01*
X0025100Y0000450D01*
X0029850D01*
X0038750Y0016050D02*
Y0016150D01*
X0039100Y0016500D01*
X0039200D01*
X0046848Y0063701D02*
Y0063350D01*
X0046948Y0063250D01*
X0049950D01*
X0049750Y0051350D02*
X0049700D01*
X0049529Y0051520D01*
Y0051848D01*
X0008671Y0011648D02*
Y0012200D01*
X0009471Y0013000D01*
X0010550D01*
X0012800Y0008750D02*
X0012878Y0008828D01*
Y0009299D01*
X0049128Y0035799D02*
Y0035000D01*
X0049028Y0034900D01*
X0048650D01*
X0047400Y0037450D02*
X0045750D01*
X0045650Y0037350D01*
X0044650D01*
X0044273Y0037726D01*
Y0038098D01*
X0003300Y-0002250D02*
X0002470D01*
X0002250Y-0002470D01*
X0022038Y0004750D02*
Y0003448D01*
X0021750Y0003160D01*
X0011240Y-0005740D02*
Y-0005750D01*
X0011950Y0005100D02*
X0012350Y0005500D01*
X0013450D01*
X0013500Y0005550D01*
Y0005900D01*
X0013600Y0006000D01*
X0014300D01*
X0014550Y0005750D01*
Y0004500D01*
X0014830Y0004220D01*
X0015000D01*
X0020470Y0006515D02*
X0020919D01*
X0021149Y0006750D01*
X0023650D01*
X0023700Y0006700D01*
X0023750Y0000700D02*
X0029950D01*
X0030200Y0000950D01*
X0030250D01*
X0035350Y-0005200D02*
X0035600Y-0004950D01*
X0036200D01*
X0036950Y-0004200D01*
Y-0003550D01*
X0037250Y-0003250D01*
Y-0003000D01*
X-0001250Y-0006650D02*
Y-0006900D01*
X-0001150Y-0007000D01*
X-0000200D01*
X-0000125Y-0006925D01*
Y-0004625D01*
X0001090Y-0003410D01*
X0001000D01*
X0047848Y0038201D02*
Y0038551D01*
X0047650Y0038750D01*
X0044750D01*
X0044529Y0038529D01*
Y0038098D01*
X0034297Y0004348D02*
Y0004700D01*
X0034547Y0004950D01*
X0035700D01*
X0039200D02*
X0038811D01*
X0038651Y0004790D01*
Y0004501D01*
X0038650Y0004500D01*
Y0004452D01*
X0038651Y0004451D01*
X0002250Y-0001220D02*
Y-0000700D01*
X0002450Y-0000500D01*
X0003300D01*
X0050151Y0035799D02*
Y0035435D01*
X0050750Y0034836D01*
Y0033250D01*
X0050291Y0032791D01*
Y0032762D01*
X0003128Y0018549D02*
Y0018900D01*
X0003028Y0019000D01*
X0000300D01*
X0000250Y0019050D01*
Y0021450D02*
X0000200Y0021500D01*
X-0001426D01*
X-0001726Y0021200D01*
Y0020848D01*
X0012622Y0009299D02*
Y0008922D01*
X0012400Y0008700D01*
X0009600Y0008550D02*
X0009695Y0008645D01*
Y0009049D01*
X0005500Y-0008470D02*
Y-0008500D01*
X0005900Y-0008900D01*
Y-0009450D01*
X0045000Y0053000D02*
X0045550D01*
X0041250Y0016970D02*
Y0016280D01*
X0045250Y0031720D02*
Y0030950D01*
X0045300Y0030900D01*
X0006250Y-0008470D02*
X0006770Y-0007950D01*
X0007700D01*
X0007850Y-0008100D01*
X0008700D01*
X0008850Y-0007950D01*
Y-0007650D01*
X0009000Y-0007500D01*
X0012500D01*
X0012600Y-0007600D01*
Y-0008150D01*
X0013100Y-0008650D01*
X0015850D01*
X0016450Y-0008050D01*
Y-0007000D01*
X0016400Y-0006950D01*
Y-0006750D01*
X0016550Y-0006600D01*
X0017450D01*
X0017550Y-0006500D01*
Y-0006200D01*
X0017750Y-0006000D01*
X0018250D01*
X0018350Y-0006100D01*
Y-0006500D01*
X0018750Y-0006900D01*
X0021950D01*
X0022650Y-0006200D01*
X0023650D01*
X0023800Y-0006050D01*
X0024400D01*
X0024800Y-0006450D01*
X0025850D01*
X0026050Y-0006650D01*
X0028050D01*
X0028400Y-0007000D01*
X0029500D01*
X0043600Y0031850D02*
Y0032250D01*
X0043100Y0032750D01*
X0040850D01*
X0040700Y0032900D01*
Y0034250D01*
X0006200Y0015750D02*
X0009750D01*
X0010350Y0001650D02*
X-0001900D01*
Y-0008150D02*
X-0000800D01*
X-0000500Y-0008450D01*
Y-0008470D01*
X0033529Y0001750D02*
Y0001400D01*
X0033629Y0001300D01*
X0034850D01*
X0034950Y0001400D01*
X0037150Y0001450D02*
Y0001466D01*
X0037116Y0001500D01*
Y0002049D01*
X0023200Y-0002850D02*
Y-0002550D01*
X0023000Y-0002350D01*
X0018800D01*
X0018850Y0002650D02*
X0018920Y0002720D01*
X0019250D01*
X0002250Y-0001780D02*
X0002120D01*
X0001600Y-0002300D01*
Y-0004650D01*
X0001000Y-0005250D01*
Y-0005850D01*
X-0000959Y0011598D02*
Y0011950D01*
X-0000859Y0012050D01*
X-0000400D01*
X-0000100Y0011750D01*
X-0000150Y0021150D02*
X-0000300Y0021300D01*
X-0000842D01*
X-0000959Y0021183D01*
Y0020848D01*
X0003300Y-0004000D02*
X0002950D01*
X0002670Y-0003720D01*
X0002250D01*
X0001750Y-0005850D02*
X0001900Y-0005700D01*
Y-0003350D01*
X0002220Y-0003030D01*
X0002250D01*
X0024250Y0003280D02*
Y0003300D01*
X0023417Y0004133D01*
Y0004750D01*
X0047050Y0020150D02*
Y0020700D01*
X0046230D01*
X0046250Y0020720D01*
X0009500Y0003650D02*
X0009350D01*
X0050750Y0061006D02*
X0050906D01*
X0051000Y0061100D01*
Y0061850D01*
X0050750Y0062100D01*
X0049150D01*
X0048850Y0010250D02*
X0043850D01*
X0043350Y0009750D01*
X0041748D01*
X0041648Y0009650D01*
X0041450D01*
Y0008000D02*
X0041400Y0008050D01*
X0039250D01*
X0039000Y0008300D01*
X0037350D01*
X0037150Y0006100D02*
X0036900Y0006350D01*
X0036100D01*
X0035800Y0006050D01*
X0033950D01*
X0033050Y0005150D01*
X0022350Y0008350D02*
Y0008685D01*
X0022235Y0008800D01*
Y0009265D01*
X-0001470Y0009000D02*
Y0009680D01*
X-0001050Y0010100D01*
X-0000650D01*
X-0000050Y0009500D01*
X0000152D01*
X0000200Y0009448D01*
Y0009500D01*
X0002150Y0008700D02*
Y0009066D01*
X0002116Y0009100D01*
Y0009299D01*
G54D80*
G01X0023250Y0010970D02*
X0023417D01*
X0024750D02*
X0024120D01*
X0024000Y0010850D01*
X0023417Y0010970D02*
X0023880D01*
X0024000Y0010850D01*
X0039500Y-0008470D02*
X0040970D01*
X0041250Y-0008543D02*
X0041180Y-0008470D01*
X0040970D01*
X0039500D01*
X0003140Y0011701D02*
Y0012340D01*
X0003350Y0012550D01*
X0013450D02*
X0013390Y0012490D01*
Y0011701D01*
X0001750Y0012550D02*
X0001860Y0012440D01*
Y0011701D01*
X0001250Y0007470D02*
Y0006900D01*
Y-0001500D02*
Y-0002090D01*
X0001000D01*
X0012000Y0012550D02*
X0012110Y0012440D01*
Y0011701D01*
X0012000Y0012550D02*
X0012110Y0012440D01*
Y0011701D01*
X0003750Y0021900D02*
X0003640Y0021790D01*
Y0020951D01*
X0048360Y0038201D02*
Y0039140D01*
X0048300Y0039200D01*
X0048650Y0063711D02*
Y0064300D01*
X0048700Y0064350D01*
X0047350Y0064300D02*
Y0063711D01*
X0049640Y0038201D02*
X0049650Y0038211D01*
Y0038750D01*
X0050100Y0039200D01*
X0050200D01*
X0048300D02*
X0048360Y0039140D01*
Y0038201D01*
X0002360Y0020951D02*
Y0021440D01*
X0001900Y0021900D01*
X0001650D01*
X0003750D02*
X0003640Y0021790D01*
Y0020951D01*
X0045549Y0013890D02*
X0044960D01*
X0044800Y0014050D01*
X0045549Y0012610D02*
X0044910D01*
X0044800Y0012500D01*
Y0012450D01*
Y0014050D02*
X0044960Y0013890D01*
X0045549D01*
X0036860Y0004451D02*
Y0005560D01*
X0036950Y0005650D01*
X0001250Y0007470D02*
Y0006900D01*
X0038140Y0004451D02*
Y0004940D01*
X0038850Y0005650D01*
X0039200D01*
X0036860Y0004451D02*
Y0005560D01*
X0036950Y0005650D01*
X0035870Y0000220D02*
X0036150Y0000500D01*
X0036950Y0005650D02*
X0036860Y0005560D01*
Y0004451D01*
X0044800Y0014050D02*
X0044960Y0013890D01*
X0045549D01*
X0046500Y0059030D02*
X0046220D01*
X0045850Y0059400D01*
Y0064350D01*
X0047350Y0064300D02*
Y0063711D01*
X0046500Y0059030D02*
X0046220D01*
X0045850Y0059400D01*
Y0064350D01*
X0001650Y0021900D02*
X0001900D01*
X0002360Y0021440D01*
Y0020951D01*
X0045549Y0012610D02*
X0044910D01*
X0044800Y0012500D01*
Y0012450D01*
X0050000Y0011500D02*
Y0011030D01*
X0039500Y-0008470D02*
X0040970D01*
X0011000Y0003720D02*
X0010630D01*
X0010350Y0004000D01*
X0010250D01*
X0009250Y0019200D02*
Y0019720D01*
X0042450Y0035300D02*
X0042300Y0035150D01*
X0036500D01*
X0034750Y0076745D02*
X0034745Y0076750D01*
X0034250D01*
X0033850Y0075400D02*
X0030950D01*
X0029300Y0077050D01*
X0011600D01*
X0011500Y0076950D01*
Y0076650D01*
X0011350Y0076500D01*
X0010700D01*
X0010250Y0076050D01*
X0008750D01*
X0008520Y0076280D01*
X0008500D01*
X0036500Y0033495D02*
X0036545D01*
X0037200Y0034150D01*
X0038850D01*
X0039250Y0033750D01*
Y0032950D01*
X0040400Y0031800D01*
X0043200D01*
X0043300Y0031900D01*
Y0032100D01*
X0043350Y0032150D01*
X0044500Y0032100D02*
X0044400Y0032000D01*
Y0028790D01*
X0044720Y0028470D01*
X0046250D01*
X0040250Y0015970D02*
X0039850D01*
X0039500Y0015750D02*
Y0015280D01*
X0040250Y0015970D02*
X0039850D01*
X0039930Y0015600D02*
X0040250Y0015280D01*
X0025285Y-0002750D02*
X0024550D01*
X0023000Y-0004800D02*
Y-0005535D01*
X0015500Y0007762D02*
Y0008150D01*
X0016600Y0009500D02*
X0016584Y0009516D01*
X0016000D01*
X0022820Y0011530D02*
X0023250D01*
X0024750Y0012780D02*
Y0013250D01*
X0004250Y0016350D02*
X0004700D01*
X0005300Y0015750D02*
Y0015350D01*
X0024250Y-0006970D02*
Y-0006500D01*
X0027550Y-0006400D02*
Y-0005900D01*
X0027214Y-0009000D02*
X0027950D01*
X0023000Y-0005535D02*
Y-0004800D01*
X0024250Y-0006500D02*
Y-0006970D01*
X0027214Y-0007250D02*
X0027950D01*
X0027550Y-0006400D02*
Y-0005900D01*
X0027214Y-0007250D02*
X0027950D01*
Y-0009000D02*
X0027214D01*
X0027950D01*
X0038750Y0000350D02*
Y0000750D01*
X0040250Y0001800D02*
Y0001512D01*
X0040750Y0002516D02*
X0041334D01*
X0041350Y0002500D01*
X0041400Y0001280D02*
X0041000D01*
X0041400D01*
X0040250Y0001800D02*
Y0001512D01*
X0045500Y0051030D02*
Y0051500D01*
X0044500Y0050000D02*
Y0049505D01*
X0046250Y0051030D02*
Y0051500D01*
X0045500D02*
Y0051030D01*
X0046500Y0056600D02*
Y0056100D01*
X0047500Y0057850D02*
Y0058340D01*
X0049950Y0058400D02*
Y0058900D01*
Y0057150D02*
Y0056650D01*
X0047500Y0058340D02*
Y0057850D01*
X0048750Y0059000D02*
Y0059470D01*
X0049950Y0058400D02*
Y0058900D01*
X0048750Y0059000D02*
Y0059470D01*
X0041338Y0078323D02*
X0040873D01*
X0040850Y0078300D01*
X0040800Y0075800D02*
X0041250D01*
X0041300Y0075850D01*
X0039300D02*
X0039350Y0075800D01*
X0039750D01*
X0038500Y0075750D02*
Y0076220D01*
Y0075750D01*
X0036750Y0076250D02*
Y0075755D01*
Y0076250D01*
X0037000Y0077350D02*
Y0077720D01*
X0036750Y0075755D02*
Y0076250D01*
X0036150Y0075720D02*
X0035750D01*
X0036150D01*
X0033750Y0076000D02*
Y0076470D01*
Y0076000D01*
X0034420Y0078120D02*
X0035000D01*
X0034420D01*
X0033750Y0080250D02*
Y0079780D01*
X0032750D02*
Y0080250D01*
X0033750D02*
Y0079780D01*
X0045750Y0056470D02*
Y0056150D01*
X0045800Y0056100D01*
X0046500D02*
Y0056600D01*
X0044500Y0053530D02*
X0044900D01*
X0046450Y0053900D02*
Y0053400D01*
X0007750Y0004530D02*
X0008150D01*
X0006050Y0006000D02*
Y0005600D01*
X0046250Y0063701D02*
X0046593D01*
X0046250D01*
X0045600Y0065000D02*
X0046090D01*
X0036750Y-0000410D02*
X0037390D01*
X0037400Y-0000400D01*
X0036570Y-0001400D02*
X0036250Y-0001720D01*
X0038000Y0000470D02*
X0037600D01*
X0037400Y-0000400D02*
X0037390Y-0000410D01*
X0036750D01*
X0038750Y0000350D02*
Y0000750D01*
X0039250Y-0001100D02*
Y-0001600D01*
X0038750Y0000350D02*
Y0000750D01*
X0038000Y0000470D02*
X0037600D01*
X0038750Y0000750D02*
Y0000350D01*
X0025285Y-0002750D02*
X0024550D01*
Y-0001000D02*
X0025285D01*
X0018000Y-0007220D02*
Y-0006750D01*
X0045549Y0011500D02*
Y0011843D01*
X0049407Y0063701D02*
X0049750D01*
X0050400Y0065000D02*
X0049910D01*
X0049750Y0063701D02*
X0049407D01*
X0049950Y0058400D02*
Y0058900D01*
X0049750Y0059750D02*
Y0059350D01*
X0050750Y0061650D02*
Y0061262D01*
X0001250Y0020951D02*
X0001593D01*
X0015250Y-0007768D02*
X0015650D01*
X0017000Y-0008500D02*
X0017002Y-0008502D01*
Y-0009000D01*
X0016700Y-0006250D02*
X0016718Y-0006268D01*
X0017179D01*
X0015250D02*
X0015650D01*
X0013050Y-0006650D02*
X0013000Y-0006600D01*
Y-0006280D01*
X0010000Y-0007780D02*
Y-0008250D01*
X0010500Y-0008650D02*
Y-0009380D01*
X0046500Y0025880D02*
X0046950D01*
X0044500Y0024750D02*
X0044970D01*
X0043700Y0021900D02*
Y0022400D01*
X0043000Y0020750D02*
Y0020280D01*
X0045250Y0022255D02*
Y0022750D01*
X0043700Y0022400D02*
Y0021900D01*
X0045250Y0022255D02*
Y0022750D01*
X0044500Y0024750D02*
X0044970D01*
X0038907Y0004451D02*
X0039057Y0004300D01*
X0039300D01*
X0039000Y0007900D02*
Y0007410D01*
X0035750Y0004451D02*
X0036093D01*
X0004050Y0005600D02*
X0003600D01*
X0004000Y0006850D02*
Y0007350D01*
X0017002Y-0011000D02*
X0017500D01*
X0016552Y-0010450D02*
X0017002Y-0010000D01*
X0016552Y-0010450D02*
X0017002Y-0010000D01*
X0016552Y-0010450D01*
X0017600Y-0009530D02*
X0018000D01*
X0017600D01*
X0018750Y-0010000D02*
Y-0009530D01*
X0021600Y-0010450D02*
X0021750Y-0010300D01*
Y-0009530D01*
X0015250Y-0006268D02*
X0015650D01*
Y-0007768D02*
X0015250D01*
X0018000Y-0009530D02*
X0017600D01*
X0017000Y-0008500D02*
X0017002Y-0008502D01*
Y-0009000D01*
X0004000Y0007350D02*
Y0006850D01*
X0003250Y0007000D02*
Y0007470D01*
Y0007000D01*
X0002250Y0007250D02*
Y0006840D01*
X0006050Y0005600D02*
Y0006000D01*
X0006250Y0008250D02*
Y0007780D01*
X0005500Y0008262D02*
Y0008650D01*
X0006350Y0009500D02*
X0006334Y0009516D01*
X0005750D01*
X0009450Y0004400D02*
Y0004900D01*
X0008150Y0004530D02*
X0007750D01*
X0004000Y0004650D02*
Y0005150D01*
X0006050Y0006000D02*
Y0005600D01*
X-0000447Y0009500D02*
Y0009000D01*
X0008550Y0018100D02*
Y0017600D01*
X0014000Y0007350D02*
Y0007750D01*
X0014500Y0011701D02*
X0014157D01*
X0014500D01*
X0014250Y0014000D02*
Y0014660D01*
X0010500Y-0009380D02*
Y-0008650D01*
X0012850Y-0009200D02*
X0012837Y-0009187D01*
X0012250D01*
X0013000Y-0007780D02*
Y-0008150D01*
X0012850Y-0009200D02*
X0012837Y-0009187D01*
X0012250D01*
X0017179Y-0006268D02*
X0016718D01*
X0016700Y-0006250D01*
X0015650Y-0006268D02*
X0015250D01*
X0013000Y-0007780D02*
Y-0008150D01*
X0013050Y-0006650D02*
X0013000Y-0006600D01*
Y-0006280D01*
X0044400Y0076345D02*
X0044750D01*
X0046350Y0075250D02*
X0045500D01*
X0046350D02*
X0045500D01*
X0015500Y0007762D02*
Y0008150D01*
X0014000Y0007750D02*
Y0007350D01*
X0011950Y0005900D02*
Y0005500D01*
X0011600Y0006600D02*
X0011840Y0006840D01*
X0012250D01*
X0014000Y0007350D02*
Y0007750D01*
X0013250Y0007100D02*
Y0007470D01*
X0049950Y0054900D02*
Y0055400D01*
Y0057150D02*
Y0056650D01*
X0050500Y0059470D02*
Y0059000D01*
X0049950Y0058900D02*
Y0058400D01*
X0001593Y0020951D02*
X0001250D01*
X0039300Y0075850D02*
X0039350Y0075800D01*
X0039750D01*
X0040800D02*
X0041250D01*
X0041300Y0075850D01*
X0023000Y-0005535D02*
Y-0004800D01*
X0021550Y-0004100D02*
Y-0004600D01*
X0020000Y0002720D02*
Y0002250D01*
X0020750D02*
Y0002720D01*
Y0002250D01*
X0021750Y0001350D02*
Y0001840D01*
X-0000250Y0040500D02*
Y0040005D01*
X0005315Y0080724D02*
X0004874D01*
X0004850Y0080700D01*
X0005315Y0078323D02*
X0004873D01*
X0004850Y0078300D01*
X0006750Y0076250D02*
Y0075755D01*
X0005315Y0080724D02*
X0004874D01*
X0004850Y0080700D01*
Y0078300D02*
X0004873Y0078323D01*
X0005315D01*
X0006750Y0075755D02*
Y0076250D01*
X0007350Y0075720D02*
X0007750D01*
X0007350D01*
X0008900D02*
X0008500D01*
X0048700Y0018150D02*
Y0018650D01*
X0049250Y0017000D02*
Y0016530D01*
X0048700Y0018150D02*
Y0018650D01*
X0050700D02*
Y0018150D01*
X0004055Y0050209D02*
Y0049755D01*
X0004050Y0049750D01*
X0001650D02*
X0001653Y0049753D01*
Y0050209D01*
Y0049753D01*
X0001650Y0049750D01*
X0002200Y0046380D02*
X0001750D01*
X0047050Y0019350D02*
Y0018850D01*
X0048700Y0018650D02*
Y0018150D01*
X0039300Y0004300D02*
X0039057D01*
X0038907Y0004451D01*
X0037750Y0007410D02*
Y0007900D01*
X0039000D02*
Y0007410D01*
X0016000Y0009516D02*
X0016584D01*
X0016600Y0009500D01*
X0018000Y0008250D02*
X0018470D01*
X0045500Y0073150D02*
Y0072780D01*
X0046090Y0065000D02*
X0045600D01*
X0045500Y0068750D02*
Y0068004D01*
X0018470Y0008250D02*
X0018000D01*
X0006250Y0007780D02*
Y0008250D01*
X0005500Y0008650D02*
Y0008262D01*
X0006500Y0019016D02*
X0007084D01*
X0007100Y0019000D01*
X0008550Y0017600D02*
Y0018100D01*
X-0000250Y0046220D02*
Y0045750D01*
X0000800Y0044750D02*
Y0044350D01*
X0007100Y0019000D02*
X0007084Y0019016D01*
X0006500D01*
X0021750Y0001840D02*
Y0001350D01*
X0022750Y0002250D02*
Y0002720D01*
Y0002250D01*
X0041338Y0080724D02*
X0040874D01*
X0040850Y0080700D01*
Y0078300D02*
X0040873Y0078323D01*
X0041338D01*
X0044750Y0076345D02*
X0044400D01*
X0043500Y0077650D02*
Y0077160D01*
X0048500Y0041160D02*
Y0041650D01*
X0050000D02*
Y0041160D01*
X0048250Y0053280D02*
Y0053750D01*
X0050553Y0049750D02*
Y0049250D01*
X0000800Y0044350D02*
Y0044750D01*
X0002750Y0044350D02*
Y0044720D01*
X0004250Y0016350D02*
X0004700D01*
X0005250Y0017610D02*
X0005610D01*
X0045200Y0003150D02*
Y0003650D01*
Y0001900D02*
Y0001400D01*
X0004250Y0016350D02*
X0004700D01*
X0003500Y0016000D02*
Y0016470D01*
X0001750Y0046380D02*
X0002200D01*
X0002750Y0045750D02*
Y0046220D01*
X0046500Y0025880D02*
X0046950D01*
X0048311Y0026450D02*
Y0026000D01*
X0003500Y0016470D02*
Y0016000D01*
Y0014900D02*
Y0014410D01*
X0001750D02*
Y0014900D01*
X0002500Y0015100D02*
Y0015590D01*
X0036250Y-0001720D02*
X0036570Y-0001400D01*
X0037400Y-0001720D02*
X0037000D01*
X0038250Y-0004220D02*
X0038650D01*
Y-0003550D02*
Y-0003530D01*
X0038250D01*
X0041000Y0001280D02*
X0041400D01*
X0043200Y0001000D02*
Y0001400D01*
Y0001000D01*
X0008500Y0075720D02*
X0008900D01*
X0009600Y0076970D02*
X0010000D01*
X0009000Y0077380D02*
X0009450D01*
X0009600Y0076970D02*
X0010000D01*
X0050750Y0038201D02*
X0050407D01*
X0047250D02*
X0047593D01*
X0047250D01*
X0045553Y0036000D02*
Y0035500D01*
X0011001Y0011701D02*
X0011343D01*
X0011750Y0014660D02*
X0011140D01*
X0008600Y0013350D02*
Y0013050D01*
X0008050Y0012500D01*
X0008030D01*
X0046780Y0024750D02*
X0047250D01*
X0050000Y0023400D02*
Y0022900D01*
X0046500Y0025880D02*
X0046950D01*
X0045970Y0027400D02*
Y0027000D01*
X0046500Y0025880D02*
X0046950D01*
X0047250Y0024750D02*
X0046780D01*
X0050750Y0023030D02*
Y0023500D01*
X0050000Y0023400D02*
Y0022900D01*
X0041250Y0015720D02*
Y0015250D01*
X0042500Y0015400D02*
Y0014910D01*
X0045549Y0015000D02*
Y0014657D01*
X0002750Y0046220D02*
Y0045750D01*
Y0044350D02*
Y0044720D01*
X0038500Y0033495D02*
Y0033000D01*
X0039800Y0033350D02*
Y0033850D01*
Y0033350D01*
X0041500Y0032100D02*
Y0032470D01*
X0002750Y0044720D02*
Y0044350D01*
Y0042500D02*
Y0042970D01*
X0045000Y-0008700D02*
Y-0007964D01*
X0038250Y-0005470D02*
X0038650D01*
X0039285Y-0005600D02*
Y-0006250D01*
X0039450Y-0010500D02*
Y-0010000D01*
X0039500Y-0009500D02*
Y-0009030D01*
X0010000Y0076970D02*
X0009600D01*
X0011050Y0075600D02*
Y0076100D01*
Y0075600D01*
X0011750Y0077500D02*
Y0077970D01*
X0033750Y0076470D02*
Y0076000D01*
X0032250Y0076100D02*
X0031800D01*
X0011750Y0077970D02*
Y0077500D01*
X0012500D02*
Y0077970D01*
X0004350Y0011701D02*
X0003907D01*
X0002500Y0015590D02*
Y0015100D01*
X0003500Y0014900D02*
Y0014410D01*
X0049500Y0032780D02*
Y0033150D01*
Y0033500D02*
Y0033970D01*
X0038500Y0033495D02*
Y0033000D01*
X0037500Y0033500D02*
Y0033030D01*
X0041250Y0013755D02*
Y0014250D01*
Y0015250D02*
Y0015720D01*
X0043750Y0014910D02*
Y0015400D01*
X0042500D02*
Y0014910D01*
X0043750D02*
Y0015400D01*
X0002750Y0042970D02*
Y0042500D01*
X0001750D02*
Y0042970D01*
X0034500Y0032620D02*
X0034950D01*
X0033900Y0032780D02*
X0033500D01*
X0047300Y0030100D02*
Y0029600D01*
X0045300D02*
Y0030100D01*
X0041500Y0032470D02*
Y0032100D01*
X0042250D02*
Y0032470D01*
X0049250Y0016530D02*
Y0017000D01*
X0047988Y0016150D02*
Y0016500D01*
X0043000Y0020280D02*
Y0020750D01*
X0044500D02*
Y0020280D01*
X0046484Y0017000D02*
Y0017550D01*
X0046500Y0017566D01*
X0047050Y0018850D02*
Y0019350D01*
X0001750Y0042970D02*
Y0042500D01*
X-0000250Y0040500D02*
Y0040005D01*
X0001593Y0020951D02*
X0001250D01*
X-0002250Y0022750D02*
Y0022280D01*
X0034500Y0032620D02*
X0034950D01*
X0035500Y0034650D02*
Y0034280D01*
X0029114Y0041500D02*
Y0041900D01*
X0031516D02*
Y0041500D01*
X0000750Y0011701D02*
X0001093D01*
X0004200Y-0001850D02*
Y-0001350D01*
Y0000400D02*
Y-0000100D01*
X0004050Y0005600D02*
X0003600D01*
X0004000Y0005150D02*
Y0004650D01*
X0036093Y0004451D02*
X0035750D01*
X0032250Y0006250D02*
Y0005780D01*
X0044500Y0003970D02*
X0045150D01*
X0045250Y0005500D02*
Y0005970D01*
X0020250Y-0009530D02*
X0019500D01*
X0018750D01*
X0018000Y-0006280D02*
Y-0006750D01*
Y-0007220D01*
X0006250Y0017530D02*
X0006180Y0017600D01*
X0005620D01*
X0005610Y0017610D01*
X0023250Y0011530D02*
Y0011550D01*
X0023550D01*
X0023650Y0011650D01*
X0024000D01*
X-0000250Y0042255D02*
X0000345D01*
X0000350Y0042250D01*
X0008100Y0019700D02*
X0008480D01*
X0008500Y0019720D01*
X0039500Y0015280D02*
Y0015750D01*
X0038300Y0015600D02*
Y0016100D01*
X0009950Y0006150D02*
Y0006650D01*
X0009450Y0004900D02*
Y0004400D01*
X0050000Y0029150D02*
Y0029650D01*
X0049250Y0029500D02*
Y0029030D01*
Y0029500D01*
X0047300Y0029600D02*
Y0030100D01*
X0050200Y0030900D02*
Y0031400D01*
X0050000Y0029650D02*
Y0029150D01*
X0043120Y0053500D02*
Y0053950D01*
X0043650Y0054470D02*
X0043250D01*
X0044500Y0053530D02*
X0044900D01*
X0043650Y0054470D02*
X0043250D01*
X0049500Y0032780D02*
Y0033150D01*
X0050200Y0031400D02*
Y0030900D01*
X0008000Y0006030D02*
X0008380D01*
X0008430Y0006080D01*
X0008750Y0003150D02*
X0008850Y0003050D01*
X0009050D01*
X0009125Y0003150D01*
X0011490D01*
X0015300D01*
X0015500Y0003350D01*
Y0004500D01*
X0015220Y0004780D01*
X0015000D01*
X0015220D01*
X0015500Y0004500D01*
Y0003350D01*
X0015300Y0003150D01*
X0011490D01*
Y0000760D01*
X0011640Y0000610D01*
Y-0000050D01*
X0011090Y-0000600D01*
Y-0001090D01*
X0011200Y-0001200D01*
Y-0001800D01*
X0010950Y-0002050D01*
Y-0002900D01*
X0011440Y-0003390D01*
Y-0005560D01*
X0011250Y-0005750D01*
X0011240D01*
X0048500Y0015791D02*
Y0016150D01*
X0048450Y0021150D02*
X0047450D01*
X0047320Y0021280D01*
X0046250D01*
X0044500Y0052280D02*
X0044900D01*
Y0053530D02*
X0044500D01*
X0007000Y0007780D02*
Y0008150D01*
X0006600Y0012000D02*
X0007100Y0012500D01*
X0007450D01*
X0007470D01*
X0011000Y0003720D02*
X0010630D01*
X0010350Y0004000D01*
X0010250D01*
X0009900Y0002350D02*
X0002400D01*
X0005100Y0004000D02*
Y0003970D01*
X0005500D01*
X0027214Y-0002750D02*
X0027364D01*
X0028150D01*
X0028450Y-0002450D01*
X0029250D02*
X0029400Y-0002600D01*
X0032450D01*
X0032600Y-0002750D01*
X0033000D01*
X0033900Y-0003650D01*
X0036100D01*
X0036250Y-0003500D01*
Y-0003000D01*
X0001750Y-0006650D02*
X0002450D01*
Y-0007000D01*
X0002400Y-0007050D01*
Y-0007100D01*
X0005100Y0004000D02*
Y0003970D01*
X0005500D01*
X0031750Y-0001148D02*
Y-0001750D01*
Y-0002000D01*
X0031900Y-0002150D01*
X0048500Y0015791D02*
Y0016150D01*
X0048050Y0006500D02*
Y0006530D01*
X0046250D01*
Y0003280D01*
X0012500Y0018780D02*
X0012570D01*
X0012850Y0018500D01*
Y0017850D01*
X0012350Y0017350D01*
X0010700D01*
X0010350Y0017700D01*
X0009450D01*
X0008900Y0017150D01*
X0008250D01*
X0008150Y0017250D01*
X0007650D01*
X0007370Y0016970D01*
X0007000D01*
X0004901Y0017098D02*
Y0016701D01*
X0006850Y0016550D02*
X0007000Y0016700D01*
Y0016970D01*
X0040750Y0019250D02*
X0040450D01*
X0040250Y0019050D01*
Y0018495D01*
X0044500Y0052280D02*
X0044900D01*
X0045500Y0051500D02*
Y0051030D01*
X0004407Y0020951D02*
X0004750D01*
X0049400Y0021500D02*
X0048350D01*
X0048300Y0021450D01*
X0047950D01*
X0047250Y0022150D01*
Y0022255D01*
X0005610Y0017610D02*
X0005250D01*
X0043750Y0014910D02*
Y0015400D01*
X0045549Y0015000D02*
Y0014657D01*
X0043250Y0038970D02*
X0043130D01*
X0042300Y0039800D01*
Y0051300D01*
X0047650Y0052100D02*
X0048250D01*
Y0051848D01*
X0001500Y0047755D02*
X0001445Y0047700D01*
X0000950D01*
X0002950Y0075760D02*
X0002940Y0075750D01*
X0002950D01*
X0002955Y0075755D01*
X0004250D01*
X0008500Y-0011400D02*
X0008550D01*
X0008650Y-0011500D01*
X0008940D01*
X0008950Y-0011510D01*
X0014500Y-0007780D02*
Y-0008050D01*
Y-0008150D01*
X0013750Y-0007780D02*
Y-0008150D01*
X0014500D02*
Y-0008050D01*
Y-0007780D01*
X0027214Y-0002750D02*
X0026600D01*
X0025650Y-0003700D01*
X0025450D01*
X0025300Y-0003550D01*
X0024550D01*
X0023050Y-0002050D01*
X0018350D01*
X0018000Y-0002400D01*
Y-0005720D01*
X0042500Y0002470D02*
Y0002100D01*
X0043700Y0002350D02*
Y0002370D01*
X0043600Y0002470D01*
X0043250D01*
X0049500Y0033970D02*
Y0033500D01*
X0048500Y0041160D02*
Y0041650D01*
X0046850Y0041500D02*
X0046834Y0041484D01*
X0046250D01*
X0021750Y0001840D02*
Y0001350D01*
X0024550Y-0001000D02*
X0025285D01*
X0041250Y0015720D02*
Y0015250D01*
X0039930Y0015600D02*
X0040250Y0015280D01*
X0047988Y0016500D02*
Y0016150D01*
X-0000500Y-0005850D02*
Y-0005350D01*
X-0001250D02*
Y-0005850D01*
X0000250D02*
Y-0005350D01*
X-0000500D02*
Y-0005850D01*
X0048250Y0053280D02*
Y0053750D01*
X0046450Y0053900D02*
Y0053400D01*
X0004200Y-0003600D02*
Y-0003100D01*
X0000250Y-0005350D02*
Y-0005850D01*
X0046250Y0021280D02*
X0047320D01*
X0047300Y0021300D02*
X0046150D01*
Y0021330D01*
X0044770D01*
X0044150Y0021950D01*
Y0025100D01*
Y0032400D01*
X0045080D01*
X0045200Y0032280D01*
X0045250D01*
X0043250Y0038098D02*
Y0036950D01*
X0042850Y0036550D01*
Y0035150D01*
X0043050Y0034950D01*
Y0033150D01*
X0043800Y0032400D01*
X0044150D01*
X0045080D01*
X0045200Y0032280D01*
X0045250D01*
X0007000Y0016970D02*
Y0016700D01*
X0006850Y0016550D01*
X0006600Y0012000D02*
X0007100Y0012500D01*
X0007450D01*
X0007470D01*
X0040750Y0019250D02*
X0040450D01*
X0040250Y0019050D01*
Y0018495D01*
X0002750Y0045280D02*
X0002720Y0045250D01*
X0002250D01*
X0000750Y0045600D02*
X0000730Y0045620D01*
Y0046000D01*
X-0002750Y0011598D02*
Y0010700D01*
X-0002550Y0010500D01*
X-0000400D01*
X-0000150Y0010250D01*
X0003450Y0008700D02*
X0004000Y0008150D01*
X-0000250Y0042255D02*
X0000345D01*
X0000350Y0042250D01*
X0000750Y0045600D02*
X0000730Y0045620D01*
Y0046000D01*
X0004791Y0007750D02*
X0004900D01*
X0005100Y0007950D01*
Y0008000D01*
X0005550Y0007350D02*
X0005700Y0007200D01*
X0006250D01*
Y0007220D01*
X0000730Y0046000D02*
X0000850D01*
X0001200Y0046350D01*
Y0046950D01*
X0001100Y0047050D01*
X0000200D01*
X-0000050Y0047300D01*
X-0000250Y0047500D01*
Y0047720D01*
Y0047500D01*
X-0000050Y0047300D01*
X0000950Y0047700D02*
X0001445D01*
X0001500Y0047755D01*
X0050250Y0033850D02*
Y0033350D01*
X0049500Y0033500D02*
Y0033970D01*
X0051000Y0032762D02*
Y0033200D01*
X0050250Y0033350D02*
Y0033850D01*
X0048250Y0033090D02*
Y0032600D01*
X0049500Y0033150D02*
Y0032780D01*
X0045970Y0027000D02*
Y0027400D01*
X0045300Y0029600D02*
Y0030100D01*
X0031750Y-0001148D02*
Y-0000500D01*
X0031350Y-0000100D01*
Y0000950D01*
X0031550Y0001150D01*
Y0002650D01*
X0031500Y0002700D01*
Y0003600D01*
X0031700Y0003800D01*
X0031900D01*
X0032250Y0004150D01*
Y0004348D01*
X0039250Y0019780D02*
Y0020250D01*
X0038750Y0018500D02*
Y0018300D01*
X0038570Y0018120D01*
X0038250D01*
X0018000Y-0007780D02*
Y-0008150D01*
X0018350Y-0010950D02*
Y-0010920D01*
X0018400Y-0010970D01*
X0019750D01*
X0017179Y-0007000D02*
X0016800D01*
X0016650Y-0006850D01*
X0020500Y-0011530D02*
X0023720D01*
X0023950Y-0005550D02*
X0024750D01*
X0024950Y-0005350D01*
Y-0005000D01*
X0034750Y0076745D02*
X0034945D01*
X0035450Y0077250D01*
X0036000D01*
Y0079000D02*
Y0078520D01*
X0036020Y0078500D01*
X0046250Y0002030D02*
X0045800D01*
X0045750Y0001980D01*
Y0001950D01*
X0014791Y0007250D02*
X0015100D01*
Y0007350D01*
X0015150Y0007400D01*
X0015500Y0004500D02*
X0015220Y0004780D01*
X0015000D01*
X0050500Y0060030D02*
X0050920D01*
X0051150Y0059800D01*
Y0057300D01*
X0051100Y0057250D01*
Y0055220D01*
X0050750D01*
X0050291Y0032250D02*
Y0031909D01*
X0050250Y0034250D02*
Y0034650D01*
X0050291Y0032250D02*
Y0031909D01*
X0049500Y0031750D02*
Y0032220D01*
X0039500Y-0008470D02*
X0040970D01*
X0032250Y0005220D02*
X0031430D01*
X0030800Y0005850D01*
X0030050D01*
X0029850Y0006050D01*
Y0011150D01*
X0029470Y0011530D01*
X0024750D01*
X0015750Y0005470D02*
X0015730D01*
X0015800Y0005400D01*
Y0004800D01*
X0015500Y0004500D01*
X0015220Y0004780D01*
X0015000D01*
X0020500Y-0011530D02*
X0023720D01*
X0025200Y-0010800D02*
X0025220Y-0010780D01*
Y-0010250D01*
X0030000Y-0009750D02*
Y-0009800D01*
X0026500D01*
X0025700Y-0009000D01*
X0025285D01*
X0010750Y-0007220D02*
Y-0006750D01*
X0008500D02*
Y-0007220D01*
X0011500D02*
X0011580D01*
X0012000Y-0006800D01*
X0012250D01*
X0004250Y0075755D02*
X0004850D01*
Y0077200D01*
X0005100Y0077450D01*
X0006200D01*
X0007250Y0078500D01*
X0008000D01*
Y0078470D01*
X0010750Y-0007220D02*
Y-0006750D01*
Y-0006050D01*
X0011050Y-0005750D01*
X0011240D01*
X0042500Y0004644D02*
X0042490D01*
X0042056Y0004206D01*
Y0004200D01*
X0041356Y0003500D01*
X0040550D01*
X0040150Y0003100D01*
Y0002950D01*
X0039250Y0002050D01*
Y0002049D01*
X0038907D01*
X0047500Y0055470D02*
Y0055000D01*
X0046300D02*
X0044950D01*
X0044500Y0055450D01*
Y0055495D01*
X0044005D01*
Y0052955D02*
X0044485D01*
X0044500Y0052970D01*
X0043500Y0050495D02*
Y0050600D01*
X0042300Y0051800D01*
Y0052750D01*
X0042550Y0053000D01*
X0042950D01*
X0043470Y0052480D01*
X0043500D01*
X0035520Y0033000D02*
Y0033700D01*
X0034900D01*
X0032750Y0033250D02*
Y0033720D01*
X0047750Y0028470D02*
Y0028500D01*
X0047600D01*
X0047350Y0028750D01*
X0046550D01*
X0046270Y0028470D01*
X0046250D01*
Y0022255D02*
Y0022250D01*
X0045650Y0021650D01*
X0044900D01*
X0044700Y0021850D01*
Y0023650D01*
X0045530Y0024480D01*
Y0024750D01*
X0040250Y0015970D02*
X0039850D01*
X0038750Y0018500D02*
Y0018300D01*
X0038570Y0018120D01*
X0038250D01*
X0049750Y0059350D02*
Y0059750D01*
X0050750Y0061650D02*
Y0061262D01*
X0045492Y0057968D02*
Y0057508D01*
X0045500Y0057500D01*
X0045800Y0056100D02*
X0045750Y0056150D01*
Y0056470D01*
X0050030Y0013500D02*
X0050500D01*
X0050650Y0014500D02*
X0050150D01*
X0014000Y0004280D02*
Y0004750D01*
X0013500Y0005100D02*
X0013050D01*
X0013500D01*
X0011950Y0005500D02*
Y0005900D01*
X0013250Y0004400D02*
Y0004000D01*
X0014000Y0004750D02*
Y0004280D01*
X0015000Y0005470D02*
X0015030D01*
X0015500Y0005000D01*
X0014000Y0004750D02*
Y0004280D01*
X0012250Y0006840D02*
X0011840D01*
X0011600Y0006600D01*
X0009950Y0006650D02*
Y0006150D01*
Y0006650D01*
X0045492Y0057968D02*
Y0057508D01*
X0045500Y0057500D01*
X0043100D02*
X0043090Y0057509D01*
Y0057968D01*
X0046450Y0053400D02*
Y0053900D01*
X0046500Y0056100D02*
Y0056600D01*
X0044250Y0060016D02*
X0044834D01*
X0044850Y0060000D01*
X0045500Y0057500D02*
X0045492Y0057508D01*
Y0057968D01*
X0050030Y0013500D02*
X0050500D01*
X0050900Y0012500D02*
X0050410D01*
X0049250Y0016530D02*
Y0017000D01*
X0050650Y0014500D02*
X0050150D01*
X0045500Y0072780D02*
Y0073150D01*
Y0068750D02*
Y0068004D01*
X0017179Y-0005500D02*
X0016400D01*
X0016200Y-0005700D01*
Y-0007900D01*
X0016050Y-0008050D01*
X0014500D01*
Y-0007780D01*
X0029500Y-0001148D02*
X0029152D01*
X0028850Y-0001450D01*
Y-0004800D01*
X0028650Y-0005000D01*
X0027550D01*
X0029500Y-0001148D02*
Y-0001400D01*
X0029850Y-0001750D01*
X0031750D01*
Y-0001148D01*
X-0002000Y-0006530D02*
Y-0007350D01*
X-0002200Y-0007550D01*
Y-0010950D01*
X-0001750Y-0011400D01*
X-0001250D01*
X0027214Y-0002750D02*
X0027364D01*
Y-0001250D01*
X0027214Y-0001100D01*
Y-0001000D01*
X0007000Y0003970D02*
X0006980D01*
X0006700Y0004250D01*
X0005850D01*
X0005570Y0003970D01*
X0005500D01*
X0044720Y0027750D02*
X0044700D01*
X0044400Y0027450D01*
Y0026150D01*
X0045050Y0025500D01*
X0045480D01*
X0039541Y0001000D02*
Y0000950D01*
X0039741Y0000750D01*
X0040850D01*
Y0000720D01*
X0041000D01*
X0014791Y0007250D02*
X0014450Y0007591D01*
Y0007800D01*
X0014100Y0008150D01*
X0014000D01*
X0007470Y0012500D02*
X0007450D01*
X0007420Y0012470D01*
Y0012200D01*
X0007648Y0011972D01*
Y0011648D01*
X-0002750Y0020848D02*
Y0020650D01*
X-0003350Y0020050D01*
Y0012750D01*
X-0003070Y0012470D01*
X-0002750D01*
X0047951Y0014146D02*
X0048550D01*
X0048850Y0014446D01*
X0049300D01*
X0049350Y0014500D01*
Y0015970D01*
X0049980D01*
X0050230Y0015720D01*
X0050750D01*
X0036500Y0033495D02*
X0036155D01*
X0035930Y0033720D01*
X0035520D01*
X0035500D01*
X0008500Y0076280D02*
Y0077000D01*
Y0078200D01*
X0008230Y0078470D01*
X0008000D01*
X0049500Y0032220D02*
Y0031750D01*
X0048050D01*
X0047520Y0032280D01*
X0047250D01*
X0050750Y0053470D02*
X0050820D01*
X0050800Y0053450D01*
X0049350D01*
X0048620Y0052720D01*
X0048250D01*
X0050750Y0053470D02*
X0050820D01*
X0051100Y0053750D01*
Y0055220D01*
X0050750D01*
X0048896Y0061299D02*
Y0060904D01*
X0049000Y0060800D01*
X0049050D01*
X0049700Y0060150D01*
X0049750D01*
X0050050D01*
Y0060741D01*
X0050041Y0060750D01*
X0050500Y0060030D02*
X0050380Y0060150D01*
X0050050D01*
X0049750D01*
X0048250Y0052720D02*
Y0052100D01*
Y0051848D01*
X0043250Y0038098D02*
Y0038850D01*
X0043130Y0038970D01*
X0043250D01*
X-0002750Y0020848D02*
Y0021300D01*
X-0002330Y0021720D01*
X-0002250D01*
X0004250Y0017150D02*
Y0017700D01*
X0003896Y0018054D01*
Y0018549D01*
X0004250Y0017150D02*
X0004300Y0017098D01*
X0004901D01*
X0037000Y0078280D02*
X0036350D01*
X0036130Y0078500D01*
X0036020D01*
X0038000Y0078005D02*
X0038025D01*
X0038300Y0078280D01*
X0039000D01*
X0048500Y0015791D02*
X0048741D01*
X0048920Y0015970D01*
X0049250D01*
X0049350D01*
Y0014500D01*
X0014000Y0008150D02*
Y0008300D01*
X0013646Y0008650D01*
Y0009299D01*
X0004000Y0008150D02*
X0003450Y0008700D01*
X0003396Y0008754D01*
Y0009299D01*
X0037000Y0078280D02*
X0037725D01*
X0038000Y0078005D01*
X0007980Y0077000D02*
X0008500D01*
Y0076280D01*
X0005500Y0075755D02*
X0004850D01*
X0004250D01*
X0043500Y0052480D02*
Y0052500D01*
X0043970Y0052970D01*
X0044500D01*
X0032750Y0033720D02*
X0032630D01*
X0032105Y0034245D01*
X0031750D01*
X0035520Y0033000D02*
Y0033700D01*
Y0033720D01*
X0035500D01*
X0044720Y0027750D02*
Y0027770D01*
Y0028470D01*
X0046250D01*
X0045480Y0025500D02*
X0045530Y0025450D01*
Y0024750D01*
X0046250Y0022255D02*
Y0022250D01*
X0046255Y0022255D01*
X0047250D01*
X0044500Y0020280D02*
Y0020750D01*
X0047050Y0018850D02*
Y0019350D01*
X0001593Y0020951D02*
X0001250D01*
X-0000447Y0018750D02*
Y0018250D01*
X0045200Y0003150D02*
Y0003650D01*
X0043750Y0003350D02*
Y0003850D01*
X0044500Y0003970D02*
X0045150D01*
X0045200Y0003650D02*
Y0003150D01*
X0043200Y0001400D02*
Y0001000D01*
X0045200Y0001900D02*
Y0001400D01*
X0004200Y-0001850D02*
Y-0001350D01*
Y-0003100D02*
Y-0003600D01*
Y0000400D02*
Y-0000100D01*
X0034553Y0002250D02*
Y0001750D01*
X0030500Y0000280D02*
Y0000750D01*
X0032350Y0000280D02*
X0032750D01*
X0034553Y0001750D02*
Y0002250D01*
X0032350Y0000280D02*
X0032750D01*
X0045200Y0001400D02*
Y0001900D01*
X0039285Y-0006250D02*
Y-0005600D01*
X0039500Y-0009500D02*
Y-0009030D01*
X0038250Y-0004220D02*
X0038650D01*
Y-0005470D02*
X0038250D01*
X0005500Y0008262D02*
Y0008650D01*
X0004000Y0004650D02*
Y0005150D01*
X0004200Y0000400D02*
Y-0000100D01*
X0004791Y0007750D02*
X0004450D01*
X0004050Y0008150D01*
X0004000D01*
X0013250Y0007470D02*
Y0007100D01*
X0011600Y0006600D02*
X0011840Y0006840D01*
X0012250D01*
X0003907Y0011701D02*
X0004350D01*
X0003500Y0014900D02*
Y0014410D01*
X0008000Y0006030D02*
Y0007050D01*
X0007270Y0007780D01*
X0007000D01*
X0050000Y0019220D02*
X0049500D01*
X0049000D01*
X0013498Y-0009000D02*
X0013348Y-0008850D01*
X0013000D01*
X0012250Y-0008100D01*
Y-0007780D01*
X0006250Y0007220D02*
Y0007200D01*
X0006830Y0007780D01*
X0007000D01*
X0046250Y0003280D02*
Y0006530D01*
X0045330D01*
X0045250D01*
X0015750Y0005470D02*
X0015730D01*
X0015170Y0006030D01*
X0015000D01*
X0038750Y0001150D02*
X0038700D01*
X0038396Y0001454D01*
Y0002049D01*
X0040250Y0020005D02*
X0039465Y0019220D01*
X0039250D01*
X0040250Y0018495D02*
X0040295D01*
X0040580Y0018780D01*
X0041250D01*
X0039250Y0019220D02*
X0039270Y0019200D01*
Y0018500D01*
X0040245D01*
X0040250Y0018495D01*
X0011000Y0003720D02*
X0011070D01*
X0011630Y0004280D01*
X0011750D01*
X0037500Y-0007470D02*
X0037430D01*
X0037100Y-0007800D01*
X0035900D01*
X0035570Y-0007470D01*
X0035500D01*
X0027214Y-0002750D02*
X0027550Y-0003085D01*
Y-0004100D01*
X0039541Y0001000D02*
X0039500D01*
X0039350Y0001150D01*
X0038750D01*
X0047630Y0077750D02*
X0046900D01*
X0017179Y-0005500D02*
X0017780D01*
X0018000Y-0005720D01*
X0025285Y-0009000D02*
Y-0010184D01*
X0025220Y-0010250D01*
X0020500Y-0011530D02*
X0020430D01*
X0019870Y-0010970D01*
X0019750D01*
X0025285Y-0007250D02*
Y-0009000D01*
X0011500Y-0007220D02*
X0010750D01*
X0015000Y0005470D02*
X0015030D01*
X0015500Y0005000D01*
X0018000Y0005500D02*
X0018470D01*
X0027550Y-0005000D02*
X0024950D01*
X0001000Y-0006650D02*
X0000300Y-0007350D01*
X-0002000D01*
Y-0006530D01*
X0002500Y-0006650D02*
X0002450D01*
X0001750D01*
X-0000500Y-0011400D02*
X-0001250D01*
X0000250D02*
X-0000500D01*
X0032250Y0005220D02*
Y0004348D01*
X0024750Y0012220D02*
Y0011530D01*
X-0002750Y0012470D02*
Y0011598D01*
X0036750Y-0003000D02*
Y-0004050D01*
X0036200Y-0004600D01*
X0035550D01*
X0035050Y-0005100D01*
Y-0007470D01*
X0035500D01*
X0007000Y0016970D02*
X0006250D01*
X0047593Y0038201D02*
X0047250D01*
X0046850Y0041500D02*
X0046834Y0041484D01*
X0046250D01*
X0001750Y-0011400D02*
X0001000D01*
X0006050Y0006400D02*
X0004600D01*
X0004500Y0006300D01*
Y0006100D01*
X0004400Y0006000D01*
X-0002450D01*
X0002500Y-0011400D02*
X0001750D01*
X0047250Y0032280D02*
X0045250D01*
X0046250Y0041484D02*
X0046834D01*
X0046850Y0041500D01*
X0043250Y0040000D02*
Y0039530D01*
X0019750Y-0010970D02*
X0018400D01*
X0018350Y-0010920D01*
Y-0010950D01*
Y-0011000D02*
Y-0010950D01*
Y-0010920D01*
X0018400Y-0010970D01*
X0019750D01*
X0046900Y0077750D02*
X0047630D01*
X0049250Y0028470D02*
X0049600D01*
X0020250Y-0008970D02*
Y-0008550D01*
X0020300Y-0008500D01*
X0003250Y-0011400D02*
X0002500D01*
X0043750Y0004650D02*
X0043744Y0004644D01*
X0043000D01*
X0041338Y0078323D02*
X0040873D01*
X0040850Y0078300D01*
X0043500Y0077650D02*
Y0077160D01*
X0004000Y-0011400D02*
X0003250D01*
X0004000Y0003850D02*
Y0003250D01*
X0004249Y0009299D02*
X0003907D01*
X0008500Y0021894D02*
X0008294D01*
X0007550Y0021150D01*
Y0019100D01*
X0007400Y0018950D01*
Y0018600D01*
X0007000Y0018200D01*
X0005100D01*
X0004751Y0018549D01*
X0004407D01*
X0004750Y-0011400D02*
X0004000D01*
X0005500D02*
X0004750D01*
X0006250D02*
X0005500D01*
X0007000D02*
X0006250D01*
X0044500Y0051720D02*
X0043380D01*
X0042750Y0052350D01*
Y0052480D01*
X0007750Y-0011400D02*
X0007000D01*
X0050291Y0032250D02*
Y0031909D01*
Y0032250D01*
X0018000Y-0008970D02*
Y-0008950D01*
X0017179Y-0008129D01*
Y-0007768D01*
X0036787Y-0010106D02*
Y-0010087D01*
X0035050Y-0008350D01*
Y-0007470D01*
X0035500D01*
X0010000Y0021894D02*
X0010100D01*
X0010300Y0021694D01*
Y0020550D01*
X0010030Y0020280D01*
X0010000D01*
X0008500Y-0011400D02*
X0007750D01*
X0049000Y0021144D02*
Y0021100D01*
X0048240Y0020350D01*
X0047800D01*
X0047500Y0020050D01*
Y0019050D01*
X0048250Y0018300D01*
Y0017500D01*
X0048100Y0017350D01*
X0047900D01*
X0047650Y0017100D01*
Y0015400D01*
X0047950Y0015100D01*
X0047951D01*
Y0014657D01*
X0001750Y-0006650D02*
X0001000D01*
X0048500Y0028356D02*
Y0028300D01*
X0048200Y0028000D01*
X0047300D01*
X0047000Y0028300D01*
Y0028356D01*
X0000750Y0043530D02*
X0000720D01*
X-0000220Y0044470D01*
Y0044720D01*
X-0000250D01*
X0032750Y-0003352D02*
Y-0003500D01*
X0032450Y-0003800D01*
Y-0004250D01*
X0032750Y-0004550D01*
Y-0006356D01*
X0013500Y-0009000D02*
Y-0008950D01*
X0011000Y0078530D02*
X0010940Y0078470D01*
X0009750D01*
X0000800Y0045150D02*
X0001350D01*
X0001750Y0045550D01*
Y0046000D01*
X0036250Y-0002280D02*
Y-0003000D01*
X0018750Y-0008970D02*
Y-0008450D01*
X0050000Y0041160D02*
Y0041650D01*
X0050553Y0049750D02*
Y0049250D01*
X0037000Y-0001720D02*
X0037400D01*
X0038650Y-0003550D02*
Y-0003530D01*
X0038250D01*
X0032750Y-0003352D02*
Y-0003200D01*
X0032550Y-0003000D01*
X0032200D01*
X0032100Y-0002900D01*
X0030500D01*
Y-0003352D01*
X0032750Y0079220D02*
Y0078530D01*
X0012500Y0003606D02*
Y0003600D01*
X0012300Y0003400D01*
X0010450D01*
X0010250Y0003600D01*
Y0003606D01*
X0042250Y0033030D02*
X0041500D01*
X0001093Y0011701D02*
X0000750D01*
X-0002750Y0013500D02*
Y0013030D01*
X0039500Y-0008470D02*
X0040970D01*
X0043750Y0004650D02*
X0043870Y0004530D01*
X0044500D01*
X0004750Y0003856D02*
Y0003800D01*
X0004900Y0003650D01*
X0006250D01*
Y0003856D01*
X0038750Y0014720D02*
Y0014030D01*
X0020550Y-0008400D02*
X0020400D01*
X0020300Y-0008500D01*
X0020250Y-0008550D01*
Y-0008970D01*
X0050000Y0022100D02*
X0050400D01*
X0050750Y0022450D01*
Y0022470D01*
X0045480Y0026250D02*
Y0026220D01*
X0045900Y0025800D01*
Y0025100D01*
X0046220Y0024780D01*
Y0024750D01*
X0050000Y0028350D02*
X0049880Y0028470D01*
X0049600D01*
X0049250D01*
X0037000Y-0002280D02*
X0036250D01*
X0043000Y0019720D02*
X0042250D01*
X0009250D02*
X0008500D01*
X0036500Y0032505D02*
X0037465D01*
X0037500Y0032470D01*
X0019200Y-0011500D02*
Y-0011515D01*
X0019215Y-0011530D01*
X0019750D01*
X0048250Y0055470D02*
X0047500D01*
X0045500Y0050470D02*
Y0049780D01*
X0035500Y0034280D02*
Y0034650D01*
X0031516Y0041900D02*
Y0041500D01*
X0044500Y0056470D02*
Y0055495D01*
X0008550Y0018900D02*
X0007800D01*
X0037000Y0079220D02*
Y0078280D01*
X0045750Y0057030D02*
X0045780D01*
X0046150Y0057400D01*
X0046500D01*
X0045250Y0006530D02*
X0045330D01*
X0012500Y0003606D02*
X0013244D01*
X0013250Y0003600D01*
X0001750Y0043530D02*
X0000750D01*
X0046500Y0057400D02*
X0046506Y0057394D01*
X0047500D01*
X-0000250Y0043245D02*
X-0000850D01*
Y0043000D01*
Y0041295D01*
X-0000550Y0040995D01*
X-0000250D01*
X0036900Y-0009600D02*
X0036303Y-0009003D01*
Y-0008600D01*
X0009350Y0003650D02*
X0009400Y0003600D01*
X0009450D01*
X0013498Y-0011000D02*
X0013450D01*
X0012900Y-0010450D01*
X0011800D01*
X0011350Y-0010000D01*
Y-0008600D01*
X0010750Y-0008000D01*
Y-0007780D01*
X0050000Y0021144D02*
X0049000D01*
X0044300Y0062050D02*
Y0062000D01*
X0011343Y0011701D02*
X0011001D01*
X0008600Y0013350D02*
Y0013050D01*
X0008050Y0012500D01*
X0008030D01*
X0038250Y-0006030D02*
X0038280D01*
X0038600Y-0006350D01*
Y-0006950D01*
X0038270Y-0007280D01*
X0038250D01*
X0017179Y-0007512D02*
X0016750D01*
Y-0007300D01*
X0032750Y-0000280D02*
Y-0001148D01*
X0015250Y-0007000D02*
X0015600D01*
X0009000Y0077750D02*
X0010000D01*
Y0077530D01*
X0006750Y0076745D02*
X0007045D01*
X0007295Y0076495D01*
Y0076387D01*
X0007402Y0076280D01*
X0007750D01*
X0040250Y0016530D02*
X0040500D01*
X0040800Y0016230D01*
Y0014895D01*
X0040950Y0014745D01*
X0041250D01*
X0036697Y-0008600D02*
Y-0008553D01*
X0037220Y-0008030D01*
X0037500D01*
X0036000Y-0010106D02*
X0033300Y-0007406D01*
Y-0006850D01*
X0032806Y-0006356D01*
X0032750D01*
X0036750Y0076745D02*
Y0077050D01*
X0036050Y0077750D01*
X0036020D01*
X0042400Y0016000D02*
X0041700Y0016700D01*
Y0017430D01*
X0041600Y0017530D01*
X0041250D01*
X0010250Y0004394D02*
X0010890D01*
X0011000Y0004280D01*
X0039800Y0034650D02*
X0036400D01*
X0036100Y0034950D01*
X0035100D01*
X0034500Y0034350D01*
Y0033000D01*
X0047500Y0056030D02*
X0047300D01*
X0047050Y0055780D01*
Y0054800D01*
X0047350Y0054500D01*
X0049050D01*
X0021750Y-0008970D02*
X0021982D01*
X0022002Y-0008950D01*
X0022250D01*
X0020850Y-0006400D02*
X0021550D01*
X0038500Y0076780D02*
X0039170D01*
X0039300Y0076650D01*
X0018750Y-0008970D02*
X0018000D01*
X0040970Y-0008470D02*
X0039500D01*
X0009250Y0021900D02*
X0009256Y0021894D01*
X0010000D01*
X0021550Y-0004600D02*
Y-0004100D01*
X0004901Y0017610D02*
X0004690D01*
X0004151Y0018148D01*
Y0018549D01*
X0013750Y-0007220D02*
X0013770D01*
X0014150Y-0007600D01*
Y-0008250D01*
X0014350Y-0008450D01*
X0015700D01*
X0015800Y-0008350D01*
X0015250Y-0006012D02*
X0014112D01*
X0013820Y-0005720D01*
X0013750D01*
X0017179Y-0007512D02*
X0016750D01*
Y-0007300D01*
Y-0007256D01*
X0017179D01*
X0015250Y-0005500D02*
X0014300D01*
X0014200Y-0005400D01*
X0012550D01*
X0012250Y-0005700D01*
Y-0005720D01*
X0006250Y0003856D02*
Y0003650D01*
X0007450D01*
X0007750Y0003950D01*
Y0003970D01*
X0044720Y0027000D02*
Y0027070D01*
X0045280Y0027630D01*
Y0027750D01*
X0040250Y0017505D02*
X0039940D01*
X0039695Y0017750D01*
X0039270D01*
X0043090Y0058953D02*
X0042903D01*
X0042550Y0058600D01*
Y0057330D01*
X0042850Y0057030D01*
X0043250D01*
X0019600Y-0007250D02*
X0019570Y-0007220D01*
X0018750D01*
X0032750Y-0007144D02*
X0032544D01*
X0031750Y-0006350D01*
Y-0006340D01*
X0038250Y0017750D02*
X0038650D01*
X0039050Y0018150D01*
X0039750D01*
X0039900Y0018000D01*
X0040600D01*
X0040800Y0017800D01*
Y0017220D01*
X0041050Y0016970D01*
X0041250D01*
X0035000Y0079220D02*
X0035330D01*
X0035500Y0079050D01*
Y0077950D01*
X0035300Y0077750D01*
X0035000D01*
X0044720Y0027750D02*
Y0027770D01*
X0044700Y0027750D01*
X0044400Y0027450D01*
Y0026150D01*
X0045050Y0025500D01*
X0045480D01*
X0033500Y0033720D02*
Y0033700D01*
X0033050Y0033250D01*
Y0032470D01*
X0033300Y0032220D01*
X0033500D01*
X0041450Y0001750D02*
X0041350Y0001650D01*
X0040750D01*
X0040600Y0001500D01*
Y0001150D01*
X0040450Y0001000D01*
X0040250D01*
X0043000Y0003856D02*
Y0003280D01*
X0043250Y0003030D01*
X0011390Y-0005750D02*
X0011250D01*
X0011240D01*
X0033750Y0077970D02*
X0033770D01*
X0034300Y0078500D01*
X0035000D01*
X0046250Y0050470D02*
X0045500D01*
X0011500Y-0007780D02*
Y-0008300D01*
X0011750Y-0008550D01*
Y-0009750D01*
X0012000Y-0010000D01*
X0013498D01*
X0037500Y-0008030D02*
Y-0010032D01*
X0037574Y-0010106D01*
X0005610Y0017098D02*
X0005548D01*
X0011450Y0018100D02*
Y0018150D01*
X0042323Y0080724D02*
Y0080573D01*
X0041850Y0080100D01*
X0037350D01*
X0037030Y0079780D01*
X0037000D01*
X0044300Y0001000D02*
Y0001300D01*
X0043550Y0002050D01*
X0043100D01*
X0042850Y0002300D01*
Y0002800D01*
X0042620Y0003030D01*
X0042500D01*
X0038250Y-0007280D02*
X0038060Y-0007470D01*
X0037500D01*
X0042250Y0032470D02*
Y0032100D01*
X0045300Y0029600D02*
Y0030100D01*
X0047750Y0029030D02*
X0047780D01*
X0047890Y0029144D01*
X0048200D01*
X0048500D01*
X0044500Y0050495D02*
X0043510Y0049505D01*
X0043500D01*
X0007000Y0007220D02*
Y0006800D01*
X0006600Y0006400D01*
X0006250D01*
X0006200D01*
X0006050D01*
X0036303Y-0008600D02*
Y-0008553D01*
X0035780Y-0008030D01*
X0035500D01*
X0037250Y-0006780D02*
X0037770D01*
X0035350Y-0006800D02*
Y-0006790D01*
X0035360Y-0006780D01*
X0035750D01*
X0007000Y0004530D02*
Y0004550D01*
X0007300Y0004850D01*
X0008250D01*
X0008550Y0004550D01*
Y0004000D01*
X0009250Y0020280D02*
X0009450D01*
Y0020180D01*
X0009650Y0019980D01*
Y0019300D01*
X0010450Y0018500D01*
X0010550D01*
X0030500Y-0007144D02*
X0030444D01*
X0029640Y-0006340D01*
X0029500D01*
X0006950Y0006000D02*
Y0005750D01*
X0006300Y0005100D01*
X0006050D01*
X0005500Y0004550D01*
Y0004530D01*
X0008000Y0079030D02*
Y0079350D01*
X0006625Y0080724D01*
X0006299D01*
X0047000Y0029144D02*
X0046360D01*
X0046250Y0029030D01*
X0035000Y0077750D02*
X0034470D01*
X0033750Y0077030D01*
X0038750Y0015280D02*
X0038070D01*
X0037700Y0015650D01*
Y0016900D01*
X0038300D01*
X0036787Y-0010106D02*
Y-0010893D01*
X0043750Y0019720D02*
X0043000D01*
X0041500Y0034220D02*
Y0033030D01*
X0051000Y0032250D02*
Y0031650D01*
X0034425Y-0010106D02*
Y-0010025D01*
X0032060Y-0007660D01*
X0031750D01*
X0047872Y0063701D02*
Y0066028D01*
X0047200Y0066700D01*
X0048000Y0067150D02*
X0048311Y0067461D01*
Y0067606D01*
X0036000Y-0010106D02*
Y-0010893D01*
X0048500Y0039840D02*
X0048616Y0039724D01*
Y0038201D01*
X0021350Y-0010750D02*
X0021130Y-0010970D01*
X0020500D01*
X0039500Y0014720D02*
X0038750D01*
X0019550Y-0007350D02*
Y-0007300D01*
X0019600Y-0007250D02*
X0019570Y-0007220D01*
X0018750D01*
X0045200Y0000600D02*
Y0000400D01*
X0044800Y0000000D01*
X0040550D01*
X0040330Y-0000200D01*
X0038800D01*
X0038500Y-0000500D01*
X0038070D01*
X0037970Y-0000400D01*
X0033500Y0000300D02*
X0033200Y0000600D01*
X0032700D01*
X0032506Y0000794D01*
Y0001750D01*
X0048250Y0056030D02*
X0048780D01*
X0049000Y0056250D01*
X0049050D01*
X0042750Y0053500D02*
Y0054730D01*
X0043050Y0055030D01*
X0043250D01*
X0008550Y0018900D02*
X0007800D01*
X0007750Y0018850D02*
Y0018000D01*
X0007280Y0017530D01*
X0007000D01*
X0011750Y0078530D02*
X0011000D01*
X0033750Y0079220D02*
Y0078530D01*
X0005500Y0007750D02*
X0005400D01*
X0004050Y0006400D01*
X0002250Y0008160D02*
X0002140D01*
X0001860Y0008440D01*
Y0009299D01*
X0049000Y0019780D02*
X0047980D01*
X0047950Y0019750D01*
X0008000Y0005470D02*
Y0005450D01*
X0009000Y0004450D01*
Y0004000D01*
X0009350Y0003650D01*
X0009400Y0003600D01*
X0009450D01*
X0013400Y-0008850D02*
X0013500Y-0008950D01*
Y-0009000D01*
X0046450Y0052600D02*
X0046400D01*
X0046000Y0053000D01*
Y0053450D01*
X0045500Y0053950D01*
X0043700D01*
X0043500Y0053750D01*
Y0053500D01*
X0021000Y-0008970D02*
Y-0008280D01*
Y-0008250D01*
X0020500Y-0007750D01*
X0020450D01*
X0036250Y-0005400D02*
Y-0006200D01*
Y-0006220D01*
Y-0007350D01*
X0036300Y-0007400D01*
X0036303D01*
X0038300Y0016900D02*
X0037700D01*
Y0018200D01*
X0038000Y0018500D01*
X0038250D01*
X0006750Y0076745D02*
Y0077450D01*
X0007050Y0077750D01*
X0007980D01*
X0020250Y-0008970D02*
X0019500D01*
X0009250Y-0007780D02*
X0009450D01*
X0009550Y-0007880D01*
Y-0010820D01*
X0009850Y-0011120D01*
X0010500D01*
X0033273Y0001750D02*
Y0001344D01*
X0033300Y0001318D01*
Y0001050D01*
X0033650Y-0000850D02*
X0035600D01*
X0035650Y-0000800D01*
Y-0000750D01*
X0037950D02*
X0038000D01*
X0038050Y-0000800D01*
X0038550D01*
X0038900Y-0000450D01*
X0040450D01*
X0040650Y-0000250D01*
X0045100D01*
X0046600Y0001250D01*
Y0002400D01*
X0046280Y0002720D01*
X0046250D01*
X0038250Y-0002280D02*
Y-0002970D01*
X0032750Y0034280D02*
X0032720D01*
X0031516Y0035484D01*
Y0040516D01*
X0032250Y0006250D02*
Y0005780D01*
X0009000Y0077000D02*
Y0076650D01*
X0009300Y0076350D01*
X0010100D01*
X0010650Y0076900D01*
X0011000D01*
X0011050D01*
X0036750Y-0005400D02*
Y-0006200D01*
Y-0006220D01*
Y-0007450D01*
X0036747D01*
X0036697Y-0007400D01*
X0038350Y0006400D02*
Y0005850D01*
X0037372Y0004872D01*
Y0004451D01*
X0000500Y0048280D02*
Y0050550D01*
X0001143Y0051193D01*
X0001653D01*
X0030500Y-0003352D02*
Y-0006356D01*
X0001348Y0009299D02*
Y0008900D01*
X0000900Y0008450D01*
Y0007850D01*
X0000520Y0007470D01*
X0000500D01*
X0012500Y0018220D02*
X0011570D01*
X0011450Y0018100D01*
X0050000Y0019780D02*
X0050020D01*
X0050350Y0019450D01*
Y0018600D01*
X0049800Y0018050D01*
Y0017750D01*
X0021750Y-0008280D02*
X0021000D01*
Y-0008970D01*
X0035750Y0076280D02*
X0035780D01*
X0036245Y0076745D01*
X0036750D01*
X0050000Y0022100D02*
Y0021144D01*
X0037250Y-0005400D02*
Y-0005150D01*
X0037620Y-0004780D01*
X0038250D01*
X0006299Y0078323D02*
Y0078695D01*
X0005999Y0078995D01*
X0004250D01*
X0044750Y0072780D02*
X0044720D01*
X0044350Y0073150D01*
Y0074900D01*
X0043850Y0075400D01*
X0043100D01*
X0042250Y0076250D01*
X0042200D01*
X0042450Y0017150D02*
X0041750Y0017850D01*
Y0019550D01*
X0041295Y0020005D01*
X0041250D01*
X0034750Y-0002280D02*
X0034770D01*
X0035330Y-0001720D01*
X0035500D01*
X0038550Y-0010100D02*
X0038543Y-0010106D01*
X0037574D01*
X0046150Y0077500D02*
X0046250Y0077400D01*
Y0076345D01*
X0046500Y0026250D02*
Y0026650D01*
Y0026970D01*
X0046530Y0027000D01*
X0004750Y0004644D02*
X0004864Y0004530D01*
X0005500D01*
X0045549Y0013634D02*
X0043794D01*
X0043750Y0013590D01*
X0008600Y0018900D02*
X0008550D01*
X0030500Y0034245D02*
Y0035800D01*
X0029114Y0037186D01*
Y0040516D01*
X0049000Y0020356D02*
Y0019780D01*
X0009250Y-0007220D02*
Y-0006700D01*
X0008800Y-0006250D01*
X0008760D01*
X0039000Y0077720D02*
Y0077700D01*
X0039600Y0077100D01*
X0040000D01*
X0040200Y0076900D01*
Y0076650D01*
Y0076250D01*
X0010500Y-0011120D02*
X0012057D01*
X0012250Y-0011313D01*
X0046250Y0072220D02*
Y0072050D01*
X0045950Y0071750D01*
X0045050D01*
X0044750Y0072050D01*
Y0072220D01*
X0044500Y0057030D02*
X0043250D01*
X0002884Y0009299D02*
Y0008750D01*
X0002950Y0008700D01*
Y0008310D01*
X0003220Y0008030D01*
X0003250D01*
X0031750Y-0003352D02*
Y-0006340D01*
X0046500Y0026250D02*
Y0026650D01*
X0045630D01*
X0045280Y0027000D01*
X0046200Y0030500D02*
X0046250Y0030450D01*
Y0029030D01*
X0039800Y0034650D02*
X0039950Y0034800D01*
X0041330D01*
X0041350Y0034780D01*
X0041500D01*
X0045350Y0077500D02*
X0045750Y0077100D01*
Y0076345D01*
X0038500Y0032505D02*
X0037535D01*
X0037500Y0032470D01*
X0002750Y0048745D02*
Y0049050D01*
X0002900Y0049200D01*
X0004200D01*
X0004607Y0049607D01*
Y0051043D01*
X0004457Y0051193D01*
X0004055D01*
X0044500Y0051720D02*
Y0050495D01*
X0049189Y0045644D02*
X0050356D01*
X0050950Y0045050D01*
Y0043350D01*
X0050550Y0042950D01*
Y0039150D01*
X0050200Y0038800D01*
X0050100D01*
X0049896Y0038596D01*
Y0038201D01*
X-0000250Y0043245D02*
X-0000850D01*
Y0046480D01*
X-0000550Y0046780D01*
X-0000250D01*
X0048104Y0035799D02*
Y0035054D01*
X0047950Y0034900D01*
X0047600D01*
X0047250Y0034550D01*
Y0034530D01*
X0024750Y0010970D02*
Y0010950D01*
X0024800Y0010900D01*
X0025600D01*
X0025700Y0010800D01*
X0002116Y0011701D02*
Y0012784D01*
X0001810Y0013090D01*
X0001750D01*
X0049384Y0035799D02*
Y0034646D01*
X0049500Y0034530D01*
X0043750Y0020280D02*
Y0021100D01*
X0006750Y0076745D02*
X0005500D01*
X0048750Y0060030D02*
X0048534D01*
X0048384Y0060180D01*
Y0061299D01*
X0015250Y-0005756D02*
X0015536D01*
Y-0005500D01*
X0015250D01*
X0010500Y0008030D02*
Y0008450D01*
X0011343Y0009293D01*
Y0009299D01*
X0047360Y0061299D02*
Y0059800D01*
X0047500Y0059660D01*
X0005500Y-0009030D02*
Y-0010600D01*
X0047500Y0056606D02*
Y0056030D01*
X0048384Y0063701D02*
Y0064634D01*
X0048600Y0064850D01*
Y0065000D01*
X0048590D01*
X0013750Y-0006280D02*
Y-0007220D01*
X0002872Y0020951D02*
Y0021728D01*
X0002100Y0022500D01*
Y0024650D01*
X0002444Y0024994D01*
Y0026306D01*
X0002144Y0026606D01*
X-0000189D01*
X0000250Y-0009030D02*
Y-0010600D01*
X0002104Y0020951D02*
Y0021346D01*
X0001850Y0021600D01*
X0001450D01*
X0000000Y0023050D01*
Y0025719D01*
X0000100Y0025819D01*
X0001189D01*
X0047593Y0035799D02*
X0047550Y0035757D01*
Y0035699D01*
X0047350Y0035499D01*
X0047100D01*
X0046500Y0034899D01*
Y0034530D01*
X0037884Y0002049D02*
Y0001146D01*
X0038000Y0001030D01*
X0002750Y0043530D02*
X0001750D01*
X0015250Y-0007256D02*
X0015600D01*
Y-0007000D01*
X0015250D01*
X0013134Y0011701D02*
Y0012724D01*
X0013750Y0013340D01*
X0014250D01*
X0038396Y0004451D02*
Y0004846D01*
X0038900Y0005350D01*
X0039300D01*
X0040150Y0006200D01*
X0043700D01*
X0044050Y0006550D01*
X0044350D01*
X0002500Y-0010600D02*
X0002400D01*
X0002350Y-0010550D01*
Y-0009030D01*
X0002500D01*
X0044500Y0019720D02*
X0043750D01*
X0037884Y0004451D02*
Y0005034D01*
X0038900Y0006050D01*
X0038960D01*
X0039000Y0006090D01*
X0049151Y0061299D02*
Y0061750D01*
X0049201Y0061800D01*
X0049850D01*
X0050041Y0061609D01*
Y0061262D01*
X0037116Y0004451D02*
Y0004966D01*
X0037750Y0005600D01*
Y0006090D01*
X0002750Y0047755D02*
X0002585D01*
X0001595Y0048745D01*
X0001500D01*
X0048200Y0030500D02*
Y0029144D01*
X0048500D01*
X0003250Y-0009030D02*
Y-0010600D01*
X0008500Y-0007780D02*
X0008380D01*
X0007350Y-0006750D01*
X0004550D01*
Y-0006250D02*
X0000650D01*
X0000250Y-0006650D01*
X0045500Y0054505D02*
X0044500D01*
X0001750Y0046750D02*
X0001200Y0047300D01*
X0000920D01*
X0000500Y0047720D01*
X0033500Y0034280D02*
X0032750D01*
X0030500Y-0000280D02*
Y-0001148D01*
X0045750Y0074155D02*
Y0073600D01*
X0045850Y0073500D01*
Y0072550D01*
X0045520Y0072220D01*
X0045500D01*
X0011000Y0077970D02*
Y0076900D01*
X0011050D01*
X0034750Y0075755D02*
Y0075800D01*
X0035230Y0076280D01*
X0035750D01*
X0031750Y0033255D02*
X0030500D01*
X0044300Y0002750D02*
X0043600D01*
X0043320Y0003030D01*
X0043250D01*
X0041300Y0076650D02*
X0040200D01*
Y0076250D01*
X0003384Y0018549D02*
Y0018084D01*
X0003150Y0017850D01*
Y0017180D01*
X0003300Y0017030D01*
X0003500D01*
X0046250Y0023245D02*
X0045250D01*
X0040000Y0078995D02*
X0038000D01*
X0049000Y0019220D02*
X0049500D01*
X0040750Y0019250D02*
X0040450D01*
X0040250Y0019050D01*
Y0018495D01*
X0036604Y0004451D02*
Y0006096D01*
X0036600Y0006100D01*
X0009250Y0021900D02*
X0009244Y0021894D01*
X0008500D01*
X0013750Y-0005720D02*
X0013000D01*
X0042323Y0078323D02*
Y0078173D01*
X0041650Y0077500D01*
X0041050D01*
X0040545Y0078005D01*
X0040000D01*
X0041811Y0010181D02*
Y0010711D01*
X0042800Y0011700D01*
Y0012250D01*
X0043450Y0012900D01*
X0044000D01*
X0044478Y0013378D01*
X0045549D01*
X0043200Y0000600D02*
X0043150D01*
X0042750Y0001000D01*
Y0001250D01*
X0042400Y0001600D01*
X0041600D01*
X0041450Y0001750D01*
X0041350Y0001650D01*
X0040750D01*
X0040600Y0001500D01*
Y0001150D01*
X0040450Y0001000D01*
X0040250D01*
X0003384Y0020951D02*
Y0022166D01*
X0002900Y0022650D01*
Y0022840D01*
X0000800Y0045150D02*
X0000180D01*
X0000050Y0045280D01*
X-0000250D01*
X0001750Y-0009030D02*
Y-0010600D01*
X0002372Y0011701D02*
Y0013128D01*
X0002944Y0013700D01*
X0002950D01*
X0003050Y0013800D01*
X0004300D01*
X0005000Y0014500D01*
X0005400D01*
X0009950Y0005350D02*
X0010500Y0005900D01*
Y0006000D01*
X0011950Y0007450D01*
X0012500D01*
X0013150Y0006800D01*
X0015000D01*
X0015450Y0007250D01*
X0015500D01*
X0029500Y-0003352D02*
Y-0006340D01*
X-0000250Y0046780D02*
X-0000220Y0046750D01*
X0000730D01*
X0013250Y0015400D02*
Y0014500D01*
X0012400Y0013650D01*
Y0013072D01*
X0012622Y0012850D01*
Y0011701D01*
X0004750Y-0009030D02*
Y-0010600D01*
X0010500Y0007470D02*
X0010700D01*
X0010850Y0007620D01*
Y0008200D01*
X0011450Y0008800D01*
X0011498D01*
X0011598Y0008900D01*
Y0009299D01*
X0046250Y0060280D02*
Y0060614D01*
X0046593Y0060957D01*
Y0061299D01*
X0009000Y0078470D02*
Y0077750D01*
X0037500Y0033030D02*
Y0033500D01*
X0035500Y0034650D02*
Y0034280D01*
X0045250Y0005970D02*
Y0005500D01*
X0007000Y0007220D02*
Y0006800D01*
X0006600Y0006400D01*
X0006250D01*
Y0006450D01*
X0006200Y0006400D01*
X0006050D01*
X0000500Y0048280D02*
X-0000250D01*
X0008500Y-0009030D02*
Y-0010600D01*
X0034750Y-0001720D02*
Y-0001700D01*
X0035100Y-0001350D01*
X0036200D01*
X0036900Y-0001300D02*
X0037480D01*
X0037900Y-0001720D01*
X0038250D01*
X0047104Y0061299D02*
Y0060304D01*
X0046900Y0060100D01*
Y0058850D01*
X0046520Y0058470D01*
X0046500D01*
X0035750Y-0006220D02*
X0036230D01*
X0036250D01*
Y-0006200D01*
Y-0005400D01*
X0006250Y0004644D02*
X0006890D01*
X0007000Y0004530D01*
X0049384Y0038201D02*
Y0038934D01*
X0050000Y0039550D01*
Y0039840D01*
X0001848Y0018549D02*
Y0018148D01*
X0001150Y0017450D01*
Y0016670D01*
X0000950Y0016470D01*
X0000750D01*
X0049189Y0044069D02*
X0048319D01*
X0047950Y0043700D01*
Y0038904D01*
X0048104Y0038750D01*
Y0038201D01*
X0012878Y0011701D02*
Y0012828D01*
X0013300Y0013250D01*
Y0013750D01*
X0013200Y0013850D01*
X0013901Y0009299D02*
Y0008798D01*
X0014150Y0008550D01*
X0014500D01*
X0014791Y0008259D01*
Y0007762D01*
X0012250Y0008160D02*
Y0008200D01*
X0012110Y0008340D01*
Y0009299D01*
X0010750Y0013250D02*
X0010800D01*
X0011854Y0012196D01*
Y0011701D01*
X0044750Y0072780D02*
Y0072800D01*
X0045250Y0073300D01*
Y0074155D01*
X0037000Y0079780D02*
X0035000D01*
X0049689Y0066819D02*
X0048369D01*
X0048300Y0066750D01*
X0046920Y0066020D02*
Y0064280D01*
X0047104Y0064096D01*
Y0063701D01*
X0049950Y0054100D02*
X0050020Y0054030D01*
X0050750D01*
X0036860Y0002049D02*
Y0001020D01*
X0036750Y0000910D01*
X0050030Y0010250D02*
Y0010270D01*
X0049650Y0010650D01*
X0049250D01*
X0049050Y0010850D01*
Y0011400D01*
X0048351Y0012098D01*
X0047951D01*
X0002750Y0046780D02*
X0002720Y0046750D01*
X0001750D01*
X0031800Y0076900D02*
X0032350Y0077450D01*
X0033230D01*
X0033750Y0077970D01*
X0011050Y0005500D02*
X0011000Y0005450D01*
Y0004280D01*
X0043189Y0007819D02*
X0043270Y0007900D01*
X0044100D01*
X0044150Y0007950D01*
Y0008400D01*
X0043900Y0011900D02*
X0044650D01*
X0045104Y0012354D01*
X0045549D01*
X0048360Y0035799D02*
Y0034520D01*
X0048250Y0034410D01*
X0001604Y0009299D02*
Y0008754D01*
X0001250Y0008400D01*
Y0008060D01*
X0001280Y0008030D01*
X0001250D01*
X0004000Y-0009030D02*
Y-0010600D01*
X0034500Y0032250D02*
X0033530D01*
X0033500Y0032220D01*
X0036500Y0032505D02*
X0036245Y0032250D01*
X0035520D01*
X0002360Y0018549D02*
Y0017950D01*
X0002310Y0017900D01*
Y0017590D01*
X0002500Y0017400D01*
Y0016910D01*
X0045549Y0012866D02*
X0044766D01*
X0044300Y0012400D01*
X0043700D01*
X0043400Y0012100D01*
X0042500D02*
Y0013590D01*
X-0000189Y0028181D02*
X0002419D01*
X0002900Y0027700D01*
Y0026560D02*
Y0025100D01*
X0002350Y0024550D01*
Y0022600D01*
X0003128Y0021822D01*
Y0020951D01*
X0048500Y0016500D02*
Y0016550D01*
X0048700Y0016750D01*
Y0017350D01*
X0047250Y0023245D02*
X0047260D01*
X0048250Y0022255D01*
X0047988Y0015791D02*
Y0015512D01*
X0048451Y0015048D01*
Y0014501D01*
X0048351Y0014401D01*
X0047951D01*
X0049470Y0011000D02*
Y0011330D01*
X0048446Y0012354D01*
X0047951D01*
X0048250Y0057394D02*
X0047500D01*
X0007750Y-0009030D02*
Y-0010600D01*
X0000500Y0008030D02*
Y0008650D01*
X0001093Y0009243D01*
Y0009299D01*
X0002616Y0020951D02*
Y0021634D01*
X0001410Y0022840D01*
X0001250D01*
X0035500Y-0002280D02*
Y-0002750D01*
X0035750Y-0003000D01*
X0050000Y0020356D02*
Y0019780D01*
X0049950Y0055850D02*
X0050020Y0055780D01*
X0050750D01*
X0001604Y0011701D02*
Y0012250D01*
X0001100Y0012754D01*
Y0013850D01*
X0001300Y0014050D01*
X0004200D01*
X0004950Y0014800D01*
X0005700D01*
X0005800Y0014900D01*
X0006900D01*
X0013134Y0009299D02*
Y0008146D01*
X0013250Y0008030D01*
X0014000Y0003720D02*
X0013370D01*
X0013250Y0003600D01*
X0039541Y0001512D02*
X0038788D01*
X0038651Y0001648D01*
Y0002049D01*
X0045549Y0014146D02*
X0045150D01*
X0044945Y0014350D01*
X0042300D01*
X0041900Y0013950D01*
Y0012550D01*
X0040400Y0011050D01*
Y0009850D01*
X0040906Y0009344D01*
X0041850D01*
X0041856Y0009350D01*
X0042450D01*
X0042494Y0009394D01*
X0043189D01*
X0035750Y0000780D02*
X0035830D01*
X0036604Y0001554D01*
Y0002049D01*
X0049250Y0028470D02*
X0048614D01*
X0048500Y0028356D01*
X0047000Y0051030D02*
X0046550Y0051480D01*
Y0052500D01*
X0046450Y0052600D01*
X0007000Y-0009030D02*
Y-0010600D01*
X0041250Y0020995D02*
X0040250D01*
X0050700Y0017350D02*
X0050750Y0017300D01*
Y0016280D01*
X0004250Y0078005D02*
Y0076745D01*
X0035000Y0000220D02*
X0035200D01*
X0035350Y0000370D01*
Y0000950D01*
X0035500Y0001100D01*
X0035800D01*
X0036348Y0001648D01*
Y0002049D01*
X0047616Y0063701D02*
Y0064684D01*
X0047350Y0064950D01*
Y0065000D01*
X0047410D01*
X0037250Y-0006780D02*
X0037770D01*
X0037830Y-0006720D01*
X0038250D01*
X0045500Y0055495D02*
X0045455D01*
X0045100Y0055850D01*
Y0057400D01*
X0044850Y0057650D01*
Y0058550D01*
X0045253Y0058953D01*
X0045492D01*
X0003651Y0009299D02*
Y0008898D01*
X0004000Y0008550D01*
X0004550D01*
X0004791Y0008309D01*
Y0008262D01*
X0011250Y0008030D02*
Y0008200D01*
X0011854Y0008804D01*
Y0009299D01*
X0042500Y0003856D02*
Y0003030D01*
X0038500Y0076780D02*
X0037750D01*
X0043000Y0004644D02*
X0042500D01*
X0005548Y0017098D02*
X0005610D01*
X0006900Y0014290D02*
X0006890Y0014300D01*
X0006050D01*
X0005700Y0013950D01*
X0005200D01*
X0004550Y0013300D01*
X0004200D01*
X0004100Y0013200D01*
Y0012900D01*
X0003396Y0012196D01*
Y0011701D01*
X0001500Y0017030D02*
Y0017450D01*
X0002104Y0018054D01*
Y0018549D01*
X-0001250Y-0009030D02*
Y-0010600D01*
X0015130Y0014650D02*
X0014830Y0014350D01*
Y0012450D01*
X0014630Y0012250D01*
X0013696D01*
X0013646Y0012200D01*
Y0011701D01*
X0001593Y0018549D02*
X0000750Y0017707D01*
Y0017030D01*
X0047951Y0012610D02*
X0048980D01*
X0049090Y0012500D01*
X0029500Y-0007660D02*
X0030460D01*
X0031749Y-0008950D01*
X0032499D01*
X0034425Y-0010875D01*
Y-0010893D01*
X0013050Y0005900D02*
X0013550Y0006400D01*
X0015380D01*
X0015750Y0006030D01*
X0049470Y0013500D02*
X0048950D01*
X0048816Y0013634D01*
X0047951D01*
X0012500Y0078530D02*
X0011750D01*
X0048250Y0056606D02*
Y0056030D01*
X0049689Y0068394D02*
X0050506D01*
X0051100Y0067800D01*
Y0066000D01*
X0050750Y0065650D01*
X0049600D01*
X0049150Y0065200D01*
Y0064400D01*
X0048896Y0064146D01*
Y0063701D01*
X0002884Y0011701D02*
Y0012534D01*
X0003354Y0013000D01*
X0003500D01*
Y0013090D01*
X0037574Y-0010893D02*
X0037581Y-0010900D01*
X0038550D01*
X0048250Y0023245D02*
Y0024600D01*
X0048863Y0025213D01*
X0049689D01*
X0041250Y0018220D02*
Y0017530D01*
X0047811Y0046431D02*
X0050600D01*
Y0044850D02*
X0050700Y0044750D01*
Y0043450D01*
X0049450Y0042200D01*
Y0039350D01*
X0049128Y0039028D01*
Y0038201D01*
X0049689Y0026787D02*
X0048763D01*
X0047800Y0027750D01*
X0045280D01*
X0008500Y0021106D02*
Y0020280D01*
X0043250Y0056470D02*
Y0055030D01*
X0037250Y-0006220D02*
X0036770D01*
X0036750D01*
Y-0006200D01*
Y-0005400D01*
X0004750Y0003856D02*
X0004006D01*
X0004000Y0003850D01*
X0035000Y0000780D02*
Y0000950D01*
X0035399Y0001349D01*
X0035649D01*
X0035749Y0001449D01*
X0035750D01*
X0036093Y0001789D01*
Y0002049D01*
X0043700Y0021100D02*
X0043750D01*
Y0020280D01*
X0011750Y0013340D02*
X0012366Y0012724D01*
Y0011701D01*
X0003896Y0020951D02*
Y0021500D01*
X0004100Y0021704D01*
Y0022150D01*
X0003500Y0022750D01*
Y0026450D01*
X0002556Y0027394D01*
X0001189D01*
X0041811Y0008606D02*
X0042300D01*
X0042394Y0008700D01*
X0043100D01*
X0043300Y0011250D02*
X0043100Y0011450D01*
Y0012200D01*
X0043550Y0012650D01*
X0044150D01*
X0044622Y0013122D01*
X0045549D01*
X0011598Y0011701D02*
Y0012100D01*
X0011498Y0012200D01*
X0009000D01*
X0008927Y0012127D01*
Y0011648D01*
X0048872Y0038201D02*
Y0039122D01*
X0049200Y0039450D01*
Y0042300D01*
X0050450Y0043550D01*
Y0044500D01*
X0050094Y0044856D01*
X0047811D01*
X0046250Y0002720D02*
Y0002700D01*
X0046200Y0002750D01*
X0045900D01*
X0045550Y0002400D01*
X0045250D01*
X0045200Y0002350D01*
X0046848Y0061299D02*
Y0060498D01*
X0046600Y0060250D01*
Y0060050D01*
X0046270Y0059720D01*
X0046250D01*
X0050200Y0030100D02*
X0050800D01*
X0051000Y0030300D01*
Y0031650D01*
Y0032250D01*
X-0000500Y-0009030D02*
Y-0010600D01*
X0042250Y0034220D02*
X0041500D01*
X0047000Y0050470D02*
X0046250D01*
X0001000Y-0009030D02*
Y-0010600D01*
X0031800Y0076100D02*
X0032250D01*
X0012500Y0077500D02*
Y0077970D01*
X0011750Y0003720D02*
X0012070D01*
X0012500Y0004150D01*
Y0004394D01*
X0049470Y0010250D02*
X0049250D01*
X0047951Y0011549D01*
Y0011843D01*
X0046250Y0001470D02*
X0045380Y0000600D01*
X0045200D01*
X0046500Y0033970D02*
X0046570D01*
X0046850Y0034250D01*
Y0034850D01*
X0047200Y0035200D01*
X0047648D01*
X0047848Y0035400D01*
Y0035799D01*
X0048311Y0069181D02*
X0047481D01*
X0047000Y0068700D01*
Y0067300D01*
X0048128Y0066172D01*
Y0063701D01*
X0033750Y0079220D02*
X0032750D01*
X0009000Y0079030D02*
X0008000D01*
X0021000Y-0009530D02*
X0021070D01*
X0021630Y-0008970D01*
X0021750D01*
X0047250Y0031720D02*
Y0030950D01*
X0047300Y0030900D01*
X0002628Y0011701D02*
Y0013025D01*
X0003152Y0013550D01*
X0004450D01*
X0005100Y0014200D01*
X0005550D01*
X0005950Y0014600D01*
X0007500D01*
X0008100Y0014000D01*
X-0000500Y-0006650D02*
X-0000900Y-0006250D01*
X-0001650D01*
X-0001930Y-0005970D01*
X-0002000D01*
X0039500Y-0009030D02*
Y-0009500D01*
X0045000Y-0008700D02*
Y-0007964D01*
X0040250Y0017505D02*
Y0016530D01*
X0006250Y-0009030D02*
Y-0010600D01*
X0013000Y-0007220D02*
Y-0007150D01*
X0012250Y-0006400D01*
Y-0006280D01*
X0040250Y0014720D02*
X0039500D01*
X0009450Y0003600D02*
X0009500D01*
Y0003650D01*
X0009350D02*
X0009400Y0003600D01*
X0009450D01*
X0009250Y0020280D02*
X0009450D01*
Y0020450D01*
X0010000Y0021000D01*
Y0021106D01*
G54D81*
G01X0023000Y-0009551D02*
X0023001Y-0009550D01*
X0023450D01*
X0023000Y-0008449D02*
X0023599D01*
X0023950Y-0008800D01*
Y-0009800D01*
X0023900Y-0009850D01*
Y-0011050D01*
X0024600Y-0011750D01*
X0026250D01*
X0023000Y-0007464D02*
X0023065Y-0007530D01*
X0024250D01*
X0018950Y-0005500D02*
X0020950D01*
X0021550D02*
X0020950D01*
X0018950D01*
X0023000Y-0007464D02*
X0022760Y-0007720D01*
X0021750D01*
X0023000Y-0007464D02*
Y-0008449D01*
X0042999Y-0005868D02*
X0041597D01*
X0041214Y-0006250D01*
X0046004Y-0010750D02*
X0046788D01*
X0047039Y-0011000D01*
X0048105D01*
X0048450Y-0010655D01*
Y-0010310D01*
X0048508Y-0010252D01*
Y-0010250D01*
G54D82*
G01X0046250Y0074155D02*
Y0072780D01*
X0046570D01*
X0046800Y0072550D01*
Y0071800D01*
X0045996Y0070996D01*
X0045500D01*
X0044250Y0061984D02*
Y0062000D01*
X0044300Y0062050D01*
X0044550Y0062300D01*
X0044250D01*
Y0070050D01*
X0045196Y0070996D01*
X0045500D01*
X0045150Y0064350D02*
X0044800Y0064000D01*
Y0062550D01*
X0044550Y0062300D01*
X0044300Y0062050D01*
X0044250Y0062000D01*
Y0061984D01*
X0041380Y0000720D02*
X0041000D01*
X0041380D02*
X0041000D01*
X0039250Y-0002900D02*
Y-0003400D01*
X0037700Y-0002550D02*
X0037430Y-0002280D01*
X0037000D01*
X0042500Y0002470D02*
X0042020D01*
X0041800Y0002250D01*
X0049370Y0077750D02*
Y0076630D01*
X0049250Y0076510D01*
X0047250Y0073850D02*
X0046925D01*
X0046750Y0073675D01*
Y0073500D01*
X0044750D02*
Y0074155D01*
X0044250Y0061984D02*
Y0062000D01*
X0044300Y0062050D01*
X0044750Y0074155D02*
X0044650Y0074255D01*
Y0075200D01*
X0044010Y0075840D01*
X0043500D01*
X0049689Y0071606D02*
X0049900Y0071817D01*
Y0073850D01*
X0049760Y0073990D01*
X0049250D01*
X0042999Y-0005868D02*
Y-0005200D01*
X0043250Y-0004950D01*
X0049250Y0073990D02*
X0048560D01*
X0047900Y0074650D01*
X0047250D01*
X0048311Y0072394D02*
Y0072439D01*
X0047250Y0073500D01*
Y0073850D01*
X0049250Y0076510D02*
Y0076345D01*
X0046250D01*
G54D83*
G01X0040750Y0004484D02*
Y0005600D01*
Y0005650D01*
X0044516Y0017000D02*
Y0017616D01*
X0045100Y0018200D01*
X0046050D01*
X0046350Y0018500D01*
X0044516Y0017000D02*
Y0017616D01*
X0045100Y0018200D01*
X0046050D01*
X0046350Y0018500D01*
X0040750Y0004484D02*
Y0005600D01*
Y0005650D01*
Y0004484D02*
Y0005600D01*
X0040800Y0005650D02*
X0044750D01*
X0044500Y0016984D02*
Y0016350D01*
X0040970Y-0008470D02*
X0040200Y-0007700D01*
Y-0004900D01*
X0040850Y-0004250D01*
X0044550D01*
X0041250Y-0008543D02*
X0042107D01*
X0043000Y-0007650D01*
Y-0007633D01*
X0047516Y-0006266D02*
X0047250Y-0006000D01*
X0045035D01*
X0045000Y-0006035D01*
X0016000Y0011484D02*
Y0012550D01*
X0005750Y0011484D02*
X0005850Y0011584D01*
Y0012550D01*
X0043000Y-0007633D02*
X0042750Y-0007383D01*
X0043870D01*
X0045000Y-0006250D01*
Y-0006035D01*
X0006500Y0020984D02*
Y0021900D01*
Y0020984D01*
X0047050Y0039200D02*
X0046566D01*
X0046250Y0039516D01*
X0046566Y0039200D01*
X0047050D01*
X0044500Y0016350D02*
Y0016984D01*
X0040750Y0005650D02*
Y0005600D01*
Y0004484D01*
Y0005650D02*
Y0005600D01*
Y0004484D01*
Y0005600D01*
X0040800Y0005650D02*
X0044750D01*
X0044516Y0017000D02*
Y0017616D01*
X0045100Y0018200D01*
X0046050D01*
X0046350Y0018500D01*
X0040970Y-0008470D02*
X0040200Y-0007700D01*
Y-0004900D01*
X0040850Y-0004250D01*
X0044550D01*
X0044750Y0005650D02*
X0040800D01*
X0040750Y0005600D02*
Y0004484D01*
X0046250Y0039516D02*
X0046566Y0039200D01*
X0047050D01*
X0045300Y0061700D02*
X0045000Y0062000D01*
X0044300D01*
X0044266D01*
X0040970Y-0008470D02*
X0040200Y-0007700D01*
Y-0004900D01*
X0040850Y-0004250D01*
X0044550D01*
X0039250Y-0002900D02*
X0040550D01*
X0041350Y-0002100D01*
Y-0001100D01*
X0041250Y-0001000D01*
X0040750Y0004484D02*
Y0005600D01*
X0040800Y0005650D02*
X0044750D01*
X0026250Y-0011750D02*
X0039900D01*
X0040193Y-0011457D01*
X0041250D01*
X0026250Y-0011750D02*
X0039900D01*
X0040193Y-0011457D01*
X0041250D01*
X0040970Y-0008470D02*
X0040200Y-0007700D01*
Y-0004900D01*
X0040850Y-0004250D01*
X0044550D01*
X0044300Y0062000D02*
X0045000D01*
X0045300Y0061700D01*
X0047050Y0039200D02*
X0046566D01*
X0046250Y0039516D01*
X0044516Y0017000D02*
Y0017616D01*
X0045100Y0018200D01*
X0046050D01*
X0046350Y0018500D01*
X0043496Y-0010750D02*
Y-0010000D01*
X0043946Y-0009550D01*
X0046200D01*
X0047516Y-0008234D01*
X0049484D02*
X0049492Y-0008242D01*
Y-0010250D01*
X0041300Y-0008550D02*
X0041250Y-0008543D01*
G54D10*
X0000000Y0000000D03*
X0047638D03*
Y0080311D03*
X0000000D03*
G54D11*
X0041338Y0079524D03*
X0005315D03*
X0002854Y0050209D03*
X0030315Y0041500D03*
X0044291Y0057968D03*
X-0002000Y0079000D03*
X0050750Y-0003500D03*
X-0003000Y-0011250D03*
G54D12*
X0002250Y-0003720D03*
Y-0004280D03*
X0012250Y-0007780D03*
Y-0007220D03*
X0011500Y-0007780D03*
Y-0007220D03*
X0010750Y-0007780D03*
Y-0007220D03*
X0024250Y0003280D03*
Y0002720D03*
X0019250Y0003280D03*
Y0002720D03*
Y0004530D03*
Y0003970D03*
X0023500Y0002720D03*
Y0003280D03*
X0020250Y-0008970D03*
Y-0009530D03*
X0018750Y-0008970D03*
Y-0009530D03*
X0020500Y-0010970D03*
Y-0011530D03*
X0019750D03*
Y-0010970D03*
X0018750Y-0007220D03*
Y-0007780D03*
X0021750Y-0008970D03*
Y-0009530D03*
X0021000Y-0008970D03*
Y-0009530D03*
X0021750Y-0007720D03*
Y-0008280D03*
X0010000Y-0007220D03*
Y-0007780D03*
X0009250Y-0007220D03*
Y-0007780D03*
X0014500D03*
Y-0007220D03*
X0008500Y-0008470D03*
Y-0009030D03*
X0007750Y-0008470D03*
Y-0009030D03*
X0007000Y-0008470D03*
Y-0009030D03*
X0006250Y-0008470D03*
Y-0009030D03*
X0005500Y-0008470D03*
Y-0009030D03*
X0004750Y-0008470D03*
Y-0009030D03*
X0004000Y-0008470D03*
Y-0009030D03*
X0003250Y-0008470D03*
Y-0009030D03*
X0002500Y-0008470D03*
Y-0009030D03*
X0001750Y-0008470D03*
Y-0009030D03*
X0001000Y-0008470D03*
Y-0009030D03*
X0000250Y-0008470D03*
Y-0009030D03*
X-0000500Y-0008470D03*
Y-0009030D03*
X-0001250Y-0008470D03*
Y-0009030D03*
X0002250Y-0002470D03*
Y-0003030D03*
Y-0001220D03*
Y-0001780D03*
X0008500Y-0007220D03*
Y-0007780D03*
X-0002000Y-0005970D03*
Y-0006530D03*
X0033750Y0079220D03*
Y0079780D03*
X0032750Y0077970D03*
Y0078530D03*
X0033750D03*
Y0077970D03*
X0035000Y0079220D03*
Y0079780D03*
X0037000D03*
Y0079220D03*
X0011750Y0078530D03*
Y0077970D03*
X0009750Y0079030D03*
Y0078470D03*
X0011000Y0078530D03*
Y0077970D03*
X0009000Y0078470D03*
Y0079030D03*
X0008000D03*
Y0078470D03*
X0002750Y0043530D03*
Y0042970D03*
X0000750D03*
Y0043530D03*
X-0000250Y0044720D03*
Y0045280D03*
X0000500Y0047720D03*
Y0048280D03*
X-0000250D03*
Y0047720D03*
X0041500Y0033030D03*
Y0032470D03*
X0042250Y0034780D03*
Y0034220D03*
X0041500D03*
Y0034780D03*
X0033500Y0033720D03*
Y0034280D03*
X0032750D03*
Y0033720D03*
X0045500Y0050470D03*
Y0051030D03*
Y0049220D03*
Y0049780D03*
X0047000Y0050470D03*
Y0051030D03*
X0043250Y0056470D03*
Y0057030D03*
X0044500D03*
Y0056470D03*
Y0019720D03*
Y0020280D03*
X0042250D03*
Y0019720D03*
X0043750D03*
Y0020280D03*
X0040250Y0014720D03*
Y0015280D03*
X0038750Y0013470D03*
Y0014030D03*
Y0014720D03*
Y0015280D03*
X0041250Y0016970D03*
Y0017530D03*
Y0018220D03*
Y0018780D03*
X0049250Y0028470D03*
Y0029030D03*
X0047250Y0032280D03*
Y0031720D03*
X0045250Y0032280D03*
Y0031720D03*
X0047750Y0028470D03*
Y0029030D03*
X0046250Y0028470D03*
Y0029030D03*
X0049500Y0034530D03*
Y0033970D03*
X0010000Y0020280D03*
Y0019720D03*
X0007000Y0016970D03*
Y0017530D03*
X0012500Y0018780D03*
Y0018220D03*
X0008500Y0019720D03*
Y0020280D03*
X0009250Y0019720D03*
Y0020280D03*
X0003500Y0017030D03*
Y0016470D03*
X0007750Y0003970D03*
Y0004530D03*
X0007000Y0007780D03*
Y0007220D03*
X0008000Y0006030D03*
Y0005470D03*
X0005500Y0003970D03*
Y0004530D03*
X0007000Y0003970D03*
Y0004530D03*
X0003250Y0008030D03*
Y0007470D03*
X0050750Y0022470D03*
Y0023030D03*
Y0015720D03*
Y0016280D03*
X0046250Y0021280D03*
Y0020720D03*
X0050000Y0019220D03*
Y0019780D03*
X0049000Y0019220D03*
Y0019780D03*
X0044500Y0004530D03*
Y0003970D03*
X0046250Y0002030D03*
Y0001470D03*
Y0003280D03*
Y0002720D03*
X0043250Y0002470D03*
Y0003030D03*
X0042500Y0002470D03*
Y0003030D03*
X0038000Y0001030D03*
Y0000470D03*
X0045750Y0057030D03*
Y0056470D03*
X0050750Y0055220D03*
Y0055780D03*
Y0053470D03*
Y0054030D03*
X0048250Y0055470D03*
Y0056030D03*
X0047500Y0055470D03*
Y0056030D03*
X0048750Y0060030D03*
Y0059470D03*
X0014000Y0003720D03*
Y0004280D03*
X0015000Y0004780D03*
Y0004220D03*
X0015750Y0005470D03*
Y0006030D03*
X0011000Y0003720D03*
Y0004280D03*
X0011750D03*
Y0003720D03*
X0013250Y0008030D03*
Y0007470D03*
X0013000Y-0007780D03*
Y-0007220D03*
X0012250Y-0006280D03*
Y-0005720D03*
X0013750D03*
Y-0006280D03*
Y-0007220D03*
Y-0007780D03*
X0038500Y0076220D03*
Y0076780D03*
X0037750D03*
Y0076220D03*
X0039000Y0077720D03*
Y0078280D03*
X0044750Y0072780D03*
Y0072220D03*
X0046250D03*
Y0072780D03*
X0030500Y-0000280D03*
Y0000280D03*
X0032750Y-0000280D03*
Y0000280D03*
X0038250Y-0003530D03*
Y-0002970D03*
X0035750Y-0006220D03*
Y-0006780D03*
X0037250Y-0006220D03*
Y-0006780D03*
X0038250Y-0002280D03*
Y-0001720D03*
X0035500Y-0002280D03*
Y-0001720D03*
X0034750Y-0002280D03*
Y-0001720D03*
X0038250Y-0004220D03*
Y-0004780D03*
X0024750Y0011530D03*
Y0010970D03*
X0038250Y-0005470D03*
Y-0006030D03*
X0020000Y0003280D03*
Y0002720D03*
X0020750Y0003280D03*
Y0002720D03*
X0022750Y0003280D03*
Y0002720D03*
X0023250Y0010970D03*
Y0011530D03*
X0024750Y0012220D03*
Y0012780D03*
X0019500Y-0008970D03*
Y-0009530D03*
X0018000Y-0008970D03*
Y-0009530D03*
Y-0007780D03*
Y-0007220D03*
X0024250Y-0007530D03*
Y-0006970D03*
X0037000Y-0001720D03*
Y-0002280D03*
X0039500Y-0009030D03*
Y-0008470D03*
X0032750Y0079220D03*
Y0079780D03*
X0035750Y0076280D03*
Y0075720D03*
X0033750Y0076470D03*
Y0077030D03*
X0037000Y0078280D03*
Y0077720D03*
X0012500Y0078530D03*
Y0077970D03*
X0007750Y0076280D03*
Y0075720D03*
X0010000Y0076970D03*
Y0077530D03*
X0008500Y0076280D03*
Y0075720D03*
X0001750Y0043530D03*
Y0042970D03*
X-0000250Y0046780D03*
Y0046220D03*
X0002750D03*
Y0046780D03*
Y0045280D03*
Y0044720D03*
X0042250Y0033030D03*
Y0032470D03*
X0037500D03*
Y0033030D03*
X0033500Y0032780D03*
Y0032220D03*
X0035500Y0033720D03*
Y0034280D03*
X0044500Y0051720D03*
Y0052280D03*
X0046250Y0050470D03*
Y0051030D03*
X0043250Y0054470D03*
Y0055030D03*
X0044500Y0052970D03*
Y0053530D03*
X0043000Y0019720D03*
Y0020280D03*
X0039500Y0014720D03*
Y0015280D03*
X0040250Y0016530D03*
Y0015970D03*
X0041250Y0015720D03*
Y0016280D03*
X0039250Y0019220D03*
Y0019780D03*
X0043250Y0038970D03*
Y0039530D03*
X0046500Y0034530D03*
Y0033970D03*
X0047250Y0034530D03*
Y0033970D03*
X0049500Y0032220D03*
Y0032780D03*
X-0002250Y0021720D03*
Y0022280D03*
X0000750Y0017030D03*
Y0016470D03*
X0001500Y0017030D03*
Y0016470D03*
X0006250Y0016970D03*
Y0017530D03*
X-0002750Y0012470D03*
Y0013030D03*
X0000500Y0008030D03*
Y0007470D03*
X0001250Y0008030D03*
Y0007470D03*
X0006250Y0007220D03*
Y0007780D03*
X0045250Y0006530D03*
Y0005970D03*
X0049250Y0015970D03*
Y0016530D03*
X0032250Y0005220D03*
Y0005780D03*
X0035000Y0000780D03*
Y0000220D03*
X0035750Y0000780D03*
Y0000220D03*
X0041000Y0000720D03*
Y0001280D03*
X0048250Y0052720D03*
Y0053280D03*
X0046250Y0060280D03*
Y0059720D03*
X0046500Y0058470D03*
Y0059030D03*
X0050500Y0060030D03*
Y0059470D03*
X0010500Y0008030D03*
Y0007470D03*
X0011250Y0008030D03*
Y0007470D03*
X0015000Y0006030D03*
Y0005470D03*
X0013000Y-0005720D03*
Y-0006280D03*
X0018000Y-0005720D03*
Y-0006280D03*
X0045500Y0072220D03*
Y0072780D03*
X0038250Y-0007280D03*
Y-0006720D03*
X0035500Y-0007470D03*
Y-0008030D03*
X0037500Y-0007470D03*
Y-0008030D03*
X0036250Y-0001720D03*
Y-0002280D03*
G54D13*
X0045500Y0070996D03*
Y0068004D03*
G54D14*
X0050150Y0014500D03*
X0049350D03*
X0045350Y0077500D03*
X0046150D03*
G54D15*
X0025500Y0003150D03*
Y0002350D03*
X0002500Y-0005850D03*
Y-0006650D03*
X0008500Y-0010600D03*
Y-0011400D03*
X0007750Y-0010600D03*
Y-0011400D03*
X0007000Y-0010600D03*
Y-0011400D03*
X0006250Y-0010600D03*
Y-0011400D03*
X0005500Y-0010600D03*
Y-0011400D03*
X0004750Y-0010600D03*
Y-0011400D03*
X0004000Y-0010600D03*
Y-0011400D03*
X0003250Y-0010600D03*
Y-0011400D03*
X0002500Y-0010600D03*
Y-0011400D03*
X0001750Y-0010600D03*
Y-0011400D03*
X0001000Y-0010600D03*
Y-0011400D03*
X0000250Y-0010600D03*
Y-0011400D03*
X-0000500Y-0010600D03*
Y-0011400D03*
X-0001250Y-0010600D03*
Y-0011400D03*
X0000250Y-0005850D03*
Y-0006650D03*
X-0000500Y-0005850D03*
Y-0006650D03*
X-0001250Y-0005850D03*
Y-0006650D03*
X0001750Y-0005850D03*
Y-0006650D03*
X0001000Y-0005850D03*
Y-0006650D03*
X0024000Y0010850D03*
Y0011650D03*
X0050000Y0029150D03*
Y0028350D03*
X0050250Y0033850D03*
Y0034650D03*
X0009250Y0021100D03*
Y0021900D03*
X0004250Y0016350D03*
Y0017150D03*
X0004000Y0004650D03*
Y0003850D03*
Y0007350D03*
Y0008150D03*
X0050000Y0022900D03*
Y0022100D03*
X0043750Y0003850D03*
Y0004650D03*
X0038750Y0000350D03*
Y0001150D03*
X0046500Y0056600D03*
Y0057400D03*
X0049750Y0059350D03*
Y0060150D03*
X0013250Y0004400D03*
Y0003600D03*
X0014000Y0007350D03*
Y0008150D03*
X0047250Y0073850D03*
Y0074650D03*
G54D16*
X0046250Y0039516D03*
Y0041484D03*
X0006500Y0020984D03*
Y0019016D03*
X0005750Y0011484D03*
Y0009516D03*
X0040750Y0004484D03*
Y0002516D03*
X0044250Y0061984D03*
Y0060016D03*
X0016000Y0011484D03*
Y0009516D03*
G54D17*
X0001000Y-0003410D03*
Y-0002090D03*
X0048500Y0041160D03*
Y0039840D03*
X0050000Y0041160D03*
Y0039840D03*
X0001250Y0024160D03*
Y0022840D03*
X0002900Y0024160D03*
Y0022840D03*
X0001750Y0014410D03*
Y0013090D03*
X0003500Y0014410D03*
Y0013090D03*
X0042500Y0014910D03*
Y0013590D03*
X0043750Y0014910D03*
Y0013590D03*
X0037750Y0007410D03*
Y0006090D03*
X0039000Y0007410D03*
Y0006090D03*
X0011750Y0014660D03*
Y0013340D03*
X0014250Y0014660D03*
Y0013340D03*
X0043500Y0077160D03*
Y0075840D03*
X0029500Y-0006340D03*
Y-0007660D03*
X0031750Y-0006340D03*
Y-0007660D03*
X0021750Y0003160D03*
Y0001840D03*
X0048250Y0033090D03*
Y0034410D03*
X0002500Y0015590D03*
Y0016910D03*
X0002250Y0006840D03*
Y0008160D03*
X0036750Y-0000410D03*
Y0000910D03*
X0047500Y0058340D03*
Y0059660D03*
X0012250Y0006840D03*
Y0008160D03*
G54D18*
X0045280Y0027000D03*
X0044720D03*
X0045280Y0027750D03*
X0044720D03*
X0049470Y0013500D03*
X0050030D03*
X0027030Y0007750D03*
X0026470D03*
Y0007000D03*
X0027030D03*
X0019030Y0008250D03*
X0018470D03*
X0019030Y0005500D03*
X0018470D03*
X0025780Y-0010250D03*
X0025220D03*
X0046220Y0024750D03*
X0046780D03*
X0045970Y0027000D03*
X0046530D03*
X0045530Y0024750D03*
X0044970D03*
X0049470Y0010250D03*
X0050030D03*
X0049470Y0011000D03*
X0050030D03*
X0007470Y0012500D03*
X0008030D03*
G54D19*
X0044516Y0017000D03*
X0046484D03*
G54D20*
X0046090Y0065000D03*
X0047410D03*
X0049910D03*
X0048590D03*
X0050410Y0012500D03*
X0049090D03*
G54D21*
X0023000Y-0007464D03*
Y-0005535D03*
X0045000Y-0006035D03*
Y-0007964D03*
G54D22*
X0025285Y-0009000D03*
X0027214D03*
X0025285Y-0007250D03*
X0027214D03*
Y-0001000D03*
X0025285D03*
X0027214Y-0002750D03*
X0025285D03*
X0041214Y-0006250D03*
X0039285D03*
G54D23*
X0039250Y-0002900D03*
Y-0001600D03*
G54D24*
X0003300Y-0004000D03*
X0004200Y-0004400D03*
Y-0003600D03*
X0020450Y-0007750D03*
X0019550Y-0007350D03*
Y-0008150D03*
X0003300Y-0002250D03*
X0004200Y-0002650D03*
Y-0001850D03*
X0003300Y-0000500D03*
X0004200Y-0000900D03*
Y-0000100D03*
X0032700Y0076500D03*
X0031800Y0076900D03*
Y0076100D03*
X0011950Y0076500D03*
X0011050Y0076900D03*
Y0076100D03*
X0001700Y0044750D03*
X0000800Y0045150D03*
Y0044350D03*
X0040700Y0034250D03*
X0039800Y0034650D03*
Y0033850D03*
X0045550Y0053000D03*
X0046450Y0052600D03*
Y0053400D03*
X0042800Y0021500D03*
X0043700Y0021100D03*
Y0021900D03*
X0039200Y0016500D03*
X0038300Y0016900D03*
Y0016100D03*
X0048200Y0030500D03*
X0047300Y0030900D03*
Y0030100D03*
X0046200Y0030500D03*
X0045300Y0030900D03*
Y0030100D03*
X0049300Y0030500D03*
X0050200Y0030100D03*
Y0030900D03*
X0009450Y0018500D03*
X0008550Y0018900D03*
Y0018100D03*
X0010550Y0018500D03*
X0011450Y0018100D03*
Y0018900D03*
X0006200Y0015750D03*
X0005300Y0016150D03*
Y0015350D03*
X0006950Y0006000D03*
X0006050Y0006400D03*
Y0005600D03*
X0008550Y0004000D03*
X0009450Y0003600D03*
Y0004400D03*
X0004950Y0006000D03*
X0004050Y0006400D03*
Y0005600D03*
X0049800Y0017750D03*
X0050700Y0017350D03*
Y0018150D03*
X0047950Y0019750D03*
X0047050Y0020150D03*
Y0019350D03*
X0047800Y0017750D03*
X0048700Y0017350D03*
Y0018150D03*
X0044300Y0001000D03*
X0045200Y0000600D03*
Y0001400D03*
X0044300Y0002750D03*
X0045200Y0002350D03*
Y0003150D03*
X0042300Y0001000D03*
X0043200Y0000600D03*
Y0001400D03*
X0049050Y0056250D03*
X0049950Y0055850D03*
Y0056650D03*
X0049050Y0054500D03*
X0049950Y0054100D03*
Y0054900D03*
X0049050Y0058000D03*
X0049950Y0057600D03*
Y0058400D03*
X0011050Y0005500D03*
X0011950Y0005100D03*
Y0005900D03*
X0013950Y0005500D03*
X0013050Y0005900D03*
Y0005100D03*
X0009050Y0005750D03*
X0009950Y0005350D03*
Y0006150D03*
X0040200Y0076250D03*
X0039300Y0076650D03*
Y0075850D03*
X0042200Y0076250D03*
X0041300Y0076650D03*
Y0075850D03*
X0039450Y-0010500D03*
X0038550Y-0010100D03*
Y-0010900D03*
G54D25*
X0048500Y0028356D03*
Y0029144D03*
X0047000Y0028356D03*
Y0029144D03*
X0008500Y0021894D03*
Y0021106D03*
X0010000Y0021894D03*
Y0021106D03*
X0004750Y0003856D03*
Y0004644D03*
X0006250Y0003856D03*
Y0004644D03*
X0050000Y0021144D03*
Y0020356D03*
X0049000Y0021144D03*
Y0020356D03*
X0042500Y0004644D03*
Y0003856D03*
X0043000Y0004644D03*
Y0003856D03*
X0048250Y0057394D03*
Y0056606D03*
X0047500Y0057394D03*
Y0056606D03*
X0010250Y0003606D03*
Y0004394D03*
X0012500Y0003606D03*
Y0004394D03*
X0030500Y-0007144D03*
Y-0006356D03*
X0032750Y-0007144D03*
Y-0006356D03*
G54D26*
X0049370Y0077750D03*
X0047630D03*
G54D27*
X0023000Y-0008449D03*
Y-0009551D03*
G54D28*
X0046004Y-0010750D03*
X0043496D03*
G54D29*
X0049484Y-0006266D03*
X0047516D03*
X0046531Y-0007250D03*
X0047516Y-0008234D03*
X0049484D03*
X0048500Y-0007250D03*
G54D30*
X0041250Y-0011457D03*
Y-0008543D03*
G54D31*
X0037574Y-0010106D03*
X0036787Y-0010893D03*
Y-0010106D03*
X0036000Y-0010893D03*
Y-0010106D03*
X0035213Y-0010893D03*
Y-0010106D03*
X0034425Y-0010893D03*
Y-0010106D03*
G54D32*
X0037574Y-0010893D03*
G54D33*
X0019386Y-0010144D03*
X0022850D03*
X0024423D03*
X0026313D03*
X0049394Y0027220D03*
Y0024543D03*
X0048894Y0046864D03*
Y0043400D03*
X0000894Y0028614D03*
Y0025150D03*
X0007894Y0013386D03*
Y0016850D03*
X0042894Y0010614D03*
Y0007150D03*
X0045114Y0004894D03*
X0041650D03*
X0049394Y0069614D03*
Y0066150D03*
X0012894Y0013386D03*
Y0016850D03*
X0015029Y-0010144D03*
X0017707D03*
X0049394Y0072827D03*
Y0070937D03*
G54D34*
X0049689Y0025213D03*
Y0026787D03*
X0048311Y0026000D03*
X0049189Y0044069D03*
Y0045644D03*
X0047811Y0046431D03*
Y0044856D03*
X0001189Y0025819D03*
Y0027394D03*
X-0000189Y0028181D03*
Y0026606D03*
X0043189Y0007819D03*
Y0009394D03*
X0041811Y0010181D03*
Y0008606D03*
X0049689Y0066819D03*
Y0068394D03*
X0048311Y0069181D03*
Y0067606D03*
X0049689Y0071606D03*
X0048311Y0072394D03*
G54D35*
X0049000Y-0010777D03*
G54D36*
X0047653Y-0010250D03*
X0050346D03*
G54D37*
X0049492D03*
G54D38*
X0048508D03*
G54D39*
X0031000Y-0010750D03*
X0032000D03*
Y-0009750D03*
X0031000D03*
X0030000D03*
G54D40*
X0043250Y-0001000D03*
X0030000Y-0010750D03*
G54D41*
X0036303Y-0007400D03*
Y-0008600D03*
X0036697D03*
Y-0007400D03*
G54D42*
X0049250Y0076510D03*
Y0073990D03*
G54D43*
X0043000Y-0007633D03*
X0042999Y-0005868D03*
G54D44*
X0001653Y0050209D03*
X0004055D03*
Y0051193D03*
X0001653D03*
X0031516Y0041500D03*
X0029114D03*
Y0040516D03*
X0031516D03*
X0043090Y0057968D03*
X0045492D03*
Y0058953D03*
X0043090D03*
G54D45*
X0042323Y0079524D03*
X0006299D03*
X0002854Y0051193D03*
X0030315Y0040516D03*
X0044291Y0058953D03*
G54D46*
X0041338Y0080724D03*
Y0078323D03*
X0042323D03*
Y0080724D03*
X0005315D03*
Y0078323D03*
X0006299D03*
Y0080724D03*
G54D47*
X0024950Y-0005000D03*
X0018950Y-0005500D03*
G54D48*
X0027550Y-0005900D03*
Y-0005000D03*
Y-0004100D03*
X0021550Y-0006400D03*
Y-0005500D03*
Y-0004600D03*
G54D49*
X0036750Y0075755D03*
Y0076745D03*
X0034750Y0075755D03*
Y0076745D03*
X0040000Y0078005D03*
Y0078995D03*
X0038000D03*
Y0078005D03*
X0006750Y0075755D03*
Y0076745D03*
X0005500D03*
Y0075755D03*
X0004250Y0078995D03*
Y0078005D03*
Y0076745D03*
Y0075755D03*
X-0000250Y0040005D03*
Y0040995D03*
Y0043245D03*
Y0042255D03*
X0002750Y0048745D03*
Y0047755D03*
X0001500Y0048745D03*
Y0047755D03*
X0038500Y0033495D03*
Y0032505D03*
X0036500D03*
Y0033495D03*
X0030500Y0034245D03*
Y0033255D03*
X0031750D03*
Y0034245D03*
X0044500Y0049505D03*
Y0050495D03*
X0043500Y0049505D03*
Y0050495D03*
X0045500Y0055495D03*
Y0054505D03*
X0044500D03*
Y0055495D03*
X0045250Y0022255D03*
Y0023245D03*
X0046250D03*
Y0022255D03*
X0047250D03*
Y0023245D03*
X0048250Y0022255D03*
Y0023245D03*
X0041250Y0013755D03*
Y0014745D03*
X0040250Y0017505D03*
Y0018495D03*
Y0020005D03*
Y0020995D03*
X0041250D03*
Y0020005D03*
G54D50*
X0012250Y-0011313D03*
Y-0009187D03*
G54D51*
X0017002Y-0011000D03*
Y-0010000D03*
Y-0009000D03*
X0013498D03*
Y-0010000D03*
Y-0011000D03*
G54D52*
X0010500Y-0011120D03*
Y-0009380D03*
G54D53*
X0037250Y-0003000D03*
X0036750D03*
X0036250D03*
X0035750D03*
Y-0005400D03*
X0036250D03*
X0036750D03*
X0037250D03*
G54D54*
X0029500Y-0003352D03*
X0030500D03*
Y-0001148D03*
X0029500D03*
X0031750Y-0003352D03*
X0032750D03*
Y-0001148D03*
X0031750D03*
G54D55*
X0045500Y0075250D03*
G54D56*
X0046250Y0076345D03*
X0045750D03*
X0045250D03*
X0044750D03*
Y0074155D03*
X0045250D03*
X0045750D03*
X0046250D03*
G54D57*
X0015250Y-0007000D03*
Y-0007256D03*
Y-0007512D03*
Y-0007768D03*
X0017179Y-0007000D03*
Y-0007256D03*
Y-0007512D03*
Y-0007768D03*
X0015250Y-0005500D03*
Y-0005756D03*
Y-0006012D03*
Y-0006268D03*
X0017179Y-0005500D03*
Y-0005756D03*
Y-0006012D03*
Y-0006268D03*
G54D58*
X0051000Y0032250D03*
Y0032506D03*
Y0032762D03*
X0050291D03*
Y0032250D03*
X0005610Y0017098D03*
Y0017354D03*
Y0017610D03*
X0004901D03*
Y0017098D03*
X0005500Y0007750D03*
Y0008006D03*
Y0008262D03*
X0004791D03*
Y0007750D03*
X0040250Y0001000D03*
Y0001256D03*
Y0001512D03*
X0039541D03*
Y0001000D03*
X0050750Y0060750D03*
Y0061006D03*
Y0061262D03*
X0050041D03*
Y0060750D03*
X0015500Y0007250D03*
Y0007506D03*
Y0007762D03*
X0014791D03*
Y0007250D03*
G54D59*
X0049000Y0037000D03*
X0003000Y0019750D03*
X0002500Y0010500D03*
X0037500Y0003250D03*
X0048000Y0062500D03*
X0012750Y0010500D03*
G54D60*
X0047593Y0035799D03*
X0047848D03*
X0048104D03*
X0048360D03*
X0048616D03*
X0048872D03*
X0049128D03*
X0049384D03*
X0049640D03*
X0049896D03*
X0050151D03*
X0050407D03*
Y0038201D03*
X0050151D03*
X0049896D03*
X0049640D03*
X0049384D03*
X0049128D03*
X0048872D03*
X0048616D03*
X0048360D03*
X0048104D03*
X0047848D03*
X0047593D03*
X0001593Y0018549D03*
X0001848D03*
X0002104D03*
X0002360D03*
X0002616D03*
X0002872D03*
X0003128D03*
X0003384D03*
X0003640D03*
X0003896D03*
X0004151D03*
X0004407D03*
Y0020951D03*
X0004151D03*
X0003896D03*
X0003640D03*
X0003384D03*
X0003128D03*
X0002872D03*
X0002616D03*
X0002360D03*
X0002104D03*
X0001848D03*
X0001593D03*
X0001093Y0009299D03*
X0001348D03*
X0001604D03*
X0001860D03*
X0002116D03*
X0002372D03*
X0002628D03*
X0002884D03*
X0003140D03*
X0003396D03*
X0003651D03*
X0003907D03*
Y0011701D03*
X0003651D03*
X0003396D03*
X0003140D03*
X0002884D03*
X0002628D03*
X0002372D03*
X0002116D03*
X0001860D03*
X0001604D03*
X0001348D03*
X0001093D03*
X0036093Y0002049D03*
X0036348D03*
X0036604D03*
X0036860D03*
X0037116D03*
X0037372D03*
X0037628D03*
X0037884D03*
X0038140D03*
X0038396D03*
X0038651D03*
X0038907D03*
Y0004451D03*
X0038651D03*
X0038396D03*
X0038140D03*
X0037884D03*
X0037628D03*
X0037372D03*
X0037116D03*
X0036860D03*
X0036604D03*
X0036348D03*
X0036093D03*
X0046593Y0061299D03*
X0046848D03*
X0047104D03*
X0047360D03*
X0047616D03*
X0047872D03*
X0048128D03*
X0048384D03*
X0048640D03*
X0048896D03*
X0049151D03*
X0049407D03*
Y0063701D03*
X0049151D03*
X0048896D03*
X0048640D03*
X0048384D03*
X0048128D03*
X0047872D03*
X0047616D03*
X0047360D03*
X0047104D03*
X0046848D03*
X0046593D03*
X0011343Y0009299D03*
X0011598D03*
X0011854D03*
X0012110D03*
X0012366D03*
X0012622D03*
X0012878D03*
X0013134D03*
X0013390D03*
X0013646D03*
X0013901D03*
X0014157D03*
Y0011701D03*
X0013901D03*
X0013646D03*
X0013390D03*
X0013134D03*
X0012878D03*
X0012622D03*
X0012366D03*
X0012110D03*
X0011854D03*
X0011598D03*
X0011343D03*
G54D61*
X0043250Y0035500D03*
X0043506D03*
X0043762D03*
X0044018D03*
X0044273D03*
X0044529D03*
X0044785D03*
X0045041D03*
X0045297D03*
X0045553D03*
Y0038098D03*
X0045297D03*
X0045041D03*
X0044785D03*
X0044529D03*
X0044273D03*
X0044018D03*
X0043762D03*
X0043506D03*
X0043250D03*
X-0002750Y0018250D03*
X-0002494D03*
X-0002238D03*
X-0001982D03*
X-0001726D03*
X-0001470D03*
X-0001215D03*
X-0000959D03*
X-0000703D03*
X-0000447D03*
Y0020848D03*
X-0000703D03*
X-0000959D03*
X-0001215D03*
X-0001470D03*
X-0001726D03*
X-0001982D03*
X-0002238D03*
X-0002494D03*
X-0002750D03*
Y0009000D03*
X-0002494D03*
X-0002238D03*
X-0001982D03*
X-0001726D03*
X-0001470D03*
X-0001215D03*
X-0000959D03*
X-0000703D03*
X-0000447D03*
Y0011598D03*
X-0000703D03*
X-0000959D03*
X-0001215D03*
X-0001470D03*
X-0001726D03*
X-0001982D03*
X-0002238D03*
X-0002494D03*
X-0002750D03*
X0032250Y0001750D03*
X0032506D03*
X0032762D03*
X0033018D03*
X0033273D03*
X0033529D03*
X0033785D03*
X0034041D03*
X0034297D03*
X0034553D03*
Y0004348D03*
X0034297D03*
X0034041D03*
X0033785D03*
X0033529D03*
X0033273D03*
X0033018D03*
X0032762D03*
X0032506D03*
X0032250D03*
X0048250Y0049250D03*
X0048506D03*
X0048762D03*
X0049018D03*
X0049273D03*
X0049529D03*
X0049785D03*
X0050041D03*
X0050297D03*
X0050553D03*
Y0051848D03*
X0050297D03*
X0050041D03*
X0049785D03*
X0049529D03*
X0049273D03*
X0049018D03*
X0048762D03*
X0048506D03*
X0048250D03*
X0007648Y0009049D03*
X0007903D03*
X0008159D03*
X0008415D03*
X0008671D03*
X0008927D03*
X0009183D03*
X0009439D03*
X0009695D03*
X0009951D03*
Y0011648D03*
X0009695D03*
X0009439D03*
X0009183D03*
X0008927D03*
X0008671D03*
X0008415D03*
X0008159D03*
X0007903D03*
X0007648D03*
G54D62*
X0046750Y0013250D03*
G54D63*
X0047951Y0011843D03*
Y0012098D03*
Y0012354D03*
Y0012610D03*
Y0012866D03*
Y0013122D03*
Y0013378D03*
Y0013634D03*
Y0013890D03*
Y0014146D03*
Y0014401D03*
Y0014657D03*
X0045549D03*
Y0014401D03*
Y0014146D03*
Y0013890D03*
Y0013634D03*
Y0013378D03*
Y0013122D03*
Y0012866D03*
Y0012610D03*
Y0012354D03*
Y0012098D03*
Y0011843D03*
G54D64*
X0048500Y0016500D03*
X0048244D03*
X0047988D03*
Y0015791D03*
X0048500D03*
G54D65*
X0048000Y0007250D03*
Y0007506D03*
Y0007762D03*
Y0008018D03*
Y0008273D03*
Y0008529D03*
Y0008785D03*
Y0009041D03*
Y0009297D03*
Y0009553D03*
X0045402D03*
Y0009297D03*
Y0009041D03*
Y0008785D03*
Y0008529D03*
Y0008273D03*
Y0008018D03*
Y0007762D03*
Y0007506D03*
Y0007250D03*
G54D66*
X0035000Y0078500D03*
Y0078120D03*
Y0077750D03*
X0036020D03*
Y0078500D03*
X0009000Y0077000D03*
Y0077380D03*
Y0077750D03*
X0007980D03*
Y0077000D03*
X0001750Y0046000D03*
Y0046380D03*
Y0046750D03*
X0000730D03*
Y0046000D03*
X0034500Y0033000D03*
Y0032620D03*
Y0032250D03*
X0035520D03*
Y0033000D03*
X0046500Y0025500D03*
Y0025880D03*
Y0026250D03*
X0045480D03*
Y0025500D03*
X0038250Y0018500D03*
Y0018120D03*
Y0017750D03*
X0039270D03*
Y0018500D03*
G54D67*
X0043500Y0053500D03*
X0043120D03*
X0042750D03*
Y0052480D03*
X0043500D03*
G54D68*
X0042250Y-0001000D03*
X0041250D03*
G54D69*
X0008760Y-0005750D03*
Y-0006250D03*
X0011240D03*
Y-0005750D03*
G54D70*
X0024205Y0009265D03*
X0024008D03*
X0023811D03*
X0023417D03*
X0023220D03*
X0023023D03*
X0022826D03*
X0022629D03*
X0022432D03*
X0022235D03*
X0022038D03*
X0021841D03*
X0021447D03*
X0021250D03*
Y0004750D03*
X0021644D03*
X0021841D03*
X0022038D03*
X0022235D03*
X0022432D03*
X0022629D03*
X0022826D03*
X0023023D03*
X0023220D03*
X0023614D03*
X0023811D03*
X0024008D03*
X0024205D03*
G54D71*
X0023614Y0009265D03*
X0021644D03*
X0021447Y0004750D03*
X0023417D03*
G54D72*
X0024985Y0005727D03*
Y0005924D03*
Y0006121D03*
Y0006318D03*
Y0006515D03*
Y0006712D03*
Y0006909D03*
Y0007106D03*
Y0007500D03*
Y0007697D03*
Y0007894D03*
Y0008091D03*
Y0008288D03*
Y0008485D03*
X0020470D03*
Y0008288D03*
Y0008091D03*
Y0007894D03*
Y0007697D03*
Y0007500D03*
Y0007303D03*
Y0006909D03*
Y0006712D03*
Y0006515D03*
Y0006318D03*
Y0006121D03*
Y0005924D03*
Y0005727D03*
Y0005530D03*
G54D73*
X0024985D03*
Y0007303D03*
X0020470Y0007106D03*
G54D74*
X0045900Y0018600D03*
Y0018000D03*
X0046350D03*
X0046750D03*
Y0018600D03*
X0045000Y0016950D03*
X0044550Y0017450D03*
X0045000Y0016350D03*
Y0017450D03*
X0005500Y0013050D03*
X0005100Y0012550D03*
X0005850Y0013050D03*
X0005500Y0012550D03*
X0029250D03*
Y0011900D03*
X0028700D03*
Y0012550D03*
X0029250Y0013200D03*
X0028700D03*
X0029350Y0005750D03*
X0028700D03*
Y0005200D03*
X0029250D03*
Y0006200D03*
X0028700D03*
X0040400Y0005500D03*
Y0005850D03*
X0041200Y0005450D03*
Y0005850D03*
X0041650Y0005450D03*
Y0005850D03*
X0044350Y0005450D03*
Y0006000D03*
X0045200Y-0004250D03*
X0044300Y-0004700D03*
X0044900D03*
X0045450D03*
Y-0003850D03*
X0044900D03*
X0044300D03*
X0046000Y0074900D03*
X0045500D03*
X0045000D03*
X0046000Y0075600D03*
X0045500D03*
X0045000D03*
X0003700Y0019300D03*
X0003000D03*
X0002300D03*
X0003700Y0019800D03*
X0003000Y0019750D03*
X0002300D03*
X0003700Y0020200D03*
X0003000D03*
X0002300D03*
X0001800Y0010500D03*
X0002500D03*
X0003200D03*
Y0010050D03*
X0002500D03*
X0001800D03*
X0003200Y0010950D03*
X0002500D03*
X0001800D03*
X0012050Y0010500D03*
Y0010050D03*
X0012750D03*
Y0010500D03*
X0013450D03*
Y0010050D03*
Y0010950D03*
X0012750D03*
X0012050D03*
X0038200Y0002800D03*
X0037500D03*
X0038200Y0003250D03*
X0037500D03*
X0036800Y0002800D03*
Y0003250D03*
X0038200Y0003700D03*
X0037500D03*
X0036800D03*
X0047200Y0012550D03*
X0046750D03*
X0046300D03*
X0047200Y0013250D03*
X0046750D03*
X0046300D03*
X0047200Y0013950D03*
X0046300D03*
X0046750D03*
X0048300Y0037000D03*
X0049000D03*
X0049700D03*
Y0036550D03*
X0049000D03*
X0048300D03*
X0049700Y0037450D03*
X0049000D03*
X0048300D03*
X0048700Y0062500D03*
X0047300D03*
X0048000D03*
X0048700Y0062050D03*
X0048000D03*
X0047300D03*
X0048700Y0062950D03*
X0048000D03*
X0047300D03*
G54D77*
X0000200Y0009500D03*
X0002150Y0008700D03*
G54D79*
X0037650Y0007000D03*
X0049300Y0008100D03*
X0049550Y0021750D03*
X0048050D03*
X0047350Y0036850D03*
X0012850Y0007750D03*
X0004950Y0013300D03*
X0009900Y0014100D03*
X0050850Y0013850D03*
X0050200Y-0002400D03*
X0041450Y-0002700D03*
X0038350Y0000000D03*
X0014900Y0008550D03*
X0014950Y0001800D03*
X0030850Y0001850D03*
X0034950Y0002100D03*
X0035650Y0001850D03*
X0038700Y0002600D03*
X0016000Y0012550D03*
X0003350D03*
X0013450D03*
X0001250Y-0001500D03*
X0012000Y0012550D03*
X0005850D03*
X0006500Y0021900D03*
X0048700Y0064350D03*
X0050200Y0039200D03*
X0048300D03*
X0003750Y0021900D03*
X0044500Y0016350D03*
X0001250Y0006900D03*
X0001750Y0012550D03*
X0039200Y0005650D03*
X0040750D03*
X0036150Y0000500D03*
X0036950Y0005650D03*
X0044800Y0014050D03*
X0047300Y0064350D03*
X0045850D03*
X0045150D03*
X0047200Y0033450D03*
X0001500Y0016000D03*
X0001650Y0021900D03*
X0044800Y0012450D03*
X0050000Y0011500D03*
X0011050Y0012550D03*
X0011100Y0007050D03*
X0009250Y0019200D03*
X0042600Y0040550D03*
X0042450Y0035350D03*
X0036500Y0035150D03*
Y0034050D03*
X0034250Y0076750D03*
X0033850Y0075400D03*
X0043350Y0032150D03*
X0044500Y0032100D03*
X0022820Y0011530D03*
X0024750Y0013250D03*
X0005300Y0015750D03*
X0026100Y-0010570D03*
X0024250Y-0006500D03*
X0027550Y-0006400D03*
X0027950Y-0007250D03*
Y-0009000D03*
X0041350Y0002500D03*
X0040250Y0001800D03*
X0044500Y0050000D03*
X0046250Y0051500D03*
X0047500Y0057850D03*
X0048750Y0059000D03*
X0038500Y0075750D03*
X0037000Y0077350D03*
X0036750Y0076250D03*
X0036150Y0075720D03*
X0034420Y0078120D03*
X0032750Y0080250D03*
X0033750D03*
X0046250Y0063701D03*
X0037400Y-0000400D03*
X0039250Y-0001100D03*
X0037600Y0000470D03*
X0038750Y0000750D03*
X0024550Y-0002750D03*
X0018000Y-0006750D03*
X0045549Y0011500D03*
X0050400Y0065000D03*
X0049750Y0063701D03*
X0010000Y-0008250D03*
X0043700Y0022400D03*
X0045250Y0022750D03*
X0044500Y0024750D03*
X0017500Y-0011000D03*
X0015900Y-0010439D03*
X0016552Y-0010450D03*
X0018750Y-0010000D03*
X0021600Y-0010450D03*
X0015650Y-0007768D03*
X0017600Y-0009530D03*
X0017000Y-0008500D03*
X0004000Y0006850D03*
X0003250Y0007000D03*
X0002250Y0007250D03*
X0006350Y0009500D03*
X0008150Y0004530D03*
X0006050Y0006000D03*
X-0000447Y0009500D03*
X0009250Y0021500D03*
X0014500Y0011701D03*
X0014250Y0014000D03*
X0010500Y-0008650D03*
X0012850Y-0009200D03*
X0016700Y-0006250D03*
X0015650Y-0006268D03*
X0013000Y-0008150D03*
X0013050Y-0006650D03*
X0046350Y0075250D03*
X0015500Y0008150D03*
X0014000Y0007750D03*
X0049950Y0055400D03*
Y0057150D03*
X0050500Y0059000D03*
X0049950Y0058900D03*
X0039750Y0075800D03*
X0040800D03*
X0023000Y-0004800D03*
X0019150Y-0007780D03*
X0020000Y0002250D03*
X0020750D03*
X0004850Y0080700D03*
Y0078300D03*
X0011450Y0019400D03*
X0010000Y0019350D03*
X0006750Y0076250D03*
X0007350Y0075720D03*
X0050700Y0018650D03*
X0004050Y0049750D03*
X0001650D03*
X0048700Y0018650D03*
X0039300Y0004300D03*
X0037750Y0007900D03*
X0039000D03*
X0016600Y0009500D03*
X0045600Y0065000D03*
X0021100Y0005750D03*
X0018000Y0008250D03*
X0020470Y0008800D03*
X0022250Y0005400D03*
X0006250Y0008250D03*
X0008550Y0017600D03*
X-0000250Y0045750D03*
X0007100Y0019000D03*
X0023200Y0008600D03*
X0022750Y0002250D03*
X0024950Y0003650D03*
X0040850Y0080700D03*
X0044400Y0076345D03*
X0000800Y0044750D03*
X0004700Y0016350D03*
X0002200Y0046380D03*
X0048311Y0026450D03*
X0003500Y0016000D03*
X0001750Y0014900D03*
X0036570Y-0001400D03*
X0041400Y0001280D03*
X0008900Y0075720D03*
X0009450Y0077380D03*
X0050750Y0038201D03*
X0045553Y0036000D03*
X0011140Y0014660D03*
X0046950Y0025880D03*
X0047250Y0024750D03*
X0050750Y0023500D03*
X0050000Y0023400D03*
X0002750Y0045750D03*
X0039800Y0033350D03*
X0002750Y0044350D03*
X0039450Y-0010000D03*
X0009600Y0076970D03*
X0011050Y0075600D03*
X0033750Y0076000D03*
X0011750Y0077500D03*
X0002500Y0015100D03*
X0038500Y0033000D03*
X0041250Y0014250D03*
X0042500Y0015400D03*
X0042450Y0016800D03*
X0043750Y0016400D03*
X0002750Y0042500D03*
X0033900Y0032780D03*
X0041500Y0032100D03*
X0043000Y0020750D03*
X0046500Y0017566D03*
X0001750Y0042500D03*
X-0000250Y0040500D03*
X-0002250Y0022750D03*
X0034950Y0032620D03*
X0029114Y0041900D03*
X0003600Y0005600D03*
X0024400Y0006700D03*
X0002900Y0023750D03*
X0001250Y0024650D03*
X0008100Y0019700D03*
X0047800Y0001400D03*
X0032100Y-0001550D03*
X0039500Y0015750D03*
X0038300Y0015600D03*
X0009450Y0004900D03*
X0049250Y0029500D03*
X0047300Y0029600D03*
X0050000Y0029650D03*
X0043120Y0053950D03*
X0043650Y0054470D03*
X0047300Y0036300D03*
X0046250Y0014800D03*
X0050200Y0031400D03*
X0008430Y0006080D03*
X0008750Y0003150D03*
X0049750Y0035250D03*
X0048950Y0060500D03*
X0048450Y0021150D03*
X0044900Y0053530D03*
X0007000Y0008150D03*
X0010250Y0004000D03*
X0009900Y0002350D03*
X0002400D03*
X0028450Y-0002450D03*
X0029250D03*
X0002400Y-0007100D03*
X0005100Y0004000D03*
X0031900Y-0002150D03*
X0040600D03*
X0041400Y0000700D03*
X0048500Y0016150D03*
X0048050Y0006500D03*
X0004901Y0016701D03*
X0021200Y0008300D03*
X0020850Y0009400D03*
X0014400Y0008850D03*
X0011650Y0007750D03*
X0009950Y0007550D03*
X0044900Y0052280D03*
X0045500Y0051500D03*
X0004750Y0020951D03*
X0049450Y0021450D03*
X0005250Y0017610D03*
X0043750Y0015400D03*
X0045549Y0015000D03*
X0042300Y0051300D03*
X0047650Y0052100D03*
X0002950Y0075760D03*
X0008950Y-0011510D03*
X0013750Y-0008150D03*
X0014500D03*
X0039250Y-0003400D03*
X0037700Y-0002550D03*
X0042500Y0002100D03*
X0043700Y0002350D03*
X0031800Y0003500D03*
X0030700Y0002850D03*
X0024850Y0002800D03*
X0024700Y0000450D03*
X0011800Y0000850D03*
X0048500Y0041650D03*
X0021750Y0001350D03*
X0024550Y-0001000D03*
X0041250Y0015250D03*
X0039930Y0015600D03*
X0047988Y0016150D03*
X-0001250Y-0005350D03*
X-0000500D03*
X0048250Y0053750D03*
X0000250Y-0005350D03*
X0006850Y0016550D03*
X0006600Y0012000D03*
X0002250Y0045250D03*
X-0000150Y0010250D03*
X0003450Y0008700D03*
X0000350Y0042250D03*
X0000750Y0045600D03*
X-0000050Y0047300D03*
X0000950Y0047700D03*
X0049500Y0033500D03*
X0051000Y0033200D03*
X0050250Y0033350D03*
X0048250Y0032600D03*
X0049500Y0033150D03*
X0045970Y0027400D03*
X0039250Y0020250D03*
X0018000Y-0008150D03*
X0016650Y-0006850D03*
X0012250Y-0006800D03*
X0023950Y-0005550D03*
X0036000Y0077250D03*
Y0079000D03*
X0045750Y0001950D03*
X0015150Y0007400D03*
X0015500Y0004500D03*
X0045750Y0003250D03*
X0046050Y0007400D03*
X0050250Y0034250D03*
X0049500Y0031750D03*
X0023720Y-0011530D03*
X0025200Y-0010800D03*
X0010750Y-0006750D03*
X0008500D03*
X0047500Y0055000D03*
X0046300D03*
X0044005Y0055495D03*
Y0052955D03*
X0034900Y0033700D03*
X0032750Y0033250D03*
X0039850Y0015970D03*
X0038750Y0018500D03*
X0049750Y0059750D03*
X0050750Y0061650D03*
X0045800Y0056100D03*
X0013500Y0005100D03*
X0011950Y0005500D03*
X0013250Y0004000D03*
X0014000Y0004750D03*
X0009950Y0006650D03*
X0009951Y0008550D03*
X0043100Y0057500D03*
X0046450Y0053900D03*
X0046500Y0056100D03*
X0044850Y0060000D03*
X0045500Y0057500D03*
X0050500Y0013500D03*
X0050900Y0012500D03*
X0049250Y0017000D03*
X0050650Y0014500D03*
X0045500Y0073150D03*
Y0068750D03*
X0041800Y0002250D03*
X0003700Y0017500D03*
X0002750Y0016450D03*
X0003300Y0008400D03*
X0044500Y0020750D03*
X0047050Y0018850D03*
X0001250Y0020951D03*
X-0000447Y0018750D03*
X0043750Y0003350D03*
X0045150Y0003970D03*
X0045200Y0003650D03*
X0043200Y0001000D03*
X0004200Y-0001350D03*
Y-0003100D03*
X0030500Y0000750D03*
X0034553Y0002250D03*
X0032350Y0000280D03*
X0045200Y0001900D03*
X0039285Y-0005600D03*
X0038650Y-0004220D03*
Y-0005470D03*
X0005500Y0008650D03*
X0004000Y0005150D03*
X0004200Y0000400D03*
X0013250Y0007100D03*
X0011600Y0006600D03*
X0004350Y0011701D03*
X0003500Y0014900D03*
X0004400Y0013000D03*
X0003250Y0015150D03*
X0008650Y0009650D03*
X0007650Y0009750D03*
X0006650Y0009400D03*
X0004150Y0015250D03*
X0037200Y-0003800D03*
X0045900Y-0003450D03*
X0046600Y0009000D03*
X0025550Y0008450D03*
Y0017050D03*
X0009650Y0017150D03*
X0009600Y0009750D03*
X0032400Y0003650D03*
X0044750Y0005650D03*
X0015500Y0005000D03*
X0018000Y0005500D03*
X0044150Y0008950D03*
X0044750Y0018800D03*
X0007350Y0011400D03*
X0008550Y0005500D03*
X0040250Y0000100D03*
X0041450Y0002100D03*
X0047350Y0003000D03*
X0047250Y0038201D03*
X-0002450Y0006000D03*
X-0002500Y0008350D03*
X0046850Y0041500D03*
X0043250Y0040000D03*
X0018350Y-0010950D03*
X0049700Y0060750D03*
X0049500Y0057300D03*
X0046900Y0077750D03*
X0050600Y0030500D03*
X0051000Y0033600D03*
X0017500Y-0008050D03*
X0015850Y-0007500D03*
X0043300Y0007350D03*
X0043750Y0006900D03*
X0000400Y0010450D03*
X0024250Y0007550D03*
X0024450Y-0000700D03*
X0016850Y-0000750D03*
X0016750Y-0007300D03*
X0040850Y0078300D03*
X0043500Y0077650D03*
X0045650Y0018950D03*
X0007350Y0009950D03*
X0003500Y0006650D03*
X-0001850Y0006300D03*
X0004000Y0003250D03*
X0004249Y0009299D03*
X0046950Y0051900D03*
X0044000Y0037600D03*
X0011100Y-0003550D03*
X0011300Y-0002250D03*
X0026100Y0016800D03*
X0006350Y0016300D03*
X0006500Y0010050D03*
X0006850Y0008800D03*
X0000650Y0010200D03*
X0004700Y0009650D03*
X0005150Y0009950D03*
X0009050Y0010900D03*
X0046850Y0049100D03*
X0046150Y0036950D03*
X0023500Y-0001850D03*
X0023750Y0007250D03*
X0035700Y0002850D03*
X0037400Y-0003550D03*
X0046650Y-0003200D03*
X0050291Y0031909D03*
X0023600Y0007850D03*
X0024250Y0010250D03*
X0029550Y0009950D03*
X0039900Y0004850D03*
Y0007300D03*
X0047100Y0008600D03*
X0047200Y0015200D03*
X0048700D03*
X0048850Y0032450D03*
X0050850Y0040650D03*
X0050650Y0051350D03*
X0050450Y0007250D03*
X0047950Y0016850D03*
X-0002050Y0004250D03*
X0005300Y0005100D03*
X0045900Y0009000D03*
X0045600Y0006250D03*
X0033050Y0006400D03*
X0033400Y0003450D03*
X0047450Y0009200D03*
X0024700Y0004850D03*
X0031050Y0004450D03*
X0033400Y0002550D03*
X0014650Y0009350D03*
X0014600Y0003650D03*
X0033050Y0002550D03*
X0031350Y0004350D03*
X0006850Y0010950D03*
X0006650Y0010400D03*
X0005000Y0010250D03*
Y0011250D03*
X-0000100Y0011000D03*
X0032650Y0003450D03*
X0031800Y0004200D03*
X0024800Y0004300D03*
X0014850Y-0011000D03*
X0015750Y0006650D03*
X-0000750Y0002850D03*
X0008950Y0003400D03*
X0009100Y0008550D03*
X-0001850Y0017750D03*
X-0001800Y0009550D03*
X0022200Y0011350D03*
X0023000Y0008350D03*
X0012400Y0006400D03*
X0007350Y0009150D03*
X0023900Y0006950D03*
X0024000Y0008250D03*
X0028450Y0009050D03*
X0045500Y0004400D03*
X0044250Y0034750D03*
X0042850Y0049050D03*
X0042750Y0034850D03*
X0015500Y-0008900D03*
X0016500Y0005800D03*
X0045900Y0038450D03*
X0047050Y0051400D03*
X0016900Y-0008200D03*
X0017150Y0005850D03*
X0026250Y-0011750D03*
X0032250Y-0001150D03*
X0030950Y-0001000D03*
X0027050Y-0001950D03*
X0024000Y-0001100D03*
X0024050Y0006000D03*
X0028950Y0012550D03*
Y0005650D03*
X0018750Y-0008450D03*
X0050000Y0041650D03*
X0050553Y0049750D03*
X0037400Y-0001720D03*
X0038650Y-0003550D03*
X0021350Y0004200D03*
Y-0001000D03*
X0011500Y-0001850D03*
X0000750Y0011701D03*
X-0002750Y0013500D03*
X0044550Y-0004250D03*
X0031950Y0001950D03*
X0026550Y0002350D03*
X0023350Y0002050D03*
Y0007350D03*
X0048000Y0048150D03*
X0047050Y0036050D03*
X-0002850Y0017500D03*
X-0002800Y0009600D03*
X0020550Y-0008400D03*
X0024650Y0009050D03*
X0030500Y0004600D03*
X0045950Y0038050D03*
X0044450Y0025650D03*
X0042500Y0007350D03*
X0029400Y0007400D03*
X0027800Y0007350D03*
Y0013500D03*
X0021450Y0013750D03*
Y0009900D03*
X0019200Y-0011500D03*
X0045050Y0037600D03*
X0045450Y0048750D03*
X0031516Y0041900D03*
X0025050Y-0011100D03*
X0024950Y0002450D03*
X0010450Y-0006450D03*
X0011450Y-0006700D03*
X0047350Y0007750D03*
X0045350Y0018750D03*
X0007800Y0018900D03*
X0001550Y0020000D03*
X-0001100Y0020350D03*
X-0001200Y0012100D03*
X0004650Y0011000D03*
X0000700Y0012550D03*
X0046750Y0073500D03*
X0044750D03*
X0036900Y-0009600D03*
X0002950Y0006550D03*
X0004350Y0003450D03*
X0045300Y0061700D03*
X0047050Y0039200D03*
X0026100Y0008400D03*
X0026350Y0003000D03*
X0031200Y0003100D03*
X0031850Y0002500D03*
X0011001Y0011701D03*
X0008600Y0013350D03*
X0049750Y0017300D03*
X0049150Y0007100D03*
X0024350Y0008250D03*
X0020950Y0009100D03*
X0010450Y0009500D03*
X0025550Y-0003400D03*
X0025650Y0007600D03*
X0046350Y0018500D03*
X0042400Y0016000D03*
X0035750Y0004050D03*
X0039850D03*
Y0003050D03*
X0045800Y0005250D03*
X0008850Y0011150D03*
Y0016850D03*
X0029300Y0017200D03*
X0029400Y0009200D03*
X-0002350Y0011100D03*
X-0002200Y0005400D03*
X0003350D03*
X0003500Y0006300D03*
X0022250Y-0008950D03*
X0020850Y-0006400D03*
X0045900Y0008000D03*
X0020950Y-0005500D03*
X0039850Y0001850D03*
X0027500Y0003500D03*
X0021550Y-0004100D03*
X0019550Y-0007750D03*
X0015800Y-0008350D03*
X0046600Y0049550D03*
X0045400Y0034800D03*
X0021850Y0010550D03*
Y0011750D03*
X0026750Y0011250D03*
X0026900Y0008400D03*
X0028550Y-0000150D03*
X0030950Y-0000500D03*
X0040150Y-0001650D03*
X0040250Y0007650D03*
X0047100Y0032700D03*
X0020350Y0004150D03*
X0020150Y-0007250D03*
X0022750Y-0006450D03*
X0022650Y0005400D03*
X0024350Y0005800D03*
X0024250Y-0001450D03*
X0011350Y-0002900D03*
X0011150Y-0005250D03*
X0035150Y0003200D03*
X0041450Y0001750D03*
X0010500Y0011200D03*
X0022200Y0011000D03*
X0045650Y0047750D03*
X0045450Y0036500D03*
X-0000950Y0009500D03*
X-0000700Y0017750D03*
X0015950Y0007950D03*
X0015750Y0016500D03*
X0006900Y0016050D03*
X0001100Y0020650D03*
X0045350Y0039000D03*
X0047300Y0051600D03*
X0012050Y-0000250D03*
X0010900Y-0001500D03*
X0005250Y0016800D03*
X0003450Y0017750D03*
X0001200Y0021300D03*
X0022000Y-0000200D03*
X0021900Y0007000D03*
X0008050Y0018250D03*
X0007450D03*
X0004850Y0018050D03*
X0001550Y0019650D03*
X0042250Y0032100D03*
X0045300Y0029600D03*
X-0002500Y0035050D03*
X-0002650Y0020350D03*
X0020100Y0017650D03*
X0022100Y0005900D03*
X0037770Y-0006780D03*
X0035350Y-0006800D03*
X0048800Y0057500D03*
X0048950Y0018850D03*
X0050550Y0014000D03*
X0049100Y0014050D03*
X0048900Y-0002750D03*
X0042150Y-0002950D03*
X0040900Y-0001850D03*
X0032850Y-0002450D03*
X0031400Y-0001450D03*
X0011400Y-0000700D03*
X0008050Y-0007850D03*
X0049600Y0052450D03*
X0022850Y0007600D03*
X0023100Y0001800D03*
X0031000Y0002750D03*
X0031800Y0003000D03*
X0011050Y0006150D03*
X0010900Y0006800D03*
X0045850Y0031950D03*
X0045950Y0037200D03*
X0048500Y0055100D03*
X0047950Y0049050D03*
X0050100Y0016400D03*
X0049950Y0007550D03*
X0010100Y0014350D03*
X0010150Y0015950D03*
X0029550Y0015900D03*
X0047200Y0066700D03*
X0048000Y0067150D03*
X0048200Y0020750D03*
X0050450Y0008350D03*
X0026100Y-0008000D03*
X0023100Y0004050D03*
X0037350Y0020400D03*
X0035650Y0006300D03*
X0030350D03*
X0029400Y0007050D03*
X0046050Y0031700D03*
X0046100Y0034550D03*
X0021350Y-0010750D03*
X0037970Y-0000400D03*
X0033500Y0000300D03*
X0044750Y0031650D03*
Y0036700D03*
X0019050Y0008700D03*
X0001050Y0011000D03*
X0002050Y0016400D03*
X0003050Y0016350D03*
X0010000D03*
X0014800Y0016150D03*
X0015000Y0010250D03*
X0049350Y0054100D03*
Y0048750D03*
X0012550Y0006100D03*
X0012150Y0007750D03*
X0009950Y0007950D03*
X0029550Y0010650D03*
X0030700Y0006300D03*
X0033300Y0001050D03*
X0033650Y-0000850D03*
X0035650Y-0000750D03*
X0037950D03*
X0027500Y0007000D03*
X0032250Y0006250D03*
X0038350Y0006400D03*
X-0002050Y0015750D03*
Y0009750D03*
X0042450Y0017150D03*
X0043250Y-0004950D03*
X0001050Y0018500D03*
X0002850Y0017450D03*
X0004800Y0021400D03*
X0000850Y0020400D03*
X0010100Y0011200D03*
X0014200Y0011100D03*
X0042050Y0021500D03*
X0042250Y0000450D03*
X0039350D03*
X0029800Y0001250D03*
X0012150Y0000850D03*
X0009000Y-0008700D03*
X0025700Y0010800D03*
X0027550Y0007750D03*
X0045900Y0008550D03*
X0046250Y0011600D03*
X0005550Y-0007450D03*
Y0000250D03*
X0011350D03*
X0012550Y0000050D03*
X0031000Y0000000D03*
X0032750Y-0004150D03*
X0036250D03*
X0037800Y-0008600D03*
X0050050Y-0007050D03*
X0049450Y0029850D03*
X0045850Y0021050D03*
X0046050Y0026100D03*
X-0002850Y0032250D03*
X-0002550Y0015450D03*
X0020900Y0015400D03*
Y0010850D03*
X0044300Y0015200D03*
X0043800Y-0003800D03*
X0037150Y-0004450D03*
X0036450Y-0003850D03*
X0032900D03*
X0031050Y0000550D03*
X0012850Y0001000D03*
X0011200D03*
X-0001650Y0001350D03*
Y-0008470D03*
X0010750Y-0005650D03*
X0014200Y-0006550D03*
X0022500Y0007650D03*
X0031850Y0000600D03*
X0037650Y-0000600D03*
X0039400Y0008300D03*
X0043750Y0008400D03*
X0043950Y0010000D03*
X0050850Y0060450D03*
Y0057600D03*
X0048250Y0017100D03*
X0046350Y0015700D03*
X0037600Y0013100D03*
X0036450Y0003300D03*
X0035900Y0003100D03*
X0022050Y0008650D03*
X0047400Y0014400D03*
X0046400Y0008250D03*
X0044350Y0006550D03*
X0048250Y0050950D03*
X0048100Y0060500D03*
X0014650Y0009700D03*
X0010950Y0009950D03*
X0008450D03*
X0007800Y0008500D03*
X0033700Y0003850D03*
X0037050Y0008900D03*
X0027500Y0004000D03*
X0039350Y0002550D03*
X0039650Y0013350D03*
X0022250Y0002700D03*
X0050200Y0064150D03*
X0050300Y0051350D03*
X0004550Y-0006750D03*
Y-0006250D03*
X-0001700Y0020250D03*
X-0001600Y0013050D03*
X-0003000Y0035500D03*
X-0002900Y0005350D03*
X0002650Y0005700D03*
Y-0009450D03*
X0046350Y0061750D03*
X0046100Y0049700D03*
X0048750Y0035250D03*
X0047250Y0035800D03*
X0049500Y0019200D03*
X0040750Y0019250D03*
X0045900Y0009550D03*
X0046250Y0014450D03*
X0036600Y0006100D03*
X0049000Y0013150D03*
X0048850Y0009550D03*
X-0002150Y0015000D03*
Y0020350D03*
X0048050Y0033650D03*
X0047400Y0049300D03*
X0018850Y0005050D03*
X0047850Y0060700D03*
Y0050050D03*
X0005400Y0014500D03*
X0033550Y0005000D03*
X0035100Y0002600D03*
X-0002200Y0035250D03*
X-0001650Y0002250D03*
X0004950Y0001950D03*
X0005150Y-0008750D03*
X0013250Y0015400D03*
X0037500Y0033500D03*
X0035500Y0034650D03*
X0045250Y0005500D03*
X0048500Y0009553D03*
X0036200Y-0001350D03*
X0036900Y-0001300D03*
X0013200Y0013850D03*
X0002600Y0017700D03*
X0001550Y0019300D03*
X0034200Y0003750D03*
X0029400Y0008100D03*
X0010750Y0013250D03*
X0007150Y-0007300D03*
Y0001400D03*
X0011200D03*
X0012500Y0001300D03*
X0031250Y0001350D03*
X0039600Y0000250D03*
X0048300Y0066750D03*
X0046920Y0066020D03*
X-0000950Y0017550D03*
Y0009850D03*
X0044150Y0008400D03*
X0043900Y0011900D03*
X0043400Y0012100D03*
X0042500D03*
X0007450Y-0007500D03*
Y0005750D03*
X0048650Y0008600D03*
Y0012900D03*
X0040200Y0003800D03*
X0002900Y0027700D03*
Y0026560D03*
X0006100Y-0008100D03*
X0005750Y0002750D03*
X-0001250Y0002650D03*
X-0001550Y0035300D03*
X0000050Y0010500D03*
X0000650Y0009850D03*
X0006900Y0014900D03*
X0024400Y0007050D03*
X0026050Y-0000200D03*
X0030000Y-0000550D03*
X0030050Y-0002250D03*
X0005550Y0006000D03*
X0005300Y-0007900D03*
X0011900Y0002300D03*
X0010650Y0010450D03*
X0004650Y0010250D03*
X0003700Y0005050D03*
X-0002500Y0004700D03*
X-0003250Y0035250D03*
X0016750Y0010250D03*
X0011850Y0017650D03*
X0021550Y0005400D03*
X0019800Y0007600D03*
X0019650Y0004050D03*
X0018450D03*
X0011850Y0002850D03*
X0004350Y0003100D03*
X-0001500Y0003250D03*
X-0001900Y0035350D03*
X0035400Y0001650D03*
X0037400Y0001250D03*
X0000750Y0010800D03*
X0004200Y0012100D03*
X0009250Y-0008450D03*
X0011950Y-0008150D03*
Y0000300D03*
X0029850Y0000450D03*
X0031650Y0000000D03*
X0036150Y-0000350D03*
X0038750Y0016050D03*
X0049950Y0063250D03*
X0049750Y0051350D03*
X0010550Y0013000D03*
X0012800Y0008750D03*
X0048650Y0034900D03*
X0047400Y0037450D03*
X0006900Y0014290D03*
X0023700Y0006700D03*
X0023750Y0000700D03*
X0030250Y0000950D03*
X0035350Y-0005200D03*
X0015130Y0014650D03*
X0050600Y0046431D03*
Y0044850D03*
X0035700Y0004950D03*
X0039200D03*
X0000250Y0019050D03*
Y0021450D03*
X0012400Y0008700D03*
X0009600Y0008550D03*
X0043100Y0008700D03*
X0043300Y0011250D03*
X0005900Y-0009450D03*
X0045000Y0053000D03*
X0032250Y0076100D03*
X0012500Y0077500D03*
X0029500Y-0007000D03*
X0042750Y0022250D03*
X0043600Y0031850D03*
X0009750Y0015750D03*
X0010350Y0001650D03*
X-0001900D03*
Y-0008150D03*
X0034950Y0001400D03*
X0037150Y0001450D03*
X0023200Y-0002850D03*
X0018800Y-0002350D03*
X0018850Y0002650D03*
X0023500Y-0009550D03*
X0008100Y0014000D03*
X0039500Y-0009500D03*
X0045000Y-0008700D03*
X-0000100Y0011750D03*
X-0000150Y0021150D03*
X0049150Y0062100D03*
X0048850Y0010250D03*
X0041450Y0009650D03*
Y0008000D03*
X0037350Y0008300D03*
X0037150Y0006100D03*
X0033050Y0005150D03*
X0030250Y0004350D03*
X0023750Y0008450D03*
X0022350Y0008350D03*
G54D84*
X0035750Y0004451D03*
X0005100Y0008000D03*
X0005550Y0007350D03*
M02*
