*
G04 Mass Parameters ***
*
G04 Image ***
*
%IND:\UTENTI\00.LAVORI IN CORSO\METALTRONICA\22-303-0\22-303-0.SMB*%
%ICAS*%
%MOIN*%
%IPPOS*%
%ASAXBY*%
G74*%FSLAN2X34Y34*%
*
G04 Aperture Definitions ***
*
%AMTHERMAL89*
1,1,0.1211,0,0,*
1,0,0.0972,0,0,*
21,0,0.1212,0.0100,0,0,225.0*
21,0,0.1212,0.0100,0,0,315.0*%
%AMTHERMAL99*
1,1,0.1172,0,0,*
1,0,0.0933,0,0,*
21,0,0.1173,0.0100,0,0,45.0*
21,0,0.1173,0.0100,0,0,135.0*%
%AMTHERMAL104*
1,1,0.1172,0,0,*
1,0,0.0933,0,0,*
21,0,0.1173,0.0100,0,0,225.0*
21,0,0.1173,0.0100,0,0,315.0*%
%ADD10C,0.2362*%
%ADD11C,0.0394*%
%ADD12R,0.0380X0.0320*%
%ADD13R,0.1180X0.1060*%
%ADD14R,0.0404X0.0501*%
%ADD15R,0.0501X0.0404*%
%ADD16R,0.0630X0.1260*%
%ADD17R,0.0710X0.0400*%
%ADD18R,0.0320X0.0380*%
%ADD19R,0.1260X0.0630*%
%ADD20R,0.0400X0.0710*%
%ADD21R,0.0886X0.0905*%
%ADD22R,0.0905X0.0886*%
%ADD23R,0.1024X0.0510*%
%ADD24R,0.0500X0.0400*%
%ADD25R,0.0197X0.0315*%
%ADD26R,0.0850X0.1080*%
%ADD27R,0.0472X0.0472*%
%ADD28R,0.1669X0.1500*%
%ADD29C,0.1000*%
%ADD30R,0.1220X0.0905*%
%ADD31C,0.0610*%
%ADD32R,0.0610X0.0610*%
%ADD33C,0.0433*%
%ADD34R,0.2165X0.0472*%
%ADD35C,0.0512*%
%ADD36C,0.0866*%
%ADD37R,0.0669X0.0669*%
%ADD38C,0.0669*%
%ADD39C,0.0787*%
%ADD40R,0.0787X0.0787*%
%ADD41R,0.0236X0.0413*%
%ADD42C,0.0276*%
%ADD43C,0.0187*%
%ADD44R,0.0709X0.0354*%
%ADD45C,0.0551*%
%ADD46R,0.0354X0.0709*%
%ADD47R,0.0680X0.1580*%
%ADD48R,0.0680X0.0550*%
%ADD49R,0.0570X0.0590*%
%ADD50R,0.0630X0.0866*%
%ADD51R,0.0590X0.0433*%
%ADD52R,0.1080X0.0850*%
%ADD53O,0.0256X0.0650*%
%ADD54R,0.0236X0.0512*%
%ADD55R,0.1220X0.0950*%
%ADD56R,0.0240X0.0750*%
%ADD57R,0.0354X0.0165*%
%ADD58R,0.0236X0.0157*%
%ADD59R,0.1701X0.1181*%
%ADD60R,0.0177X0.0649*%
%ADD61O,0.0118X0.0590*%
%ADD62R,0.1181X0.1701*%
%ADD63R,0.0649X0.0177*%
%ADD64R,0.0157X0.0236*%
%ADD65O,0.0590X0.0118*%
%ADD66R,0.0500X0.0270*%
%ADD67R,0.0270X0.0500*%
%ADD68C,0.0800*%
%ADD69R,0.0512X0.0354*%
%ADD70O,0.0110X0.0700*%
%ADD71R,0.0110X0.0700*%
%ADD72O,0.0700X0.0110*%
%ADD73R,0.0700X0.0110*%
%ADD74C,0.0236*%
%ADD75C,0.0100*%
%ADD76C,0.0050*%
%ADD77C,0.0236*%
%ADD78C,0.0080*%
%ADD79C,0.0236*%
%ADD80C,0.0150*%
%ADD81C,0.0400*%
%ADD82C,0.0250*%
%ADD83C,0.0500*%
%ADD84C,0.0236*%
%ADD85R,0.0472X0.2165*%
%ADD86R,0.0787X0.0236*%
%ADD87R,0.0669X0.0236*%
%ADD88C,0.0050*%
%ADD89THERMAL89*%
%ADD90C,0.1181*%
%ADD91C,0.0710*%
%ADD92R,0.0710X0.0710*%
%ADD93C,0.0630*%
%ADD94C,0.0700*%
%ADD95C,0.1024*%
%ADD96R,0.0827X0.0827*%
%ADD97C,0.0866*%
%ADD98C,0.1027*%
%ADD99THERMAL99*%
%ADD100R,0.0984X0.0984*%
%ADD101C,0.0750*%
%ADD102C,0.0600*%
%ADD103C,0.1100*%
%ADD104THERMAL104*%
%ADD105R,0.0984X0.0984*%
%ADD106C,0.0394*%
%ADD107C,0.0394*%
%ADD108C,0.0050*%
%ADD109C,0.0394*%
%ADD110C,0.0050*%
%ADD111C,0.1378*%
%ADD112C,0.0550*%
%ADD113C,0.0390*%
%ADD114C,0.0590*%
*
G04 Plot Data ***
*
G54D75*
G01X0003950Y0020850D02*
X0002300D01*
X0002000Y0020550D01*
Y0018700D01*
X0007100Y0018400D02*
X0005250D01*
X0007080Y0019170D02*
Y0017550D01*
X0006990Y0019260D02*
Y0017550D01*
X0006900Y0019350D02*
Y0017550D01*
X0006810Y0019440D02*
Y0017550D01*
X0006720Y0019530D02*
Y0017550D01*
X0006630Y0019620D02*
Y0017550D01*
X0006540Y0019710D02*
Y0017550D01*
X0006450Y0019800D02*
Y0017550D01*
X0006360Y0019890D02*
Y0017550D01*
X0006270Y0019980D02*
Y0017550D01*
X0006180Y0020070D02*
Y0017550D01*
X0006090Y0020160D02*
Y0017550D01*
X0006000Y0020250D02*
Y0017550D01*
X0005910Y0020340D02*
Y0017550D01*
X0005820Y0020350D02*
Y0017550D01*
X0005730Y0020350D02*
Y0017550D01*
X0005640Y0020350D02*
Y0017550D01*
X0005550Y0020350D02*
Y0017550D01*
X0005460Y0020350D02*
Y0017550D01*
X0005370Y0020350D02*
Y0017550D01*
X0005280Y0020350D02*
Y0017550D01*
X0005190Y0020350D02*
Y0018400D01*
X0005100Y0020350D02*
Y0018400D01*
X0005010Y0020350D02*
Y0018400D01*
X0004920Y0020350D02*
Y0018400D01*
X0004830Y0020350D02*
Y0018400D01*
X0004740Y0020350D02*
Y0018400D01*
X0004650Y0020350D02*
Y0018400D01*
X0004560Y0020350D02*
Y0018400D01*
X0004470Y0020350D02*
Y0018400D01*
X0004380Y0020420D02*
Y0018400D01*
X0004290Y0020510D02*
Y0018400D01*
X0004200Y0020600D02*
Y0018400D01*
X0004110Y0020690D02*
Y0018400D01*
X0004020Y0020780D02*
Y0018400D01*
X0003930Y0020850D02*
Y0018400D01*
X0003840Y0020850D02*
Y0018400D01*
X0003750Y0020850D02*
Y0018400D01*
X0003660Y0020850D02*
Y0018400D01*
X0003570Y0020850D02*
Y0018400D01*
X0003480Y0020850D02*
Y0018400D01*
X0003390Y0020850D02*
Y0018400D01*
X0003300Y0020850D02*
Y0018400D01*
X0003210Y0020850D02*
Y0018490D01*
X0003120Y0020850D02*
Y0018580D01*
X0003030Y0020850D02*
Y0018670D01*
X0002940Y0020850D02*
Y0018700D01*
X0002850Y0020850D02*
Y0018700D01*
X0002760Y0020850D02*
Y0018700D01*
X0002670Y0020850D02*
Y0018700D01*
X0002580Y0020850D02*
Y0018700D01*
X0002490Y0020850D02*
Y0018700D01*
X0002400Y0020850D02*
Y0018700D01*
X0002310Y0020850D02*
Y0018700D01*
X0002220Y0020770D02*
Y0018700D01*
X0002130Y0020680D02*
Y0018700D01*
X0002040Y0020590D02*
Y0018700D01*
X0003970Y0020830D02*
X0002280D01*
X0004060Y0020740D02*
X0002190D01*
X0004150Y0020650D02*
X0002100D01*
X0004240Y0020560D02*
X0002010D01*
X0004330Y0020470D02*
X0002000D01*
X0004420Y0020380D02*
X0002000D01*
X0005960Y0020290D02*
X0002000D01*
X0006050Y0020200D02*
X0002000D01*
X0006140Y0020110D02*
X0002000D01*
X0006230Y0020020D02*
X0002000D01*
X0006320Y0019930D02*
X0002000D01*
X0006410Y0019840D02*
X0002000D01*
X0006500Y0019750D02*
X0002000D01*
X0006590Y0019660D02*
X0002000D01*
X0006680Y0019570D02*
X0002000D01*
X0006770Y0019480D02*
X0002000D01*
X0006860Y0019390D02*
X0002000D01*
X0006950Y0019300D02*
X0002000D01*
X0007040Y0019210D02*
X0002000D01*
X0007100Y0019120D02*
X0002000D01*
X0007100Y0019030D02*
X0002000D01*
X0007100Y0018940D02*
X0002000D01*
X0007100Y0018850D02*
X0002000D01*
X0007100Y0018760D02*
X0002000D01*
X0007100Y0018670D02*
X0003030D01*
X0007100Y0018580D02*
X0003120D01*
X0007100Y0017590D02*
X0005250D01*
X0007100Y0018310D02*
X0005250D01*
X0007100Y0018220D02*
X0005250D01*
X0007100Y0018130D02*
X0005250D01*
X0007100Y0018040D02*
X0005250D01*
X0007100Y0017950D02*
X0005250D01*
X0007100Y0017860D02*
X0005250D01*
X0007100Y0017770D02*
X0005250D01*
X0007100Y0017680D02*
X0005250D01*
X0007100Y0018490D02*
X0003210D01*
X0003000Y0018700D02*
X0002000D01*
X0003000D02*
X0003300Y0018400D01*
X0005250D02*
X0003300D01*
X0005250D02*
Y0017550D01*
X0007100D02*
X0005250D01*
X0007100Y0019150D02*
Y0017550D01*
X0005900Y0020350D02*
X0007100Y0019150D01*
X0005900Y0020350D02*
X0004450D01*
X0003950Y0020850D02*
X0004450Y0020350D01*
X0002240Y0011450D02*
Y0009700D01*
X0002150Y0011450D02*
Y0009700D01*
X0002060Y0011450D02*
Y0009700D01*
X0001970Y0011450D02*
Y0009700D01*
X0001880Y0011450D02*
Y0009700D01*
X0001790Y0011450D02*
Y0009760D01*
X0001700Y0011450D02*
Y0009850D01*
X0001610Y0011450D02*
Y0009940D01*
X0001520Y0010920D02*
Y0010030D01*
X0001430Y0010830D02*
Y0010120D01*
X0003940Y0009740D02*
X0001810D01*
X0003790Y0011360D02*
X0001600D01*
X0003880Y0011270D02*
X0001600D01*
X0003970Y0011180D02*
X0001600D01*
X0004060Y0011090D02*
X0001600D01*
X0004150Y0011000D02*
X0001600D01*
X0004200Y0010910D02*
X0001510D01*
X0004200Y0010820D02*
X0001420D01*
X0004200Y0010730D02*
X0001330D01*
X0004200Y0010640D02*
X0001300D01*
X0004200Y0010550D02*
X0001300D01*
X0004200Y0010460D02*
X0001300D01*
X0004200Y0010370D02*
X0001300D01*
X0004200Y0010280D02*
X0001300D01*
X0004200Y0010190D02*
X0001360D01*
X0004200Y0010100D02*
X0001450D01*
X0004200Y0010010D02*
X0001540D01*
X0004120Y0009920D02*
X0001630D01*
X0004030Y0009830D02*
X0001720D01*
X0003700Y0011450D02*
X0004200Y0010950D01*
Y0010000D01*
X0003900Y0009700D01*
X0001850D01*
X0001300Y0010250D02*
X0001850Y0009700D01*
X0001300Y0010700D02*
Y0010250D01*
X0001600Y0011000D02*
X0001300Y0010700D01*
X0004130Y0011020D02*
Y0009930D01*
X0004040Y0011110D02*
Y0009840D01*
X0003950Y0011200D02*
Y0009750D01*
X0003860Y0011290D02*
Y0009700D01*
X0003770Y0011380D02*
Y0009700D01*
X0003680Y0011450D02*
Y0009700D01*
X0003590Y0011450D02*
Y0009700D01*
X0003500Y0011450D02*
Y0009700D01*
X0003410Y0011450D02*
Y0009700D01*
X0003320Y0011450D02*
Y0009700D01*
X0003230Y0011450D02*
Y0009700D01*
X0003140Y0011450D02*
Y0009700D01*
X0003050Y0011450D02*
Y0009700D01*
X0002960Y0011450D02*
Y0009700D01*
X0002870Y0011450D02*
Y0009700D01*
X0002780Y0011450D02*
Y0009700D01*
X0002690Y0011450D02*
Y0009700D01*
X0002600Y0011450D02*
Y0009700D01*
X0002510Y0011450D02*
Y0009700D01*
X0002420Y0011450D02*
Y0009700D01*
X0002330Y0011450D02*
Y0009700D01*
X0001340Y0010740D02*
Y0010210D01*
X0001600Y0011450D02*
Y0011000D01*
X0003700Y0011450D02*
X0001600D01*
X0012540Y0011550D02*
Y0009650D01*
X0012450Y0011550D02*
Y0009650D01*
X0012360Y0011550D02*
Y0009650D01*
X0012270Y0011550D02*
Y0009650D01*
X0012180Y0011550D02*
Y0009650D01*
X0012090Y0011550D02*
Y0009650D01*
X0012000Y0011550D02*
Y0009650D01*
X0011910Y0011550D02*
Y0009650D01*
X0011820Y0011550D02*
Y0009650D01*
X0011730Y0011550D02*
Y0009650D01*
X0011640Y0011540D02*
Y0009662D01*
X0011550Y0011450D02*
Y0009770D01*
X0011460Y0011360D02*
Y0009878D01*
X0011370Y0011270D02*
Y0009986D01*
X0011280Y0011180D02*
Y0010094D01*
X0011190Y0011090D02*
Y0010202D01*
X0012960Y0011490D02*
X0011590D01*
X0013050Y0011400D02*
X0011500D01*
X0013140Y0011310D02*
X0011410D01*
X0013230Y0011220D02*
X0011320D01*
X0013320Y0011130D02*
X0011230D01*
X0013410Y0011040D02*
X0011150D01*
X0013500Y0010950D02*
X0011150D01*
X0013590Y0010860D02*
X0011150D01*
X0013680Y0010770D02*
X0011150D01*
X0013770Y0010680D02*
X0011150D01*
X0013860Y0010590D02*
X0011150D01*
X0013950Y0010500D02*
X0011150D01*
X0014040Y0010410D02*
X0011150D01*
X0014130Y0010320D02*
X0011150D01*
X0014220Y0010230D02*
X0011167D01*
X0014310Y0010140D02*
X0011242D01*
X0014400Y0010050D02*
X0011317D01*
X0014310Y0009960D02*
X0011392D01*
X0014220Y0009870D02*
X0011467D01*
X0014130Y0009780D02*
X0011542D01*
X0014040Y0009690D02*
X0011617D01*
X0011150Y0010250D02*
X0011650Y0009650D01*
X0011150Y0011050D02*
Y0010250D01*
X0011650Y0011550D02*
X0011150Y0011050D01*
X0012900Y0011550D02*
X0011650D01*
X0012900D02*
X0014400Y0010050D01*
X0014000Y0009650D01*
X0011650D01*
X0014340Y0010110D02*
Y0009990D01*
X0014250Y0010200D02*
Y0009900D01*
X0014160Y0010290D02*
Y0009810D01*
X0014070Y0010380D02*
Y0009720D01*
X0013980Y0010470D02*
Y0009650D01*
X0013890Y0010560D02*
Y0009650D01*
X0013800Y0010650D02*
Y0009650D01*
X0013710Y0010740D02*
Y0009650D01*
X0013620Y0010830D02*
Y0009650D01*
X0013530Y0010920D02*
Y0009650D01*
X0013440Y0011010D02*
Y0009650D01*
X0013350Y0011100D02*
Y0009650D01*
X0013260Y0011190D02*
Y0009650D01*
X0013170Y0011280D02*
Y0009650D01*
X0013080Y0011370D02*
Y0009650D01*
X0012990Y0011460D02*
Y0009650D01*
X0012900Y0011550D02*
Y0009650D01*
X0012810Y0011550D02*
Y0009650D01*
X0012720Y0011550D02*
Y0009650D01*
X0012630Y0011550D02*
Y0009650D01*
X0048880Y0012450D02*
Y0011500D01*
X0048790Y0012450D02*
Y0011500D01*
X0048700Y0012450D02*
Y0011500D01*
X0048610Y0012450D02*
Y0011500D01*
X0048520Y0012450D02*
Y0011500D01*
X0048430Y0012450D02*
Y0011500D01*
X0048340Y0012450D02*
Y0011500D01*
X0048250Y0014100D02*
Y0011500D01*
X0048160Y0014100D02*
Y0011500D01*
X0048070Y0014100D02*
Y0011500D01*
X0047980Y0014100D02*
Y0011500D01*
X0047890Y0014100D02*
Y0011500D01*
X0047800Y0014100D02*
Y0011500D01*
X0047710Y0014100D02*
Y0011500D01*
X0047620Y0014100D02*
Y0011500D01*
X0047530Y0014100D02*
Y0011500D01*
X0047440Y0014100D02*
Y0011500D01*
X0047350Y0014100D02*
Y0011500D01*
X0047260Y0014100D02*
Y0011500D01*
X0047170Y0014100D02*
Y0011500D01*
X0047080Y0014100D02*
Y0011500D01*
X0046990Y0014100D02*
Y0011500D01*
X0046900Y0014100D02*
Y0011500D01*
X0046810Y0014100D02*
Y0012000D01*
X0046720Y0014100D02*
Y0012000D01*
X0046630Y0014100D02*
Y0012000D01*
X0046540Y0014100D02*
Y0012000D01*
X0046450Y0014100D02*
Y0012000D01*
X0046360Y0014100D02*
Y0012000D01*
X0046270Y0014100D02*
Y0012000D01*
X0046180Y0014100D02*
Y0012000D01*
X0046090Y0014090D02*
Y0012000D01*
X0046000Y0014000D02*
Y0012000D01*
X0045910Y0013910D02*
Y0012032D01*
X0045820Y0013820D02*
Y0012104D01*
X0045730Y0013730D02*
Y0012176D01*
X0045640Y0013640D02*
Y0012248D01*
X0045550Y0013550D02*
Y0012320D01*
X0045460Y0013460D02*
Y0012392D01*
X0045370Y0013370D02*
Y0012464D01*
X0045280Y0013280D02*
Y0012536D01*
X0045190Y0013190D02*
Y0012610D01*
X0048300Y0014060D02*
X0046060D01*
X0048300Y0013970D02*
X0045970D01*
X0048300Y0013880D02*
X0045880D01*
X0048300Y0013790D02*
X0045790D01*
X0048300Y0013700D02*
X0045700D01*
X0048300Y0013610D02*
X0045610D01*
X0048300Y0013520D02*
X0045520D01*
X0048300Y0013430D02*
X0045430D01*
X0048300Y0013340D02*
X0045340D01*
X0048300Y0013250D02*
X0045250D01*
X0048300Y0013160D02*
X0045160D01*
X0048300Y0013070D02*
X0045150D01*
X0048300Y0012980D02*
X0045150D01*
X0048300Y0012890D02*
X0045150D01*
X0048300Y0012800D02*
X0045150D01*
X0048300Y0012710D02*
X0045150D01*
X0048300Y0012620D02*
X0045180D01*
X0048300Y0012530D02*
X0045287D01*
X0049850Y0012440D02*
X0045400D01*
X0049850Y0012350D02*
X0045512D01*
X0049850Y0012260D02*
X0045625D01*
X0049850Y0012170D02*
X0045737D01*
X0049850Y0012080D02*
X0045850D01*
X0049850Y0011990D02*
X0046850D01*
X0049800Y0011900D02*
X0046850D01*
X0049710Y0011810D02*
X0046850D01*
X0049620Y0011720D02*
X0046850D01*
X0049530Y0011630D02*
X0046850D01*
X0049440Y0011540D02*
X0046850D01*
X0045200Y0012600D02*
X0045950Y0012000D01*
X0045150Y0012650D02*
X0045200Y0012600D01*
X0045150Y0013150D02*
Y0012650D01*
X0046100Y0014100D02*
X0045150Y0013150D01*
X0048300Y0014100D02*
X0046100D01*
X0048300D02*
Y0012450D01*
X0049850D02*
X0048300D01*
X0049850D02*
Y0011950D01*
X0049400Y0011500D01*
X0046850D01*
Y0012000D02*
Y0011500D01*
Y0012000D02*
X0045950D01*
X0049780Y0012450D02*
Y0011880D01*
X0049690Y0012450D02*
Y0011790D01*
X0049600Y0012450D02*
Y0011700D01*
X0049510Y0012450D02*
Y0011610D01*
X0049420Y0012450D02*
Y0011520D01*
X0049330Y0012450D02*
Y0011500D01*
X0049240Y0012450D02*
Y0011500D01*
X0049150Y0012450D02*
Y0011500D01*
X0049060Y0012450D02*
Y0011500D01*
X0048970Y0012450D02*
Y0011500D01*
X0037150Y0004150D02*
Y0002650D01*
X0037060Y0004150D02*
Y0002650D01*
X0036970Y0004150D02*
Y0002650D01*
X0036880Y0004150D02*
Y0002650D01*
X0036790Y0004150D02*
Y0002650D01*
X0038520Y0004130D02*
X0036750D01*
X0038610Y0004040D02*
X0036750D01*
X0038700Y0003950D02*
X0036750D01*
X0038790Y0003860D02*
X0036750D01*
X0038880Y0003770D02*
X0036750D01*
X0038970Y0003680D02*
X0036750D01*
X0039060Y0003590D02*
X0036750D01*
X0039150Y0003500D02*
X0036750D01*
X0038660Y0003410D02*
X0036750D01*
X0038570Y0003320D02*
X0036750D01*
X0038480Y0003230D02*
X0036750D01*
X0038390Y0003140D02*
X0036750D01*
X0038300Y0003050D02*
X0036750D01*
X0038210Y0002960D02*
X0036750D01*
X0038120Y0002870D02*
X0036750D01*
X0038050Y0002780D02*
X0036750D01*
X0039040Y0003610D02*
Y0003450D01*
X0038950Y0003700D02*
Y0003450D01*
X0038860Y0003790D02*
Y0003450D01*
X0038770Y0003880D02*
Y0003450D01*
X0038680Y0003970D02*
Y0003430D01*
X0038590Y0004060D02*
Y0003340D01*
X0038500Y0004150D02*
Y0003250D01*
X0038410Y0004150D02*
Y0003160D01*
X0038320Y0004150D02*
Y0003070D01*
X0038230Y0004150D02*
Y0002980D01*
X0038050Y0002690D02*
X0036750D01*
X0038050Y0004150D02*
Y0002800D01*
X0037960Y0004150D02*
Y0002650D01*
X0037870Y0004150D02*
Y0002650D01*
X0037780Y0004150D02*
Y0002650D01*
X0037690Y0004150D02*
Y0002650D01*
X0037600Y0004150D02*
Y0002650D01*
X0037510Y0004150D02*
Y0002650D01*
X0037420Y0004150D02*
Y0002650D01*
X0037330Y0004150D02*
Y0002650D01*
X0037240Y0004150D02*
Y0002650D01*
X0038140Y0004150D02*
Y0002890D01*
X0036750Y0004150D02*
Y0002650D01*
X0038500Y0004150D02*
X0036750D01*
X0038500D02*
X0039200Y0003450D01*
X0038700D01*
X0038050Y0002800D01*
Y0002650D01*
X0036750D01*
X0039130Y0003520D02*
Y0003450D01*
X0049020Y0038700D02*
Y0035750D01*
X0048930Y0038700D02*
Y0035750D01*
X0048840Y0038700D02*
Y0035750D01*
X0048750Y0038700D02*
Y0035750D01*
X0048660Y0038700D02*
Y0035750D01*
X0048570Y0038700D02*
Y0035750D01*
X0048480Y0038700D02*
Y0035750D01*
X0048390Y0038700D02*
Y0035750D01*
X0048300Y0038700D02*
Y0035750D01*
X0048210Y0038700D02*
Y0035750D01*
X0048120Y0038700D02*
Y0035750D01*
X0048030Y0038700D02*
Y0035750D01*
X0047940Y0038700D02*
Y0035750D01*
X0050550Y0038670D02*
X0047900D01*
X0050550Y0038580D02*
X0047900D01*
X0050550Y0038490D02*
X0047900D01*
X0050550Y0038400D02*
X0047900D01*
X0050550Y0038310D02*
X0047900D01*
X0050550Y0038220D02*
X0047900D01*
X0050550Y0038130D02*
X0047900D01*
X0050550Y0038040D02*
X0047900D01*
X0050550Y0037950D02*
X0047900D01*
X0050550Y0037860D02*
X0047900D01*
X0050550Y0037770D02*
X0047900D01*
X0050550Y0037680D02*
X0047900D01*
X0050550Y0037590D02*
X0047900D01*
X0050550Y0037500D02*
X0047900D01*
X0050550Y0037410D02*
X0047900D01*
X0050550Y0037320D02*
X0047900D01*
X0050550Y0037230D02*
X0047900D01*
X0050550Y0037140D02*
X0047900D01*
X0050550Y0037050D02*
X0047900D01*
X0050550Y0036960D02*
X0047900D01*
X0050550Y0036870D02*
X0047900D01*
X0050550Y0036780D02*
X0047900D01*
X0050550Y0036690D02*
X0047900D01*
X0050550Y0036600D02*
X0047900D01*
X0050550Y0036510D02*
X0047900D01*
X0050550Y0036420D02*
X0047900D01*
X0050550Y0036330D02*
X0047900D01*
X0050550Y0036240D02*
X0047900D01*
X0050550Y0036150D02*
X0047900D01*
X0050550Y0036060D02*
X0047900D01*
X0050550Y0035970D02*
X0047900D01*
X0050550Y0035880D02*
X0047900D01*
X0050550Y0035750D02*
X0047900D01*
X0050550Y0038700D02*
Y0035750D01*
Y0038700D02*
X0047900D01*
Y0035750D01*
X0050550Y0035790D02*
X0047900D01*
X0050460Y0038700D02*
Y0035750D01*
X0050370Y0038700D02*
Y0035750D01*
X0050280Y0038700D02*
Y0035750D01*
X0050190Y0038700D02*
Y0035750D01*
X0050100Y0038700D02*
Y0035750D01*
X0050010Y0038700D02*
Y0035750D01*
X0049920Y0038700D02*
Y0035750D01*
X0049830Y0038700D02*
Y0035750D01*
X0049740Y0038700D02*
Y0035750D01*
X0049650Y0038700D02*
Y0035750D01*
X0049560Y0038700D02*
Y0035750D01*
X0049470Y0038700D02*
Y0035750D01*
X0049380Y0038700D02*
Y0035750D01*
X0049290Y0038700D02*
Y0035750D01*
X0049200Y0038700D02*
Y0035750D01*
X0049110Y0038700D02*
Y0035750D01*
X0046550Y0077000D02*
Y0074150D01*
X0046460Y0077000D02*
Y0074150D01*
X0046370Y0077000D02*
Y0074150D01*
X0046280Y0077000D02*
Y0074150D01*
X0046190Y0077000D02*
Y0074150D01*
X0046100Y0077000D02*
Y0074150D01*
X0046010Y0077000D02*
Y0074150D01*
X0045920Y0077000D02*
Y0074150D01*
X0045830Y0077000D02*
Y0074150D01*
X0045740Y0077000D02*
Y0074150D01*
X0045650Y0077000D02*
Y0074150D01*
X0045560Y0077000D02*
Y0074150D01*
X0045470Y0077000D02*
Y0074150D01*
X0045380Y0077000D02*
Y0074150D01*
X0045290Y0077000D02*
Y0074150D01*
X0045200Y0077000D02*
Y0074150D01*
X0045110Y0077000D02*
Y0074150D01*
X0045020Y0077000D02*
Y0074150D01*
X0044930Y0077000D02*
Y0074150D01*
X0044840Y0077000D02*
Y0074150D01*
X0047950Y0076980D02*
X0044800D01*
X0047950Y0076890D02*
X0044800D01*
X0047950Y0076800D02*
X0044800D01*
X0047950Y0076710D02*
X0044800D01*
X0047950Y0076620D02*
X0044800D01*
X0047950Y0076530D02*
X0044800D01*
X0047950Y0076440D02*
X0044800D01*
X0047950Y0076350D02*
X0044800D01*
X0047950Y0076260D02*
X0044800D01*
X0047950Y0076170D02*
X0044800D01*
X0047950Y0076080D02*
X0044800D01*
X0047950Y0075990D02*
X0044800D01*
X0047950Y0075900D02*
X0044800D01*
X0047950Y0075810D02*
X0044800D01*
X0047950Y0075720D02*
X0044800D01*
X0047950Y0075630D02*
X0044800D01*
X0047950Y0075540D02*
X0044800D01*
X0047950Y0075450D02*
X0044800D01*
X0047950Y0075360D02*
X0044800D01*
X0047950Y0075270D02*
X0044800D01*
X0047950Y0075180D02*
X0044800D01*
X0047950Y0075090D02*
X0044800D01*
X0047950Y0075000D02*
X0044800D01*
X0047950Y0074910D02*
X0044800D01*
X0047950Y0074820D02*
X0044800D01*
X0047950Y0074730D02*
X0044800D01*
X0047950Y0074640D02*
X0044800D01*
X0047950Y0074550D02*
X0044800D01*
X0047950Y0074460D02*
X0044800D01*
X0047950Y0074370D02*
X0044800D01*
X0047950Y0074280D02*
X0044800D01*
X0047950Y0074190D02*
X0044800D01*
X0047950Y0074150D02*
X0044800D01*
X0047950Y0077000D02*
Y0074150D01*
Y0077000D02*
X0044800D01*
Y0074150D01*
X0047900Y0077000D02*
Y0074150D01*
X0047810Y0077000D02*
Y0074150D01*
X0047720Y0077000D02*
Y0074150D01*
X0047630Y0077000D02*
Y0074150D01*
X0047540Y0077000D02*
Y0074150D01*
X0047450Y0077000D02*
Y0074150D01*
X0047360Y0077000D02*
Y0074150D01*
X0047270Y0077000D02*
Y0074150D01*
X0047180Y0077000D02*
Y0074150D01*
X0047090Y0077000D02*
Y0074150D01*
X0047000Y0077000D02*
Y0074150D01*
X0046910Y0077000D02*
Y0074150D01*
X0046820Y0077000D02*
Y0074150D01*
X0046730Y0077000D02*
Y0074150D01*
X0046640Y0077000D02*
Y0074150D01*
X0047390Y0063700D02*
Y0061150D01*
X0047300Y0063700D02*
Y0061150D01*
X0047210Y0063700D02*
Y0061150D01*
X0047120Y0063700D02*
Y0061150D01*
X0047030Y0063700D02*
Y0061150D01*
X0046940Y0063700D02*
Y0061150D01*
X0046850Y0063700D02*
Y0061150D01*
X0046760Y0063700D02*
Y0062400D01*
X0046670Y0063700D02*
Y0062400D01*
X0046580Y0063700D02*
Y0062400D01*
X0046490Y0063700D02*
Y0062400D01*
X0046400Y0063700D02*
Y0062400D01*
X0046310Y0063700D02*
Y0062400D01*
X0046220Y0063700D02*
Y0062400D01*
X0046130Y0063700D02*
Y0062400D01*
X0046040Y0063700D02*
Y0062400D01*
X0045950Y0063700D02*
Y0062400D01*
X0045860Y0063700D02*
Y0062400D01*
X0045770Y0063700D02*
Y0062400D01*
X0045680Y0063700D02*
Y0062400D01*
X0045590Y0063700D02*
Y0062400D01*
X0045500Y0063700D02*
Y0062400D01*
X0045410Y0063700D02*
Y0062400D01*
X0045320Y0063700D02*
Y0062400D01*
X0045230Y0063700D02*
Y0062400D01*
X0045140Y0063700D02*
Y0062400D01*
X0048750Y0063620D02*
X0045100D01*
X0048750Y0063530D02*
X0045100D01*
X0048750Y0063440D02*
X0045100D01*
X0048750Y0063350D02*
X0045100D01*
X0048750Y0063260D02*
X0045100D01*
X0048750Y0063170D02*
X0045100D01*
X0048750Y0063080D02*
X0045100D01*
X0048750Y0062990D02*
X0045100D01*
X0048750Y0062900D02*
X0045100D01*
X0048750Y0062810D02*
X0045100D01*
X0048750Y0062720D02*
X0045100D01*
X0048750Y0062630D02*
X0045100D01*
X0048750Y0062540D02*
X0045100D01*
X0048750Y0062450D02*
X0045100D01*
X0048750Y0062360D02*
X0046800D01*
X0048750Y0062270D02*
X0046800D01*
X0048750Y0062180D02*
X0046800D01*
X0048750Y0062090D02*
X0046800D01*
X0048750Y0062000D02*
X0046800D01*
X0048750Y0061910D02*
X0046800D01*
X0048750Y0061820D02*
X0046800D01*
X0048750Y0061730D02*
X0046800D01*
X0048750Y0061640D02*
X0046800D01*
X0048750Y0061550D02*
X0046800D01*
X0048750Y0061460D02*
X0046800D01*
X0048750Y0061370D02*
X0046800D01*
X0048750Y0061280D02*
X0046800D01*
X0048750Y0061190D02*
X0046800D01*
X0048750Y0061150D02*
X0046800D01*
X0048750Y0063700D02*
Y0061150D01*
Y0063700D02*
X0045100D01*
Y0062400D01*
X0046800D02*
X0045100D01*
X0046800D02*
Y0061150D01*
X0048740Y0063700D02*
Y0061150D01*
X0048650Y0063700D02*
Y0061150D01*
X0048560Y0063700D02*
Y0061150D01*
X0048470Y0063700D02*
Y0061150D01*
X0048380Y0063700D02*
Y0061150D01*
X0048290Y0063700D02*
Y0061150D01*
X0048200Y0063700D02*
Y0061150D01*
X0048110Y0063700D02*
Y0061150D01*
X0048020Y0063700D02*
Y0061150D01*
X0047930Y0063700D02*
Y0061150D01*
X0047840Y0063700D02*
Y0061150D01*
X0047750Y0063700D02*
Y0061150D01*
X0047660Y0063700D02*
Y0061150D01*
X0047570Y0063700D02*
Y0061150D01*
X0047480Y0063700D02*
Y0061150D01*
G54D10*
X0000000Y0000000D03*
X0047638D03*
Y0080311D03*
X0000000D03*
G54D29*
X0049484Y-0006266D03*
X0047516D03*
X0046531Y-0007250D03*
X0047516Y-0008234D03*
X0049484D03*
X0048500Y-0007250D03*
G54D31*
X0037574Y-0010106D03*
X0036787Y-0010893D03*
Y-0010106D03*
X0036000Y-0010893D03*
Y-0010106D03*
X0035213Y-0010893D03*
Y-0010106D03*
X0034425Y-0010893D03*
Y-0010106D03*
G54D32*
X0037574Y-0010893D03*
G54D34*
X0008189Y0016181D03*
Y0014606D03*
X0006811Y0013819D03*
Y0015394D03*
X0013189Y0016181D03*
Y0014606D03*
X0011811Y0013819D03*
Y0015394D03*
G54D36*
X0047653Y-0010250D03*
X0050346D03*
G54D37*
X0049492D03*
G54D38*
X0048508D03*
G54D39*
X0031000Y-0010750D03*
X0032000D03*
Y-0009750D03*
X0031000D03*
X0030000D03*
G54D40*
X0043250Y-0001000D03*
X0030000Y-0010750D03*
G54D68*
X0042250Y-0001000D03*
X0041250D03*
G54D85*
X0022181Y-0010439D03*
X0020606D03*
X0019819Y-0009061D03*
X0021394D03*
X0025644Y-0010439D03*
X0024856Y-0009061D03*
X0042319Y0005189D03*
X0043894D03*
X0044681Y0003811D03*
X0043106D03*
X0017037Y-0010439D03*
X0015463D03*
X0016250Y-0009061D03*
G54D86*
X0043150Y0017170D03*
Y0016776D03*
Y0016383D03*
Y0015989D03*
G54D87*
X0041683D03*
Y0016383D03*
Y0016776D03*
Y0017170D03*
G54D114*
X0050750Y-0011500D03*
X0050500Y0081000D03*
X-0002500D03*
M02*
