*
G04 Mass Parameters ***
*
G04 Image ***
*
%IND:\UTENTI\00.LAVORI IN CORSO\METALTRONICA\22-303-0\22-303-0.IN1*%
%ICAS*%
%MOIN*%
%IPPOS*%
%ASAXBY*%
G74*%FSLAN2X34Y34*%
*
G04 Aperture Definitions ***
*
%AMTHERMAL89*
1,1,0.1211,0,0,*
1,0,0.0972,0,0,*
21,0,0.1212,0.0100,0,0,225.0*
21,0,0.1212,0.0100,0,0,315.0*%
%AMTHERMAL99*
1,1,0.1172,0,0,*
1,0,0.0933,0,0,*
21,0,0.1173,0.0100,0,0,45.0*
21,0,0.1173,0.0100,0,0,135.0*%
%AMTHERMAL104*
1,1,0.1172,0,0,*
1,0,0.0933,0,0,*
21,0,0.1173,0.0100,0,0,225.0*
21,0,0.1173,0.0100,0,0,315.0*%
%ADD10C,0.2362*%
%ADD11C,0.0394*%
%ADD12R,0.0380X0.0320*%
%ADD13R,0.1180X0.1060*%
%ADD14R,0.0404X0.0501*%
%ADD15R,0.0501X0.0404*%
%ADD16R,0.0630X0.1260*%
%ADD17R,0.0710X0.0400*%
%ADD18R,0.0320X0.0380*%
%ADD19R,0.1260X0.0630*%
%ADD20R,0.0400X0.0710*%
%ADD21R,0.0886X0.0905*%
%ADD22R,0.0905X0.0886*%
%ADD23R,0.1024X0.0510*%
%ADD24R,0.0500X0.0400*%
%ADD25R,0.0197X0.0315*%
%ADD26R,0.0850X0.1080*%
%ADD27R,0.0472X0.0472*%
%ADD28R,0.1669X0.1500*%
%ADD29C,0.1000*%
%ADD30R,0.1220X0.0905*%
%ADD31C,0.0610*%
%ADD32R,0.0610X0.0610*%
%ADD33C,0.0433*%
%ADD34R,0.2165X0.0472*%
%ADD35C,0.0512*%
%ADD36C,0.0866*%
%ADD37R,0.0669X0.0669*%
%ADD38C,0.0669*%
%ADD39C,0.0787*%
%ADD40R,0.0787X0.0787*%
%ADD41R,0.0236X0.0413*%
%ADD42C,0.0276*%
%ADD43C,0.0187*%
%ADD44R,0.0709X0.0354*%
%ADD45C,0.0551*%
%ADD46R,0.0354X0.0709*%
%ADD47R,0.0680X0.1580*%
%ADD48R,0.0680X0.0550*%
%ADD49R,0.0570X0.0590*%
%ADD50R,0.0630X0.0866*%
%ADD51R,0.0590X0.0433*%
%ADD52R,0.1080X0.0850*%
%ADD53O,0.0256X0.0650*%
%ADD54R,0.0236X0.0512*%
%ADD55R,0.1220X0.0950*%
%ADD56R,0.0240X0.0750*%
%ADD57R,0.0354X0.0165*%
%ADD58R,0.0236X0.0157*%
%ADD59R,0.1701X0.1181*%
%ADD60R,0.0177X0.0649*%
%ADD61O,0.0118X0.0590*%
%ADD62R,0.1181X0.1701*%
%ADD63R,0.0649X0.0177*%
%ADD64R,0.0157X0.0236*%
%ADD65O,0.0590X0.0118*%
%ADD66R,0.0500X0.0270*%
%ADD67R,0.0270X0.0500*%
%ADD68C,0.0800*%
%ADD69R,0.0512X0.0354*%
%ADD70O,0.0110X0.0700*%
%ADD71R,0.0110X0.0700*%
%ADD72O,0.0700X0.0110*%
%ADD73R,0.0700X0.0110*%
%ADD74C,0.0236*%
%ADD75C,0.0100*%
%ADD76C,0.0050*%
%ADD77C,0.0236*%
%ADD78C,0.0080*%
%ADD79C,0.0236*%
%ADD80C,0.0150*%
%ADD81C,0.0400*%
%ADD82C,0.0250*%
%ADD83C,0.0500*%
%ADD84C,0.0236*%
%ADD85R,0.0472X0.2165*%
%ADD86R,0.0787X0.0236*%
%ADD87R,0.0669X0.0236*%
%ADD88C,0.0050*%
%ADD89THERMAL89*%
%ADD90C,0.1181*%
%ADD91C,0.0710*%
%ADD92R,0.0710X0.0710*%
%ADD93C,0.0630*%
%ADD94C,0.0700*%
%ADD95C,0.1024*%
%ADD96R,0.0827X0.0827*%
%ADD97C,0.0866*%
%ADD98C,0.1027*%
%ADD99THERMAL99*%
%ADD100R,0.0984X0.0984*%
%ADD101C,0.0750*%
%ADD102C,0.0600*%
%ADD103C,0.1100*%
%ADD104THERMAL104*%
%ADD105R,0.0984X0.0984*%
%ADD106C,0.0394*%
%ADD107C,0.0394*%
%ADD108C,0.0050*%
%ADD109C,0.0394*%
%ADD110C,0.0050*%
%ADD111C,0.1378*%
%ADD112C,0.0550*%
%ADD113C,0.0390*%
*
G04 Plot Data ***
*
G54D75*
G01X-0000808Y-0003842D02*
X-0000642D01*
X-0000725D02*
Y-0003342D01*
X-0000642Y-0003425D01*
X-0000317Y-0003342D02*
Y-0003842D01*
X-0000233Y-0003758D01*
X-0000067Y-0003425D01*
X0000017Y-0003342D01*
Y-0003842D01*
X0000258D02*
X0000425D01*
X0000342D02*
Y-0003342D01*
X0000258D02*
X0000425D01*
X0045880Y0018700D02*
Y0017850D01*
X0046850Y0017890D02*
X0045750D01*
X0046850Y0018610D02*
X0045750D01*
X0046850Y0018520D02*
X0045750D01*
X0046850Y0018430D02*
X0045750D01*
X0046850Y0018340D02*
X0045750D01*
X0046850Y0018250D02*
X0045750D01*
X0046850Y0018160D02*
X0045750D01*
X0046850Y0018070D02*
X0045750D01*
X0046850Y0017980D02*
X0045750D01*
X0046780Y0018700D02*
Y0017850D01*
X0046690Y0018700D02*
Y0017850D01*
X0046600Y0018700D02*
Y0017850D01*
X0046510Y0018700D02*
Y0017850D01*
X0046420Y0018700D02*
Y0017850D01*
X0046330Y0018700D02*
Y0017850D01*
X0046240Y0018700D02*
Y0017850D01*
X0046150Y0018700D02*
Y0017850D01*
X0046060Y0018700D02*
Y0017850D01*
X0045970Y0018700D02*
Y0017850D01*
X0045790Y0018700D02*
Y0017850D01*
X0046850D02*
X0045750D01*
X0046850Y0018700D02*
Y0017850D01*
Y0018700D02*
X0045750D01*
Y0017850D01*
X0045350Y0017170D02*
X0044050D01*
X0045350Y0017080D02*
X0044050D01*
X0045350Y0016990D02*
X0044050D01*
X0045350Y0016900D02*
X0044050D01*
X0045350Y0016810D02*
X0044050D01*
X0045350Y0016720D02*
X0044050D01*
X0045350Y0016630D02*
X0044050D01*
X0045350Y0016540D02*
X0044050D01*
X0045350Y0016450D02*
X0044050D01*
X0045350Y0016360D02*
X0044050D01*
X0045350Y0016270D02*
X0044050D01*
X0045350Y0016180D02*
X0044050D01*
X0044630Y0017600D02*
Y0016050D01*
X0044540Y0017600D02*
Y0016050D01*
X0044450Y0017600D02*
Y0016050D01*
X0044360Y0017600D02*
Y0016050D01*
X0044270Y0017600D02*
Y0016050D01*
X0044180Y0017600D02*
Y0016050D01*
X0044090Y0017600D02*
Y0016050D01*
X0045170Y0017530D02*
X0044050D01*
X0045260Y0017440D02*
X0044050D01*
X0045350Y0017350D02*
X0044050D01*
X0045350Y0017260D02*
X0044050D01*
X0045100Y0017600D02*
X0045350Y0017350D01*
X0045100Y0017600D02*
X0044050D01*
Y0016050D01*
X0045350Y0016090D02*
X0044050D01*
X0045260Y0017440D02*
Y0016050D01*
X0045170Y0017530D02*
Y0016050D01*
X0045080Y0017600D02*
Y0016050D01*
X0044990Y0017600D02*
Y0016050D01*
X0044900Y0017600D02*
Y0016050D01*
X0044810Y0017600D02*
Y0016050D01*
X0044720Y0017600D02*
Y0016050D01*
X0045350D02*
X0044050D01*
X0045350Y0017350D02*
Y0016050D01*
X0006100Y0012930D02*
X0005400D01*
X0006100Y0012840D02*
X0005400D01*
X0006100Y0012750D02*
X0005400D01*
X0006100Y0012660D02*
X0005400D01*
X0006100Y0012570D02*
X0005400D01*
X0006100Y0012480D02*
X0005400D01*
X0006100Y0012390D02*
X0005400D01*
X0006100Y0012300D02*
X0005400D01*
X0006100Y0012210D02*
X0005400D01*
X0006100Y0012120D02*
X0005400D01*
X0006100Y0012030D02*
X0005400D01*
X0006070Y0013250D02*
Y0011900D01*
X0005980Y0013250D02*
Y0011900D01*
X0005890Y0013250D02*
Y0011900D01*
X0005800Y0013250D02*
Y0011900D01*
X0005710Y0013250D02*
Y0011900D01*
X0005620Y0013250D02*
Y0011900D01*
X0005530Y0013250D02*
Y0011900D01*
X0005440Y0013250D02*
Y0011900D01*
X0006100Y0013200D02*
X0005400D01*
X0006100Y0013110D02*
X0005400D01*
X0006100Y0013020D02*
X0005400D01*
X0006100Y0011940D02*
X0005400D01*
X0006100Y0011900D02*
X0005400D01*
X0006100Y0013250D02*
Y0011900D01*
Y0013250D02*
X0005400D01*
Y0011900D01*
X0029350Y0012580D02*
X0028600D01*
X0029350Y0012490D02*
X0028600D01*
X0029350Y0012400D02*
X0028600D01*
X0029350Y0012310D02*
X0028600D01*
X0029350Y0012220D02*
X0028600D01*
X0029350Y0012130D02*
X0028600D01*
X0029350Y0012040D02*
X0028600D01*
X0029350Y0011950D02*
X0028600D01*
X0029350Y0011860D02*
X0028600D01*
X0029350Y0011770D02*
X0028600D01*
X0029350Y0011680D02*
X0028600D01*
X0028820Y0013350D02*
Y0011550D01*
X0028730Y0013350D02*
Y0011550D01*
X0028640Y0013350D02*
Y0011550D01*
X0029350Y0013300D02*
X0028600D01*
X0029350Y0013210D02*
X0028600D01*
X0029350Y0013120D02*
X0028600D01*
X0029350Y0013030D02*
X0028600D01*
X0029350Y0012940D02*
X0028600D01*
X0029350Y0012850D02*
X0028600D01*
X0029350Y0012760D02*
X0028600D01*
X0029350Y0012670D02*
X0028600D01*
X0029350Y0011550D02*
X0028600D01*
X0029350Y0013350D02*
Y0011550D01*
Y0013350D02*
X0028600D01*
Y0011550D01*
X0029270Y0013350D02*
Y0011550D01*
X0029180Y0013350D02*
Y0011550D01*
X0029090Y0013350D02*
Y0011550D01*
X0029000Y0013350D02*
Y0011550D01*
X0028910Y0013350D02*
Y0011550D01*
X0029350Y0011590D02*
X0028600D01*
X0029500Y0006080D02*
X0028550D01*
X0029500Y0005990D02*
X0028550D01*
X0029500Y0005900D02*
X0028550D01*
X0029500Y0005810D02*
X0028550D01*
X0029500Y0005720D02*
X0028550D01*
X0029500Y0005630D02*
X0028550D01*
X0029500Y0005540D02*
X0028550D01*
X0029500Y0005450D02*
X0028550D01*
X0029500Y0005360D02*
X0028550D01*
X0029500Y0005270D02*
X0028550D01*
X0029500Y0005180D02*
X0028550D01*
X0029220Y0006350D02*
Y0005050D01*
X0029130Y0006350D02*
Y0005050D01*
X0029040Y0006350D02*
Y0005050D01*
X0028950Y0006350D02*
Y0005050D01*
X0028860Y0006350D02*
Y0005050D01*
X0028770Y0006350D02*
Y0005050D01*
X0028680Y0006350D02*
Y0005050D01*
X0029500Y0005090D02*
X0028550D01*
X0029500Y0006260D02*
X0028550D01*
X0029500Y0006170D02*
X0028550D01*
X0028590Y0006350D02*
Y0005050D01*
X0029500D02*
X0028550D01*
X0029500Y0006350D02*
Y0005050D01*
Y0006350D02*
X0028550D01*
Y0005050D01*
X0029490Y0006350D02*
Y0005050D01*
X0029400Y0006350D02*
Y0005050D01*
X0029310Y0006350D02*
Y0005050D01*
X0044080Y0006100D02*
Y0005250D01*
X0044690Y0005290D02*
X0043950D01*
X0043990Y0006100D02*
Y0005250D01*
X0044850Y0006010D02*
X0043950D01*
X0044850Y0005920D02*
X0043950D01*
X0044850Y0005830D02*
X0043950D01*
X0044850Y0005740D02*
X0043950D01*
X0044850Y0005650D02*
X0043950D01*
X0044850Y0005560D02*
X0043950D01*
X0044850Y0005470D02*
X0043950D01*
X0044780Y0005380D02*
X0043950D01*
Y0006100D02*
Y0005250D01*
X0044000D02*
X0043950D01*
X0044800Y0006100D02*
Y0005400D01*
X0044710Y0006100D02*
Y0005310D01*
X0044620Y0006100D02*
Y0005250D01*
X0044530Y0006100D02*
Y0005250D01*
X0044440Y0006100D02*
Y0005250D01*
X0044350Y0006100D02*
Y0005250D01*
X0044260Y0006100D02*
Y0005250D01*
X0044170Y0006100D02*
Y0005250D01*
X0044650D02*
X0044000D01*
X0044850Y0005450D02*
X0044650Y0005250D01*
X0044850Y0006100D02*
Y0005450D01*
Y0006100D02*
X0043950D01*
X0045600Y-0003820D02*
X0044150D01*
X0045600Y-0003910D02*
X0044150D01*
X0045600Y-0004000D02*
X0044150D01*
X0045600Y-0004090D02*
X0044150D01*
X0045600Y-0004180D02*
X0044150D01*
X0045600Y-0004270D02*
X0044150D01*
X0045600Y-0004360D02*
X0044150D01*
X0045600Y-0004450D02*
X0044150D01*
X0045600Y-0004540D02*
X0044150D01*
X0045600Y-0004630D02*
X0044150D01*
X0045600Y-0004720D02*
X0044150D01*
X0045000Y-0003700D02*
Y-0004850D01*
X0044910Y-0003700D02*
Y-0004850D01*
X0044820Y-0003700D02*
Y-0004850D01*
X0044730Y-0003700D02*
Y-0004850D01*
X0044640Y-0003700D02*
Y-0004850D01*
X0044550Y-0003700D02*
Y-0004850D01*
X0044460Y-0003700D02*
Y-0004850D01*
X0044370Y-0003700D02*
Y-0004850D01*
X0044280Y-0003700D02*
Y-0004850D01*
X0044190Y-0003700D02*
Y-0004850D01*
X0045600Y-0003730D02*
X0044150D01*
X0045600Y-0003700D02*
X0044150D01*
X0045600D02*
Y-0004850D01*
X0044150D01*
X0045540Y-0003700D02*
Y-0004850D01*
X0045450Y-0003700D02*
Y-0004850D01*
X0045360Y-0003700D02*
Y-0004850D01*
X0045270Y-0003700D02*
Y-0004850D01*
X0045180Y-0003700D02*
Y-0004850D01*
X0045090Y-0003700D02*
Y-0004850D01*
X0045600Y-0004810D02*
X0044150D01*
Y-0003700D02*
Y-0004850D01*
X0025930Y0008680D02*
X0025643D01*
X0025930Y0009940D02*
X0025520D01*
X0018000Y0008002D02*
Y0005748D01*
X0022330Y-0000320D02*
X0022217D01*
X0025560Y0008202D02*
Y0007831D01*
X0022330Y-0000680D02*
X0018000D01*
X0021873Y0005800D02*
X0021343D01*
X0025930Y0010300D02*
X0025520D01*
X0028350Y0017950D02*
X0018000D01*
X0019902Y0017500D02*
X0018000D01*
X0022680Y0006970D02*
X0022146D01*
X0019859Y0017590D02*
X0018000D01*
X0020700Y0018800D02*
Y0015546D01*
X0022140Y0007970D02*
Y0007062D01*
X0019890Y0017518D02*
Y0007831D01*
X0019980Y0018800D02*
Y0017867D01*
X0018990Y0018800D02*
Y0004220D01*
X0022680Y0007330D02*
X0020910D01*
X0020160Y0018800D02*
Y0017890D01*
X0022680Y0006790D02*
X0022032D01*
X0018180Y0005329D02*
Y-0001400D01*
X0022980Y0005710D02*
X0022259D01*
X0022980Y0005800D02*
X0022327D01*
X0020370Y0007870D02*
X0022092Y0006148D01*
X0020752Y0008950D02*
X0020667D01*
X0020709Y0009040D02*
X0020532D01*
X0019620Y0018800D02*
Y0007770D01*
X0020985Y0005530D02*
X0018246D01*
X0026730Y0009670D02*
X0026270D01*
X0020250Y0018800D02*
Y0017847D01*
X0019890Y0003987D02*
Y0002472D01*
X0020249Y0007510D02*
X0020031D01*
X0022679Y0007420D02*
X0022593D01*
X0021149Y0006610D02*
X0018000D01*
X0022153Y0007960D02*
X0020370D01*
X0026730Y0009850D02*
X0026270D01*
X0027555Y0013540D02*
X0026270D01*
X0026730Y0010210D02*
X0026270D01*
X0028350Y0014800D02*
X0026270D01*
X0020070Y0007690D02*
Y0002488D01*
X0026010Y0018800D02*
Y0017031D01*
X0028350Y0014350D02*
X0026270D01*
X0028350Y0014530D02*
X0026270D01*
X0022980Y0005890D02*
X0022348D01*
X0022730Y0004670D02*
X0022532Y0004472D01*
X0026730Y0008950D02*
X0026270D01*
X0026280Y0018800D02*
Y0016970D01*
X0022730Y0006430D02*
X0022980Y0006179D01*
X0028350Y0015160D02*
X0026270D01*
X0027630Y0011920D02*
X0026270D01*
X0022730Y0005079D02*
Y0004670D01*
X0021510Y0005155D02*
Y0004389D01*
X0028350Y0016870D02*
X0026338D01*
X0022330Y-0001130D02*
X0021561D01*
X0019800Y0003852D02*
Y0002396D01*
X0026507Y0011200D02*
X0026270D01*
X0022898Y0005392D02*
X0022980Y0005310D01*
X0027595Y0013360D02*
X0026270D01*
X0027630Y0012280D02*
X0026270D01*
X0026730Y0010840D02*
X0026270D01*
X0020152Y0004000D02*
X0019893D01*
X0022480Y0003820D02*
X0019743D01*
X0027630Y0013319D02*
Y0007530D01*
X0020030Y0010840D02*
X0018000D01*
X0022020Y0010829D02*
Y0010730D01*
X0025180Y0011020D02*
X0022447D01*
X0028350Y0006610D02*
X0026280D01*
X0020030Y0013990D02*
X0018000D01*
X0020700Y0015253D02*
Y0010996D01*
X0025380Y0013900D02*
X0021647D01*
X0027450Y0003757D02*
Y0003743D01*
X0022410Y0007930D02*
Y0007881D01*
X0021280Y0011200D02*
X0021070D01*
X0027630Y0013270D02*
X0026270D01*
X0021280Y0011470D02*
X0021070D01*
X0020790Y0002005D02*
Y-0001400D01*
X0022680Y0007419D02*
Y0006550D01*
X0028350Y0013990D02*
X0026270D01*
X0022320Y0007930D02*
Y0007820D01*
X0021280Y0011650D02*
X0021070D01*
X0028350Y0016420D02*
X0026270D01*
X0021345Y0005260D02*
X0018062D01*
X0022539Y0007930D02*
X0022507Y0007898D01*
X0022500Y0007930D02*
Y0007898D01*
X0025380Y0015520D02*
X0021117D01*
X0025930Y0012730D02*
X0025720D01*
X0019980Y0007429D02*
Y0002497D01*
X0025650Y0018800D02*
Y0017277D01*
X0025930Y0012640D02*
X0025720D01*
X0025200Y0008570D02*
Y0007440D01*
X0025560Y0007369D02*
Y0007080D01*
X0020880Y0002039D02*
Y-0001400D01*
X0025930Y0015430D02*
X0025720D01*
X0025380Y0015610D02*
X0021032D01*
X0025880Y0007420D02*
X0025820D01*
X0028350Y0015340D02*
X0026270D01*
X0020700Y0010703D02*
Y0009597D01*
X0028350Y0006430D02*
X0026450D01*
X0028350Y0015250D02*
X0026270D01*
X0028080Y0018800D02*
Y0002770D01*
X0028350Y0003010D02*
X0026598D01*
X0026460Y0002778D02*
Y0002770D01*
X0027289Y0003370D02*
X0026470D01*
X0026665Y0008320D02*
X0026335D01*
X0025880Y0007960D02*
X0024680D01*
X0025380Y0015790D02*
X0020370D01*
X0024750Y0008823D02*
Y0007890D01*
X0025880Y0008050D02*
X0024590D01*
X0028350Y0006160D02*
X0026470D01*
X0025470Y0007429D02*
Y0007170D01*
X0027269Y0003910D02*
X0026470D01*
X0028350Y0006520D02*
X0026370D01*
X0028350Y0013540D02*
X0028045D01*
X0028350Y0016150D02*
X0026270D01*
X0024120Y0010039D02*
Y0008720D01*
X0022020Y0011569D02*
Y0011520D01*
X0025435Y0008230D02*
X0024597D01*
X0025880Y0007060D02*
X0025580D01*
X0025740Y0008290D02*
Y0007831D01*
X0022320Y0005162D02*
Y-0001400D01*
X0025930Y0015340D02*
X0025720D01*
X0025380Y0015700D02*
X0020370D01*
X0025740Y0018800D02*
Y0017209D01*
X0021783Y-0000320D02*
X0018000D01*
X0022230Y0005689D02*
Y0005647D01*
X0021870Y0008930D02*
Y0008820D01*
X0018090Y0008019D02*
Y0005731D01*
X0024480Y0010157D02*
Y0009230D01*
X0021930Y0008180D02*
X0022127Y0007982D01*
X0021880Y0008469D02*
Y0008300D01*
X0025339Y0008320D02*
X0024588D01*
X0022439Y0008680D02*
X0022296D01*
X0022688Y0011740D02*
X0022098D01*
X0021280D02*
X0021070D01*
X0025880Y0007150D02*
X0025490D01*
X0021280Y0010480D02*
X0020370D01*
X0022330Y0001210D02*
X0021955D01*
X0021852Y0005890D02*
X0021305D01*
X0028350Y0016600D02*
X0026270D01*
X0021754Y-0000230D02*
X0018000D01*
X0024544Y0008096D02*
X0025880Y0006760D01*
X0018630Y0003879D02*
Y0002764D01*
X0018270Y0018800D02*
Y0004220D01*
X0018360Y0018800D02*
Y0004281D01*
X0022512Y0004450D02*
X0018000D01*
X0018239Y0004180D02*
X0018000D01*
X0018990Y0002445D02*
Y-0001400D01*
X0022730Y0004990D02*
X0018000D01*
X0020030Y0008500D02*
X0018000D01*
X0022730Y0004720D02*
X0018000D01*
X0025930Y0013180D02*
X0025720D01*
X0027630Y0013000D02*
X0026270D01*
X0025853Y0016780D02*
X0025720D01*
X0025930Y0011380D02*
X0025620D01*
X0020790Y0018800D02*
Y0015622D01*
X0025930Y0010930D02*
X0025520D01*
X0025180Y0009310D02*
X0021082D01*
X0021937Y0000040D02*
X0018000D01*
X0025930Y0016420D02*
X0025720D01*
X0025930Y0016330D02*
X0025720D01*
X0025520Y0008720D02*
X0025542Y0008698D01*
X0020250Y0003923D02*
Y-0001400D01*
X0025930Y0010210D02*
X0025520D01*
X0025930Y0012910D02*
X0025720D01*
X0024030Y0018800D02*
Y0010364D01*
X0023040Y0011415D02*
Y0009270D01*
X0020790Y0010628D02*
Y0009640D01*
X0022480Y0002830D02*
X0019020D01*
X0025873Y0008500D02*
X0025793D01*
X0023620Y0009220D02*
X0024342Y0008498D01*
X0022480Y0003010D02*
X0018000D01*
X0022500Y0008930D02*
Y0008740D01*
X0020030Y0008050D02*
X0018146D01*
X0023310Y0018800D02*
Y0009270D01*
X0021657Y0001120D02*
X0018000D01*
X0023220Y0018800D02*
Y0009270D01*
X0022950Y0018800D02*
Y0011741D01*
X0022330Y-0001310D02*
X0018000D01*
X0023850Y0018800D02*
Y0008990D01*
X0028350Y0016330D02*
X0026270D01*
X0025880Y0007240D02*
X0025400D01*
X0020370Y0008573D02*
Y0007870D01*
X0021280Y0011020D02*
X0021080D01*
X0028350Y0018800D02*
X0018000D01*
X0025852Y0008410D02*
X0025795D01*
X0025910Y0016960D02*
X0025781D01*
X0022410Y0008930D02*
Y0008650D01*
X0027180Y0018800D02*
Y0002770D01*
X0028170Y0018800D02*
Y0002770D01*
X0021330Y0008930D02*
Y0008511D01*
X0024570Y0008135D02*
Y0008070D01*
X0022330Y0001390D02*
X0021995D01*
X0025930Y0015070D02*
X0025720D01*
X0025930Y0009850D02*
X0025520D01*
X0022603Y0011650D02*
X0022077D01*
X0025880Y0007870D02*
X0024770D01*
X0025930Y0016600D02*
X0025720D01*
X0025930Y0009310D02*
X0025520D01*
X0025479Y0007420D02*
X0025220D01*
X0021070Y0015219D02*
Y0011030D01*
X0022539Y0007930D02*
X0022250D01*
X0022680Y0005129D02*
Y0004620D01*
X0020430Y0018800D02*
Y0009045D01*
X0020407Y0009040D02*
X0020370D01*
X0021150Y0005507D02*
Y0004346D01*
X0021960Y-0000445D02*
Y-0001400D01*
X0021780Y0005307D02*
Y0001596D01*
X0021690Y0005195D02*
Y0001590D01*
X0021139Y-0001130D02*
X0018000D01*
X0020610Y0002045D02*
Y-0001400D01*
X0020030Y0008230D02*
X0018247D01*
X0021600Y0001152D02*
Y-0001400D01*
X0025380Y0015430D02*
X0021146D01*
X0021330Y-0001247D02*
Y-0001400D01*
X0021150Y-0001146D02*
Y-0001400D01*
X0019795Y0002110D02*
X0018000D01*
X0020790Y0006969D02*
Y0002495D01*
X0021960Y0006759D02*
Y0006280D01*
X0020610Y0007149D02*
Y0002455D01*
X0020520Y0002157D02*
Y-0001400D01*
X0020430Y0003915D02*
Y-0001400D01*
X0020340Y0003902D02*
Y-0001400D01*
X0022729Y0005080D02*
X0018000D01*
X0019530Y0018800D02*
Y0004267D01*
X0020070Y0002012D02*
Y-0001400D01*
X0019980Y0002003D02*
Y-0001400D01*
X0019757Y0002200D02*
X0018000D01*
X0019710Y0003809D02*
Y-0001400D01*
X0019620Y0003804D02*
Y-0001400D01*
X0020519Y0007240D02*
X0018000D01*
X0019800Y0002103D02*
Y-0001400D01*
X0019080Y0002557D02*
Y-0001400D01*
X0019350Y0003880D02*
Y-0001400D01*
X0019260Y0003880D02*
Y-0001400D01*
X0019170Y0003880D02*
Y-0001400D01*
X0019440Y0003880D02*
Y-0001400D01*
X0019530Y0003833D02*
Y-0001400D01*
X0019557Y0003820D02*
X0018543D01*
X0018720Y0002439D02*
Y-0001400D01*
X0022480Y0003550D02*
X0018000D01*
X0018450Y0003802D02*
Y-0001400D01*
X0018000Y0005252D02*
Y-0001400D01*
X0018270Y0003879D02*
Y-0001400D01*
X0028350Y0016780D02*
X0026347D01*
X0019968Y0017860D02*
X0018000D01*
X0028350Y0018760D02*
X0018000D01*
X0028350Y0018670D02*
X0018000D01*
X0028350Y0018580D02*
X0018000D01*
X0028350Y0018490D02*
X0018000D01*
X0028350Y0018400D02*
X0018000D01*
X0028350Y0018310D02*
X0018000D01*
X0028350Y0018220D02*
X0018000D01*
X0028350Y0018130D02*
X0018000D01*
X0028350Y0018040D02*
X0018000D01*
X0022680Y0006880D02*
X0022117D01*
X0020030Y0015610D02*
X0018000D01*
X0022140Y0006937D02*
Y0006145D01*
X0019890Y0018800D02*
Y0017782D01*
X0028350Y0017500D02*
X0020370D01*
X0020030Y0015790D02*
X0018000D01*
X0028350Y0017410D02*
X0020370D01*
X0028350Y0017320D02*
X0020370D01*
X0020030D02*
X0018000D01*
X0020030Y0017230D02*
X0018000D01*
X0020030Y0017140D02*
X0018000D01*
X0020030Y0017050D02*
X0018000D01*
X0020030Y0016960D02*
X0018000D01*
X0020030Y0016870D02*
X0018000D01*
X0020030Y0016780D02*
X0018000D01*
X0020030Y0016690D02*
X0018000D01*
X0020030Y0016600D02*
X0018000D01*
X0020030Y0016510D02*
X0018000D01*
X0020030Y0016420D02*
X0018000D01*
X0020030Y0016330D02*
X0018000D01*
X0020030Y0016240D02*
X0018000D01*
X0020030Y0016150D02*
X0018000D01*
X0020030Y0016060D02*
X0018000D01*
X0020030Y0015880D02*
X0018000D01*
X0020730Y0015219D02*
Y0011030D01*
X0028350Y0017860D02*
X0020232D01*
X0020030Y0015700D02*
X0018000D01*
X0019883Y0017770D02*
X0018000D01*
X0020030Y0015520D02*
X0018000D01*
X0020030Y0015430D02*
X0018000D01*
X0020030Y0015340D02*
X0018000D01*
X0020030Y0015250D02*
X0018000D01*
X0020030Y0015160D02*
X0018000D01*
X0020030Y0015070D02*
X0018000D01*
X0020030Y0014980D02*
X0018000D01*
X0020030Y0014890D02*
X0018000D01*
X0020030Y0014800D02*
X0018000D01*
X0020030Y0014710D02*
X0018000D01*
X0020030Y0014620D02*
X0018000D01*
X0020030Y0014530D02*
X0018000D01*
X0020030Y0014440D02*
X0018000D01*
X0020030Y0014350D02*
X0018000D01*
X0020030Y0014260D02*
X0018000D01*
X0020030Y0014170D02*
X0018000D01*
X0020030Y0014080D02*
X0018000D01*
X0022860Y0018800D02*
Y0011775D01*
X0020030Y0013720D02*
X0018000D01*
X0020030Y0013630D02*
X0018000D01*
X0020030Y0013540D02*
X0018000D01*
X0020030Y0013450D02*
X0018000D01*
X0020030Y0013360D02*
X0018000D01*
X0020030Y0013270D02*
X0018000D01*
X0020030Y0013180D02*
X0018000D01*
X0020030Y0013090D02*
X0018000D01*
X0020030Y0013000D02*
X0018000D01*
X0020030Y0012910D02*
X0018000D01*
X0020030Y0012820D02*
X0018000D01*
X0020030Y0012730D02*
X0018000D01*
X0020030Y0012640D02*
X0018000D01*
X0020030Y0012550D02*
X0018000D01*
X0020030Y0012460D02*
X0018000D01*
X0020030Y0012370D02*
X0018000D01*
X0020030Y0012280D02*
X0018000D01*
X0020030Y0012190D02*
X0018000D01*
X0020030Y0012100D02*
X0018000D01*
X0020030Y0012010D02*
X0018000D01*
X0020030Y0011920D02*
X0018000D01*
X0020030Y0011830D02*
X0018000D01*
X0020030Y0011740D02*
X0018000D01*
X0020030Y0011650D02*
X0018000D01*
X0020030Y0011560D02*
X0018000D01*
X0020030Y0011470D02*
X0018000D01*
X0020030Y0011380D02*
X0018000D01*
X0020880Y0005635D02*
Y0002461D01*
X0020030Y0011200D02*
X0018000D01*
X0020030Y0011110D02*
X0018000D01*
X0020030Y0011020D02*
X0018000D01*
X0020030Y0010930D02*
X0018000D01*
X0020030Y0010750D02*
X0018000D01*
X0020030Y0010660D02*
X0018000D01*
X0020030Y0010570D02*
X0018000D01*
X0020030Y0010480D02*
X0018000D01*
X0020030Y0010390D02*
X0018000D01*
X0020030Y0010300D02*
X0018000D01*
X0020030Y0010210D02*
X0018000D01*
X0020030Y0010120D02*
X0018000D01*
X0020030Y0010030D02*
X0018000D01*
X0020030Y0009940D02*
X0018000D01*
X0020030Y0009850D02*
X0018000D01*
X0020030Y0009760D02*
X0018000D01*
X0020030Y0009670D02*
X0018000D01*
X0020030Y0009580D02*
X0018000D01*
X0020030Y0009490D02*
X0018000D01*
X0020030Y0009400D02*
X0018000D01*
X0020030Y0009310D02*
X0018000D01*
X0026730Y0008219D02*
Y0002770D01*
X0020030Y0009130D02*
X0018000D01*
X0025880Y0008140D02*
X0024572D01*
X0020030D02*
X0018222D01*
X0020030Y0008590D02*
X0018000D01*
X0020030Y0007870D02*
X0018000D01*
X0020030Y0008410D02*
X0018189D01*
X0020030Y0008320D02*
X0018238D01*
X0019620Y0007429D02*
Y0004296D01*
X0019080Y0018800D02*
Y0004220D01*
X0019629Y0007780D02*
X0018000D01*
X0019440Y0018800D02*
Y0004220D01*
X0019552Y0007600D02*
X0018000D01*
X0020970Y0005539D02*
Y0002364D01*
X0021880Y0008410D02*
X0021422D01*
X0020031Y0007780D02*
X0019970D01*
X0020339Y0007420D02*
X0019970D01*
X0019569Y0007510D02*
X0018000D01*
X0026635Y0011470D02*
X0026270D01*
X0020609Y0007150D02*
X0018000D01*
X0019535Y0004270D02*
X0018564D01*
X0020699Y0007060D02*
X0018000D01*
X0027630Y0012370D02*
X0026270D01*
X0020789Y0006970D02*
X0018000D01*
X0020969Y0006790D02*
X0018000D01*
X0020700Y0002007D02*
Y-0001400D01*
X0021059Y0006700D02*
X0018000D01*
X0021239Y0006520D02*
X0018000D01*
X0021419Y0006340D02*
X0018000D01*
X0020080Y0007680D02*
X0021852Y0005907D01*
X0021509Y0006250D02*
X0018000D01*
X0021599Y0006160D02*
X0018000D01*
X0021689Y0006070D02*
X0018000D01*
X0021510Y-0001189D02*
Y-0001400D01*
X0020895Y0005890D02*
X0018000D01*
X0020855Y0005710D02*
X0018132D01*
X0020889Y0005620D02*
X0018217D01*
X0021305Y0005440D02*
X0018240D01*
X0021307Y0005350D02*
X0018197D01*
X0021007Y0005980D02*
X0018000D01*
X0020857Y0005800D02*
X0018000D01*
X0018630Y0018800D02*
Y0004220D01*
X0026190Y0018800D02*
Y0017031D01*
X0021457Y0005170D02*
X0018000D01*
X0022730Y0004810D02*
X0018000D01*
X0022330Y0002350D02*
Y-0001400D01*
X0019469Y0003880D02*
X0018630D01*
X0022689Y0004630D02*
X0018000D01*
X0018810Y0018800D02*
Y0004220D01*
X0018720Y0018800D02*
Y0004220D01*
X0022599Y0004540D02*
X0018000D01*
X0018207Y0004000D02*
X0018000D01*
X0020880Y0018800D02*
Y0015647D01*
X0026730Y0009490D02*
X0026270D01*
X0018630Y0002535D02*
Y-0001400D01*
X0018679Y0002830D02*
X0018000D01*
X0018619Y0002740D02*
X0018000D01*
X0022480Y0003460D02*
X0018000D01*
X0022480Y0003370D02*
X0018000D01*
X0022480Y0003280D02*
X0018000D01*
X0018540Y0003819D02*
Y-0001400D01*
X0022480Y0003640D02*
X0018000D01*
X0018090Y0005269D02*
Y-0001400D01*
X0022480Y0002920D02*
X0018000D01*
X0018602Y0002650D02*
X0018000D01*
X0022480Y0002740D02*
X0019081D01*
X0022480Y0002650D02*
X0019098D01*
X0022330Y-0001400D02*
X0018000D01*
X0020520Y0003969D02*
Y0002343D01*
X0019890Y0002028D02*
Y-0001400D01*
X0019789Y0002380D02*
X0018000D01*
X0019907Y0002020D02*
X0018000D01*
X0022330Y0001930D02*
X0018000D01*
X0022330Y0001840D02*
X0018000D01*
X0018619Y0002560D02*
X0018000D01*
X0022330Y0001660D02*
X0018000D01*
X0021635Y0001570D02*
X0018000D01*
X0021539Y0001480D02*
X0018000D01*
X0025930Y0015250D02*
X0025720D01*
X0021505Y0001390D02*
X0018000D01*
X0022330Y0001030D02*
X0018000D01*
X0022330Y0000940D02*
X0018000D01*
X0022330Y0000850D02*
X0018000D01*
X0022330Y0000760D02*
X0018000D01*
X0028350Y0016240D02*
X0026270D01*
X0022330Y0000580D02*
X0018000D01*
X0022330Y0000490D02*
X0018000D01*
X0022330Y0000400D02*
X0018000D01*
X0021280Y0010840D02*
X0021148D01*
X0022330Y-0000500D02*
X0018000D01*
X0021802Y-0000050D02*
X0018000D01*
X0021759Y-0000140D02*
X0018000D01*
X0022330Y-0000230D02*
X0022246D01*
X0022330Y0000220D02*
X0018000D01*
X0022330Y0000130D02*
X0018000D01*
X0021868Y-0000410D02*
X0018000D01*
X0025930Y0014800D02*
X0025720D01*
X0021545Y0001210D02*
X0018000D01*
X0022330Y-0000590D02*
X0018000D01*
X0021128Y0004090D02*
X0020590D01*
X0020287Y0003910D02*
X0019855D01*
X0021145Y-0000860D02*
X0018000D01*
X0020030Y0015970D02*
X0018000D01*
X0022135Y0005620D02*
X0021664D01*
X0022039Y0005530D02*
X0021761D01*
X0020030Y0017412D02*
Y0007800D01*
X0019980Y0017433D02*
Y0007770D01*
X0018090Y0018800D02*
Y0008481D01*
X0019800Y0018800D02*
Y0007848D01*
X0019710Y0018800D02*
Y0007831D01*
X0028350Y0016060D02*
X0026270D01*
X0022689Y0008930D02*
X0022357Y0008598D01*
X0020030Y0007960D02*
X0018000D01*
X0019350Y0018800D02*
Y0004220D01*
X0019260Y0018800D02*
Y0004220D01*
X0019170Y0018800D02*
Y0004220D01*
X0020160Y0002060D02*
Y-0001400D01*
X0019890Y0007369D02*
Y0004112D01*
X0019800Y0007352D02*
Y0004247D01*
X0019710Y0007369D02*
Y0004290D01*
X0019569Y0007690D02*
X0018000D01*
X0018720Y0003880D02*
Y0002861D01*
X0027630Y0012820D02*
X0026270D01*
X0018180Y0018800D02*
Y0008420D01*
X0020133Y0004270D02*
X0019764D01*
X0020429Y0007330D02*
X0018000D01*
X0018540Y0018800D02*
Y0004281D01*
X0018450Y0018800D02*
Y0004298D01*
X0019469Y0004220D02*
X0018630D01*
X0020879Y0006880D02*
X0018000D01*
X0018245Y0003910D02*
X0018000D01*
X0025380Y0018800D02*
Y0017230D01*
X0028350Y0014890D02*
X0026270D01*
X0022770Y0006389D02*
Y0005617D01*
X0022590Y0005159D02*
Y0004530D01*
X0025930Y0010120D02*
X0025520D01*
X0028290Y0008860D02*
X0027970D01*
X0028350Y0017230D02*
X0025720D01*
X0028350Y0018800D02*
Y0009277D01*
X0024660Y0018800D02*
Y0013481D01*
X0024210Y0018800D02*
Y0010495D01*
X0025380Y0012010D02*
X0021620D01*
X0025180Y0010120D02*
X0024461D01*
X0025180Y0010840D02*
X0022389D01*
X0025180Y0010300D02*
X0024493D01*
X0024840Y0018800D02*
Y0013481D01*
X0025380Y0013720D02*
X0021696D01*
X0024300Y0018800D02*
Y0010493D01*
X0024120Y0018800D02*
Y0010461D01*
X0024390Y0018800D02*
Y0010455D01*
X0025290Y0018800D02*
Y0011530D01*
X0025930Y0015520D02*
X0025720D01*
X0025930Y0015610D02*
X0025720D01*
X0025930Y0015700D02*
X0025720D01*
X0025930Y0015790D02*
X0025720D01*
X0025930Y0015880D02*
X0025720D01*
X0025930Y0015970D02*
X0025720D01*
X0025930Y0016060D02*
X0025720D01*
X0025930Y0016150D02*
X0025720D01*
X0025930Y0016240D02*
X0025720D01*
X0025930Y0016510D02*
X0025720D01*
X0018205Y0004090D02*
X0018000D01*
X0027630Y0012640D02*
X0026270D01*
X0018900Y0002407D02*
Y-0001400D01*
X0019080Y0003880D02*
Y0002743D01*
X0018990Y0003880D02*
Y0002855D01*
X0018900Y0003880D02*
Y0002893D01*
X0018810Y0003880D02*
Y0002895D01*
X0018360Y0003819D02*
Y-0001400D01*
X0022480Y0003190D02*
X0018000D01*
X0022480Y0003100D02*
X0018000D01*
X0024300Y0010007D02*
Y0008540D01*
X0023490Y0018800D02*
Y0009270D01*
X0023940Y0018800D02*
Y0008900D01*
X0024423Y0008950D02*
X0023890D01*
X0027630Y0011200D02*
X0027037D01*
X0020030Y0009220D02*
X0018000D01*
X0023400Y0018800D02*
Y0009270D01*
X0020619Y0009310D02*
X0020370D01*
X0025180Y0009040D02*
X0024898D01*
X0022680Y0011325D02*
Y0009270D01*
X0022590Y0011437D02*
Y0009270D01*
X0022140Y0008930D02*
Y0008881D01*
X0022574Y0011560D02*
X0022332D01*
X0022140Y-0000405D02*
Y-0001400D01*
X0023040Y0018800D02*
Y0011644D01*
X0022590Y0008930D02*
Y0008830D01*
X0024490Y0008860D02*
X0023980D01*
X0021420Y-0001238D02*
Y-0001400D01*
Y0009654D02*
Y0009270D01*
X0018335Y0004270D02*
X0018000D01*
X0020070Y0007690D02*
X0020031D01*
X0020030Y0013900D02*
X0018000D01*
X0023670Y0018800D02*
Y0009170D01*
X0026550Y0002853D02*
Y0002770D01*
X0021235Y-0001220D02*
X0018000D01*
X0022469Y0002560D02*
X0019081D01*
X0018810Y0002405D02*
Y-0001400D01*
X0022045Y0005260D02*
X0021755D01*
X0019629Y0007420D02*
X0018000D01*
X0020030Y0009040D02*
X0018000D01*
X0027970Y0013319D02*
Y0007530D01*
X0022689Y0008930D02*
X0021130D01*
X0025930Y0014440D02*
X0025720D01*
X0025180Y0009490D02*
X0021081D01*
X0025180Y0009580D02*
X0021020D01*
X0021833Y0008770D02*
X0020716D01*
X0020700Y0009202D02*
Y0008893D01*
X0025930Y0014530D02*
X0025720D01*
X0021060Y0006699D02*
Y0005995D01*
X0018180Y0008079D02*
Y0005670D01*
X0021600Y0005157D02*
Y0001547D01*
X0025180Y0009130D02*
X0024885D01*
X0025670Y0011430D02*
X0025520Y0011279D01*
X0025930Y0008860D02*
X0025520D01*
X0025230Y0008530D02*
X0025302Y0008457D01*
X0025191Y0008590D02*
X0024250D01*
X0021870Y0001133D02*
Y0000011D01*
X0025930Y0009040D02*
X0025520D01*
X0021510Y0001287D02*
Y-0000810D01*
X0025380Y0013540D02*
X0021620D01*
X0025180Y0011350D02*
Y0008650D01*
X0021960Y0001218D02*
Y0000045D01*
X0025290Y0008469D02*
Y0007350D01*
X0025930Y0009130D02*
X0025520D01*
X0025930Y0011470D02*
X0025700D01*
X0025930Y0013540D02*
X0025720D01*
X0025930Y0012010D02*
X0025720D01*
X0025380Y0011620D02*
X0025232Y0011472D01*
X0025930Y0009220D02*
X0025520D01*
X0025930Y0008950D02*
X0025520D01*
X0025930Y0008770D02*
X0025520D01*
X0025379Y0016870D02*
X0020370D01*
X0025862D02*
X0025720D01*
X0025930Y0011200D02*
X0025520D01*
X0025380Y0016869D02*
Y0011620D01*
X0025930Y0011290D02*
X0025530D01*
X0025380Y0015160D02*
X0021070D01*
X0020030Y0008680D02*
X0018000D01*
X0025930Y0011920D02*
X0025720D01*
X0028350Y0017140D02*
X0025781D01*
X0018000Y0018800D02*
Y0008498D01*
X0020970Y0018800D02*
Y0015638D01*
X0022157Y0005170D02*
X0021643D01*
X0025930Y0011830D02*
X0025720D01*
X0021060Y0018800D02*
Y0015589D01*
X0028350Y0014080D02*
X0026270D01*
X0022622Y0011380D02*
X0022446D01*
X0025930Y0012460D02*
X0025720D01*
X0025930Y0011110D02*
X0025520D01*
X0025930Y0011650D02*
X0025720D01*
X0025930Y0011740D02*
X0025720D01*
X0025930Y0013630D02*
X0025720D01*
X0025930Y0013450D02*
X0025720D01*
X0022320Y0005785D02*
Y0005638D01*
X0025930Y0014260D02*
X0025720D01*
X0025930Y0013720D02*
X0025720D01*
X0025930Y0015160D02*
X0025720D01*
X0025930Y0013810D02*
X0025720D01*
X0025878Y0016690D02*
X0025720D01*
X0025930Y0014890D02*
X0025720D01*
X0021780Y-0000314D02*
Y-0001400D01*
X0020104Y0004180D02*
X0019861D01*
X0022330Y0000670D02*
X0018000D01*
X0025930Y0014980D02*
X0025720D01*
X0025930Y0009580D02*
X0025520D01*
X0025930Y0014170D02*
X0025720D01*
X0025930Y0011020D02*
X0025520D01*
X0025930Y0012280D02*
X0025720D01*
X0022330Y0001120D02*
X0021843D01*
X0025560Y0011319D02*
Y0008698D01*
X0025865Y0008320D02*
X0025761D01*
X0025380Y0013810D02*
X0021690D01*
X0026730Y0008680D02*
X0026270D01*
Y0016619D02*
Y0008580D01*
X0027610Y0007510D02*
X0026220D01*
X0025920Y0016629D02*
Y0008570D01*
X0028350Y0016690D02*
X0026322D01*
X0021780Y0001104D02*
Y-0000085D01*
X0022480Y0004270D02*
X0021588D01*
X0022330Y-0001220D02*
X0021464D01*
X0026545Y0011110D02*
X0026270D01*
X0026539Y0011380D02*
X0026270D01*
X0027630Y0011740D02*
X0026270D01*
X0027630Y0011650D02*
X0026270D01*
X0027630Y0012460D02*
X0026270D01*
X0025930Y0012820D02*
X0025720D01*
X0021240Y0005545D02*
Y0004422D01*
X0027630Y0013180D02*
X0026270D01*
X0020970Y0002135D02*
Y-0001400D01*
X0026730Y0009580D02*
X0026270D01*
X0027630Y0013090D02*
X0026270D01*
X0022330Y-0001040D02*
X0021595D01*
X0027630Y0012730D02*
X0026270D01*
X0022480Y0003730D02*
X0018000D01*
X0026730Y0010030D02*
X0026270D01*
X0028350Y0015880D02*
X0026270D01*
X0028350Y0015430D02*
X0026270D01*
X0021330Y0005657D02*
Y0005514D01*
X0019885Y0002470D02*
X0019020D01*
X0020635D02*
X0020114D01*
X0028350Y0014980D02*
X0026270D01*
X0028350Y0013810D02*
X0026270D01*
X0026730Y0009760D02*
X0026270D01*
X0028350Y0015070D02*
X0026270D01*
X0020030Y0008860D02*
X0018000D01*
X0028350Y0015700D02*
X0026270D01*
X0024390Y0010045D02*
Y0008495D01*
X0020507Y0002200D02*
X0020243D01*
X0024030Y0010135D02*
Y0008810D01*
X0022230Y0010754D02*
Y0009270D01*
X0021150Y0018800D02*
Y0009270D01*
X0022770Y0018800D02*
Y0011773D01*
X0020610Y0008595D02*
Y0007630D01*
X0022410Y0007419D02*
Y0005589D01*
X0022140Y0005655D02*
Y0005622D01*
X0025930Y0012100D02*
X0025720D01*
X0020218Y0004360D02*
X0018000D01*
X0028350Y0015610D02*
X0026270D01*
X0025470Y0018800D02*
Y0017285D01*
X0025930Y0011560D02*
X0025720D01*
X0024469Y0009220D02*
X0023620D01*
X0026640Y0018800D02*
Y0011472D01*
X0020030Y0011290D02*
X0018000D01*
X0025930Y0009490D02*
X0025520D01*
X0025930Y0009670D02*
X0025520D01*
X0021105Y-0001040D02*
X0018000D01*
X0021330Y0006429D02*
Y0005843D01*
X0025200Y0018800D02*
Y0011430D01*
X0025930Y0013990D02*
X0025720D01*
X0025650Y0011409D02*
Y0008677D01*
X0025740Y0016890D02*
Y0008609D01*
X0022330Y0001300D02*
X0021993D01*
X0025930Y0010570D02*
X0025520D01*
X0025880Y0008230D02*
X0025664D01*
X0025930Y0010390D02*
X0025520D01*
X0025930Y0014080D02*
X0025720D01*
X0025930Y0013900D02*
X0025720D01*
X0022330Y0001480D02*
X0021961D01*
X0025930Y0010750D02*
X0025520D01*
X0021420Y0003962D02*
Y-0000762D01*
X0021507Y0001300D02*
X0018000D01*
X0027630Y0012910D02*
X0026270D01*
X0027630Y0011830D02*
X0026270D01*
X0022333Y0002380D02*
X0020961D01*
X0022330Y0001750D02*
X0018000D01*
X0027630Y0012190D02*
X0026270D01*
X0021330Y0005285D02*
Y0004447D01*
X0022480Y0004360D02*
X0021539D01*
X0027685Y0013720D02*
X0026270D01*
X0021329Y0006430D02*
X0018000D01*
X0026730Y0010300D02*
X0026270D01*
X0026730Y0009940D02*
X0026270D01*
X0022330Y-0000860D02*
X0021555D01*
X0020657Y0002020D02*
X0020093D01*
X0025930Y0013000D02*
X0025720D01*
X0027589Y0013630D02*
X0026270D01*
X0022480Y0004090D02*
X0021572D01*
X0028350Y0015520D02*
X0026270D01*
X0026730Y0010120D02*
X0026270D01*
X0028350Y0014710D02*
X0026270D01*
X0020539Y0002380D02*
X0020211D01*
X0020545Y0002110D02*
X0020205D01*
X0028350Y0014260D02*
X0026270D01*
X0020505Y0002290D02*
X0020245D01*
X0028350Y0016510D02*
X0026270D01*
X0021420Y0005189D02*
Y0004438D01*
X0025380Y0012100D02*
X0021620D01*
X0028350Y0011470D02*
X0027970D01*
X0027630Y0007600D02*
X0026220D01*
X0028350Y0007510D02*
X0027989D01*
X0028350Y0007240D02*
X0028022D01*
X0027360Y0018800D02*
Y0007205D01*
X0028350Y0004270D02*
X0026470D01*
X0028350Y0008770D02*
X0027970D01*
X0021330Y0009683D02*
Y0009270D01*
X0024415Y0009130D02*
X0023710D01*
X0022230Y0018800D02*
Y0011596D01*
X0021280Y0013540D02*
X0021070D01*
X0021690Y0018800D02*
Y0013812D01*
X0024007Y0010300D02*
X0021620D01*
X0025180Y0009400D02*
X0021098D01*
X0021870Y-0000411D02*
Y-0001400D01*
X0021150Y0006609D02*
Y0005993D01*
X0021240Y0006519D02*
Y0005955D01*
X0026730Y0009130D02*
X0026270D01*
X0027630Y0008410D02*
X0027148D01*
X0027450Y0006757D02*
Y0004243D01*
X0027259Y0007060D02*
X0026220D01*
X0025180Y0008680D02*
X0024160D01*
X0021940Y0005710D02*
X0021345D01*
X0026730Y0009220D02*
X0026270D01*
X0023500Y0009270D02*
X0021130D01*
X0026220Y0008183D02*
Y0006670D01*
X0025930Y0014620D02*
X0025720D01*
X0025830Y0007429D02*
Y0006810D01*
X0027329Y0003820D02*
X0026470D01*
X0026460Y0018800D02*
Y0006407D01*
X0027630Y0007960D02*
X0026220D01*
Y0006670D02*
X0026418Y0006472D01*
X0025880Y0008285D02*
Y0007693D01*
X0028350Y0003100D02*
X0026577D01*
X0028350Y0002920D02*
X0026585D01*
X0027630Y0007690D02*
X0026220D01*
X0028350Y0003190D02*
X0026520D01*
X0025305Y0008410D02*
X0024539D01*
X0027437Y0007240D02*
X0026220D01*
X0026652Y0008410D02*
X0026348D01*
X0026520Y0003198D02*
Y0003180D01*
X0028350Y0008230D02*
X0027970D01*
X0027810Y0007102D02*
Y0002770D01*
X0027255Y0003460D02*
X0026470D01*
Y0006350D02*
Y0003318D01*
X0027630Y0007870D02*
X0026220D01*
X0025930Y0016619D02*
Y0008580D01*
X0026550Y0011103D02*
Y0003146D01*
X0028350Y0017050D02*
X0025798D01*
X0028350Y0014620D02*
X0026270D01*
X0025880Y0007330D02*
X0025310D01*
X0021918Y0008860D02*
X0021012D01*
X0020520Y0018800D02*
Y0009043D01*
X0024660Y0008802D02*
Y0007980D01*
X0022230Y0008930D02*
Y0008820D01*
X0022680Y0008930D02*
Y0008920D01*
X0026280Y0008229D02*
Y0006610D01*
X0021960Y0008930D02*
Y0008881D01*
X0021280Y0013569D02*
Y0010080D01*
X0022140Y0018800D02*
Y0011590D01*
X0021280Y0010750D02*
X0021127D01*
X0024402Y0009040D02*
X0023800D01*
X0027630Y0008860D02*
X0027070D01*
X0027630Y0008950D02*
X0027070D01*
X0027630Y0009040D02*
X0027070D01*
X0027630Y0011380D02*
X0026961D01*
X0027630Y0011470D02*
X0026864D01*
X0025180Y0011200D02*
X0022397D01*
X0026998Y0011242D02*
X0027018Y0011222D01*
X0025930Y0013090D02*
X0025720D01*
X0027630Y0008320D02*
X0027135D01*
X0026820Y0018800D02*
Y0011488D01*
X0027070Y0011100D02*
Y0008580D01*
X0027630Y0008680D02*
X0027070D01*
X0028350Y0002770D02*
X0026443D01*
X0022330Y-0000410D02*
X0022132D01*
X0020030Y0008950D02*
X0018000D01*
X0022050Y-0000443D02*
Y-0001400D01*
X0022557Y0005170D02*
X0022343D01*
X0022480Y0002570D02*
X0022382Y0002472D01*
X0020109Y0004090D02*
X0019895D01*
X0022480Y0004350D02*
Y0002570D01*
X0022657Y0005152D02*
X0022730Y0005079D01*
X0018357Y0003820D02*
X0018000D01*
X0021804Y0008680D02*
X0020687D01*
X0022500Y0005202D02*
Y0004430D01*
X0026100Y0018800D02*
Y0017048D01*
X0022140Y0005178D02*
Y0000005D01*
X0022500Y0007402D02*
Y0005597D01*
X0025930Y0009400D02*
X0025520D01*
X0022330Y-0000770D02*
X0021443D01*
X0022005Y0005440D02*
X0021795D01*
X0022980Y0005350D02*
X0022940D01*
X0022007D02*
X0021793D01*
X0025930Y0010480D02*
X0025520D01*
X0022330Y0001570D02*
X0021864D01*
X0025930Y0010660D02*
X0025520D01*
X0022410Y0010868D02*
Y0009270D01*
X0022320Y0010783D02*
Y0009270D01*
X0021357Y0009670D02*
X0020370D01*
X0021780Y0010312D02*
Y0009270D01*
X0021240Y0009768D02*
Y0009270D01*
X0021690Y0009837D02*
Y0009270D01*
X0021600Y0009702D02*
Y0009270D01*
X0021510Y0009659D02*
Y0009270D01*
X0022050Y0010403D02*
Y0009270D01*
X0021960Y0010328D02*
Y0009270D01*
X0021870Y0010303D02*
Y0009270D01*
X0022140Y0010759D02*
Y0009270D01*
X0022770Y0011287D02*
Y0009270D01*
X0021420Y0008185D02*
Y0006820D01*
X0020679Y0009220D02*
X0020370D01*
X0021060Y0010660D02*
Y0009532D01*
X0020970Y0010612D02*
Y0009617D01*
X0020880Y0010603D02*
Y0009646D01*
X0020679Y0009580D02*
X0020370D01*
X0020610Y0018800D02*
Y0009462D01*
X0023580Y0018800D02*
Y0009250D01*
X0028350Y0007150D02*
X0027946D01*
X0026719Y0008230D02*
X0026280D01*
X0025720Y0016869D02*
Y0011550D01*
X0025259Y0008500D02*
X0024340D01*
X0025880Y0006880D02*
X0025760D01*
X0025880Y0007780D02*
X0025820D01*
X0027630D02*
X0026220D01*
X0026730Y0008590D02*
X0026270D01*
X0025830Y0018800D02*
Y0007770D01*
X0025020Y0018800D02*
Y0007620D01*
X0028350Y0003640D02*
X0027705D01*
X0028350Y0003550D02*
X0027743D01*
X0028350Y0003460D02*
X0027745D01*
X0027720Y0003885D02*
Y0003614D01*
X0027630Y0003789D02*
Y0003711D01*
X0027540Y0003755D02*
Y0003745D01*
X0025930Y0014350D02*
X0025720D01*
X0027270Y0003407D02*
Y0002770D01*
Y0003907D02*
Y0003593D01*
X0025180Y0010930D02*
X0022438D01*
X0024039Y0010120D02*
X0021620D01*
X0024157Y0010480D02*
X0022088D01*
X0022050Y0010802D02*
Y0010696D01*
X0027360Y0003795D02*
Y0003705D01*
X0025180Y0010570D02*
X0022097D01*
X0022410Y0018800D02*
Y0011482D01*
X0024210Y0010005D02*
Y0008630D01*
X0025380Y0012370D02*
X0021620D01*
X0025380Y0012280D02*
X0021620D01*
X0025380Y0012190D02*
X0021620D01*
X0025380Y0011920D02*
X0022030D01*
X0021280Y0010930D02*
X0021135D01*
X0022590Y0018800D02*
Y0011623D01*
X0026550Y0018800D02*
Y0011396D01*
X0021280Y0011560D02*
X0021070D01*
X0022579Y0011470D02*
X0022417D01*
X0027630Y0011110D02*
X0027070D01*
X0027630Y0011020D02*
X0027070D01*
X0027630Y0010930D02*
X0027070D01*
X0027630Y0010840D02*
X0027070D01*
X0027630Y0010750D02*
X0027070D01*
X0027630Y0010660D02*
X0027070D01*
X0027630Y0010570D02*
X0027070D01*
X0027630Y0010480D02*
X0027070D01*
X0027630Y0010390D02*
X0027070D01*
X0027630Y0010300D02*
X0027070D01*
X0027630Y0010210D02*
X0027070D01*
X0027630Y0010120D02*
X0027070D01*
X0027630Y0010030D02*
X0027070D01*
X0027630Y0009940D02*
X0027070D01*
X0027630Y0009850D02*
X0027070D01*
X0027630Y0009760D02*
X0027070D01*
X0027630Y0009670D02*
X0027070D01*
X0027630Y0009580D02*
X0027070D01*
X0027630Y0009490D02*
X0027070D01*
X0027630Y0009400D02*
X0027070D01*
X0027630Y0009310D02*
X0027070D01*
X0027630Y0009220D02*
X0027070D01*
X0027630Y0009130D02*
X0027070D01*
X0027630Y0008140D02*
X0026220D01*
X0028350Y0003730D02*
X0027593D01*
X0025180Y0009220D02*
X0024830D01*
X0022050Y0018800D02*
Y0011896D01*
X0028350Y0011380D02*
X0027970D01*
X0028350Y0011290D02*
X0027970D01*
X0026910Y0018800D02*
Y0011439D01*
X0027630Y0008590D02*
X0027070D01*
X0027630Y0008500D02*
X0027127D01*
X0020520Y0007239D02*
Y0004330D01*
X0020430Y0007329D02*
Y0004385D01*
X0020340Y0007419D02*
Y0004398D01*
X0020250Y0007509D02*
Y0004377D01*
X0020160Y0007599D02*
Y0004309D01*
X0021150Y0004053D02*
Y-0000853D01*
X0021160Y0004360D02*
X0020482D01*
X0021203Y0004000D02*
X0020547D01*
X0021103Y0004180D02*
X0020596D01*
X0021112Y0004270D02*
X0020567D01*
X0022480Y0003910D02*
X0020412D01*
X0022050Y0005253D02*
Y0000043D01*
X0022950Y0006209D02*
Y0005340D01*
X0022680Y0006550D02*
Y0005646D01*
X0022590Y0007419D02*
Y0005640D01*
X0022980Y0005620D02*
X0022764D01*
X0022980Y0005530D02*
X0022861D01*
X0022980Y0005440D02*
X0022895D01*
X0024660Y0013019D02*
Y0009298D01*
X0022980Y0006179D02*
Y0005310D01*
X0022860Y0006299D02*
Y0005532D01*
X0025930Y0012370D02*
X0025720D01*
X0025930Y0012190D02*
X0025720D01*
X0025930Y0013270D02*
X0025720D01*
X0025930Y0013360D02*
X0025720D01*
X0021620Y0010457D02*
Y0010080D01*
X0021779Y0005980D02*
X0021193D01*
X0020880Y0006879D02*
Y0005864D01*
X0020970Y0006789D02*
Y0005961D01*
X0021852Y0008500D02*
X0021346D01*
X0020070Y0018800D02*
Y0017896D01*
X0022330Y0002110D02*
X0020955D01*
X0021420Y0008930D02*
Y0008414D01*
X0020970Y0008853D02*
Y0008393D01*
X0021060Y0008878D02*
Y0008505D01*
X0021150Y0008930D02*
Y0008543D01*
X0021240Y0008930D02*
Y0008545D01*
X0021969Y0008140D02*
X0021389D01*
X0021895Y0008230D02*
X0021438D01*
X0021339Y0005530D02*
X0021214D01*
X0021435Y0005620D02*
X0021311D01*
X0022330Y0002020D02*
X0020843D01*
X0021107Y-0000950D02*
X0018000D01*
X0022330Y0002200D02*
X0020993D01*
X0018679Y0002470D02*
X0018000D01*
X0022410Y0011218D02*
Y0011132D01*
X0028350Y0013270D02*
X0027970D01*
X0021280Y0011380D02*
X0021070D01*
X0022050Y0011603D02*
Y0011547D01*
X0022757Y0011290D02*
X0022440D01*
X0025180Y0011110D02*
X0022422D01*
X0025380Y0011830D02*
X0022085D01*
X0022068Y0011560D02*
X0022020D01*
X0025470Y0008215D02*
Y0007770D01*
X0021960Y0018800D02*
Y0011972D01*
X0022050Y0008930D02*
Y0008898D01*
X0022330Y0000310D02*
X0018000D01*
X0019755Y0002290D02*
X0018000D01*
X0022330Y0000040D02*
X0022062D01*
X0022330Y-0000050D02*
X0022197D01*
X0022330Y-0000140D02*
X0022240D01*
X0021257Y-0000770D02*
X0018000D01*
X0022410Y0005210D02*
Y0002500D01*
X0022230Y-0000293D02*
Y-0001400D01*
Y0005153D02*
Y-0000107D01*
X0021510Y0004010D02*
Y0001412D01*
X0021960Y0005695D02*
Y0001482D01*
X0021870Y0005807D02*
Y0001567D01*
X0022050Y0008059D02*
Y0007197D01*
X0021960Y0008149D02*
Y0007240D01*
X0021870Y0008479D02*
Y0007246D01*
X0022680Y0007240D02*
X0021962D01*
X0022680Y0007150D02*
X0022097D01*
X0022680Y0007060D02*
X0022140D01*
X0028350Y0017590D02*
X0020365D01*
X0028350Y0017680D02*
X0020346D01*
X0019854D02*
X0018000D01*
X0020030Y0017410D02*
X0018000D01*
X0025650Y0008223D02*
Y0007848D01*
X0025379Y0017230D02*
X0020370D01*
X0025319Y0017140D02*
X0020370D01*
X0026280Y0016629D02*
Y0008570D01*
X0025302Y0017050D02*
X0020370D01*
X0025319Y0016960D02*
X0020370D01*
X0025380Y0016780D02*
X0020370D01*
X0025380Y0016690D02*
X0020370D01*
X0025380Y0016600D02*
X0020370D01*
X0025380Y0016510D02*
X0020370D01*
X0025380Y0016420D02*
X0020370D01*
X0025380Y0016330D02*
X0020370D01*
X0025380Y0016240D02*
X0020370D01*
X0025380Y0016150D02*
X0020370D01*
X0025380Y0016060D02*
X0020370D01*
X0025380Y0015970D02*
X0020370D01*
X0025380Y0015880D02*
X0020370D01*
X0020768Y0015610D02*
X0020370D01*
X0020683Y0015520D02*
X0020370D01*
X0020654Y0015430D02*
X0020370D01*
X0020659Y0015340D02*
X0020370D01*
X0020702Y0015250D02*
X0020370D01*
X0020730Y0015160D02*
X0020370D01*
X0020730Y0015070D02*
X0020370D01*
X0020730Y0014980D02*
X0020370D01*
X0020730Y0014890D02*
X0020370D01*
X0020730Y0014800D02*
X0020370D01*
X0020730Y0014710D02*
X0020370D01*
X0020730Y0014620D02*
X0020370D01*
X0020730Y0014530D02*
X0020370D01*
X0020730Y0014440D02*
X0020370D01*
X0020730Y0014350D02*
X0020370D01*
X0020730Y0014260D02*
X0020370D01*
X0020730Y0014170D02*
X0020370D01*
X0020730Y0014080D02*
X0020370D01*
X0020730Y0013990D02*
X0020370D01*
X0020730Y0013900D02*
X0020370D01*
X0020730Y0013810D02*
X0020370D01*
X0020730Y0013720D02*
X0020370D01*
X0020730Y0013630D02*
X0020370D01*
X0020730Y0013540D02*
X0020370D01*
X0020730Y0013450D02*
X0020370D01*
X0020730Y0013360D02*
X0020370D01*
X0020730Y0013270D02*
X0020370D01*
X0020730Y0013180D02*
X0020370D01*
X0020730Y0013090D02*
X0020370D01*
X0020730Y0013000D02*
X0020370D01*
X0020730Y0012910D02*
X0020370D01*
X0020730Y0012820D02*
X0020370D01*
X0020730Y0012730D02*
X0020370D01*
X0020730Y0012640D02*
X0020370D01*
X0020730Y0012550D02*
X0020370D01*
X0020730Y0012460D02*
X0020370D01*
X0020730Y0012370D02*
X0020370D01*
X0020730Y0012280D02*
X0020370D01*
X0020730Y0012190D02*
X0020370D01*
X0020730Y0012100D02*
X0020370D01*
X0020730Y0012010D02*
X0020370D01*
X0020730Y0011920D02*
X0020370D01*
X0020730Y0011830D02*
X0020370D01*
X0020730Y0011740D02*
X0020370D01*
X0020730Y0011650D02*
X0020370D01*
X0020730Y0011560D02*
X0020370D01*
X0020730Y0011470D02*
X0020370D01*
X0020730Y0011380D02*
X0020370D01*
X0020730Y0011290D02*
X0020370D01*
X0020730Y0011200D02*
X0020370D01*
X0020730Y0011110D02*
X0020370D01*
X0020719Y0011020D02*
X0020370D01*
X0020665Y0010930D02*
X0020370D01*
X0020652Y0010840D02*
X0020370D01*
X0020673Y0010750D02*
X0020370D01*
X0020740Y0010660D02*
X0020370D01*
X0025180Y0010480D02*
X0024343D01*
X0021780Y0008930D02*
Y0007217D01*
X0027630Y0008770D02*
X0027070D01*
X0021280Y0010570D02*
X0020370D01*
X0021280Y0010390D02*
X0020370D01*
X0021280Y0010300D02*
X0020370D01*
X0021620Y0013569D02*
Y0011843D01*
X0021280Y0010210D02*
X0020370D01*
X0021239Y0010030D02*
X0020370D01*
X0021205Y0009940D02*
X0020370D01*
X0021207Y0009850D02*
X0020370D01*
X0021245Y0009760D02*
X0020370D01*
X0025180D02*
X0021655D01*
X0025180Y0009670D02*
X0021543D01*
X0020370Y0017550D02*
Y0009027D01*
X0020790Y0008910D02*
Y0007450D01*
X0020602Y0009400D02*
X0020370D01*
X0020704Y0009130D02*
X0020370D01*
X0020520Y0008557D02*
Y0007720D01*
X0020430Y0008555D02*
Y0007810D01*
X0027368Y0006790D02*
X0026220D01*
X0021053Y0008500D02*
X0020370D01*
X0020978Y0008410D02*
X0020370D01*
X0020953Y0008320D02*
X0020370D01*
X0020962Y0008230D02*
X0020370D01*
X0022059Y0008050D02*
X0020370D01*
X0022320Y0008930D02*
Y0008596D01*
X0022950Y0011319D02*
Y0009270D01*
X0021010Y0008140D02*
X0020370D01*
X0021150Y0008057D02*
Y0007090D01*
X0021060Y0008095D02*
Y0007180D01*
X0020880Y0008862D02*
Y0007360D01*
X0021330Y0008089D02*
Y0006910D01*
X0020887Y0008860D02*
X0020710D01*
X0021690Y0001109D02*
Y-0001400D01*
X0021780Y0006783D02*
Y0006460D01*
X0021690Y0008930D02*
Y0007132D01*
X0021600Y0008930D02*
Y0006640D01*
X0021510Y0008930D02*
Y0006730D01*
X0020970Y0008207D02*
Y0007270D01*
X0020700Y0008707D02*
Y0007540D01*
X0021809Y0008590D02*
X0020602D01*
X0021060Y0005505D02*
Y-0001400D01*
X0028350Y0017770D02*
X0020317D01*
X0020030Y0013810D02*
X0018000D01*
X0020340Y0018800D02*
Y0017712D01*
X0022385Y0007870D02*
X0020370D01*
X0022289Y0007780D02*
X0020460D01*
X0022255Y0007690D02*
X0020550D01*
X0022257Y0007600D02*
X0020640D01*
X0022295Y0007510D02*
X0020730D01*
X0022407Y0007420D02*
X0020820D01*
X0021870Y0006754D02*
Y0006370D01*
X0021837Y0007240D02*
X0021000D01*
X0021702Y0007150D02*
X0021090D01*
X0021659Y0007060D02*
X0021180D01*
X0021654Y0006970D02*
X0021270D01*
X0021683Y0006880D02*
X0021360D01*
X0022680Y0006700D02*
X0021540D01*
X0022680Y0006610D02*
X0021630D01*
X0022683Y0006520D02*
X0021720D01*
X0022729Y0006430D02*
X0021810D01*
X0022819Y0006340D02*
X0021900D01*
X0022909Y0006250D02*
X0021990D01*
X0022980Y0006160D02*
X0022080D01*
X0022320Y0007479D02*
Y0006014D01*
X0022230Y0007931D02*
Y0006111D01*
X0021768Y0006790D02*
X0021450D01*
X0021690Y0006868D02*
Y0006550D01*
X0022050Y0006802D02*
Y0006190D01*
X0022980Y0006070D02*
X0022280D01*
X0028350Y0014170D02*
X0026270D01*
X0027630Y0012550D02*
X0026270D01*
X0022379Y0002470D02*
X0020864D01*
X0022330Y-0000950D02*
X0021593D01*
X0025920Y0018800D02*
Y0016970D01*
X0022480Y0004180D02*
X0021597D01*
X0027630Y0012010D02*
X0026270D01*
X0027630Y0012100D02*
X0026270D01*
X0026730Y0010660D02*
X0026270D01*
X0026730Y0010750D02*
X0026270D01*
X0026730Y0010390D02*
X0026270D01*
X0026730Y0010480D02*
X0026270D01*
X0026730Y0010570D02*
X0026270D01*
X0026730Y0010930D02*
X0026270D01*
X0026657Y0011020D02*
X0026270D01*
X0027630Y0011560D02*
X0026270D01*
X0026505Y0011290D02*
X0026270D01*
X0028350Y0016960D02*
X0026289D01*
X0022480Y0004000D02*
X0021496D01*
X0020610Y0009337D02*
Y0009005D01*
X0021880Y0008320D02*
X0021447D01*
X0027557Y0013450D02*
X0026270D01*
X0022980Y0005980D02*
X0022335D01*
X0021330Y0003953D02*
Y-0000753D01*
X0026730Y0008770D02*
X0026270D01*
X0026730Y0008860D02*
X0026270D01*
X0026730Y0009040D02*
X0026270D01*
X0026730Y0009310D02*
X0026270D01*
X0026730Y0009400D02*
X0026270D01*
X0027553Y0007330D02*
X0026220D01*
X0027254Y0006970D02*
X0026220D01*
X0028350Y0007690D02*
X0027970D01*
X0028350Y0007060D02*
X0027740D01*
X0027990Y0007190D02*
Y0002770D01*
X0027562Y0007420D02*
X0026220D01*
X0027630Y0006789D02*
Y0004211D01*
X0027540Y0006755D02*
Y0004245D01*
X0027283Y0006880D02*
X0026220D01*
X0027360Y0006795D02*
Y0004205D01*
X0027270Y0006907D02*
Y0004093D01*
X0025380Y0015340D02*
X0021140D01*
X0025380Y0015250D02*
X0021097D01*
X0025380Y0015070D02*
X0021070D01*
X0025380Y0014980D02*
X0021070D01*
X0025380Y0014890D02*
X0021070D01*
X0025380Y0014800D02*
X0021070D01*
X0025380Y0014710D02*
X0021070D01*
X0025380Y0014620D02*
X0021070D01*
X0025380Y0014530D02*
X0021070D01*
X0025380Y0014440D02*
X0021070D01*
X0025380Y0014350D02*
X0021070D01*
X0025380Y0014260D02*
X0021070D01*
X0021280Y0010660D02*
X0021059D01*
X0021387Y0013990D02*
X0021070D01*
X0021252Y0013900D02*
X0021070D01*
X0021690Y0013687D02*
Y0011939D01*
X0021204Y0013720D02*
X0021070D01*
X0021233Y0013630D02*
X0021070D01*
X0021280Y0011290D02*
X0021070D01*
X0021280Y0013450D02*
X0021070D01*
X0021280Y0013360D02*
X0021070D01*
X0021280Y0013270D02*
X0021070D01*
X0021280Y0013180D02*
X0021070D01*
X0021280Y0013090D02*
X0021070D01*
X0021280Y0013000D02*
X0021070D01*
X0021280Y0012910D02*
X0021070D01*
X0021280Y0012820D02*
X0021070D01*
X0021280Y0012730D02*
X0021070D01*
X0021280Y0012640D02*
X0021070D01*
X0021280Y0012550D02*
X0021070D01*
X0021280Y0012460D02*
X0021070D01*
X0021280Y0012370D02*
X0021070D01*
X0021280Y0012280D02*
X0021070D01*
X0021280Y0012190D02*
X0021070D01*
X0021280Y0012100D02*
X0021070D01*
X0021240Y0008055D02*
Y0007000D01*
X0021660Y0010390D02*
X0021620D01*
X0021280Y0011920D02*
X0021070D01*
X0021280Y0011830D02*
X0021070D01*
X0021280Y0012010D02*
X0021070D01*
X0028350Y0003370D02*
X0027711D01*
X0021240Y-0001222D02*
Y-0001400D01*
Y0003978D02*
Y-0000778D01*
X0025930Y0010840D02*
X0025520D01*
X0028350Y0008823D02*
Y0002770D01*
X0027630Y0013319D02*
Y0007530D01*
Y0008230D02*
X0027080D01*
X0028350Y0003820D02*
X0027670D01*
X0027720Y0003385D02*
Y0002770D01*
X0027630Y0003289D02*
Y0002770D01*
X0027540Y0003255D02*
Y0002770D01*
X0027450Y0003257D02*
Y0002770D01*
X0027360Y0003295D02*
Y0002770D01*
X0027090Y0008240D02*
Y0002770D01*
X0027000Y0008173D02*
Y0002770D01*
X0026910Y0008152D02*
Y0002770D01*
X0026820Y0008165D02*
Y0002770D01*
X0026730Y0011003D02*
Y0008580D01*
X0026640Y0011028D02*
Y0002770D01*
X0028350Y0002830D02*
X0026530D01*
X0027630Y0008050D02*
X0026220D01*
X0027407Y0003730D02*
X0026470D01*
X0027450Y0018800D02*
Y0007243D01*
X0028350Y0006070D02*
X0026470D01*
X0028350Y0005980D02*
X0026470D01*
X0028350Y0005890D02*
X0026470D01*
X0028350Y0005800D02*
X0026470D01*
X0028350Y0005710D02*
X0026470D01*
X0028350Y0005620D02*
X0026470D01*
X0028350Y0005530D02*
X0026470D01*
X0028350Y0005440D02*
X0026470D01*
X0028350Y0005350D02*
X0026470D01*
X0028350Y0005260D02*
X0026470D01*
X0028350Y0005170D02*
X0026470D01*
X0028350Y0005080D02*
X0026470D01*
X0028350Y0004990D02*
X0026470D01*
X0028350Y0004900D02*
X0026470D01*
X0028350Y0004810D02*
X0026470D01*
X0028350Y0004720D02*
X0026470D01*
X0028350Y0004630D02*
X0026470D01*
X0028350Y0004540D02*
X0026470D01*
X0028350Y0004450D02*
X0026470D01*
X0028350Y0004360D02*
X0026470D01*
X0027329Y0004180D02*
X0026470D01*
X0027269Y0004090D02*
X0026470D01*
X0025880Y0006790D02*
X0025850D01*
X0028350Y0006340D02*
X0026470D01*
X0027295Y0003640D02*
X0026470D01*
X0027257Y0003550D02*
X0026470D01*
X0027385Y0003280D02*
X0026499D01*
X0025880Y0007507D02*
Y0006760D01*
X0025740Y0007369D02*
Y0006900D01*
X0025650Y0007352D02*
Y0006990D01*
X0025479Y0007780D02*
X0024860D01*
X0025419Y0007690D02*
X0024950D01*
X0025402Y0007600D02*
X0025040D01*
X0025419Y0007510D02*
X0025130D01*
X0025380Y0008269D02*
Y0007260D01*
X0026370Y0018800D02*
Y0006520D01*
X0025110Y0018800D02*
Y0007530D01*
X0022860Y0011285D02*
Y0009270D01*
X0024570Y0008815D02*
Y0008364D01*
X0024840Y0008890D02*
Y0007800D01*
X0024480Y0008869D02*
Y0008461D01*
X0028350Y0008320D02*
X0027970D01*
X0022330Y0002290D02*
X0020995D01*
X0027302Y0007150D02*
X0026220D01*
X0026673Y0008500D02*
X0026327D01*
X0028350Y0006700D02*
X0026220D01*
X0022619Y0008860D02*
X0022182D01*
X0022529Y0008770D02*
X0022267D01*
X0025880Y0006970D02*
X0025670D01*
X0028350D02*
X0027746D01*
X0027720Y0006885D02*
Y0004114D01*
X0028350Y0006880D02*
X0027717D01*
X0027540Y0018800D02*
Y0007245D01*
X0028350Y0007600D02*
X0027970D01*
X0027270Y0018800D02*
Y0007093D01*
X0028350Y0004180D02*
X0027670D01*
X0028350Y0004090D02*
X0027731D01*
X0028350Y0004000D02*
X0027748D01*
X0028350Y0003910D02*
X0027731D01*
X0020159Y0007600D02*
X0020048D01*
X0021280Y0011110D02*
X0021070D01*
X0025560Y0018800D02*
Y0017298D01*
X0021330Y0018800D02*
Y0013967D01*
X0025930Y0014710D02*
X0025720D01*
X0025930Y0009760D02*
X0025520D01*
X0028350Y0007420D02*
X0028038D01*
X0027252Y0004000D02*
X0026470D01*
X0025930Y0010030D02*
X0025520D01*
X0028350Y0003280D02*
X0027614D01*
X0020700Y0007059D02*
Y0002493D01*
X0021780Y0005979D02*
Y0005493D01*
X0021690Y0006069D02*
Y0005605D01*
X0021600Y0006159D02*
Y0005643D01*
X0021510Y0006249D02*
Y0005645D01*
X0021420Y0006339D02*
Y0005611D01*
X0022730Y0004900D02*
X0018000D01*
X0018900Y0018800D02*
Y0004220D01*
X0022050Y0005657D02*
Y0005546D01*
X0022535Y0005620D02*
X0022364D01*
X0025380Y0011740D02*
X0022952D01*
X0025380Y0011650D02*
X0023037D01*
X0025229Y0011470D02*
X0023060D01*
X0025183Y0011380D02*
X0023017D01*
X0025180Y0011290D02*
X0022882D01*
X0025319Y0011560D02*
X0023066D01*
X0021780Y0018800D02*
Y0011988D01*
X0022320Y0018800D02*
Y0011567D01*
X0022680Y0018800D02*
Y0011735D01*
X0021870Y0018800D02*
Y0011997D01*
X0023130Y0018800D02*
Y0009270D01*
X0022500Y0018800D02*
Y0009270D01*
X0026730Y0018800D02*
Y0011497D01*
X0025380Y0013450D02*
X0024896D01*
X0025380Y0013360D02*
X0024972D01*
X0025380Y0013270D02*
X0024997D01*
X0025380Y0013180D02*
X0024988D01*
X0025380Y0013090D02*
X0024939D01*
X0024930Y0018800D02*
Y0013420D01*
X0024570Y0018800D02*
Y0013420D01*
X0024480Y0018800D02*
Y0010343D01*
X0024750Y0018800D02*
Y0013498D01*
X0020160Y0003990D02*
Y0002439D01*
X0028350Y0013900D02*
X0026270D01*
X0028350Y0014440D02*
X0026270D01*
X0028350Y0015790D02*
X0026270D01*
X0025930Y0012550D02*
X0025720D01*
X0028350Y0015970D02*
X0026270D01*
X0024560Y0013090D02*
X0021620D01*
X0024570Y0013079D02*
Y0009285D01*
X0024840Y0013019D02*
Y0009209D01*
X0024135Y0010030D02*
X0021661D01*
X0024750Y0013002D02*
Y0009277D01*
X0020619Y0009490D02*
X0020370D01*
X0025180Y0010030D02*
X0024364D01*
X0025180Y0008860D02*
X0024809D01*
X0025180Y0008770D02*
X0024070D01*
X0025180Y0008950D02*
X0024877D01*
X0028260Y0018800D02*
Y0009209D01*
X0028350Y0013180D02*
X0027970D01*
X0028350Y0013090D02*
X0027970D01*
X0028350Y0013000D02*
X0027970D01*
X0028350Y0012910D02*
X0027970D01*
X0028350Y0012820D02*
X0027970D01*
X0028350Y0012730D02*
X0027970D01*
X0028350Y0012640D02*
X0027970D01*
X0028350Y0012550D02*
X0027970D01*
X0028350Y0012460D02*
X0027970D01*
X0028350Y0012370D02*
X0027970D01*
X0028350Y0012280D02*
X0027970D01*
X0028350Y0012190D02*
X0027970D01*
X0028350Y0011920D02*
X0027970D01*
X0028350Y0011830D02*
X0027970D01*
X0028350Y0011740D02*
X0027970D01*
X0028350Y0011650D02*
X0027970D01*
X0028350Y0011560D02*
X0027970D01*
X0028350Y0012100D02*
X0027970D01*
X0028350Y0012010D02*
X0027970D01*
X0028350Y0011200D02*
X0027970D01*
X0028350Y0011110D02*
X0027970D01*
X0028350Y0011020D02*
X0027970D01*
X0028350Y0010930D02*
X0027970D01*
X0028350Y0010840D02*
X0027970D01*
X0028350Y0010750D02*
X0027970D01*
X0028350Y0010660D02*
X0027970D01*
X0028350Y0010570D02*
X0027970D01*
X0028350Y0010480D02*
X0027970D01*
X0028350Y0010390D02*
X0027970D01*
X0028350Y0010300D02*
X0027970D01*
X0028350Y0010210D02*
X0027970D01*
X0028350Y0010120D02*
X0027970D01*
X0028350Y0010030D02*
X0027970D01*
X0028350Y0009940D02*
X0027970D01*
X0028350Y0013360D02*
X0028005D01*
X0028350Y0009760D02*
X0027970D01*
X0028350Y0009670D02*
X0027970D01*
X0028350Y0009580D02*
X0027970D01*
X0028350Y0009490D02*
X0027970D01*
X0028350Y0009400D02*
X0027970D01*
X0028260Y0008890D02*
Y0002770D01*
X0028269Y0009220D02*
X0027970D01*
X0028215Y0009130D02*
X0027970D01*
X0028202Y0009040D02*
X0027970D01*
X0028223Y0008950D02*
X0027970D01*
X0028350Y0009310D02*
X0027970D01*
X0020030Y0008770D02*
X0018000D01*
X0028350Y0007870D02*
X0027970D01*
X0028350Y0008050D02*
X0027970D01*
X0028350Y0007960D02*
X0027970D01*
X0028350Y0008140D02*
X0027970D01*
X0028350Y0008680D02*
X0027970D01*
X0028350Y0007330D02*
X0028047D01*
X0028350Y0008500D02*
X0027970D01*
X0027090Y0018800D02*
Y0008559D01*
X0028350Y0007780D02*
X0027970D01*
X0028350Y0006790D02*
X0027632D01*
X0028350Y0006250D02*
X0026470D01*
X0027990Y0013340D02*
Y0007509D01*
X0027630Y0011290D02*
X0026995D01*
X0027000Y0018800D02*
Y0011240D01*
X0028350Y0008590D02*
X0027970D01*
X0028350Y0008410D02*
X0027970D01*
X0028350Y0009850D02*
X0027970D01*
X0027990Y0018800D02*
Y0013659D01*
X0027900Y0018800D02*
Y0013727D01*
X0027720Y0018800D02*
Y0013735D01*
X0027630Y0018800D02*
Y0013680D01*
X0027810Y0018800D02*
Y0013748D01*
X0028350Y0013720D02*
X0027914D01*
X0028350Y0013630D02*
X0028011D01*
X0028350Y0013450D02*
X0028043D01*
X0021669Y0011920D02*
X0021620D01*
X0025520Y0011279D02*
Y0008720D01*
X0025180Y0010210D02*
X0024495D01*
X0025380Y0013630D02*
X0021667D01*
X0024930Y0013079D02*
Y0007710D01*
X0024603Y0013450D02*
X0021620D01*
X0024528Y0013360D02*
X0021620D01*
X0024503Y0013270D02*
X0021620D01*
X0024512Y0013180D02*
X0021620D01*
X0025380Y0013000D02*
X0021620D01*
X0025380Y0012910D02*
X0021620D01*
X0025380Y0012820D02*
X0021620D01*
X0025380Y0012730D02*
X0021620D01*
X0025380Y0012640D02*
X0021620D01*
X0025380Y0012550D02*
X0021620D01*
X0025380Y0012460D02*
X0021620D01*
X0025930Y0008590D02*
X0025755D01*
X0025180Y0010750D02*
X0022020D01*
X0025380Y0014170D02*
X0021070D01*
X0025380Y0014080D02*
X0021070D01*
X0025380Y0013990D02*
X0021512D01*
X0023760Y0018800D02*
Y0009080D01*
X0021240Y0018800D02*
Y0013882D01*
X0021600Y0018800D02*
Y0013947D01*
X0021510Y0018800D02*
Y0013990D01*
X0021420Y0018800D02*
Y0013996D01*
X0027900Y0007123D02*
Y0002770D01*
X0021280Y0010120D02*
X0020370D01*
X0024045Y0010390D02*
X0022039D01*
X0025180D02*
X0024455D01*
X0025180Y0010660D02*
X0022072D01*
X0025180Y0009940D02*
X0021695D01*
X0025180Y0009850D02*
X0021693D01*
X0021209Y0013810D02*
X0021070D01*
X0021690Y0010360D02*
Y0009962D01*
X0021240Y0013618D02*
Y0010032D01*
X0024005Y0010210D02*
X0021620D01*
G01X0022020Y0011569D02*
G03X0022098Y0011750I0000170J0000181D01*
G01X0022200Y0010752D02*
G03X0022448Y0011000I0000000J0000248D01*
G01X0022020Y0010829D02*
G03X0022200Y0010752I0000180J0000171D01*
G01X0021752Y-0000200D02*
G03X0022000Y-0000448I0000248J0000000D01*
G03X0022248Y-0000200I0000000J0000248D01*
G03X0022000Y0000048I0000248J0000000D01*
G03X0021752Y-0000200I0000000J0000248D01*
G01X0021652Y0007000D02*
G03X0021900Y0006752I0000248J0000000D01*
G03X0022148Y0007000I0000000J0000248D01*
G03X0021900Y0007248I0000248J0000000D01*
G03X0021652Y0007000I0000000J0000248D01*
G01X0020370Y0017550D02*
G03X0020347Y0017634I0000170J0000000D01*
G01X0019852Y0017650D02*
G03X0020030Y0017412I0000248J0000000D01*
G01X0020348Y0017650D02*
G03X0020100Y0017898I0000248J0000000D01*
G03X0019852Y0017650I0000000J0000248D01*
G01X0020030Y0007800D02*
G03X0020080Y0007680I0000170J0000000D01*
G01X0020370Y0017550D02*
G03X0020347Y0017634I0000170J0000000D01*
G01X0021852Y0005900D02*
G03X0022100Y0005652I0000248J0000000D01*
G03X0022348Y0005900I0000000J0000248D01*
G03X0022100Y0006148I0000248J0000000D01*
G01X0022680Y0006550D02*
G03X0022730Y0006430I0000170J0000000D01*
G01X0022500Y0007402D02*
G03X0022650Y0007453I0000000J0000248D01*
Y0005648D02*
G03X0022450Y0005546I0000000J0000248D01*
G01X0027252Y0007000D02*
G03X0027500Y0006752I0000248J0000000D01*
G03X0027748Y0007000I0000000J0000248D01*
G01X0027500Y0007248D02*
G03X0027252Y0007000I0000000J0000248D01*
G01X0020652Y0015400D02*
G03X0020730Y0015219I0000248J0000000D01*
G01X0021148Y0015400D02*
G03X0020900Y0015648I0000248J0000000D01*
G03X0020652Y0015400I0000000J0000248D01*
Y0010850D02*
G03X0020900Y0010602I0000248J0000000D01*
G03X0021148Y0010850I0000000J0000248D01*
G03X0021070Y0011030I0000248J0000000D01*
G01X0022252Y0007650D02*
G03X0022500Y0007402I0000248J0000000D01*
Y0007898D02*
G03X0022252Y0007650I0000000J0000248D01*
G01X0027552Y0007350D02*
G03X0027580Y0007234I0000248J0000000D01*
G01X0024544Y0008096D02*
G03X0024598Y0008250I0000194J0000154D01*
G01X0026443Y0002770D02*
G03X0026598Y0003000I0000093J0000230D01*
G01X0020730Y0011030D02*
G03X0020652Y0010850I0000170J0000180D01*
G01X0022130Y0007980D02*
G03X0022250Y0007930I0000120J0000120D01*
G01X0021880Y0008300D02*
G03X0021930Y0008180I0000170J0000000D01*
G01X0022298Y0008650D02*
G03X0022050Y0008898I0000248J0000000D01*
G03X0021802Y0008650I0000000J0000248D01*
G01X0027252Y0004000D02*
G03X0027500Y0003752I0000248J0000000D01*
G03X0027748Y0004000I0000000J0000248D01*
G03X0027500Y0004248I0000248J0000000D01*
G03X0027252Y0004000I0000000J0000248D01*
G01X0021302Y0005400D02*
G03X0021550Y0005152I0000248J0000000D01*
G03X0021798Y0005400I0000000J0000248D01*
G03X0021550Y0005648I0000248J0000000D01*
G03X0021302Y0005400I0000000J0000248D01*
G01X0019552Y0007600D02*
G03X0019800Y0007352I0000248J0000000D01*
G03X0020048Y0007600I0000000J0000248D01*
G03X0019800Y0007848I0000248J0000000D01*
G03X0019552Y0007600I0000000J0000248D01*
G01X0019650Y0003802D02*
G03X0019898Y0004050I0000000J0000248D01*
G03X0019650Y0004298I0000248J0000000D01*
G01X0019469Y0003880D02*
G03X0019650Y0003802I0000181J0000170D01*
G01X0018202Y0004050D02*
G03X0018450Y0003802I0000248J0000000D01*
G01X0019650Y0004298D02*
G03X0019469Y0004220I0000000J0000248D01*
G01X0018450Y0003802D02*
G03X0018630Y0003880I0000000J0000248D01*
G01X0018450Y0004298D02*
G03X0018202Y0004050I0000000J0000248D01*
G01X0018602Y0002650D02*
G03X0018850Y0002402I0000248J0000000D01*
G03X0019098Y0002650I0000000J0000248D01*
G03X0018850Y0002898I0000248J0000000D01*
G03X0018602Y0002650I0000000J0000248D01*
G01X0024350Y0008498D02*
G03X0024342Y0008498I0000000J0000248D01*
G01X0021802Y0008650D02*
G03X0021880Y0008469I0000248J0000000D01*
G01X0022291Y0008591D02*
G03X0022298Y0008650I0000241J0000059D01*
G01X0027070Y0011100D02*
G03X0027020Y0011220I0000170J0000000D01*
G01X0021070Y0015219D02*
G03X0021148Y0015400I0000170J0000181D01*
G01X0020470Y0009048D02*
G03X0020370Y0009027I0000000J0000248D01*
G01X0021880Y0008300D02*
G03X0021930Y0008180I0000170J0000000D01*
G01X0018248Y0008250D02*
G03X0018000Y0008498I0000248J0000000D01*
G01X0018248Y0005500D02*
G03X0018000Y0005748I0000248J0000000D01*
G01X0018630Y0004220D02*
G03X0018450Y0004298I0000180J0000170D01*
G01X0023620Y0009220D02*
G03X0023500Y0009270I0000120J0000120D01*
G01X0022572Y0011530D02*
G03X0022820Y0011282I0000248J0000000D01*
G03X0023068Y0011530I0000000J0000248D01*
G03X0022820Y0011778I0000248J0000000D01*
G03X0022572Y0011530I0000000J0000248D01*
G01X0024502Y0013250D02*
G03X0024750Y0013002I0000248J0000000D01*
G03X0024998Y0013250I0000000J0000248D01*
G03X0024750Y0013498I0000248J0000000D01*
G03X0024502Y0013250I0000000J0000248D01*
G01X0019752Y0002250D02*
G03X0020000Y0002002I0000248J0000000D01*
G03X0020248Y0002250I0000000J0000248D01*
G03X0020000Y0002498I0000248J0000000D01*
G03X0019752Y0002250I0000000J0000248D01*
G01X0020502D02*
G03X0020750Y0002002I0000248J0000000D01*
G03X0020998Y0002250I0000000J0000248D01*
G03X0020750Y0002498I0000248J0000000D01*
G03X0020502Y0002250I0000000J0000248D01*
G03X0020750Y0002002I0000248J0000000D01*
G03X0020998Y0002250I0000000J0000248D01*
G03X0020750Y0002498I0000248J0000000D01*
G03X0020502Y0002250I0000000J0000248D01*
G01X0021502Y0001350D02*
G03X0021750Y0001102I0000248J0000000D01*
G03X0021998Y0001350I0000000J0000248D01*
G03X0021750Y0001598I0000248J0000000D01*
G03X0021502Y0001350I0000000J0000248D01*
G01X0018000Y0008002D02*
G03X0018248Y0008250I0000000J0000248D01*
G01X0020470Y0008552D02*
G03X0020718Y0008800I0000000J0000248D01*
G03X0020470Y0009048I0000248J0000000D01*
G01X0020852Y0005750D02*
G03X0021100Y0005502I0000248J0000000D01*
G03X0021348Y0005750I0000000J0000248D01*
G03X0021100Y0005998I0000248J0000000D01*
G03X0020852Y0005750I0000000J0000248D01*
G01X0022002Y0005400D02*
G03X0022250Y0005152I0000248J0000000D01*
G03X0022450Y0005253I0000000J0000248D01*
G01X0022250Y0005648D02*
G03X0022002Y0005400I0000000J0000248D01*
G01X0018248Y0008250D02*
G03X0018000Y0008498I0000248J0000000D01*
Y0008002D02*
G03X0018248Y0008250I0000000J0000248D01*
G01X0020370Y0008573D02*
G03X0020470Y0008552I0000100J0000227D01*
G03X0020718Y0008800I0000000J0000248D01*
G03X0020470Y0009048I0000248J0000000D01*
G03X0020370Y0009027I0000000J0000248D01*
G01X0022002Y0005400D02*
G03X0022250Y0005152I0000248J0000000D01*
G01X0022450Y0005546D02*
G03X0022250Y0005648I0000200J0000146D01*
Y0005152D02*
G03X0022450Y0005253I0000000J0000248D01*
G01X0022250Y0005648D02*
G03X0022002Y0005400I0000000J0000248D01*
G01X0027252Y0007000D02*
G03X0027500Y0006752I0000248J0000000D01*
G03X0027748Y0007000I0000000J0000248D01*
G01X0027500Y0007248D02*
G03X0027252Y0007000I0000000J0000248D01*
G01X0020952Y0008300D02*
G03X0021200Y0008052I0000248J0000000D01*
G03X0021448Y0008300I0000000J0000248D01*
G03X0021200Y0008548I0000248J0000000D01*
G03X0020952Y0008300I0000000J0000248D01*
G01X0020602Y0009400D02*
G03X0020719Y0009189I0000248J0000000D01*
G01X0021098Y0009400D02*
G03X0020850Y0009648I0000248J0000000D01*
G03X0020602Y0009400I0000000J0000248D01*
G01X0020719Y0009189D02*
G03X0020702Y0009100I0000231J0000089D01*
G01X0021502Y0001350D02*
G03X0021750Y0001102I0000248J0000000D01*
G03X0021998Y0001350I0000000J0000248D01*
G03X0021750Y0001598I0000248J0000000D01*
G03X0021502Y0001350I0000000J0000248D01*
G01X0025180Y0008650D02*
G03X0025230Y0008530I0000170J0000000D01*
G01X0025302Y0008450D02*
G03X0025550Y0008202I0000248J0000000D01*
G03X0025798Y0008450I0000000J0000248D01*
G03X0025550Y0008698I0000248J0000000D01*
G01X0025230Y0011470D02*
G03X0025180Y0011350I0000120J0000120D01*
Y0008650D02*
G03X0025230Y0008530I0000170J0000000D01*
G01X0025670Y0011430D02*
G03X0025720Y0011550I0000120J0000120D01*
G01X0025302Y0017050D02*
G03X0025380Y0016869I0000248J0000000D01*
G01X0025798Y0017050D02*
G03X0025550Y0017298I0000248J0000000D01*
G03X0025302Y0017050I0000000J0000248D01*
G01X0018000Y0005252D02*
G03X0018248Y0005500I0000000J0000248D01*
G01X0022650Y0007453D02*
G03X0022680Y0007419I0000200J0000147D01*
G01X0025852Y0016800D02*
G03X0025930Y0016619I0000248J0000000D01*
G01X0026348Y0016800D02*
G03X0026100Y0017048I0000248J0000000D01*
G03X0025852Y0016800I0000000J0000248D01*
G01X0024002Y0010250D02*
G03X0024250Y0010002I0000248J0000000D01*
G03X0024498Y0010250I0000000J0000248D01*
G03X0024250Y0010498I0000248J0000000D01*
G03X0024002Y0010250I0000000J0000248D01*
G01X0022448Y0011350D02*
G03X0022200Y0011598I0000248J0000000D01*
G01X0028202Y0009050D02*
G03X0028350Y0008823I0000248J0000000D01*
G01X0021102Y0004200D02*
G03X0021350Y0003952I0000248J0000000D01*
G03X0021598Y0004200I0000000J0000248D01*
G03X0021350Y0004448I0000248J0000000D01*
G03X0021102Y0004200I0000000J0000248D01*
Y-0001000D02*
G03X0021350Y-0001248I0000248J0000000D01*
G03X0021598Y-0001000I0000000J0000248D01*
G03X0021350Y-0000752I0000248J0000000D01*
G03X0021102Y-0001000I0000000J0000248D01*
G01X0022450Y0005253D02*
G03X0022650Y0005152I0000200J0000147D01*
G01X0024402Y0009050D02*
G03X0024650Y0008802I0000248J0000000D01*
G03X0024898Y0009050I0000000J0000248D01*
G03X0024650Y0009298I0000248J0000000D01*
G03X0024402Y0009050I0000000J0000248D01*
G01X0027748Y0007000D02*
G03X0027719Y0007115I0000248J0000000D01*
G01X0027800Y0007102D02*
G03X0028048Y0007350I0000000J0000248D01*
G03X0027970Y0007530I0000248J0000000D01*
G01X0027552Y0013500D02*
G03X0027630Y0013319I0000248J0000000D01*
G01X0028048Y0013500D02*
G03X0027800Y0013748I0000248J0000000D01*
G03X0027552Y0013500I0000000J0000248D01*
G01X0021202Y0013750D02*
G03X0021280Y0013569I0000248J0000000D01*
G01X0021698Y0013750D02*
G03X0021450Y0013998I0000248J0000000D01*
G03X0021202Y0013750I0000000J0000248D01*
Y0009900D02*
G03X0021450Y0009652I0000248J0000000D01*
G03X0021698Y0009900I0000000J0000248D01*
G01X0021620Y0013569D02*
G03X0021698Y0013750I0000170J0000181D01*
Y0009900D02*
G03X0021620Y0010080I0000248J0000000D01*
G01X0025852Y0008400D02*
G03X0025880Y0008285I0000248J0000000D01*
G01X0026348Y0008400D02*
G03X0026270Y0008580I0000248J0000000D01*
G01X0027748Y0007000D02*
G03X0027719Y0007115I0000248J0000000D01*
G01X0026220Y0008183D02*
G03X0026348Y0008400I0000120J0000217D01*
G01X0026470Y0006350D02*
G03X0026420Y0006470I0000170J0000000D01*
G01X0026520Y0003198D02*
G03X0026470Y0003318I0000170J0000000D01*
G01X0025550Y0008698D02*
G03X0025542Y0008698I0000000J0000248D01*
G01X0024598Y0008250D02*
G03X0024350Y0008498I0000248J0000000D01*
G01X0021081Y0009310D02*
G03X0021098Y0009400I0000231J0000090D01*
G01X0023620Y0009220D02*
G03X0023500Y0009270I0000120J0000120D01*
G01X0020702Y0009100D02*
G03X0020950Y0008852I0000248J0000000D01*
G03X0021130Y0008930I0000000J0000248D01*
Y0009270D02*
G03X0021081Y0009310I0000180J0000170D01*
G01X0025402Y0007600D02*
G03X0025650Y0007352I0000248J0000000D01*
G03X0025880Y0007507I0000000J0000248D01*
G01X0025650Y0007848D02*
G03X0025402Y0007600I0000000J0000248D01*
G01X0027252Y0003500D02*
G03X0027500Y0003252I0000248J0000000D01*
G03X0027748Y0003500I0000000J0000248D01*
G03X0027500Y0003748I0000248J0000000D01*
G03X0027252Y0003500I0000000J0000248D01*
G01X0022376Y0011175D02*
G03X0022448Y0011350I0000176J0000175D01*
G01X0021850Y0010302D02*
G03X0022098Y0010550I0000000J0000248D01*
G01X0021280Y0010080D02*
G03X0021202Y0009900I0000170J0000180D01*
G01X0022098Y0010550D02*
G03X0022020Y0010730I0000248J0000000D01*
G01X0021620Y0010457D02*
G03X0021850Y0010302I0000230J0000093D01*
G01X0022098Y0011750D02*
G03X0021850Y0011998I0000248J0000000D01*
G01X0027970Y0013319D02*
G03X0028048Y0013500I0000170J0000181D01*
G01X0026502Y0011250D02*
G03X0026730Y0011003I0000248J0000000D01*
G01X0026998Y0011250D02*
G03X0026750Y0011498I0000248J0000000D01*
G03X0026502Y0011250I0000000J0000248D01*
G01X0027630Y0007530D02*
G03X0027552Y0007350I0000170J0000180D01*
G01X0027070Y0011100D02*
G03X0027020Y0011220I0000170J0000000D01*
G01X0026652Y0008400D02*
G03X0026900Y0008152I0000248J0000000D01*
G03X0027148Y0008400I0000000J0000248D01*
G03X0027070Y0008580I0000248J0000000D01*
G01X0020102Y0004150D02*
G03X0020350Y0003902I0000248J0000000D01*
G03X0020598Y0004150I0000000J0000248D01*
G03X0020350Y0004398I0000248J0000000D01*
G03X0020102Y0004150I0000000J0000248D01*
G01X0022380Y0002470D02*
G03X0022330Y0002350I0000120J0000120D01*
G01X0022530Y0004470D02*
G03X0022480Y0004350I0000120J0000120D01*
G01X0022450Y0005546D02*
G03X0022250Y0005648I0000200J0000146D01*
G01X0022898Y0005400D02*
G03X0022650Y0005648I0000248J0000000D01*
G01X0025930Y0008580D02*
G03X0025852Y0008400I0000170J0000180D01*
G01X0025720Y0016869D02*
G03X0025798Y0017050I0000170J0000181D01*
G01X0025302Y0008457D02*
G03X0025302Y0008450I0000248J0000007D01*
G01X0022200Y0011598D02*
G03X0022020Y0011520I0000000J0000248D01*
G01X0021850Y0011998D02*
G03X0021620Y0011843I0000000J0000248D01*
G01X0022448Y0011000D02*
G03X0022376Y0011175I0000248J0000000D01*
G01X0020347Y0017634D02*
G03X0020348Y0017650I0000247J0000016D01*
G01X0025670Y0011430D02*
G03X0025720Y0011550I0000120J0000120D01*
G01X0022100Y0006148D02*
G03X0022092Y0006148I0000000J0000248D01*
G01X0020370Y0008573D02*
G03X0020470Y0008552I0000100J0000227D01*
G01X0021852Y0005907D02*
G03X0021852Y0005900I0000248J0000007D01*
G01X0027719Y0007115D02*
G03X0027800Y0007101I0000081J0000235D01*
G01X0026520Y0003198D02*
G03X0026470Y0003318I0000170J0000000D01*
G01X0026730Y0008580D02*
G03X0026652Y0008400I0000170J0000180D01*
G01X0025880Y0007693D02*
G03X0025650Y0007848I0000230J0000093D01*
G01X0026470Y0006350D02*
G03X0026420Y0006470I0000170J0000000D01*
G01X0022350Y0008598D02*
G03X0022291Y0008591I0000000J0000248D01*
G01X0026598Y0003000D02*
G03X0026520Y0003180I0000248J0000000D01*
G01X0028350Y0009277D02*
G03X0028202Y0009050I0000100J0000227D01*
G01X0027580Y0007234D02*
G03X0027500Y0007247I0000080J0000234D01*
G01X0027580Y0007234D02*
G03X0027500Y0007247I0000080J0000234D01*
G01X0026270Y0016619D02*
G03X0026348Y0016800I0000170J0000181D01*
G54D78*
G01X0037650Y0007000D02*
Y0006950D01*
X0036850Y0006150D01*
Y0005950D01*
X0035950Y0005050D01*
Y0004850D01*
X0035800Y0004700D01*
X0035650D01*
X0033950Y0003000D01*
X0031800D01*
X0049300Y0008100D02*
X0049350D01*
Y0008600D01*
X0049650Y0008900D01*
Y0015950D01*
X0049450Y0016150D01*
Y0016800D01*
X0049500Y0016850D01*
Y0018850D01*
X0049750Y0019100D01*
Y0021550D01*
X0049550Y0021750D01*
X0048050D02*
Y0026550D01*
X0048400Y0026900D01*
Y0032400D01*
X0048500Y0032500D01*
Y0034700D01*
X0048200Y0035000D01*
Y0036000D01*
X0047350Y0036850D01*
X0049750Y0035250D02*
Y0031500D01*
X0050250Y0031000D01*
Y0021900D01*
X0050950Y0021200D01*
Y0013950D01*
X0050850Y0013850D01*
X0003700Y0017500D02*
Y0017000D01*
X0004950Y0015750D01*
Y0013300D01*
X0009900Y0014100D02*
X0011550D01*
X0014750Y0010900D01*
Y0010150D01*
X0014900Y0010000D01*
Y0008550D01*
X0050850Y0013850D02*
Y0013500D01*
X0050650Y0013300D01*
Y0012400D01*
X0050850Y0012200D01*
Y0009100D01*
X0050200Y0008450D01*
Y-0002400D01*
X0014900Y0008550D02*
Y0001800D01*
X0014950D01*
X0034950Y0002100D02*
X0035400D01*
X0035650Y0001850D01*
X0036150Y0000500D02*
Y0004850D01*
X0036950Y0005650D01*
X0001500Y0016000D02*
Y0018400D01*
X0000800Y0019100D01*
Y0019950D01*
X0001550Y0020700D01*
Y0021800D01*
X0001650Y0021900D01*
X0011050Y0012550D02*
X0010750Y0012250D01*
Y0010700D01*
X0011200Y0010250D01*
Y0009550D01*
X0011050Y0009400D01*
Y0007100D01*
X0011100Y0007050D01*
X0048050Y0033650D02*
Y0033452D01*
X0048000Y0033402D01*
Y0032450D01*
X0048200Y0032250D01*
Y0026950D01*
X0047800Y0026550D01*
Y0021600D01*
X0047950Y0021450D01*
Y0016850D01*
X0048250Y0016550D01*
Y0015600D01*
X0048150Y0015500D01*
Y0010800D01*
X0047800Y0010450D01*
Y0001400D01*
X0032100Y-0001550D02*
X0032000Y-0001450D01*
Y-0001000D01*
X0032100Y-0000900D01*
Y0001800D01*
X0031950Y0001950D01*
X0047300Y0036300D02*
X0047600Y0036000D01*
Y0032350D01*
X0047800Y0032150D01*
Y0027050D01*
X0047400Y0026650D01*
Y0025250D01*
X0047000Y0024850D01*
Y0024650D01*
X0047400Y0024250D01*
Y0015950D01*
X0046250Y0014800D01*
X0049750Y0035250D02*
X0049950Y0035450D01*
Y0037550D01*
X0049650Y0037850D01*
Y0047000D01*
X0049100Y0047550D01*
Y0054200D01*
X0049250Y0054350D01*
Y0060200D01*
X0048950Y0060500D01*
X0044000Y0037600D02*
Y0031850D01*
X0044100Y0031750D01*
Y0026350D01*
X0044700Y0025750D01*
Y0025350D01*
X0044250Y0024900D01*
Y0024650D01*
X0044300Y0024600D01*
Y0021600D01*
X0043500Y0020800D01*
Y0015300D01*
X0043650Y0015150D01*
Y0011650D01*
X0043850Y0011450D01*
Y0010400D01*
X0043700Y0010250D01*
Y0008700D01*
X0043300Y0008300D01*
Y0007350D01*
X0014400Y0008850D02*
X0013450D01*
X0013050Y0008450D01*
X0012350D01*
X0011650Y0007750D01*
X0049500Y0021400D02*
X0049450Y0021450D01*
X0031800Y0003500D02*
X0030950D01*
X0030700Y0003250D01*
Y0002850D01*
X0024850Y0002800D02*
X0024700Y0002650D01*
Y0000450D01*
X0011800Y0000850D02*
X0011650Y0000700D01*
X0010950D01*
X0009600Y0002050D01*
Y0003500D01*
X0009700Y0003600D01*
Y0007850D01*
X0009350Y0008200D01*
Y0008950D01*
X0009050Y0009250D01*
Y0010900D01*
X0045750Y0003250D02*
X0046050Y0003550D01*
Y0007400D01*
X0002750Y0016450D02*
Y0008950D01*
X0003300Y0008400D01*
X0004400Y0013000D02*
X0003250Y0014150D01*
Y0015150D01*
X0006650Y0009400D02*
Y0009550D01*
X0005900Y0010300D01*
Y0010700D01*
X0004650Y0011950D01*
Y0014750D01*
X0004150Y0015250D01*
X0033050Y0002550D02*
X0034300Y0001300D01*
Y-0000900D01*
X0037200Y-0003800D01*
X0045900Y-0003450D02*
Y-0003200D01*
X0046300Y-0002800D01*
Y0007050D01*
X0046650Y0007400D01*
Y0008900D01*
X0046600Y0008950D01*
Y0009000D01*
X0025550Y0008450D02*
X0025350Y0008650D01*
Y0011350D01*
X0025550Y0011550D01*
Y0017050D01*
X0009650Y0017150D02*
X0009450Y0016950D01*
Y0013750D01*
X0009600Y0013600D01*
Y0009750D01*
X0029400Y0009200D02*
X0029900Y0008700D01*
Y0004100D01*
X0030050Y0003950D01*
X0032100D01*
X0032400Y0003650D01*
X0044750Y0018800D02*
Y0022850D01*
X0045100Y0023200D01*
Y0029150D01*
X0044800Y0029450D01*
Y0031300D01*
X0045000Y0031500D01*
Y0034350D01*
X0044950Y0034400D01*
Y0035250D01*
X0045000Y0035300D01*
Y0037352D01*
X0045050Y0037402D01*
Y0037600D01*
X0007350Y0011400D02*
X0007900Y0010850D01*
Y0009000D01*
X0007500Y0008600D01*
Y0006550D01*
X0008550Y0005500D01*
X0040250Y0000100D02*
Y0000900D01*
X0041450Y0002100D01*
X-0002450Y0006000D02*
Y0008300D01*
X-0002500Y0008350D01*
X0050600Y0030500D02*
X0050750Y0030650D01*
Y0033450D01*
X0050900Y0033600D01*
X0051000D01*
X0017500Y-0008050D02*
X0017000Y-0007550D01*
X0015900D01*
X0015850Y-0007500D01*
X0043300Y0007350D02*
X0043750Y0006900D01*
X0024250Y0007550D02*
Y0007352D01*
X0024150Y0007252D01*
Y0006550D01*
X0024600Y0006100D01*
Y0005250D01*
X0024450Y0005100D01*
Y-0000700D01*
X0045900Y0038450D02*
Y0038352D01*
X0045700Y0038152D01*
Y0036350D01*
X0045800Y0036250D01*
Y0035800D01*
X0045650Y0035650D01*
Y0032250D01*
X0045600Y0032200D01*
Y0031850D01*
X0045750Y0031700D01*
Y0027650D01*
X0045700Y0027600D01*
Y0022350D01*
X0045550Y0022200D01*
Y0019050D01*
X0045650Y0018950D01*
X-0001850Y0006300D02*
Y0009500D01*
X-0001800Y0009550D01*
X0024000Y-0001100D02*
Y0005752D01*
X0024050Y0005802D01*
Y0006000D01*
X0026100Y0008400D02*
Y0016800D01*
X0006350Y0016300D02*
Y0010200D01*
X0006500Y0010050D01*
X-0001200Y0012100D02*
X-0000700Y0011600D01*
Y0010250D01*
X-0000400Y0009950D01*
X-0000050D01*
X0000200Y0010200D01*
X0000650D01*
X0023500Y-0001850D02*
Y0001200D01*
X0023400Y0001300D01*
Y0001700D01*
X0023600Y0001900D01*
Y0006350D01*
X0023450Y0006500D01*
Y0006950D01*
X0023750Y0007250D01*
X0035700Y0002850D02*
X0035900Y0002650D01*
Y-0002050D01*
X0037400Y-0003550D01*
X0046650Y-0003200D02*
Y0007150D01*
X0046850Y0007350D01*
Y0008000D01*
X0047450Y0008600D01*
Y0009200D01*
X0039900Y0004850D02*
Y0007300D01*
X0047100Y0008600D02*
Y0010300D01*
X0047750Y0010950D01*
Y0014650D01*
X0047200Y0015200D01*
X0048700D02*
X0048750Y0015250D01*
Y0017850D01*
X0048450Y0018150D01*
Y0018900D01*
X0048700Y0019150D01*
Y0024100D01*
X0048600Y0024200D01*
Y0032200D01*
X0048850Y0032450D01*
X0050850Y0040650D02*
Y0051150D01*
X0050650Y0051350D01*
X0047950Y0016850D02*
Y0021450D01*
X0047800Y0021600D01*
Y0026550D01*
X0048200Y0026950D01*
Y0032250D01*
X0048000Y0032450D01*
Y0033402D01*
X0048050Y0033452D01*
Y0033650D01*
X-0002800Y0009600D02*
X-0002950Y0009450D01*
Y0005850D01*
X-0002650Y0005550D01*
Y0005200D01*
X-0002050Y0004600D01*
Y0004250D01*
X0033050Y0006400D02*
X0033300Y0006150D01*
Y0003550D01*
X0033400Y0003450D01*
X0047450Y0009200D02*
Y0010350D01*
X0047950Y0010850D01*
Y0015800D01*
X0047650Y0016100D01*
Y0021300D01*
X0047600Y0021350D01*
Y0026600D01*
X0048000Y0027000D01*
Y0032200D01*
X0047800Y0032400D01*
Y0036150D01*
X0047350Y0036600D01*
X0047250D01*
X0047050Y0036400D01*
Y0036050D01*
X0014650Y0009350D02*
Y0003700D01*
X0014600Y0003650D01*
X0006850Y0010950D02*
Y0010600D01*
X0006650Y0010400D01*
X0005000Y0010250D02*
Y0011250D01*
X-0000100Y0011000D02*
Y0011750D01*
X0014850Y-0011000D02*
X0015400Y-0010450D01*
Y-0009300D01*
X0015200Y-0009100D01*
Y-0006350D01*
X0015750Y-0005800D01*
Y0006650D01*
X-0000950Y0009500D02*
Y0005100D01*
X-0000750Y0004900D01*
Y0002850D01*
X0008950Y0003400D02*
X0009100Y0003550D01*
Y0008550D01*
X0045500Y0004400D02*
Y0005950D01*
X0045200Y0006250D01*
Y0015000D01*
X0045600Y0015400D01*
Y0017350D01*
X0044250Y0018700D01*
Y0021250D01*
X0044500Y0021500D01*
Y0022850D01*
X0044900Y0023250D01*
Y0028800D01*
X0044500Y0029200D01*
Y0031650D01*
X0044250Y0031900D01*
Y0034750D01*
X0015500Y-0008900D02*
X0015400Y-0008800D01*
Y-0006900D01*
X0015950Y-0006350D01*
Y0005250D01*
X0016500Y0005800D01*
X0030950Y-0001000D02*
X0030000Y-0001950D01*
X0027050D01*
X0024000Y-0001100D02*
Y0005752D01*
X0024050Y0005802D01*
Y0006000D01*
X0031950Y0001950D02*
X0031100D01*
X0030700Y0002350D01*
X0026550D01*
X0023350Y0002050D02*
Y0006300D01*
X0023200Y0006450D01*
Y0007200D01*
X0023350Y0007350D01*
X-0002850Y0017500D02*
Y0017450D01*
X-0003200Y0017100D01*
Y0013300D01*
X-0003000Y0013100D01*
Y0010500D01*
X-0002750Y0010250D01*
Y0009650D01*
X-0002800Y0009600D01*
X0030500Y0004600D02*
Y0005350D01*
X0031800Y0006650D01*
X0033800D01*
X0033900Y0006550D01*
Y0004050D01*
X0033700Y0003850D01*
X0044450Y0025650D02*
X0044300D01*
X0044100Y0025450D01*
Y0025050D01*
X0044075D01*
Y0024550D01*
X0044100D01*
Y0021650D01*
X0043300Y0020850D01*
Y0012350D01*
X0043150Y0012200D01*
Y0011750D01*
X0043650Y0011250D01*
Y0010550D01*
X0043500Y0010400D01*
Y0008750D01*
X0042500Y0007750D01*
Y0007350D01*
X0027800D02*
Y0013500D01*
X0021450Y0013750D02*
Y0009900D01*
X0025050Y-0011100D02*
X0024950Y-0011000D01*
Y0002450D01*
X0045350Y0018750D02*
Y0022300D01*
X0045500Y0022450D01*
Y0029450D01*
X0045550Y0029500D01*
Y0031500D01*
X0045400Y0031650D01*
Y0034800D01*
X0026100Y0008400D02*
X0026050D01*
Y0006600D01*
X0026300Y0006350D01*
Y0003248D01*
X0026350Y0003198D01*
Y0003000D01*
X0031200Y0003100D02*
X0031800Y0002500D01*
X0031850D01*
X0049750Y0017300D02*
Y0016850D01*
X0049650Y0016750D01*
Y0016200D01*
X0049850Y0016000D01*
Y0012450D01*
X0050250Y0012050D01*
Y0009250D01*
X0049550Y0008550D01*
Y0007900D01*
X0049150Y0007500D01*
Y0007100D01*
X0024350Y0008250D02*
X0023500Y0009100D01*
X0020950D01*
X0039850Y0004050D02*
Y0003050D01*
X0008850Y0011150D02*
Y0016850D01*
X-0002350Y0011100D02*
Y0008550D01*
X-0002200Y0008400D01*
Y0005400D01*
X0045350Y0039000D02*
Y0036900D01*
X0045200Y0036750D01*
Y0035100D01*
X0045150Y0035050D01*
Y0034600D01*
X0045200Y0034550D01*
Y0030000D01*
X0045000Y0029800D01*
Y0029500D01*
X0045300Y0029200D01*
Y0023150D01*
X0045000Y0022850D01*
Y0018200D01*
X0045800Y0017400D01*
Y0011400D01*
X0045650Y0011250D01*
Y0008250D01*
X0045900Y0008000D01*
X0021850Y0010550D02*
Y0011750D01*
X0026750Y0011250D02*
X0026900Y0011100D01*
Y0008400D01*
X0028550Y-0000150D02*
X0028700Y0000000D01*
X0030450D01*
X0030950Y-0000500D01*
X0040150Y-0001650D02*
X0039850Y-0001350D01*
Y0000550D01*
X0039600Y0000800D01*
Y0001950D01*
X0040450Y0002800D01*
Y0003900D01*
X0040150Y0004200D01*
Y0004950D01*
X0040100Y0005000D01*
Y0007100D01*
X0040250Y0007250D01*
Y0007650D01*
X0022750Y-0006450D02*
Y-0002550D01*
X0022500Y-0002300D01*
Y0002350D01*
X0022650Y0002500D01*
Y0004350D01*
X0022900Y0004600D01*
Y0005150D01*
X0022650Y0005400D01*
X0024350Y0005800D02*
X0024200Y0005650D01*
Y-0000950D01*
X0024250Y-0001000D01*
Y-0001450D01*
X0011350Y-0002900D02*
Y-0005050D01*
X0011150Y-0005250D01*
X0015950Y0007950D02*
X0015750Y0008150D01*
Y0016500D01*
X0012050Y-0000250D02*
Y-0000400D01*
X0010950Y-0001500D01*
X0010900D01*
X0005250Y0016800D02*
X0004300Y0017750D01*
X0003450D01*
X0008050Y0018250D02*
X0007450D01*
X-0002500Y0035050D02*
X-0002600Y0034950D01*
Y0020400D01*
X-0002650Y0020350D01*
X0020100Y0017650D02*
X0020200Y0017550D01*
Y0007800D01*
X0022100Y0005900D01*
X0048800Y0057500D02*
Y0054800D01*
X0048550Y0054550D01*
Y0046700D01*
X0049250Y0046000D01*
Y0033850D01*
X0049000Y0033600D01*
Y0032800D01*
X0049100Y0032700D01*
Y0032300D01*
X0048800Y0032000D01*
Y0024400D01*
X0048950Y0024250D01*
Y0018850D01*
X0049100Y0014050D02*
X0049450Y0013700D01*
Y0008950D01*
X0048900Y0008400D01*
Y-0002750D01*
X0042150Y-0002950D02*
X0041050Y-0001850D01*
X0040900D01*
X0011400Y-0000700D02*
X0011350D01*
X0009350Y-0002700D01*
Y-0006550D01*
X0008050Y-0007850D01*
X0022850Y0007600D02*
Y0006550D01*
X0023150Y0006250D01*
Y0004600D01*
X0022850Y0004300D01*
Y0003950D01*
X0023100Y0003700D01*
Y0001800D01*
X0011050Y0006150D02*
Y0006650D01*
X0010900Y0006800D01*
X0045850Y0031950D02*
Y0035400D01*
X0046100Y0035650D01*
Y0036550D01*
X0045900Y0036750D01*
Y0037150D01*
X0045950Y0037200D01*
X0050100Y0016400D02*
X0050250Y0016250D01*
Y0012550D01*
X0050650Y0012150D01*
Y0009150D01*
X0049950Y0008450D01*
Y0007550D01*
X0029550Y0015900D02*
Y0010650D01*
X0001050Y0011000D02*
X0001200Y0011150D01*
Y0012500D01*
X0002050Y0013350D01*
Y0016400D01*
X0014800Y0016150D02*
Y0012350D01*
X0015000Y0012150D01*
Y0010250D01*
X0012550Y0006100D02*
X0012352D01*
X0012302Y0006150D01*
X0012300D01*
X0012150Y0006300D01*
Y0007750D01*
X0042050Y0021500D02*
Y0007050D01*
X0042550Y0006550D01*
Y0002500D01*
X0042250Y0002200D01*
Y0000450D01*
X0045900Y0008550D02*
X0046150Y0008800D01*
Y0011200D01*
X0046250Y0011300D01*
Y0011600D01*
X0011350Y0000250D02*
X0011550D01*
X0011750Y0000050D01*
X0012550D01*
X0031000Y0000000D02*
X0031050D01*
X0031200Y-0000150D01*
Y-0001300D01*
X0031150Y-0001350D01*
Y-0002550D01*
X0032750Y-0004150D01*
X0036250D02*
Y-0007050D01*
X0037800Y-0008600D01*
X0050050Y-0007050D02*
X0050150Y-0006950D01*
Y-0002900D01*
X0049700Y-0002450D01*
Y0007750D01*
X0049750Y0007800D01*
Y0008500D01*
X0050450Y0009200D01*
Y0012100D01*
X0050050Y0012500D01*
Y0016050D01*
X0049850Y0016250D01*
Y0016500D01*
X0050100Y0016750D01*
Y0021600D01*
X0049750Y0021950D01*
Y0029550D01*
X0049450Y0029850D01*
X-0002850Y0032250D02*
X-0002950Y0032150D01*
Y0018250D01*
X-0002600Y0017900D01*
Y0015500D01*
X-0002550Y0015450D01*
X0020900Y0015400D02*
Y0010850D01*
X0044300Y0015200D02*
X0044400Y0015100D01*
Y0008200D01*
X0043900Y0007700D01*
Y0007100D01*
X0044000Y0007000D01*
Y0006800D01*
X0043650Y0006450D01*
Y0004600D01*
X0044100Y0004150D01*
Y-0003050D01*
X0043800Y-0003350D01*
Y-0003800D01*
X0037150Y-0004450D02*
X0036550Y-0003850D01*
X0036450D01*
X0032900D02*
X0032150Y-0003100D01*
Y-0001950D01*
X0031800Y-0001600D01*
Y-0000200D01*
X0031900Y-0000100D01*
Y0000150D01*
X0031500Y0000550D01*
X0031050D01*
X0012850Y0001000D02*
X0012350D01*
X0012250Y0001100D01*
X0011300D01*
X0011200Y0001000D01*
X0010750Y-0005650D02*
X0013100D01*
X0014000Y-0006550D01*
X0014200D01*
X0022500Y0007650D02*
X0022700Y0007850D01*
X0023100D01*
X0023350Y0007600D01*
X0023800D01*
X0024000Y0007800D01*
X0024350D01*
X0025750Y0006400D01*
Y0001800D01*
X0025950Y0001600D01*
X0031650D01*
X0031850Y0001400D01*
Y0000600D01*
X0037650Y-0000600D02*
Y0000000D01*
X0039000Y0001350D01*
Y0004350D01*
X0039450Y0004800D01*
Y0008250D01*
X0039400Y0008300D01*
X0043750Y0008400D02*
X0043900Y0008550D01*
Y0009950D01*
X0043950Y0010000D01*
X0037600Y0013100D02*
Y0009050D01*
X0038100Y0008550D01*
Y0006400D01*
X0036450Y0004750D01*
Y0003300D01*
X0035900Y0003100D02*
X0035500D01*
X0035350Y0002950D01*
X0034700D01*
X0034550Y0002800D01*
X0032950D01*
X0032400Y0002250D01*
X0031150D01*
X0030800Y0002600D01*
X0026300D01*
X0026100Y0002800D01*
Y0006300D01*
X0024400Y0008000D01*
X0023900D01*
X0023800Y0008100D01*
X0022250D01*
X0022050Y0008300D01*
Y0008650D01*
X0047400Y0014400D02*
X0047550Y0014250D01*
Y0012250D01*
X0046350Y0011050D01*
Y0008300D01*
X0046400Y0008250D01*
X0048250Y0050950D02*
X0048000Y0051200D01*
Y0060400D01*
X0048100Y0060500D01*
X0008450Y0009950D02*
X0008250Y0009750D01*
Y0008950D01*
X0007800Y0008500D01*
X0033700Y0003850D02*
X0033900Y0004050D01*
Y0006550D01*
X0036950D01*
X0037050Y0006650D01*
Y0008900D01*
X0039350Y0002550D02*
Y0003900D01*
X0039650Y0004200D01*
Y0013350D01*
X0050200Y0064150D02*
Y0059700D01*
X0050750Y0059150D01*
Y0058900D01*
X0050400Y0058550D01*
Y0051450D01*
X0050300Y0051350D01*
X0046350Y0061750D02*
X0046050Y0061450D01*
Y0051650D01*
X0046000Y0051600D01*
Y0049998D01*
X0046100Y0049898D01*
Y0049700D01*
X0045900Y0009550D02*
Y0011250D01*
X0046000Y0011350D01*
Y0014200D01*
X0046250Y0014450D01*
X0049000Y0013150D02*
X0049050Y0013100D01*
Y0010850D01*
X0048600Y0010400D01*
Y0009850D01*
X0048850Y0009600D01*
Y0009550D01*
X-0002150Y0015000D02*
X-0001800Y0015350D01*
Y0015850D01*
X-0002150Y0016200D01*
Y0020350D01*
X-0002200Y0035250D02*
Y0035200D01*
X-0002000Y0035000D01*
Y0022650D01*
X-0002400Y0022250D01*
Y0015750D01*
X-0002300Y0015650D01*
Y0015300D01*
X-0002500Y0015100D01*
Y0013200D01*
X-0002700Y0013000D01*
Y0010500D01*
X-0002550Y0010350D01*
Y0008750D01*
X-0002750Y0008550D01*
Y0005950D01*
X-0002450Y0005650D01*
Y0005250D01*
X-0001800Y0004600D01*
Y0002400D01*
X-0001650Y0002250D01*
X0002600Y0017700D02*
X0001550Y0018750D01*
Y0019300D01*
X0034200Y0003750D02*
X0033650Y0003200D01*
X0032450D01*
X0031900Y0003750D01*
X0030000D01*
X0029700Y0004050D01*
Y0007800D01*
X0029400Y0008100D01*
X0011200Y0001400D02*
X0011300Y0001300D01*
X0012500D01*
X0007450Y-0007500D02*
Y0005750D01*
X0048650Y0008600D02*
X0048250Y0009000D01*
Y0010300D01*
X0048850Y0010900D01*
Y0012700D01*
X0048650Y0012900D01*
X0006100Y-0008100D02*
Y0002400D01*
X0005750Y0002750D01*
X-0001250Y0002650D02*
Y0003500D01*
X-0001450Y0003700D01*
Y0012350D01*
X-0001350Y0012450D01*
Y0021450D01*
X-0001550Y0021650D01*
Y0035300D01*
X0024400Y0007050D02*
X0025400Y0006050D01*
Y0000450D01*
X0026050Y-0000200D01*
X0005550Y0006000D02*
Y0002950D01*
X0005300Y0002700D01*
Y-0007900D01*
X0011900Y0002300D02*
X0010800Y0003400D01*
Y0006300D01*
X0010650Y0006450D01*
Y0007300D01*
X0010850Y0007500D01*
Y0009500D01*
X0010650Y0009700D01*
Y0010450D01*
X0004650Y0010250D02*
X0004000Y0009600D01*
Y0007300D01*
X0003750Y0007050D01*
Y0005800D01*
X0003850Y0005700D01*
Y0005350D01*
X0003750Y0005250D01*
Y0005100D01*
X0003700Y0005050D01*
X0016750Y0010250D02*
Y0015950D01*
X0015050Y0017650D01*
X0011850D01*
X0019650Y0004050D02*
X0018450D01*
X0009250Y-0008450D02*
Y-0008400D01*
X0009650Y-0008000D01*
X0011800D01*
X0011950Y-0008150D01*
X0029850Y0000450D02*
X0030800D01*
X0030950Y0000300D01*
X0031350D01*
X0031650Y0000000D01*
X0036150Y-0000350D02*
X0036400Y-0000100D01*
Y0001050D01*
X0037300Y0001950D01*
X0038200D01*
X0038450Y0002200D01*
Y0002800D01*
X0038750Y0003100D01*
Y0016050D01*
X0049950Y0063250D02*
Y0063052D01*
X0050000Y0063002D01*
Y0059350D01*
X0050200Y0059150D01*
Y0051800D01*
X0049750Y0051350D01*
X0010550Y0013000D02*
X0010950D01*
X0011450Y0012500D01*
Y0009150D01*
X0011650Y0008950D01*
X0012600D01*
X0012800Y0008750D01*
X0048650Y0034900D02*
X0048400Y0035150D01*
Y0036100D01*
X0048050Y0036450D01*
Y0037350D01*
X0047950Y0037450D01*
X0047400D01*
X0023700Y0006700D02*
X0023800Y0006600D01*
Y0000750D01*
X0023750Y0000700D01*
X0029500Y-0007000D02*
Y-0007050D01*
X0031450Y-0009000D01*
X0039900D01*
X0041450Y-0007450D01*
Y-0005250D01*
X0043900Y-0002800D01*
Y-0000300D01*
X0042750Y0000850D01*
Y0006650D01*
X0042250Y0007150D01*
Y0010750D01*
X0042750Y0011250D01*
Y0022250D01*
X0009750Y0015750D02*
X0009650Y0015650D01*
Y0014000D01*
X0009850Y0013800D01*
Y0009750D01*
X0010600Y0009000D01*
Y0007650D01*
X0010450Y0007500D01*
Y0006350D01*
X0010500Y0006300D01*
Y0003700D01*
X0010350Y0003550D01*
Y0001650D01*
X-0001900D02*
Y-0008150D01*
X-0000100Y0011750D02*
X-0000150Y0011800D01*
Y0021150D01*
X0049150Y0062100D02*
Y0061050D01*
X0048700Y0060600D01*
Y0060400D01*
X0049050Y0060050D01*
Y0054550D01*
X0048900Y0054400D01*
Y0047500D01*
X0049450Y0046950D01*
Y0033800D01*
X0049200Y0033550D01*
Y0033000D01*
X0049300Y0032900D01*
Y0032250D01*
X0049000Y0031950D01*
Y0024450D01*
X0049200Y0024250D01*
Y0018750D01*
X0048950Y0018500D01*
Y0014250D01*
X0048850Y0014150D01*
Y0013950D01*
X0049250Y0013550D01*
Y0010650D01*
X0048850Y0010250D01*
X0037350Y0008300D02*
Y0007900D01*
X0037900Y0007350D01*
Y0006850D01*
X0037150Y0006100D01*
X0033050Y0005150D02*
X0032600Y0004700D01*
X0030950D01*
X0030600Y0004350D01*
X0030250D01*
X0023750Y0008450D02*
X0023300Y0008900D01*
X0022900D01*
X0022350Y0008350D01*
G54D80*
G01X0001250Y0006900D02*
Y-0001500D01*
X0005850Y0012550D02*
X0005870D01*
X0001250Y0006900D02*
X0001500Y0007150D01*
Y0012300D01*
X0001750Y0012550D01*
X0010250Y0004000D02*
Y0007700D01*
X0010350Y0007800D01*
Y0008550D01*
X0009300Y0009600D01*
Y0010200D01*
X0009350Y0010250D01*
Y0011050D01*
X0009250Y0011150D01*
Y0019200D01*
X0008430Y0006080D02*
Y0006030D01*
X0008650Y0005810D01*
X0008700D01*
Y0005800D01*
X0008850Y0005650D01*
Y0005350D01*
X0008650Y0005150D01*
Y0003250D01*
X0008750Y0003150D01*
X0048500Y0016150D02*
Y0016300D01*
Y0016750D01*
X0048550Y0016800D01*
Y0017550D01*
X0048250Y0017850D01*
Y0020400D01*
X0048500Y0020650D01*
Y0021150D01*
X0048450D01*
X0007000Y0008150D02*
Y0008350D01*
X0007150Y0008500D01*
Y0008950D01*
X0007000Y0009100D01*
Y0010100D01*
X0007150Y0010250D01*
Y0011050D01*
X0006600Y0011600D01*
Y0012000D01*
X0010250Y0004000D02*
X0009900Y0003650D01*
Y0002350D01*
X0002400D02*
X0003550Y0001200D01*
X0005100Y0002750D01*
Y0004000D01*
X0002400Y-0007100D02*
Y0000050D01*
X0003550Y0001200D01*
X0005100Y0002750D01*
Y0004000D01*
X0040600Y-0002150D02*
Y-0000400D01*
X0041400Y0000400D01*
Y0000700D01*
X0048500Y0016150D02*
Y0015550D01*
X0048400Y0015450D01*
Y0013150D01*
X0048350Y0013100D01*
Y0010700D01*
X0048050Y0010400D01*
Y0006500D01*
X0041800Y-0000450D02*
Y0002250D01*
X0042350Y0002800D01*
Y0006450D01*
X0041150Y0007650D01*
Y0013300D01*
X0040750Y0013700D01*
Y0019250D01*
X0049500Y0019200D02*
Y0021400D01*
X0006850Y0016550D02*
Y0016400D01*
X0006600Y0016150D01*
Y0012000D01*
X0023720Y-0011530D02*
X0023950Y-0011300D01*
Y-0005550D01*
X0015150Y0007400D02*
Y0004850D01*
X0015500Y0004500D01*
X0050291Y0031909D02*
X0049950Y0032250D01*
Y0033950D01*
X0050250Y0034250D01*
X0041800Y0002250D02*
Y-0000450D01*
X0004000Y0003250D02*
Y0003650D01*
X0004300Y0003950D01*
Y0009249D01*
X0004249Y0009299D01*
X0050300Y0031900D02*
X0050291Y0031909D01*
X0004550Y-0006750D02*
Y-0006250D01*
X0043100Y0008700D02*
X0043150Y0008750D01*
Y0010300D01*
X0043300Y0010450D01*
Y0011250D01*
G54D82*
G01X0041250Y-0001000D02*
X0041800Y-0000450D01*
X0041250Y-0001000D01*
G54D83*
G01X0028950Y0012550D02*
Y0005650D01*
Y0012550D02*
Y0005650D01*
Y0012550D02*
Y0005650D01*
X0005870Y0012550D02*
Y0021270D01*
X0006500Y0021900D01*
X0047050Y0039200D02*
X0046600Y0038750D01*
Y0034050D01*
X0047200Y0033450D01*
X0044800Y0014050D02*
Y0016050D01*
X0044500Y0016350D01*
X0044800Y0012450D02*
Y0014050D01*
X0028950Y0005650D02*
Y0012550D01*
X0044750Y0005650D02*
Y0005750D01*
X0044800Y0005800D01*
Y0012450D01*
Y0014050D01*
X0046350Y0018500D02*
Y0022350D01*
X0046500Y0022500D01*
Y0032750D01*
X0047200Y0033450D01*
X0044550Y-0004250D02*
Y0005450D01*
X0044750Y0005650D01*
X0047050Y0039200D02*
X0045000Y0041250D01*
Y0051650D01*
X0045500Y0052150D01*
Y0054100D01*
X0044950Y0054650D01*
Y0057950D01*
X0045300Y0058300D01*
Y0061700D01*
X0028950Y0012550D02*
Y0005650D01*
X0045300Y0061700D02*
Y0058300D01*
X0044950Y0057950D01*
Y0054650D01*
X0045500Y0054100D01*
Y0052150D01*
X0045000Y0051650D01*
Y0041250D01*
X0047050Y0039200D01*
G54D29*
X0049484Y-0006266D03*
X0047516D03*
X0046531Y-0007250D03*
X0047516Y-0008234D03*
X0049484D03*
X0048500Y-0007250D03*
G54D31*
X0037574Y-0010893D03*
Y-0010106D03*
X0036787Y-0010893D03*
Y-0010106D03*
X0036000Y-0010893D03*
Y-0010106D03*
X0035213Y-0010893D03*
Y-0010106D03*
X0034425Y-0010893D03*
Y-0010106D03*
G54D33*
X0019386Y-0010144D03*
X0022850D03*
X0024423D03*
X0026313D03*
X0049394Y0027220D03*
Y0024543D03*
X0048894Y0046864D03*
Y0043400D03*
X0000894Y0028614D03*
Y0025150D03*
X0007894Y0013386D03*
Y0016850D03*
X0042894Y0010614D03*
Y0007150D03*
X0045114Y0004894D03*
X0041650D03*
X0049394Y0069614D03*
Y0066150D03*
X0012894Y0013386D03*
Y0016850D03*
X0015029Y-0010144D03*
X0017707D03*
X0049394Y0072827D03*
Y0070937D03*
G54D35*
X0049000Y-0010777D03*
G54D36*
X0047653Y-0010250D03*
X0050346D03*
G54D37*
X0049492D03*
G54D38*
X0048508D03*
G54D39*
X0031000Y-0010750D03*
X0032000D03*
Y-0009750D03*
X0031000D03*
X0030000D03*
G54D40*
X0043250Y-0001000D03*
X0030000Y-0010750D03*
G54D68*
X0042250Y-0001000D03*
X0041250D03*
G54D74*
X0045900Y0018600D03*
Y0018000D03*
X0046350D03*
X0046750D03*
Y0018600D03*
X0045000Y0016950D03*
X0044550Y0017450D03*
X0045000Y0016350D03*
Y0017450D03*
X0005500Y0013050D03*
X0005100Y0012550D03*
X0005850Y0013050D03*
X0005500Y0012550D03*
X0029250D03*
Y0011900D03*
X0028700D03*
Y0012550D03*
X0029250Y0013200D03*
X0028700D03*
X0029350Y0005750D03*
X0028700D03*
Y0005200D03*
X0029250D03*
Y0006200D03*
X0028700D03*
X0040400Y0005500D03*
Y0005850D03*
X0041200Y0005450D03*
Y0005850D03*
X0041650Y0005450D03*
Y0005850D03*
X0044350Y0005450D03*
Y0006000D03*
X0045200Y-0004250D03*
X0044300Y-0004700D03*
X0044900D03*
X0045450D03*
Y-0003850D03*
X0044900D03*
X0044300D03*
X0046000Y0074900D03*
X0045500D03*
X0045000D03*
X0046000Y0075600D03*
X0045500D03*
X0045000D03*
X0003700Y0019300D03*
X0003000D03*
X0002300D03*
X0003700Y0019800D03*
X0003000Y0019750D03*
X0002300D03*
X0003700Y0020200D03*
X0003000D03*
X0002300D03*
X0001800Y0010500D03*
X0002500D03*
X0003200D03*
Y0010050D03*
X0002500D03*
X0001800D03*
X0003200Y0010950D03*
X0002500D03*
X0001800D03*
X0012050Y0010500D03*
Y0010050D03*
X0012750D03*
Y0010500D03*
X0013450D03*
Y0010050D03*
Y0010950D03*
X0012750D03*
X0012050D03*
X0038200Y0002800D03*
X0037500D03*
X0038200Y0003250D03*
X0037500D03*
X0036800Y0002800D03*
Y0003250D03*
X0038200Y0003700D03*
X0037500D03*
X0036800D03*
X0047200Y0012550D03*
X0046750D03*
X0046300D03*
X0047200Y0013250D03*
X0046750D03*
X0046300D03*
X0047200Y0013950D03*
X0046300D03*
X0046750D03*
X0048300Y0037000D03*
X0049000D03*
X0049700D03*
Y0036550D03*
X0049000D03*
X0048300D03*
X0049700Y0037450D03*
X0049000D03*
X0048300D03*
X0048700Y0062500D03*
X0047300D03*
X0048000D03*
X0048700Y0062050D03*
X0048000D03*
X0047300D03*
X0048700Y0062950D03*
X0048000D03*
X0047300D03*
G54D77*
X0049150Y0062100D03*
X0048850Y0010250D03*
X0041450Y0009650D03*
Y0008000D03*
X0037350Y0008300D03*
X0037150Y0006100D03*
X0033050Y0005150D03*
X0030250Y0004350D03*
X0023750Y0008450D03*
X0022350Y0008350D03*
X0000200Y0009500D03*
X0002150Y0008700D03*
G54D79*
X0037650Y0007000D03*
X0049300Y0008100D03*
X0049550Y0021750D03*
X0048050D03*
X0047350Y0036850D03*
X0012850Y0007750D03*
X0004950Y0013300D03*
X0009900Y0014100D03*
X0050850Y0013850D03*
X0050200Y-0002400D03*
X0041450Y-0002700D03*
X0038350Y0000000D03*
X0014900Y0008550D03*
X0014950Y0001800D03*
X0030850Y0001850D03*
X0034950Y0002100D03*
X0035650Y0001850D03*
X0038700Y0002600D03*
X0016000Y0012550D03*
X0003350D03*
X0013450D03*
X0001250Y-0001500D03*
X0012000Y0012550D03*
X0005850D03*
X0006500Y0021900D03*
X0048700Y0064350D03*
X0050200Y0039200D03*
X0048300D03*
X0003750Y0021900D03*
X0044500Y0016350D03*
X0001250Y0006900D03*
X0001750Y0012550D03*
X0039200Y0005650D03*
X0040750D03*
X0036150Y0000500D03*
X0036950Y0005650D03*
X0044800Y0014050D03*
X0047300Y0064350D03*
X0045850D03*
X0045150D03*
X0047200Y0033450D03*
X0001500Y0016000D03*
X0001650Y0021900D03*
X0044800Y0012450D03*
X0050000Y0011500D03*
X0011050Y0012550D03*
X0011100Y0007050D03*
X0017500Y-0011000D03*
X0015900Y-0010439D03*
X0016552Y-0010450D03*
X0018750Y-0010000D03*
X0021600Y-0010450D03*
X0017600Y-0009530D03*
X0004000Y0006850D03*
X0003250Y0007000D03*
X0002250Y0007250D03*
X0006350Y0009500D03*
X-0000447D03*
X0009250Y0021500D03*
X0014500Y0011701D03*
X0014250Y0014000D03*
X0012850Y-0009200D03*
X0013000Y-0008150D03*
X0046350Y0075250D03*
X0014000Y0007750D03*
X0049950Y0055400D03*
X0050500Y0059000D03*
X0020000Y0002250D03*
X0020750D03*
X0004850Y0080700D03*
Y0078300D03*
X0011450Y0019400D03*
X0010000Y0019350D03*
X0006750Y0076250D03*
X0007350Y0075720D03*
X0050700Y0018650D03*
X0004050Y0049750D03*
X0001650D03*
X0048700Y0018650D03*
X0037750Y0007900D03*
X0021100Y0005750D03*
X0018000Y0008250D03*
X0020470Y0008800D03*
X0022250Y0005400D03*
X0006250Y0008250D03*
X0008550Y0017600D03*
X-0000250Y0045750D03*
X0007100Y0019000D03*
X0022750Y0002250D03*
X0024950Y0003650D03*
X0040850Y0080700D03*
X0044400Y0076345D03*
X0000800Y0044750D03*
X0002200Y0046380D03*
X0048311Y0026450D03*
X0003500Y0016000D03*
X0001750Y0014900D03*
X0008900Y0075720D03*
X0009450Y0077380D03*
X0050750Y0038201D03*
X0045553Y0036000D03*
X0011140Y0014660D03*
X0047250Y0024750D03*
X0050750Y0023500D03*
X0050000Y0023400D03*
X0002750Y0045750D03*
X0039800Y0033350D03*
X0002750Y0044350D03*
X0039450Y-0010000D03*
X0009600Y0076970D03*
X0011050Y0075600D03*
X0011750Y0077500D03*
X0002500Y0015100D03*
X0038500Y0033000D03*
X0041250Y0014250D03*
X0042500Y0015400D03*
X0042450Y0016800D03*
X0043750Y0016400D03*
X0002750Y0042500D03*
X0033900Y0032780D03*
X0041500Y0032100D03*
X0046500Y0017566D03*
X0001750Y0042500D03*
X-0000250Y0040500D03*
X-0002250Y0022750D03*
X0034950Y0032620D03*
X0029114Y0041900D03*
X0003600Y0005600D03*
X0024400Y0006700D03*
X0002900Y0023750D03*
X0001250Y0024650D03*
X0008100Y0019700D03*
X0047800Y0001400D03*
X0032100Y-0001550D03*
X0038300Y0015600D03*
X0009450Y0004900D03*
X0049250Y0029500D03*
X0047300Y0029600D03*
X0050000Y0029650D03*
X0043120Y0053950D03*
X0043650Y0054470D03*
X0047300Y0036300D03*
X0046250Y0014800D03*
X0050200Y0031400D03*
X0008430Y0006080D03*
X0008750Y0003150D03*
X0049750Y0035250D03*
X0048950Y0060500D03*
X0048450Y0021150D03*
X0007000Y0008150D03*
X0009900Y0002350D03*
X0002400D03*
X0028450Y-0002450D03*
X0029250D03*
X0002400Y-0007100D03*
X0005100Y0004000D03*
X0031900Y-0002150D03*
X0040600D03*
X0041400Y0000700D03*
X0048500Y0016150D03*
X0048050Y0006500D03*
X0004901Y0016701D03*
X0021200Y0008300D03*
X0020850Y0009400D03*
X0014400Y0008850D03*
X0011650Y0007750D03*
X0009950Y0007550D03*
X0044900Y0052280D03*
X0004750Y0020951D03*
X0049450Y0021450D03*
X0005250Y0017610D03*
X0043750Y0015400D03*
X0045549Y0015000D03*
X0042300Y0051300D03*
X0047650Y0052100D03*
X0002950Y0075760D03*
X0008950Y-0011510D03*
X0013750Y-0008150D03*
X0014500D03*
X0039250Y-0003400D03*
X0037700Y-0002550D03*
X0042500Y0002100D03*
X0043700Y0002350D03*
X0031800Y0003500D03*
X0030700Y0002850D03*
X0024850Y0002800D03*
X0024700Y0000450D03*
X0011800Y0000850D03*
X0048500Y0041650D03*
X0021750Y0001350D03*
X0041250Y0015250D03*
X0047988Y0016150D03*
X-0001250Y-0005350D03*
X-0000500D03*
X0048250Y0053750D03*
X0000250Y-0005350D03*
X-0000050Y0047300D03*
X0000950Y0047700D03*
X0049500Y0033500D03*
X0051000Y0033200D03*
X0050250Y0033350D03*
X0048250Y0032600D03*
X0049500Y0033150D03*
X0045970Y0027400D03*
X0039250Y0020250D03*
X0018000Y-0008150D03*
X0016650Y-0006850D03*
X0012250Y-0006800D03*
X0023950Y-0005550D03*
X0036000Y0077250D03*
Y0079000D03*
X0045750Y0001950D03*
X0015150Y0007400D03*
X0015500Y0004500D03*
X0045750Y0003250D03*
X0046050Y0007400D03*
X0050250Y0034250D03*
X0049500Y0031750D03*
X0023720Y-0011530D03*
X0025200Y-0010800D03*
X0010750Y-0006750D03*
X0008500D03*
X0047500Y0055000D03*
X0046300D03*
X0044005Y0055495D03*
Y0052955D03*
X0034900Y0033700D03*
X0032750Y0033250D03*
X0038750Y0018500D03*
X0013500Y0005100D03*
X0011950Y0005500D03*
X0013250Y0004000D03*
X0014000Y0004750D03*
X0009950Y0006650D03*
X0009951Y0008550D03*
X0043100Y0057500D03*
X0044850Y0060000D03*
X0045500Y0057500D03*
X0050500Y0013500D03*
X0050900Y0012500D03*
X0049250Y0017000D03*
X0050650Y0014500D03*
X0045500Y0073150D03*
Y0068750D03*
X0041800Y0002250D03*
X0003700Y0017500D03*
X0002750Y0016450D03*
X0003300Y0008400D03*
X0044500Y0020750D03*
X0047050Y0018850D03*
X-0000447Y0018750D03*
X0043750Y0003350D03*
X0045150Y0003970D03*
X0045200Y0003650D03*
X0043200Y0001000D03*
X0004200Y-0001350D03*
Y-0003100D03*
X0030500Y0000750D03*
X0034553Y0002250D03*
X0032350Y0000280D03*
X0045200Y0001900D03*
X0039285Y-0005600D03*
X0038650Y-0004220D03*
Y-0005470D03*
X0005500Y0008650D03*
X0004000Y0005150D03*
X0004200Y0000400D03*
X0013250Y0007100D03*
X0011600Y0006600D03*
X0004350Y0011701D03*
X0003500Y0014900D03*
X0004400Y0013000D03*
X0003250Y0015150D03*
X0008650Y0009650D03*
X0007650Y0009750D03*
X0006650Y0009400D03*
X0004150Y0015250D03*
X0037200Y-0003800D03*
X0045900Y-0003450D03*
X0046600Y0009000D03*
X0025550Y0008450D03*
Y0017050D03*
X0009650Y0017150D03*
X0009600Y0009750D03*
X0032400Y0003650D03*
X0044750Y0005650D03*
X0015500Y0005000D03*
X0018000Y0005500D03*
X0044150Y0008950D03*
X0044750Y0018800D03*
X0007350Y0011400D03*
X0008550Y0005500D03*
X0040250Y0000100D03*
X0041450Y0002100D03*
X0047350Y0003000D03*
X0047250Y0038201D03*
X-0002450Y0006000D03*
X-0002500Y0008350D03*
X0046850Y0041500D03*
X0043250Y0040000D03*
X0018350Y-0010950D03*
X0049700Y0060750D03*
X0049500Y0057300D03*
X0046900Y0077750D03*
X0050600Y0030500D03*
X0051000Y0033600D03*
X0017500Y-0008050D03*
X0015850Y-0007500D03*
X0043300Y0007350D03*
X0043750Y0006900D03*
X0000400Y0010450D03*
X0024250Y0007550D03*
X0024450Y-0000700D03*
X0016850Y-0000750D03*
X0016750Y-0007300D03*
X0043500Y0077650D03*
X0045650Y0018950D03*
X0007350Y0009950D03*
X0003500Y0006650D03*
X-0001850Y0006300D03*
X0004000Y0003250D03*
X0004249Y0009299D03*
X0046950Y0051900D03*
X0044000Y0037600D03*
X0011100Y-0003550D03*
X0011300Y-0002250D03*
X0026100Y0016800D03*
X0006350Y0016300D03*
X0006500Y0010050D03*
X0006850Y0008800D03*
X0000650Y0010200D03*
X0004700Y0009650D03*
X0005150Y0009950D03*
X0009050Y0010900D03*
X0046850Y0049100D03*
X0046150Y0036950D03*
X0023500Y-0001850D03*
X0023750Y0007250D03*
X0035700Y0002850D03*
X0037400Y-0003550D03*
X0046650Y-0003200D03*
X0050291Y0031909D03*
X0023600Y0007850D03*
X0024250Y0010250D03*
X0029550Y0009950D03*
X0039900Y0004850D03*
Y0007300D03*
X0047100Y0008600D03*
X0047200Y0015200D03*
X0048700D03*
X0048850Y0032450D03*
X0050850Y0040650D03*
X0050650Y0051350D03*
X0050450Y0007250D03*
X0047950Y0016850D03*
X-0002050Y0004250D03*
X0005300Y0005100D03*
X0045900Y0009000D03*
X0045600Y0006250D03*
X0033050Y0006400D03*
X0033400Y0003450D03*
X0047450Y0009200D03*
X0024700Y0004850D03*
X0031050Y0004450D03*
X0033400Y0002550D03*
X0014650Y0009350D03*
X0014600Y0003650D03*
X0033050Y0002550D03*
X0031350Y0004350D03*
X0006850Y0010950D03*
X0006650Y0010400D03*
X0005000Y0010250D03*
Y0011250D03*
X-0000100Y0011000D03*
X0032650Y0003450D03*
X0031800Y0004200D03*
X0024800Y0004300D03*
X0014850Y-0011000D03*
X0015750Y0006650D03*
X-0000750Y0002850D03*
X0008950Y0003400D03*
X0009100Y0008550D03*
X-0001850Y0017750D03*
X-0001800Y0009550D03*
X0022200Y0011350D03*
X0023000Y0008350D03*
X0012400Y0006400D03*
X0007350Y0009150D03*
X0023900Y0006950D03*
X0024000Y0008250D03*
X0028450Y0009050D03*
X0045500Y0004400D03*
X0044250Y0034750D03*
X0042850Y0049050D03*
X0042750Y0034850D03*
X0015500Y-0008900D03*
X0016500Y0005800D03*
X0045900Y0038450D03*
X0047050Y0051400D03*
X0016900Y-0008200D03*
X0017150Y0005850D03*
X0026250Y-0011750D03*
X0032250Y-0001150D03*
X0030950Y-0001000D03*
X0027050Y-0001950D03*
X0024000Y-0001100D03*
X0024050Y0006000D03*
X0028950Y0012550D03*
Y0005650D03*
X0018750Y-0008450D03*
X0050000Y0041650D03*
X0050553Y0049750D03*
X0037400Y-0001720D03*
X0038650Y-0003550D03*
X0021350Y0004200D03*
Y-0001000D03*
X0011500Y-0001850D03*
X0000750Y0011701D03*
X-0002750Y0013500D03*
X0044550Y-0004250D03*
X0031950Y0001950D03*
X0026550Y0002350D03*
X0023350Y0002050D03*
Y0007350D03*
X0048000Y0048150D03*
X0047050Y0036050D03*
X-0002850Y0017500D03*
X-0002800Y0009600D03*
X0020550Y-0008400D03*
X0045950Y0038050D03*
X0044450Y0025650D03*
X0042500Y0007350D03*
X0029400Y0007400D03*
X0027800Y0007350D03*
Y0013500D03*
X0021450Y0013750D03*
Y0009900D03*
X0019200Y-0011500D03*
X0045050Y0037600D03*
X0045450Y0048750D03*
X0031516Y0041900D03*
X0025050Y-0011100D03*
X0024950Y0002450D03*
X0010450Y-0006450D03*
X0011450Y-0006700D03*
X0047350Y0007750D03*
X0045350Y0018750D03*
X0007800Y0018900D03*
X0001550Y0020000D03*
X-0001100Y0020350D03*
X-0001200Y0012100D03*
X0004650Y0011000D03*
X0000700Y0012550D03*
X0046750Y0073500D03*
X0044750D03*
X0036900Y-0009600D03*
X0002950Y0006550D03*
X0004350Y0003450D03*
X0045300Y0061700D03*
X0047050Y0039200D03*
X0026100Y0008400D03*
X0026350Y0003000D03*
X0031200Y0003100D03*
X0031850Y0002500D03*
X0011001Y0011701D03*
X0008600Y0013350D03*
X0049750Y0017300D03*
X0049150Y0007100D03*
X0024350Y0008250D03*
X0020950Y0009100D03*
X0010450Y0009500D03*
X0025550Y-0003400D03*
X0025650Y0007600D03*
X0046350Y0018500D03*
X0042400Y0016000D03*
X0035750Y0004050D03*
X0039850D03*
Y0003050D03*
X0045800Y0005250D03*
X0008850Y0011150D03*
Y0016850D03*
X0029300Y0017200D03*
X0029400Y0009200D03*
X-0002350Y0011100D03*
X-0002200Y0005400D03*
X0003350D03*
X0003500Y0006300D03*
X0022250Y-0008950D03*
X0020850Y-0006400D03*
X0045900Y0008000D03*
X0020950Y-0005500D03*
X0039850Y0001850D03*
X0027500Y0003500D03*
X0021550Y-0004100D03*
X0019550Y-0007750D03*
X0015800Y-0008350D03*
X0046600Y0049550D03*
X0045400Y0034800D03*
X0021850Y0010550D03*
Y0011750D03*
X0026750Y0011250D03*
X0026900Y0008400D03*
X0028550Y-0000150D03*
X0030950Y-0000500D03*
X0040150Y-0001650D03*
X0040250Y0007650D03*
X0047100Y0032700D03*
X0020350Y0004150D03*
X0020150Y-0007250D03*
X0022750Y-0006450D03*
X0022650Y0005400D03*
X0024350Y0005800D03*
X0024250Y-0001450D03*
X0011350Y-0002900D03*
X0011150Y-0005250D03*
X0035150Y0003200D03*
X0041450Y0001750D03*
X0010500Y0011200D03*
X0022200Y0011000D03*
X0045650Y0047750D03*
X0045450Y0036500D03*
X-0000950Y0009500D03*
X-0000700Y0017750D03*
X0015950Y0007950D03*
X0015750Y0016500D03*
X0006900Y0016050D03*
X0001100Y0020650D03*
X0045350Y0039000D03*
X0047300Y0051600D03*
X0012050Y-0000250D03*
X0010900Y-0001500D03*
X0005250Y0016800D03*
X0003450Y0017750D03*
X0001200Y0021300D03*
X0022000Y-0000200D03*
X0021900Y0007000D03*
X0008050Y0018250D03*
X0007450D03*
X0004850Y0018050D03*
X0001550Y0019650D03*
X0042250Y0032100D03*
X0045300Y0029600D03*
X-0002500Y0035050D03*
X-0002650Y0020350D03*
X0020100Y0017650D03*
X0022100Y0005900D03*
X0037770Y-0006780D03*
X0035350Y-0006800D03*
X0048800Y0057500D03*
X0048950Y0018850D03*
X0050550Y0014000D03*
X0049100Y0014050D03*
X0048900Y-0002750D03*
X0042150Y-0002950D03*
X0040900Y-0001850D03*
X0032850Y-0002450D03*
X0031400Y-0001450D03*
X0011400Y-0000700D03*
X0008050Y-0007850D03*
X0049600Y0052450D03*
X0022850Y0007600D03*
X0023100Y0001800D03*
X0031000Y0002750D03*
X0031800Y0003000D03*
X0011050Y0006150D03*
X0010900Y0006800D03*
X0045850Y0031950D03*
X0045950Y0037200D03*
X0048500Y0055100D03*
X0047950Y0049050D03*
X0050100Y0016400D03*
X0049950Y0007550D03*
X0010100Y0014350D03*
X0010150Y0015950D03*
X0029550Y0015900D03*
X0047200Y0066700D03*
X0048000Y0067150D03*
X0048200Y0020750D03*
X0050450Y0008350D03*
X0026100Y-0008000D03*
X0023100Y0004050D03*
X0037350Y0020400D03*
X0035650Y0006300D03*
X0030350D03*
X0029400Y0007050D03*
X0046050Y0031700D03*
X0046100Y0034550D03*
X0021350Y-0010750D03*
X0037970Y-0000400D03*
X0033500Y0000300D03*
X0044750Y0031650D03*
Y0036700D03*
X0019050Y0008700D03*
X0001050Y0011000D03*
X0002050Y0016400D03*
X0003050Y0016350D03*
X0010000D03*
X0014800Y0016150D03*
X0015000Y0010250D03*
X0049350Y0054100D03*
Y0048750D03*
X0012550Y0006100D03*
X0012150Y0007750D03*
X0009950Y0007950D03*
X0029550Y0010650D03*
X0030700Y0006300D03*
X0033300Y0001050D03*
X0033650Y-0000850D03*
X0035650Y-0000750D03*
X0037950D03*
X0027500Y0007000D03*
X0032250Y0006250D03*
X0038350Y0006400D03*
X-0002050Y0015750D03*
Y0009750D03*
X0042450Y0017150D03*
X0043250Y-0004950D03*
X0001050Y0018500D03*
X0002850Y0017450D03*
X0004800Y0021400D03*
X0000850Y0020400D03*
X0010100Y0011200D03*
X0014200Y0011100D03*
X0042050Y0021500D03*
X0042250Y0000450D03*
X0039350D03*
X0029800Y0001250D03*
X0012150Y0000850D03*
X0009000Y-0008700D03*
X0025700Y0010800D03*
X0027550Y0007750D03*
X0045900Y0008550D03*
X0046250Y0011600D03*
X0005550Y-0007450D03*
Y0000250D03*
X0011350D03*
X0012550Y0000050D03*
X0031000Y0000000D03*
X0032750Y-0004150D03*
X0036250D03*
X0037800Y-0008600D03*
X0050050Y-0007050D03*
X0049450Y0029850D03*
X0045850Y0021050D03*
X0046050Y0026100D03*
X-0002850Y0032250D03*
X-0002550Y0015450D03*
X0020900Y0015400D03*
Y0010850D03*
X0044300Y0015200D03*
X0043800Y-0003800D03*
X0037150Y-0004450D03*
X0036450Y-0003850D03*
X0032900D03*
X0031050Y0000550D03*
X0012850Y0001000D03*
X0011200D03*
X-0001650Y0001350D03*
Y-0008470D03*
X0010750Y-0005650D03*
X0014200Y-0006550D03*
X0022500Y0007650D03*
X0031850Y0000600D03*
X0037650Y-0000600D03*
X0039400Y0008300D03*
X0043750Y0008400D03*
X0043950Y0010000D03*
X0050850Y0060450D03*
Y0057600D03*
X0047400Y0014400D03*
X0046400Y0008250D03*
X0044350Y0006550D03*
X0048250Y0050950D03*
X0048100Y0060500D03*
X0014650Y0009700D03*
X0010950Y0009950D03*
X0008450D03*
X0007800Y0008500D03*
X0037050Y0008900D03*
X0027500Y0004000D03*
X0039350Y0002550D03*
X0039650Y0013350D03*
X0022250Y0002700D03*
X0050200Y0064150D03*
X0050300Y0051350D03*
X0004550Y-0006750D03*
Y-0006250D03*
X-0001700Y0020250D03*
X-0001600Y0013050D03*
X-0003000Y0035500D03*
X-0002900Y0005350D03*
X0002650Y0005700D03*
Y-0009450D03*
X0046350Y0061750D03*
X0046100Y0049700D03*
X0048750Y0035250D03*
X0047250Y0035800D03*
X0045900Y0009550D03*
X0046250Y0014450D03*
X0036600Y0006100D03*
X0049000Y0013150D03*
X0048850Y0009550D03*
X-0002150Y0015000D03*
Y0020350D03*
X0048050Y0033650D03*
X0047400Y0049300D03*
X0018850Y0005050D03*
X0047850Y0060700D03*
Y0050050D03*
X0005400Y0014500D03*
X0033550Y0005000D03*
X0035100Y0002600D03*
X-0002200Y0035250D03*
X-0001650Y0002250D03*
X0004950Y0001950D03*
X0005150Y-0008750D03*
X0013250Y0015400D03*
X0037500Y0033500D03*
X0035500Y0034650D03*
X0045250Y0005500D03*
X0048500Y0009553D03*
X0036200Y-0001350D03*
X0036900Y-0001300D03*
X0013200Y0013850D03*
X0002600Y0017700D03*
X0001550Y0019300D03*
X0034200Y0003750D03*
X0029400Y0008100D03*
X0010750Y0013250D03*
X0007150Y-0007300D03*
Y0001400D03*
X0011200D03*
X0012500Y0001300D03*
X0031250Y0001350D03*
X0039600Y0000250D03*
X0048300Y0066750D03*
X0046920Y0066020D03*
X-0000950Y0017550D03*
Y0009850D03*
X0044150Y0008400D03*
X0043900Y0011900D03*
X0043400Y0012100D03*
X0042500D03*
X0007450Y-0007500D03*
Y0005750D03*
X0048650Y0008600D03*
Y0012900D03*
X0040200Y0003800D03*
X0002900Y0027700D03*
Y0026560D03*
X0006100Y-0008100D03*
X0005750Y0002750D03*
X-0001250Y0002650D03*
X-0001550Y0035300D03*
X0000050Y0010500D03*
X0000650Y0009850D03*
X0006900Y0014900D03*
X0024400Y0007050D03*
X0026050Y-0000200D03*
X0030000Y-0000550D03*
X0030050Y-0002250D03*
X0005550Y0006000D03*
X0005300Y-0007900D03*
X0011900Y0002300D03*
X0010650Y0010450D03*
X0004650Y0010250D03*
X0003700Y0005050D03*
X-0002500Y0004700D03*
X-0003250Y0035250D03*
X0016750Y0010250D03*
X0011850Y0017650D03*
X0021550Y0005400D03*
X0019800Y0007600D03*
X0019650Y0004050D03*
X0018450D03*
X0011850Y0002850D03*
X0004350Y0003100D03*
X-0001500Y0003250D03*
X-0001900Y0035350D03*
X0035400Y0001650D03*
X0037400Y0001250D03*
X0000750Y0010800D03*
X0004200Y0012100D03*
X0009250Y-0008450D03*
X0011950Y-0008150D03*
Y0000300D03*
X0029850Y0000450D03*
X0031650Y0000000D03*
X0036150Y-0000350D03*
X0038750Y0016050D03*
X0049950Y0063250D03*
X0049750Y0051350D03*
X0010550Y0013000D03*
X0012800Y0008750D03*
X0048650Y0034900D03*
X0047400Y0037450D03*
X0006900Y0014290D03*
X0023700Y0006700D03*
X0023750Y0000700D03*
X0030250Y0000950D03*
X0035350Y-0005200D03*
X0015130Y0014650D03*
X0050600Y0046431D03*
Y0044850D03*
X0035700Y0004950D03*
X0039200D03*
X0000250Y0019050D03*
Y0021450D03*
X0012400Y0008700D03*
X0009600Y0008550D03*
X0043100Y0008700D03*
X0043300Y0011250D03*
X0005900Y-0009450D03*
X0045000Y0053000D03*
X0032250Y0076100D03*
X0012500Y0077500D03*
X0029500Y-0007000D03*
X0042750Y0022250D03*
X0043600Y0031850D03*
X0009750Y0015750D03*
X0010350Y0001650D03*
X-0001900D03*
Y-0008150D03*
X0034950Y0001400D03*
X0037150Y0001450D03*
X0023200Y-0002850D03*
X0018800Y-0002350D03*
X0018850Y0002650D03*
X0023500Y-0009550D03*
X0008100Y0014000D03*
X0039500Y-0009500D03*
X0045000Y-0008700D03*
X-0000100Y0011750D03*
X-0000150Y0021150D03*
G54D84*
X0010250Y0004000D03*
X0009250Y0019200D03*
X0042600Y0040550D03*
X0042450Y0035350D03*
X0036500Y0035150D03*
Y0034050D03*
X0034250Y0076750D03*
X0033850Y0075400D03*
X0043350Y0032150D03*
X0044500Y0032100D03*
X0039500Y0015750D03*
X0039850Y0015970D03*
X0039930Y0015600D03*
X0015500Y0008150D03*
X0016600Y0009500D03*
X0023200Y0008600D03*
X0022820Y0011530D03*
X0024750Y0013250D03*
X0004700Y0016350D03*
X0005300Y0015750D03*
X0026100Y-0010570D03*
X0023000Y-0004800D03*
X0024250Y-0006500D03*
X0027550Y-0006400D03*
X0027950Y-0007250D03*
Y-0009000D03*
X0041350Y0002500D03*
X0041400Y0001280D03*
X0040250Y0001800D03*
X0044500Y0050000D03*
X0046250Y0051500D03*
X0045500D03*
X0049950Y0057150D03*
X0047500Y0057850D03*
X0048750Y0059000D03*
X0040850Y0078300D03*
X0040800Y0075800D03*
X0039750D03*
X0038500Y0075750D03*
X0037000Y0077350D03*
X0036750Y0076250D03*
X0036150Y0075720D03*
X0033750Y0076000D03*
X0034420Y0078120D03*
X0032750Y0080250D03*
X0033750D03*
X0045800Y0056100D03*
X0046500D03*
X0044900Y0053530D03*
X0046450Y0053900D03*
X0008150Y0004530D03*
X0006050Y0006000D03*
X0046250Y0063701D03*
X0045600Y0065000D03*
X0036570Y-0001400D03*
X0037400Y-0000400D03*
X0039250Y-0001100D03*
X0037600Y0000470D03*
X0038750Y0000750D03*
X0024550Y-0002750D03*
Y-0001000D03*
X0018000Y-0006750D03*
X0019150Y-0007780D03*
X0045549Y0011500D03*
X0050400Y0065000D03*
X0049750Y0063701D03*
X0049950Y0058900D03*
X0049750Y0059750D03*
X0050750Y0061650D03*
X0001250Y0020951D03*
X0015650Y-0007768D03*
X0017000Y-0008500D03*
X0016700Y-0006250D03*
X0015650Y-0006268D03*
X0013050Y-0006650D03*
X0010000Y-0008250D03*
X0010500Y-0008650D03*
X0046950Y0025880D03*
X0043000Y0020750D03*
X0043700Y0022400D03*
X0045250Y0022750D03*
X0044500Y0024750D03*
X0039300Y0004300D03*
X0039000Y0007900D03*
X0035750Y0004451D03*
X0006850Y0016550D03*
X0006600Y0012000D03*
X0049500Y0019200D03*
X0040750Y0019250D03*
X0002250Y0045250D03*
X-0000150Y0010250D03*
X0003450Y0008700D03*
X0000350Y0042250D03*
X0000750Y0045600D03*
X0005100Y0008000D03*
X0005550Y0007350D03*
X0024650Y0009050D03*
X0030500Y0004600D03*
X0033700Y0003850D03*
X0048250Y0017100D03*
X0046350Y0015700D03*
X0037600Y0013100D03*
X0036450Y0003300D03*
X0035900Y0003100D03*
X0022050Y0008650D03*
G54D111*
X0000000Y0000000D03*
X0047638D03*
Y0080311D03*
X0000000D03*
G54D112*
X0042323Y0079524D03*
X0006299D03*
X0002854Y0051193D03*
X0030315Y0040516D03*
X0044291Y0058953D03*
G54D113*
X0041338Y0079524D03*
X0005315D03*
X0002854Y0050209D03*
X0030315Y0041500D03*
X0044291Y0057968D03*
M02*
