%
T1C0.0079F200S100
X-027000Y000500
X-024900Y-001550
X-021750Y002400
X-021500Y001700
X-021450Y003850
X-020750Y-000700
X-020500Y-001000
X-020500Y001800
X-020000Y003250
X-019550Y001400
X-019500Y-000700
X-019250Y003250
X-019100Y-000650
X-018500Y001450
X-017750Y001500
X-018500Y003250
X-016350Y001000
X-015750Y004950
X-015250Y-000550
X-014600Y003100
X-014600Y003450
X-014500Y001000
X-014250Y003100
X-013900Y001100
X-013250Y003735
X-012750Y003450
X-012600Y001700
X-012750Y006750
X-011750Y005950
X-011600Y002280
X-011250Y006900
X-011200Y003250
X-011150Y004300
X-011150Y004700
X-011150Y007200
X-011100Y008850
X-010950Y005300
X-010900Y001400
X-010900Y002900
X-010900Y005800
X-010750Y007900
X-010650Y008350
X-010500Y002600
X-010500Y005000
X-010350Y009650
X-010250Y003000
X-010250Y005250
X-009900Y005250
X-009700Y002600
X-009650Y005500
X-009600Y007300
X-009600Y008200
X-009350Y001000
X-009300Y001400
X-009200Y012050
X-009100Y009200
X-009000Y001000
X-009000Y016000
X-008950Y002600
X-008800Y004850
X-008700Y015900
X-008600Y015450
X-008550Y005900
X-008500Y009900
X-008500Y010650
X-008400Y003050
X-008250Y009200
X-008200Y000700
X-008150Y005350
X-008150Y005950
X-008114Y004864
X-008100Y002550
X-008000Y004000
X-007950Y013900
X-007900Y011200
X-007900Y013100
X-007900Y015700
X-007850Y006970
X-007800Y004350
X-007800Y006100
X-007750Y002220
X-007700Y013500
X-007500Y011750
X-007700Y015400
X-007450Y013100
X-007450Y013900
X-007400Y006150
X-007400Y015550
X-007250Y010000
X-007200Y013500
X-007150Y007200
X-007120Y011322
X-007000Y008750
X-006900Y007900
X-007000Y013100
X-007000Y013900
X-006760Y006460
X-006750Y013500
X-006600Y005220
X-006550Y004400
X-006600Y011650
X-006550Y013100
X-006550Y013900
X-006500Y000750
X-006400Y005750
X-006500Y009400
X-006250Y009750
X-006100Y016300
X-006100Y016650
X-006050Y011650
X-006000Y004750
X-006000Y006500
X-006000Y013500
X-005850Y002950
X-005720Y001600
X-005650Y016900
X-005600Y004650
X-005600Y005350
X-005550Y009400
X-005500Y014701
X-005500Y017850
X-005450Y012600
X-005200Y005200
X-005170Y008100
X-005100Y007250
X-005100Y012600
X-005000Y010100
X-005000Y010900
X-005000Y011750
X-005000Y012303
X-004860Y016090
X-004850Y009500
X-004800Y005350
X-004800Y007900
X-004850Y017800
X-004750Y009900
X-004650Y012300
X-004600Y002780
X-004500Y003500
X-004500Y006500
X-004500Y010350
X-004500Y010750
X-004500Y016900
X-004600Y017400
X-004350Y011600
X-004335Y005214
X-004200Y015500
X-004150Y006500
X-004150Y007800
X-004150Y008250
X-004150Y008600
X-004050Y012050
X-004000Y010400
X-004000Y011000
X-004050Y015800
X-003850Y011550
X-003600Y001600
X-003600Y010450
X-003550Y002000
X-003500Y017850
X-003400Y011450
X-003400Y011800
X-003400Y012300
X-003000Y014701
X-002950Y012550
X-002900Y017850
X-002850Y016200
X-002750Y003500
X-002750Y006300
X-002680Y003100
X-002650Y007900
X-002600Y008950
X-002600Y009750
X-002500Y001200
X-002450Y015350
X-002350Y016400
X-002350Y016900
X-002450Y017850
X-001950Y013100
X-001950Y013900
X-001800Y004550
X-001800Y007100
X-001800Y015300
X-001750Y009100
X-001650Y010000
X-001750Y013500
X-001550Y001600
X-001500Y004000
X-001500Y013100
X-001500Y013900
X-001350Y011400
X-001350Y011750
X-001300Y006450
X-001300Y013500
X-001200Y007600
X-001200Y009700
X-001050Y013100
X-001050Y013900
X-000950Y009200
X-000900Y011350
X-000900Y015600
X-000950Y016250
X-000850Y017250
X-000800Y013500
X-000720Y002390
X-000620Y006450
X-000600Y013100
X-000600Y013900
X-000500Y011750
X-000600Y016250
X-000400Y017400
X-000350Y001680
X-000300Y007600
X-000250Y003800
X-000250Y016250
X000000Y013500
X000050Y009600
X000450Y006550
X000500Y014701
X000530Y002400
X000550Y005450
X000550Y009750
X000600Y008530
X000800Y011200
X000900Y003550
X001000Y006050
X001000Y006500
X000900Y009200
X000900Y012050
X000900Y012400
X001150Y016150
X001220Y002400
X001250Y004000
X001350Y011500
X001250Y012050
X001250Y015300
X001500Y007800
X001550Y016150
X001500Y018000
X001750Y007000
X001750Y008900
X001750Y009550
X001750Y010050
X001800Y011850
X001750Y012550
X001850Y011500
X002000Y016150
X002050Y018000
X002100Y010550
X002100Y016750
X002150Y010050
X002250Y008000
X002150Y012600
X002300Y009700
X002550Y009200
X002650Y012600
X002750Y014701
X003000Y006600
X003000Y007900
X003000Y008250
X003000Y009650
X003250Y015250
X003000Y017900
X003400Y008500
X003500Y011450
X003500Y017900
X003550Y009900
X003600Y017400
X003750Y006600
X003750Y007900
X003800Y011100
X003800Y013100
X003800Y013900
X003800Y016090
X003850Y009000
X003900Y009500
X004000Y013500
X004000Y017400
X004000Y017900
X004200Y008300
X004250Y013100
X004250Y013900
X004277Y010600
X004350Y011700
X004400Y011200
X004500Y008720
X004600Y011450
X004500Y013500
X004650Y009000
X004750Y013100
X004750Y013900
X004950Y013500
X005000Y008000
X005000Y010000
X005000Y010350
X005200Y013100
X005200Y013900
X005250Y006600
X005250Y015650
X005250Y017900
X005400Y-001750
X005400Y009200
X005500Y010220
X005650Y013500
X005700Y017900
X005800Y016000
X005900Y017400
X006250Y004000
X006400Y006800
X006250Y014701
X006250Y015150
X006500Y012303
X006700Y009650
X006750Y010500
X006750Y011400
X006800Y011900
X006900Y003900
X007050Y002950
X007150Y009200
X007200Y010900
X007250Y004850
X007350Y010000
X007450Y010500
X007500Y003300
X007500Y007900
X007500Y008250
X007500Y012350
X007800Y005100
X007900Y007850
X007800Y012050
X008050Y011500
X008100Y000400
X008100Y009850
X008100Y012750
X008150Y003000
X008500Y008200
X008500Y012600
X008550Y003300
X008600Y009750
X008800Y006600
X009000Y008000
X008800Y009200
X009100Y010350
X009200Y-001800
X009250Y009750
X009350Y008000
X009447Y-000500
X009450Y011400
X009550Y011100
X009650Y010350
X009700Y-001550
X009700Y-000050
X009700Y004250
X009700Y008000
X009750Y008700
X009850Y-000500
X009950Y000950
X010000Y002700
X010100Y006700
X010000Y010850
X010150Y-000350
X010350Y-001500
X010350Y-000100
X010350Y004000
X010350Y004700
X010350Y005550
X010400Y006850
X010400Y010250
X010500Y-000500
X010500Y003000
X010500Y009000
X010500Y009600
X010500Y010850
X010750Y-000200
X010982Y002832
X011000Y-002000
X011050Y010450
X011100Y004450
X011150Y008150
X011150Y010000
X011200Y008500
X011300Y-000500
X011350Y002780
X011400Y009200
X011450Y004450
X011600Y000050
X011700Y008150
X011750Y001100
X011750Y005200
X011750Y005600
X011750Y006750
X011800Y004100
X011800Y004450
X012050Y008500
X011800Y009000
X012100Y000100
X012500Y-001900
X012550Y004150
X012800Y002000
X012850Y-001750
X013000Y008500
X013100Y003250
X013250Y004150
X013300Y005900
X013300Y009050
X013450Y009450
X013500Y-001800
X013500Y001750
X013550Y002300
X013500Y003250
X013550Y004050
X013500Y006300
X013600Y-000850
X013700Y004800
X013600Y008800
X013600Y009150
X013800Y-000200
X013900Y-001850
X013950Y008550
X013950Y008900
X013950Y009300
X014050Y003200
X014050Y004900
X014100Y002650
X014350Y008550
X014350Y008900
X014400Y003200
X014450Y-001250
X014500Y-000300
X014950Y-000400
X014950Y002250
X014500Y005900
X014950Y006600
X014500Y007900
X015000Y003500
X015100Y-001250
X015250Y-000500
X015250Y000500
X015250Y004500
X015400Y007400
X015700Y000150
X015750Y004500
X016000Y-001500
X016150Y006000
X016300Y-000050
X016400Y-001900
X016541Y004050
X016600Y-000200
X016700Y001250
X016700Y002350
X016800Y004300
X016900Y-001900
X017000Y000100
X016900Y003550
X016900Y003900
X017000Y004850
X017150Y004100
X017200Y-000150
X017200Y000350
X017200Y001950
X017200Y004550
X017200Y005150
X017300Y-001900
X017500Y002750
X017800Y-001800
X018550Y004050
X018550Y004550
X018550Y005000
X018550Y005450
X018600Y-000700
X018600Y-000250
X019000Y-000450
X019000Y000000
X018600Y000200
X018600Y000650
X019000Y000450
X019000Y004250
X019000Y004750
X019000Y005200
X019000Y006000
X019400Y-000700
X019400Y-000250
X019400Y000200
X019400Y000650
X020201Y-001750
X020201Y001750
X020201Y003000
X019400Y004050
X019400Y004550
X019400Y005000
X019400Y005450
X020800Y002800
X020850Y001550
X020800Y006150
X020900Y-001700
X021000Y004300
X021200Y003450
X021200Y005200
X021300Y-001050
X021300Y-000550
X021300Y000600
X021400Y002850
X021650Y-001350
X021650Y003450
X022800Y-001350
X022900Y003450
X022900Y005900
X022900Y006300
X022950Y001400
X022950Y001850
X022950Y002200
X023150Y-001350
X023300Y001400
X023300Y001850
X023300Y002200
X023350Y005900
X023350Y006300
X023400Y003450
X023400Y004000
X023400Y005250
X023500Y-001350
X023650Y000500
X023650Y001400
X023650Y001850
X023650Y002200
X023800Y005950
X023800Y006300
X024000Y001400
X024000Y001850
X024000Y002200
T2C0.0354F200S100
X-012574Y-000893
X-012574Y-000106
X-011787Y-000893
X-011787Y-000106
X-011000Y-000893
X-011000Y-000106
X-010213Y-000893
X-010213Y-000106
X-009425Y-000893
X-009425Y-000106
X-005500Y018750
X-004713Y018750
X-003925Y018750
X-003138Y018750
X-001000Y018750
X-000213Y018750
X000575Y018750
X001362Y018750
X003500Y018750
X003750Y005750
X004287Y018750
X004537Y005750
X005075Y018750
X005325Y005750
X005862Y018750
X024750Y-000250
X025537Y-000250
X025537Y005250
X024750Y005250
X026325Y-000250
X027112Y-000250
X027112Y005250
X026325Y005250
T5C0.0512F200S100
X006516Y-000734
X007500Y000250
X006516Y001234
X007500Y002218
X008484Y-000734
X008484Y001234
T3C0.0433F200S100
X-022500Y004500
X-022500Y005500
X-021500Y004500
X-021500Y005500
X-020500Y004500
X-020500Y005500
X-017203Y005750
X-016218Y005750
X-015234Y005750
X-014250Y005750
X008500Y004000
X008500Y005000
X008500Y006000
T4C0.0472F200S100
X002500Y001000
X004000Y001000
T6C0.1260F200S100
X-025984Y002756
X-007874Y017323
X000000Y000000
X007874Y017323
X025984Y002756
M30
