%
T1C0.0079F200S100
X-003250Y035250
X-003000Y035500
X-002900Y005350
X-002850Y017500
X-002850Y032250
X-002800Y009600
X-002750Y013500
X-002650Y020350
X-002550Y015450
X-002500Y004700
X-002450Y006000
X-002500Y008350
X-002500Y035050
X-002350Y011100
X-002250Y022750
X-002200Y005400
X-002150Y015000
X-002150Y020350
X-002200Y035250
X-002050Y004250
X-002050Y009750
X-002050Y015750
X-001900Y-008150
X-001900Y001650
X-001900Y035350
X-001850Y006300
X-001800Y009550
X-001850Y017750
X-001700Y020250
X-001650Y-008470
X-001650Y001350
X-001650Y002250
X-001600Y013050
X-001550Y035300
X-001500Y003250
X-001250Y-005350
X-001250Y002650
X-001200Y012100
X-001100Y020350
X-000950Y009500
X-000950Y009850
X-000750Y002850
X-000950Y017550
X-000700Y017750
X-000500Y-005350
X-000447Y009500
X-000447Y018750
X-000250Y040500
X-000250Y045750
X-000150Y010250
X-000100Y011000
X-000100Y011750
X-000150Y021150
X-000050Y047300
X000050Y010500
X000200Y009500
X000250Y-005350
X000250Y019050
X000250Y021450
X000350Y042250
X000400Y010450
X000650Y009850
X000650Y010200
X000700Y012550
X000750Y010800
X000750Y011701
X000800Y044750
X000750Y045600
X000850Y020400
X000950Y047700
X001050Y011000
X001050Y018500
X001100Y020650
X001200Y021300
X001250Y-001500
X001250Y006900
X001250Y020951
X001250Y024650
X001500Y016000
X001550Y019300
X001550Y019650
X001550Y020000
X001650Y021900
X001750Y012550
X001750Y014900
X001750Y042500
X001650Y049750
X001800Y010050
X001800Y010500
X001800Y010950
X002050Y016400
X002150Y008700
X002200Y046380
X002250Y007250
X002300Y019300
X002300Y019750
X002300Y020200
X002250Y045250
X002400Y-007100
X002400Y002350
X002500Y010050
X002500Y010500
X002500Y010950
X002500Y015100
X002600Y017700
X002650Y-009450
X002650Y005700
X002750Y016450
X002850Y017450
X002750Y042500
X002750Y044350
X002750Y045750
X002900Y023750
X002900Y026560
X002900Y027700
X002950Y006550
X002950Y075760
X003000Y019300
X003000Y019750
X003000Y020200
X003050Y016350
X003200Y010050
X003200Y010500
X003200Y010950
X003250Y007000
X003250Y015150
X003300Y008400
X003350Y005400
X003350Y012550
X003450Y008700
X003500Y006300
X003500Y006650
X003500Y014900
X003500Y016000
X003450Y017750
X003600Y005600
X003700Y005050
X003700Y017500
X003700Y019300
X003700Y019800
X003700Y020200
X003750Y021900
X004000Y003250
X004000Y005150
X004000Y006850
X004050Y049750
X004150Y015250
X004200Y-003100
X004200Y-001350
X004200Y000400
X004249Y009299
X004200Y012100
X004350Y003100
X004350Y003450
X004350Y011701
X004400Y013000
X004550Y-006750
X004550Y-006250
X004650Y010250
X004650Y011000
X004700Y009650
X004700Y016350
X004750Y020951
X004800Y021400
X004850Y018050
X004850Y078300
X004850Y080700
X004901Y016701
X004950Y001950
X004950Y013300
X005000Y010250
X005000Y011250
X005100Y004000
X005100Y008000
X005100Y012550
X005150Y-008750
X005150Y009950
X005250Y016800
X005250Y017610
X005300Y-007900
X005300Y005100
X005400Y014500
X005300Y015750
X005500Y008650
X005500Y012550
X005500Y013050
X005550Y-007450
X005550Y000250
X005550Y006000
X005550Y007350
X005750Y002750
X005850Y012550
X005850Y013050
X005900Y-009450
X006050Y006000
X006100Y-008100
X006250Y008250
X006350Y009500
X006500Y010050
X006350Y016300
X006500Y021900
X006600Y012000
X006650Y009400
X006650Y010400
X006750Y076250
X006850Y008800
X006850Y010950
X006850Y016550
X006900Y014290
X006900Y014900
X006900Y016050
X007000Y008150
X007100Y019000
X007150Y-007300
X007150Y001400
X007350Y009150
X007350Y009950
X007350Y011400
X007450Y-007500
X007450Y005750
X007450Y018250
X007350Y075720
X007650Y009750
X007800Y008500
X007800Y018900
X008050Y-007850
X008100Y014000
X008050Y018250
X008100Y019700
X008150Y004530
X008430Y006080
X008450Y009950
X008500Y-006750
X008550Y005500
X008600Y013350
X008550Y017600
X008650Y009650
X008750Y003150
X008850Y011150
X008850Y016850
X008900Y075720
X008950Y-011510
X009000Y-008700
X008950Y003400
X009050Y010900
X009100Y008550
X009250Y-008450
X009450Y004900
X009250Y019200
X009250Y021500
X009450Y077380
X009600Y008550
X009600Y009750
X009650Y017150
X009600Y076970
X009750Y015750
X009900Y002350
X009900Y014100
X009950Y006650
X009950Y007550
X009950Y007950
X009951Y008550
X010000Y-008250
X010100Y011200
X010100Y014350
X010000Y016350
X010000Y019350
X010150Y015950
X010250Y004000
X010350Y001650
X010450Y-006450
X010450Y009500
X010500Y-008650
X010500Y011200
X010550Y013000
X010650Y010450
X010750Y-006750
X010750Y-005650
X010750Y013250
X010900Y-001500
X010900Y006800
X010950Y009950
X011001Y011701
X011050Y006150
X011050Y012550
X011050Y075600
X011100Y-003550
X011100Y007050
X011140Y014660
X011150Y-005250
X011200Y001000
X011200Y001400
X011300Y-002250
X011350Y-002900
X011350Y000250
X011400Y-000700
X011450Y-006700
X011450Y019400
X011500Y-001850
X011600Y006600
X011650Y007750
X011750Y077500
X011800Y000850
X011850Y002850
X011850Y017650
X011900Y002300
X011950Y-008150
X011950Y000300
X011950Y005500
X012000Y012550
X012050Y-000250
X012050Y010050
X012050Y010500
X012050Y010950
X012150Y000850
X012150Y007750
X012250Y-006800
X012400Y006400
X012400Y008700
X012500Y001300
X012500Y077500
X012550Y000050
X012550Y006100
X012750Y010050
X012750Y010500
X012750Y010950
X012800Y008750
X012850Y-009200
X012850Y001000
X012850Y007750
X013000Y-008150
X013050Y-006650
X013200Y013850
X013250Y004000
X013250Y007100
X013250Y015400
X013450Y010050
X013450Y010500
X013450Y010950
X013450Y012550
X013500Y005100
X013750Y-008150
X014000Y004750
X014000Y007750
X014200Y-006550
X014200Y011100
X014250Y014000
X014400Y008850
X014500Y-008150
X014500Y011701
X014600Y003650
X014650Y009350
X014650Y009700
X014800Y016150
X014850Y-011000
X014900Y008550
X014950Y001800
X015000Y010250
X015130Y014650
X015150Y007400
X015500Y-008900
X015500Y004500
X015500Y005000
X015500Y008150
X015650Y-007768
X015650Y-006268
X015750Y006650
X015750Y016500
X015800Y-008350
X015850Y-007500
X015900Y-010439
X015950Y007950
X016000Y012550
X016500Y005800
X016552Y-010450
X016600Y009500
X016650Y-006850
X016700Y-006250
X016750Y-007300
X016850Y-000750
X016750Y010250
X016900Y-008200
X017000Y-008500
X017150Y005850
X017500Y-011000
X017500Y-008050
X017600Y-009530
X018000Y-008150
X018000Y-006750
X018000Y005500
X018000Y008250
X018350Y-010950
X018450Y004050
X018750Y-010000
X018750Y-008450
X018800Y-002350
X018850Y002650
X018850Y005050
X019050Y008700
X019150Y-007780
X019200Y-011500
X019550Y-007750
X019650Y004050
X019800Y007600
X020000Y002250
X020100Y017650
X020150Y-007250
X020350Y004150
X020470Y008800
X020550Y-008400
X020750Y002250
X020850Y-006400
X020850Y009400
X020900Y010850
X020900Y015400
X020950Y-005500
X021100Y005750
X020950Y009100
X021200Y008300
X021350Y-010750
X021350Y-001000
X021350Y004200
X021450Y009900
X021450Y013750
X021550Y-004100
X021550Y005400
X021600Y-010450
X021750Y001350
X021850Y010550
X021850Y011750
X021900Y007000
X022000Y-000200
X022050Y008650
X022100Y005900
X022200Y011000
X022200Y011350
X022250Y-008950
X022250Y002700
X022250Y005400
X022350Y008350
X022500Y007650
X022650Y005400
X022750Y-006450
X022750Y002250
X022820Y011530
X022850Y007600
X023000Y-004800
X023000Y008350
X023100Y001800
X023100Y004050
X023200Y-002850
X023200Y008600
X023350Y002050
X023350Y007350
X023500Y-009550
X023500Y-001850
X023600Y007850
X023700Y006700
X023720Y-011530
X023750Y000700
X023750Y007250
X023750Y008450
X023900Y006950
X023950Y-005550
X024000Y-001100
X024050Y006000
X024000Y008250
X024250Y-006500
X024250Y-001450
X024350Y005800
X024250Y007550
X024350Y008250
X024250Y010250
X024400Y006700
X024400Y007050
X024450Y-000700
X024550Y-002750
X024550Y-001000
X024650Y009050
X024700Y000450
X024700Y004850
X024750Y013250
X024800Y004300
X024850Y002800
X024950Y002450
X024950Y003650
X025050Y-011100
X025200Y-010800
X025550Y-003400
X025550Y008450
X025550Y017050
X025650Y007600
X025700Y010800
X026050Y-000200
X026100Y-010570
X026100Y-008000
X026100Y008400
X026100Y016800
X026250Y-011750
X026350Y003000
X026550Y002350
X026750Y011250
X026900Y008400
X027050Y-001950
X027500Y003500
X027500Y004000
X027500Y007000
X027550Y-006400
X027550Y007750
X027800Y007350
X027800Y013500
X027950Y-009000
X027950Y-007250
X028450Y-002450
X028550Y-000150
X028450Y009050
X028700Y005200
X028950Y005650
X028700Y005750
X028700Y006200
X028700Y011900
X028700Y012550
X028950Y012550
X028700Y013200
X029114Y041900
X029250Y-002450
X029250Y005200
X029250Y006200
X029250Y011900
X029250Y012550
X029250Y013200
X029300Y017200
X029350Y005750
X029400Y007050
X029400Y007400
X029400Y008100
X029400Y009200
X029500Y-007000
X029550Y009950
X029550Y010650
X029550Y015900
X029800Y001250
X029850Y000450
X030000Y-000550
X030050Y-002250
X030250Y000950
X030250Y004350
X030350Y006300
X030500Y000750
X030500Y004600
X030700Y002850
X030850Y001850
X030700Y006300
X030950Y-001000
X030950Y-000500
X031000Y000000
X031000Y002750
X031050Y000550
X031200Y003100
X031050Y004450
X031250Y001350
X031350Y004350
X031400Y-001450
X031516Y041900
X031650Y000000
X031800Y003000
X031800Y003500
X031800Y004200
X031850Y000600
X031850Y002500
X031900Y-002150
X031950Y001950
X032100Y-001550
X032250Y-001150
X032350Y000280
X032250Y006250
X032250Y076100
X032400Y003650
X032650Y003450
X032750Y-004150
X032850Y-002450
X032750Y033250
X032750Y080250
X032900Y-003850
X033050Y002550
X033050Y005150
X033050Y006400
X033300Y001050
X033400Y002550
X033400Y003450
X033500Y000300
X033550Y005000
X033650Y-000850
X033700Y003850
X033750Y076000
X033850Y075400
X033750Y080250
X033900Y032780
X034200Y003750
X034250Y076750
X034420Y078120
X034553Y002250
X034900Y033700
X034950Y001400
X034950Y002100
X035100Y002600
X034950Y032620
X035150Y003200
X035350Y-006800
X035350Y-005200
X035400Y001650
X035500Y034650
X035650Y-000750
X035650Y001850
X035700Y002850
X035700Y004950
X035650Y006300
X035750Y004050
X035750Y004451
X035900Y003100
X036000Y077250
X036000Y079000
X036150Y-000350
X036150Y000500
X036150Y075720
X036200Y-001350
X036250Y-004150
X036450Y-003850
X036450Y003300
X036500Y034050
X036500Y035150
X036570Y-001400
X036600Y006100
X036750Y076250
X036800Y002800
X036800Y003250
X036800Y003700
X036900Y-009600
X036900Y-001300
X036950Y005650
X037000Y077350
X037050Y008900
X037150Y-004450
X037200Y-003800
X037150Y001450
X037150Y006100
X037350Y008300
X037400Y-003550
X037400Y-001720
X037400Y-000400
X037400Y001250
X037350Y020400
X037500Y002800
X037500Y003250
X037500Y003700
X037600Y000470
X037600Y013100
X037500Y033500
X037650Y-000600
X037700Y-002550
X037650Y007000
X037750Y007900
X037770Y-006780
X037800Y-008600
X037950Y-000750
X037970Y-000400
X038200Y002800
X038200Y003250
X038200Y003700
X038300Y015600
X038350Y000000
X038350Y006400
X038500Y033000
X038650Y-005470
X038650Y-004220
X038650Y-003550
X038500Y075750
X038700Y002600
X038750Y000750
X038750Y016050
X038750Y018500
X039000Y007900
X039200Y004950
X039200Y005650
X039250Y-003400
X039285Y-005600
X039250Y-001100
X039250Y020250
X039300Y004300
X039350Y000450
X039350Y002550
X039400Y008300
X039450Y-010000
X039500Y-009500
X039600Y000250
X039500Y015750
X039650Y013350
X039750Y075800
X039800Y033350
X039850Y001850
X039850Y003050
X039850Y004050
X039850Y015970
X039900Y004850
X039900Y007300
X039930Y015600
X040150Y-001650
X040200Y003800
X040250Y000100
X040250Y001800
X040400Y005500
X040400Y005850
X040250Y007650
X040600Y-002150
X040750Y005650
X040750Y019250
X040800Y075800
X040850Y078300
X040850Y080700
X040900Y-001850
X041200Y005450
X041200Y005850
X041250Y014250
X041250Y015250
X041350Y002500
X041400Y000700
X041400Y001280
X041450Y-002700
X041450Y001750
X041450Y002100
X041450Y008000
X041450Y009650
X041500Y032100
X041650Y005450
X041650Y005850
X041800Y002250
X042050Y021500
X042150Y-002950
X042250Y000450
X042250Y032100
X042300Y051300
X042400Y016000
X042450Y016800
X042450Y017150
X042500Y002100
X042500Y007350
X042500Y012100
X042500Y015400
X042450Y035350
X042600Y040550
X042750Y022250
X042750Y034850
X042850Y049050
X043000Y020750
X043100Y008700
X043120Y053950
X043100Y057500
X043200Y001000
X043250Y-004950
X043250Y040000
X043300Y007350
X043300Y011250
X043350Y032150
X043400Y012100
X043500Y077650
X043600Y031850
X043650Y054470
X043700Y002350
X043750Y003350
X043750Y006900
X043750Y008400
X043750Y015400
X043750Y016400
X043700Y022400
X043800Y-003800
X043900Y011900
X043950Y010000
X044000Y037600
X044005Y052955
X044005Y055495
X044150Y008400
X044150Y008950
X044250Y034750
X044300Y-004700
X044300Y-003850
X044300Y015200
X044350Y005450
X044350Y006000
X044350Y006550
X044400Y076345
X044450Y025650
X044500Y016350
X044500Y020750
X044500Y024750
X044500Y032100
X044500Y050000
X044550Y-004250
X044750Y005650
X044550Y017450
X044750Y018800
X044750Y031650
X044750Y036700
X044750Y073500
X044800Y012450
X044800Y014050
X044850Y060000
X044900Y-004700
X044900Y-003850
X045000Y-008700
X045000Y016350
X045000Y016950
X045000Y017450
X044900Y052280
X045000Y053000
X044900Y053530
X045000Y074900
X045000Y075600
X045050Y037600
X045150Y003970
X045150Y064350
X045200Y-004250
X045200Y001900
X045200Y003650
X045250Y005500
X045250Y022750
X045300Y029600
X045350Y018750
X045350Y039000
X045300Y061700
X045400Y034800
X045450Y-004700
X045450Y-003850
X045450Y036500
X045450Y048750
X045500Y004400
X045549Y011500
X045549Y015000
X045500Y051500
X045500Y057500
X045500Y068750
X045500Y073150
X045500Y074900
X045500Y075600
X045553Y036000
X045600Y006250
X045600Y065000
X045650Y018950
X045750Y001950
X045750Y003250
X045650Y047750
X045800Y005250
X045850Y021050
X045850Y031950
X045800Y056100
X045850Y064350
X045900Y-003450
X045900Y008000
X045900Y008550
X045900Y009000
X045900Y009550
X045900Y018000
X045900Y018600
X045950Y037200
X045950Y038050
X045900Y038450
X045970Y027400
X046000Y074900
X046000Y075600
X046050Y007400
X046050Y026100
X046050Y031700
X046100Y034550
X046100Y049700
X046150Y036950
X046250Y011600
X046250Y014450
X046250Y014800
X046250Y051500
X046250Y063701
X046300Y012550
X046300Y013250
X046300Y013950
X046350Y015700
X046350Y018000
X046350Y018500
X046300Y055000
X046350Y061750
X046350Y075250
X046400Y008250
X046450Y053900
X046500Y017566
X046600Y009000
X046600Y049550
X046500Y056100
X046650Y-003200
X046750Y012550
X046750Y013250
X046750Y013950
X046750Y018000
X046750Y018600
X046750Y073500
X046850Y041500
X046850Y049100
X046900Y077750
X046920Y066020
X046950Y025880
X046950Y051900
X047050Y018850
X047100Y008600
X047100Y032700
X047050Y036050
X047050Y039200
X047050Y051400
X047200Y012550
X047200Y013250
X047200Y013950
X047200Y015200
X047250Y024750
X047200Y033450
X047250Y035800
X047250Y038201
X047200Y066700
X047300Y029600
X047300Y036300
X047300Y051600
X047300Y062050
X047300Y062500
X047300Y062950
X047300Y064350
X047350Y003000
X047350Y007750
X047350Y036850
X047400Y014400
X047450Y009200
X047400Y037450
X047400Y049300
X047500Y055000
X047500Y057850
X047650Y052100
X047800Y001400
X047850Y050050
X047850Y060700
X047950Y016850
X047988Y016150
X047950Y049050
X048000Y048150
X048000Y062050
X048000Y062500
X048000Y062950
X048000Y067150
X048050Y006500
X048050Y021750
X048050Y033650
X048100Y060500
X048200Y020750
X048250Y017100
X048250Y032600
X048300Y036550
X048300Y037000
X048300Y037450
X048300Y039200
X048250Y050950
X048250Y053750
X048300Y066750
X048311Y026450
X048450Y021150
X048500Y009553
X048650Y008600
X048650Y012900
X048500Y016150
X048650Y034900
X048500Y041650
X048500Y055100
X048700Y015200
X048700Y018650
X048750Y035250
X048750Y059000
X048700Y062050
X048700Y062500
X048700Y062950
X048700Y064350
X048800Y057500
X048850Y009550
X048850Y010250
X048850Y032450
X048900Y-002750
X048950Y018850
X048950Y060500
X049000Y013150
X049100Y014050
X049000Y036550
X049000Y037000
X049000Y037450
X049150Y007100
X049250Y017000
X049250Y029500
X049150Y062100
X049300Y008100
X049350Y048750
X049350Y054100
X049450Y021450
X049500Y019200
X049450Y029850
X049500Y031750
X049500Y033150
X049500Y033500
X049500Y057300
X049550Y021750
X049600Y052450
X049700Y036550
X049700Y037000
X049700Y037450
X049750Y017300
X049750Y035250
X049750Y051350
X049750Y059750
X049700Y060750
X049750Y063701
X049950Y007550
X050000Y011500
X050000Y023400
X050000Y029650
X050000Y041650
X049950Y055400
X049950Y057150
X049950Y058900
X049950Y063250
X050050Y-007050
X050100Y016400
X050200Y-002400
X050200Y031400
X050250Y033350
X050250Y034250
X050200Y039200
X050200Y064150
X050291Y031909
X050300Y051350
X050400Y065000
X050450Y007250
X050450Y008350
X050500Y013500
X050550Y014000
X050500Y059000
X050553Y049750
X050600Y030500
X050600Y044850
X050600Y046431
X050650Y014500
X050700Y018650
X050650Y051350
X050750Y023500
X050850Y013850
X050750Y038201
X050850Y040650
X050850Y057600
X050850Y060450
X050750Y061650
X050900Y012500
X051000Y033200
X051000Y033600
T4C0.0433F200S100
X030000Y-010750
X030000Y-009750
X031000Y-010750
X031000Y-009750
X032000Y-010750
X032000Y-009750
X041250Y-001000
X042250Y-001000
X043250Y-001000
T2C0.0315F200S100
X034425Y-010893
X034425Y-010106
X035213Y-010893
X035213Y-010106
X036000Y-010893
X036000Y-010106
X036787Y-010893
X036787Y-010106
X037574Y-010893
X037574Y-010106
T8C0.0630F200S100
X047653Y-010250
X050346Y-010250
T5C0.0472F200S100
X046531Y-007250
X047516Y-008234
X047516Y-006266
X048500Y-007250
X048508Y-010250
X049484Y-008234
X049484Y-006266
X049492Y-010250
T9C0.1181F200S100
X000000Y000000
X047638Y000000
X047638Y080311
X000000Y080311
M30
